G04 #@! TF.GenerationSoftware,KiCad,Pcbnew,(5.0.0)*
G04 #@! TF.CreationDate,2018-10-04T19:52:15-05:00*
G04 #@! TF.ProjectId,TIVA SMD Header Guide,5449564120534D442048656164657220,rev?*
G04 #@! TF.SameCoordinates,Original*
G04 #@! TF.FileFunction,Copper,L2,Bot,Signal*
G04 #@! TF.FilePolarity,Positive*
%FSLAX46Y46*%
G04 Gerber Fmt 4.6, Leading zero omitted, Abs format (unit mm)*
G04 Created by KiCad (PCBNEW (5.0.0)) date 10/04/18 19:52:15*
%MOMM*%
%LPD*%
G01*
G04 APERTURE LIST*
G04 #@! TA.AperFunction,ComponentPad*
%ADD10C,1.520000*%
G04 #@! TD*
G04 #@! TA.AperFunction,NonConductor*
%ADD11C,0.254000*%
G04 #@! TD*
G04 APERTURE END LIST*
D10*
G04 #@! TO.P,REF\002A\002A,+3V3*
G04 #@! TO.N,N/C*
X139446000Y-106553000D03*
G04 #@! TO.P,REF\002A\002A,PM6*
X162306000Y-60833000D03*
G04 #@! TO.P,REF\002A\002A,PQ1*
X159766000Y-60833000D03*
G04 #@! TO.P,REF\002A\002A,PQ2*
X152146000Y-60833000D03*
G04 #@! TO.P,REF\002A\002A,PK0*
X149606000Y-104013000D03*
G04 #@! TO.P,REF\002A\002A,PQ3*
X154686000Y-60833000D03*
G04 #@! TO.P,REF\002A\002A,PP3*
X157226000Y-60833000D03*
G04 #@! TO.P,REF\002A\002A,PQ0*
X154686000Y-106553000D03*
G04 #@! TO.P,REF\002A\002A,PA4*
X159766000Y-104013000D03*
G04 #@! TO.P,REF\002A\002A,Rese*
X149606000Y-60833000D03*
G04 #@! TO.P,REF\002A\002A,PA7*
X147066000Y-60833000D03*
G04 #@! TO.P,REF\002A\002A,PN5*
X159766000Y-106553000D03*
G04 #@! TO.P,REF\002A\002A,PK2*
X154686000Y-104013000D03*
G04 #@! TO.P,REF\002A\002A,PK1*
X152146000Y-104013000D03*
G04 #@! TO.P,REF\002A\002A,+5V*
X139446000Y-104013000D03*
G04 #@! TO.P,REF\002A\002A,GND*
X141986000Y-104013000D03*
G04 #@! TO.P,REF\002A\002A,PB4*
X144526000Y-104013000D03*
G04 #@! TO.P,REF\002A\002A,PB5*
X147066000Y-104013000D03*
G04 #@! TO.P,REF\002A\002A,PK3*
X157226000Y-104013000D03*
G04 #@! TO.P,REF\002A\002A,PA5*
X162306000Y-104013000D03*
G04 #@! TO.P,REF\002A\002A,PD2*
X141986000Y-106553000D03*
G04 #@! TO.P,REF\002A\002A,PP0*
X144526000Y-106553000D03*
G04 #@! TO.P,REF\002A\002A,PP1*
X147066000Y-106553000D03*
G04 #@! TO.P,REF\002A\002A,PD4*
X149606000Y-106553000D03*
G04 #@! TO.P,REF\002A\002A,PD5*
X152146000Y-106553000D03*
G04 #@! TO.P,REF\002A\002A,PP4*
X157226000Y-106553000D03*
G04 #@! TO.P,REF\002A\002A,PN4*
X162306000Y-106553000D03*
G04 #@! TO.P,REF\002A\002A,PG1*
X139446000Y-63373000D03*
G04 #@! TO.P,REF\002A\002A,PK4*
X141986000Y-63373000D03*
G04 #@! TO.P,REF\002A\002A,PK5*
X144526000Y-63373000D03*
G04 #@! TO.P,REF\002A\002A,PM0*
X147066000Y-63373000D03*
G04 #@! TO.P,REF\002A\002A,PM1*
X149606000Y-63373000D03*
G04 #@! TO.P,REF\002A\002A,PM2*
X152146000Y-63373000D03*
G04 #@! TO.P,REF\002A\002A,PH0*
X154686000Y-63373000D03*
G04 #@! TO.P,REF\002A\002A,PH1*
X157226000Y-63373000D03*
G04 #@! TO.P,REF\002A\002A,PK6*
X159766000Y-63373000D03*
G04 #@! TO.P,REF\002A\002A,PK7*
X162306000Y-63373000D03*
G04 #@! TO.P,REF\002A\002A,GND*
X139446000Y-60833000D03*
G04 #@! TO.P,REF\002A\002A,PM7*
X141986000Y-60833000D03*
G04 #@! TO.P,REF\002A\002A,PP5*
X144526000Y-60833000D03*
G04 #@! TO.P,REF\002A\002A,+5V*
X75946000Y-104013000D03*
G04 #@! TO.P,REF\002A\002A,GND*
X78486000Y-104013000D03*
G04 #@! TO.P,REF\002A\002A,PE0*
X81026000Y-104013000D03*
G04 #@! TO.P,REF\002A\002A,PE1*
X83566000Y-104013000D03*
G04 #@! TO.P,REF\002A\002A,PE2*
X86106000Y-104013000D03*
G04 #@! TO.P,REF\002A\002A,PE3*
X88646000Y-104013000D03*
G04 #@! TO.P,REF\002A\002A,PD7*
X91186000Y-104013000D03*
G04 #@! TO.P,REF\002A\002A,PA6*
X93726000Y-104013000D03*
G04 #@! TO.P,REF\002A\002A,PM4*
X96266000Y-104013000D03*
G04 #@! TO.P,REF\002A\002A,PM5*
X98806000Y-104013000D03*
G04 #@! TO.P,REF\002A\002A,+3V3*
X75946000Y-106553000D03*
G04 #@! TO.P,REF\002A\002A,PE4*
X78486000Y-106553000D03*
G04 #@! TO.P,REF\002A\002A,PC4*
X81026000Y-106553000D03*
G04 #@! TO.P,REF\002A\002A,PC5*
X83566000Y-106553000D03*
G04 #@! TO.P,REF\002A\002A,PC6*
X86106000Y-106553000D03*
G04 #@! TO.P,REF\002A\002A,PE5*
X88646000Y-106553000D03*
G04 #@! TO.P,REF\002A\002A,PD3*
X91186000Y-106553000D03*
G04 #@! TO.P,REF\002A\002A,PC7*
X93726000Y-106553000D03*
G04 #@! TO.P,REF\002A\002A,PB2*
X96266000Y-106553000D03*
G04 #@! TO.P,REF\002A\002A,PB3*
X98806000Y-106553000D03*
G04 #@! TO.P,REF\002A\002A,PF1*
X75946000Y-63373000D03*
G04 #@! TO.P,REF\002A\002A,PF2*
X78486000Y-63373000D03*
G04 #@! TO.P,REF\002A\002A,PF3*
X81026000Y-63373000D03*
G04 #@! TO.P,REF\002A\002A,PG0*
X83566000Y-63373000D03*
G04 #@! TO.P,REF\002A\002A,PL4*
X86106000Y-63373000D03*
G04 #@! TO.P,REF\002A\002A,PL5*
X88646000Y-63373000D03*
G04 #@! TO.P,REF\002A\002A,PL0*
X91186000Y-63373000D03*
G04 #@! TO.P,REF\002A\002A,PL1*
X93726000Y-63373000D03*
G04 #@! TO.P,REF\002A\002A,PL2*
X96266000Y-63373000D03*
G04 #@! TO.P,REF\002A\002A,PL3*
X98806000Y-63373000D03*
G04 #@! TO.P,REF\002A\002A,GND*
X75946000Y-60833000D03*
G04 #@! TO.P,REF\002A\002A,PM3*
X78486000Y-60833000D03*
G04 #@! TO.P,REF\002A\002A,PH2*
X81026000Y-60833000D03*
G04 #@! TO.P,REF\002A\002A,PH3*
X83566000Y-60833000D03*
G04 #@! TO.P,REF\002A\002A,Rese*
X86106000Y-60833000D03*
G04 #@! TO.P,REF\002A\002A,PD1*
X88646000Y-60833000D03*
G04 #@! TO.P,REF\002A\002A,PD0*
X91186000Y-60833000D03*
G04 #@! TO.P,REF\002A\002A,PN2*
X93726000Y-60833000D03*
G04 #@! TO.P,REF\002A\002A,PN3*
X96266000Y-60833000D03*
G04 #@! TO.P,REF\002A\002A,PP2*
X98806000Y-60833000D03*
G04 #@! TD*
D11*
G36*
X137117070Y-107696000D02*
X101134930Y-107696000D01*
X119126000Y-87306121D01*
X137117070Y-107696000D01*
X137117070Y-107696000D01*
G37*
X137117070Y-107696000D02*
X101134930Y-107696000D01*
X119126000Y-87306121D01*
X137117070Y-107696000D01*
G36*
X118576828Y-81603726D02*
X118647047Y-81695814D01*
X118730773Y-81744492D01*
X118807792Y-81803221D01*
X118851839Y-81814880D01*
X118891231Y-81837783D01*
X118987223Y-81850717D01*
X119080843Y-81875498D01*
X119125996Y-81869414D01*
X119171156Y-81875499D01*
X119264789Y-81850714D01*
X119360769Y-81837782D01*
X119400159Y-81814881D01*
X119444207Y-81803221D01*
X119521225Y-81744493D01*
X119604953Y-81695814D01*
X119675179Y-81603717D01*
X138046717Y-60782642D01*
X138051000Y-60868001D01*
X138051000Y-61110483D01*
X138064845Y-61143909D01*
X138066659Y-61180049D01*
X138225258Y-61562941D01*
X138240183Y-61567210D01*
X138263376Y-61623204D01*
X138655796Y-62015624D01*
X138711790Y-62038817D01*
X138716059Y-62053742D01*
X138843863Y-62099320D01*
X138716059Y-62152258D01*
X138711790Y-62167183D01*
X138655796Y-62190376D01*
X138263376Y-62582796D01*
X138240183Y-62638790D01*
X138225258Y-62643059D01*
X138143794Y-62871493D01*
X138051000Y-63095517D01*
X138051000Y-63131696D01*
X138038845Y-63165780D01*
X138051000Y-63408001D01*
X138051000Y-63650483D01*
X138064845Y-63683909D01*
X138066659Y-63720049D01*
X138150873Y-63923360D01*
X138129887Y-63920561D01*
X138015283Y-63951059D01*
X137898972Y-63974195D01*
X137879529Y-63987186D01*
X137856931Y-63993200D01*
X137762720Y-64065236D01*
X137664119Y-64131119D01*
X137611852Y-64209341D01*
X120955611Y-83136890D01*
X120933766Y-83149552D01*
X120862843Y-83242308D01*
X120832799Y-83276449D01*
X120820456Y-83297744D01*
X120762201Y-83373932D01*
X120750237Y-83418887D01*
X120726907Y-83459138D01*
X120714226Y-83554207D01*
X120689562Y-83646887D01*
X120695713Y-83693000D01*
X120689562Y-83739113D01*
X120714226Y-83831793D01*
X120726907Y-83926862D01*
X120750237Y-83967113D01*
X120762201Y-84012068D01*
X120820456Y-84088256D01*
X120832799Y-84109551D01*
X120862843Y-84143692D01*
X120933766Y-84236448D01*
X120955611Y-84249110D01*
X137611852Y-103176659D01*
X137664119Y-103254881D01*
X137762720Y-103320764D01*
X137856931Y-103392800D01*
X137879529Y-103398814D01*
X137898972Y-103411805D01*
X138015283Y-103434941D01*
X138129887Y-103465439D01*
X138161732Y-103461191D01*
X138143794Y-103511493D01*
X138051000Y-103735517D01*
X138051000Y-103771696D01*
X138038845Y-103805780D01*
X138051000Y-104048001D01*
X138051000Y-104290483D01*
X138064845Y-104323909D01*
X138066659Y-104360049D01*
X138225258Y-104742941D01*
X138240183Y-104747210D01*
X138263376Y-104803204D01*
X138655796Y-105195624D01*
X138711790Y-105218817D01*
X138716059Y-105233742D01*
X138843863Y-105279320D01*
X138716059Y-105332258D01*
X138711790Y-105347183D01*
X138655796Y-105370376D01*
X138263376Y-105762796D01*
X138240183Y-105818790D01*
X138225258Y-105823059D01*
X138143794Y-106051493D01*
X138051000Y-106275517D01*
X138051000Y-106311696D01*
X138038845Y-106345780D01*
X138051000Y-106588001D01*
X138051000Y-106608212D01*
X119675179Y-85782283D01*
X119604953Y-85690186D01*
X119521225Y-85641507D01*
X119444207Y-85582779D01*
X119400159Y-85571119D01*
X119360769Y-85548218D01*
X119264789Y-85535286D01*
X119171156Y-85510501D01*
X119125996Y-85516586D01*
X119080843Y-85510502D01*
X118987223Y-85535283D01*
X118891231Y-85548217D01*
X118851839Y-85571120D01*
X118807792Y-85582779D01*
X118730773Y-85641508D01*
X118647047Y-85690186D01*
X118576828Y-85782274D01*
X100205283Y-106603359D01*
X100201000Y-106517999D01*
X100201000Y-106275517D01*
X100187155Y-106242091D01*
X100185341Y-106205951D01*
X100026742Y-105823059D01*
X100011817Y-105818790D01*
X99988624Y-105762796D01*
X99596204Y-105370376D01*
X99540210Y-105347183D01*
X99535941Y-105332258D01*
X99408137Y-105286680D01*
X99535941Y-105233742D01*
X99540210Y-105218817D01*
X99596204Y-105195624D01*
X99988624Y-104803204D01*
X100011817Y-104747210D01*
X100026742Y-104742941D01*
X100108206Y-104514507D01*
X100201000Y-104290483D01*
X100201000Y-104254304D01*
X100213155Y-104220220D01*
X100201000Y-103977999D01*
X100201000Y-103735517D01*
X100187155Y-103702091D01*
X100185341Y-103665951D01*
X100101126Y-103462639D01*
X100122113Y-103465438D01*
X100236700Y-103434944D01*
X100353028Y-103411805D01*
X100372474Y-103398812D01*
X100395068Y-103392799D01*
X100489268Y-103320772D01*
X100587881Y-103254881D01*
X100640151Y-103176654D01*
X117296391Y-84249109D01*
X117318234Y-84236448D01*
X117389154Y-84143696D01*
X117419201Y-84109552D01*
X117431544Y-84088257D01*
X117489800Y-84012068D01*
X117501764Y-83967111D01*
X117525093Y-83926863D01*
X117537774Y-83831797D01*
X117562439Y-83739113D01*
X117556288Y-83693000D01*
X117562439Y-83646887D01*
X117537774Y-83554203D01*
X117525093Y-83459137D01*
X117501764Y-83418889D01*
X117489800Y-83373932D01*
X117431544Y-83297743D01*
X117419201Y-83276448D01*
X117389154Y-83242304D01*
X117318234Y-83149552D01*
X117296391Y-83136891D01*
X100640151Y-64209346D01*
X100587881Y-64131119D01*
X100489268Y-64065228D01*
X100395068Y-63993201D01*
X100372474Y-63987188D01*
X100353028Y-63974195D01*
X100236700Y-63951056D01*
X100122113Y-63920562D01*
X100090267Y-63924810D01*
X100108206Y-63874507D01*
X100201000Y-63650483D01*
X100201000Y-63614304D01*
X100213155Y-63580220D01*
X100201000Y-63337999D01*
X100201000Y-63095517D01*
X100187155Y-63062091D01*
X100185341Y-63025951D01*
X100026742Y-62643059D01*
X100011817Y-62638790D01*
X99988624Y-62582796D01*
X99596204Y-62190376D01*
X99540210Y-62167183D01*
X99535941Y-62152258D01*
X99408137Y-62106680D01*
X99535941Y-62053742D01*
X99540210Y-62038817D01*
X99596204Y-62015624D01*
X99988624Y-61623204D01*
X100011817Y-61567210D01*
X100026742Y-61562941D01*
X100108206Y-61334507D01*
X100201000Y-61110483D01*
X100201000Y-61074304D01*
X100213155Y-61040220D01*
X100201000Y-60797999D01*
X100201000Y-60777787D01*
X118576828Y-81603726D01*
X118576828Y-81603726D01*
G37*
X118576828Y-81603726D02*
X118647047Y-81695814D01*
X118730773Y-81744492D01*
X118807792Y-81803221D01*
X118851839Y-81814880D01*
X118891231Y-81837783D01*
X118987223Y-81850717D01*
X119080843Y-81875498D01*
X119125996Y-81869414D01*
X119171156Y-81875499D01*
X119264789Y-81850714D01*
X119360769Y-81837782D01*
X119400159Y-81814881D01*
X119444207Y-81803221D01*
X119521225Y-81744493D01*
X119604953Y-81695814D01*
X119675179Y-81603717D01*
X138046717Y-60782642D01*
X138051000Y-60868001D01*
X138051000Y-61110483D01*
X138064845Y-61143909D01*
X138066659Y-61180049D01*
X138225258Y-61562941D01*
X138240183Y-61567210D01*
X138263376Y-61623204D01*
X138655796Y-62015624D01*
X138711790Y-62038817D01*
X138716059Y-62053742D01*
X138843863Y-62099320D01*
X138716059Y-62152258D01*
X138711790Y-62167183D01*
X138655796Y-62190376D01*
X138263376Y-62582796D01*
X138240183Y-62638790D01*
X138225258Y-62643059D01*
X138143794Y-62871493D01*
X138051000Y-63095517D01*
X138051000Y-63131696D01*
X138038845Y-63165780D01*
X138051000Y-63408001D01*
X138051000Y-63650483D01*
X138064845Y-63683909D01*
X138066659Y-63720049D01*
X138150873Y-63923360D01*
X138129887Y-63920561D01*
X138015283Y-63951059D01*
X137898972Y-63974195D01*
X137879529Y-63987186D01*
X137856931Y-63993200D01*
X137762720Y-64065236D01*
X137664119Y-64131119D01*
X137611852Y-64209341D01*
X120955611Y-83136890D01*
X120933766Y-83149552D01*
X120862843Y-83242308D01*
X120832799Y-83276449D01*
X120820456Y-83297744D01*
X120762201Y-83373932D01*
X120750237Y-83418887D01*
X120726907Y-83459138D01*
X120714226Y-83554207D01*
X120689562Y-83646887D01*
X120695713Y-83693000D01*
X120689562Y-83739113D01*
X120714226Y-83831793D01*
X120726907Y-83926862D01*
X120750237Y-83967113D01*
X120762201Y-84012068D01*
X120820456Y-84088256D01*
X120832799Y-84109551D01*
X120862843Y-84143692D01*
X120933766Y-84236448D01*
X120955611Y-84249110D01*
X137611852Y-103176659D01*
X137664119Y-103254881D01*
X137762720Y-103320764D01*
X137856931Y-103392800D01*
X137879529Y-103398814D01*
X137898972Y-103411805D01*
X138015283Y-103434941D01*
X138129887Y-103465439D01*
X138161732Y-103461191D01*
X138143794Y-103511493D01*
X138051000Y-103735517D01*
X138051000Y-103771696D01*
X138038845Y-103805780D01*
X138051000Y-104048001D01*
X138051000Y-104290483D01*
X138064845Y-104323909D01*
X138066659Y-104360049D01*
X138225258Y-104742941D01*
X138240183Y-104747210D01*
X138263376Y-104803204D01*
X138655796Y-105195624D01*
X138711790Y-105218817D01*
X138716059Y-105233742D01*
X138843863Y-105279320D01*
X138716059Y-105332258D01*
X138711790Y-105347183D01*
X138655796Y-105370376D01*
X138263376Y-105762796D01*
X138240183Y-105818790D01*
X138225258Y-105823059D01*
X138143794Y-106051493D01*
X138051000Y-106275517D01*
X138051000Y-106311696D01*
X138038845Y-106345780D01*
X138051000Y-106588001D01*
X138051000Y-106608212D01*
X119675179Y-85782283D01*
X119604953Y-85690186D01*
X119521225Y-85641507D01*
X119444207Y-85582779D01*
X119400159Y-85571119D01*
X119360769Y-85548218D01*
X119264789Y-85535286D01*
X119171156Y-85510501D01*
X119125996Y-85516586D01*
X119080843Y-85510502D01*
X118987223Y-85535283D01*
X118891231Y-85548217D01*
X118851839Y-85571120D01*
X118807792Y-85582779D01*
X118730773Y-85641508D01*
X118647047Y-85690186D01*
X118576828Y-85782274D01*
X100205283Y-106603359D01*
X100201000Y-106517999D01*
X100201000Y-106275517D01*
X100187155Y-106242091D01*
X100185341Y-106205951D01*
X100026742Y-105823059D01*
X100011817Y-105818790D01*
X99988624Y-105762796D01*
X99596204Y-105370376D01*
X99540210Y-105347183D01*
X99535941Y-105332258D01*
X99408137Y-105286680D01*
X99535941Y-105233742D01*
X99540210Y-105218817D01*
X99596204Y-105195624D01*
X99988624Y-104803204D01*
X100011817Y-104747210D01*
X100026742Y-104742941D01*
X100108206Y-104514507D01*
X100201000Y-104290483D01*
X100201000Y-104254304D01*
X100213155Y-104220220D01*
X100201000Y-103977999D01*
X100201000Y-103735517D01*
X100187155Y-103702091D01*
X100185341Y-103665951D01*
X100101126Y-103462639D01*
X100122113Y-103465438D01*
X100236700Y-103434944D01*
X100353028Y-103411805D01*
X100372474Y-103398812D01*
X100395068Y-103392799D01*
X100489268Y-103320772D01*
X100587881Y-103254881D01*
X100640151Y-103176654D01*
X117296391Y-84249109D01*
X117318234Y-84236448D01*
X117389154Y-84143696D01*
X117419201Y-84109552D01*
X117431544Y-84088257D01*
X117489800Y-84012068D01*
X117501764Y-83967111D01*
X117525093Y-83926863D01*
X117537774Y-83831797D01*
X117562439Y-83739113D01*
X117556288Y-83693000D01*
X117562439Y-83646887D01*
X117537774Y-83554203D01*
X117525093Y-83459137D01*
X117501764Y-83418889D01*
X117489800Y-83373932D01*
X117431544Y-83297743D01*
X117419201Y-83276448D01*
X117389154Y-83242304D01*
X117318234Y-83149552D01*
X117296391Y-83136891D01*
X100640151Y-64209346D01*
X100587881Y-64131119D01*
X100489268Y-64065228D01*
X100395068Y-63993201D01*
X100372474Y-63987188D01*
X100353028Y-63974195D01*
X100236700Y-63951056D01*
X100122113Y-63920562D01*
X100090267Y-63924810D01*
X100108206Y-63874507D01*
X100201000Y-63650483D01*
X100201000Y-63614304D01*
X100213155Y-63580220D01*
X100201000Y-63337999D01*
X100201000Y-63095517D01*
X100187155Y-63062091D01*
X100185341Y-63025951D01*
X100026742Y-62643059D01*
X100011817Y-62638790D01*
X99988624Y-62582796D01*
X99596204Y-62190376D01*
X99540210Y-62167183D01*
X99535941Y-62152258D01*
X99408137Y-62106680D01*
X99535941Y-62053742D01*
X99540210Y-62038817D01*
X99596204Y-62015624D01*
X99988624Y-61623204D01*
X100011817Y-61567210D01*
X100026742Y-61562941D01*
X100108206Y-61334507D01*
X100201000Y-61110483D01*
X100201000Y-61074304D01*
X100213155Y-61040220D01*
X100201000Y-60797999D01*
X100201000Y-60777787D01*
X118576828Y-81603726D01*
G36*
X95045258Y-104742941D02*
X95060183Y-104747210D01*
X95083376Y-104803204D01*
X95475796Y-105195624D01*
X95531790Y-105218817D01*
X95536059Y-105233742D01*
X95663863Y-105279320D01*
X95536059Y-105332258D01*
X95531790Y-105347183D01*
X95475796Y-105370376D01*
X95083376Y-105762796D01*
X95060183Y-105818790D01*
X95045258Y-105823059D01*
X94999680Y-105950863D01*
X94946742Y-105823059D01*
X94931817Y-105818790D01*
X94908624Y-105762796D01*
X94516204Y-105370376D01*
X94460210Y-105347183D01*
X94455941Y-105332258D01*
X94328137Y-105286680D01*
X94455941Y-105233742D01*
X94460210Y-105218817D01*
X94516204Y-105195624D01*
X94908624Y-104803204D01*
X94931817Y-104747210D01*
X94946742Y-104742941D01*
X94992320Y-104615137D01*
X95045258Y-104742941D01*
X95045258Y-104742941D01*
G37*
X95045258Y-104742941D02*
X95060183Y-104747210D01*
X95083376Y-104803204D01*
X95475796Y-105195624D01*
X95531790Y-105218817D01*
X95536059Y-105233742D01*
X95663863Y-105279320D01*
X95536059Y-105332258D01*
X95531790Y-105347183D01*
X95475796Y-105370376D01*
X95083376Y-105762796D01*
X95060183Y-105818790D01*
X95045258Y-105823059D01*
X94999680Y-105950863D01*
X94946742Y-105823059D01*
X94931817Y-105818790D01*
X94908624Y-105762796D01*
X94516204Y-105370376D01*
X94460210Y-105347183D01*
X94455941Y-105332258D01*
X94328137Y-105286680D01*
X94455941Y-105233742D01*
X94460210Y-105218817D01*
X94516204Y-105195624D01*
X94908624Y-104803204D01*
X94931817Y-104747210D01*
X94946742Y-104742941D01*
X94992320Y-104615137D01*
X95045258Y-104742941D01*
G36*
X89965258Y-104742941D02*
X89980183Y-104747210D01*
X90003376Y-104803204D01*
X90395796Y-105195624D01*
X90451790Y-105218817D01*
X90456059Y-105233742D01*
X90583863Y-105279320D01*
X90456059Y-105332258D01*
X90451790Y-105347183D01*
X90395796Y-105370376D01*
X90003376Y-105762796D01*
X89980183Y-105818790D01*
X89965258Y-105823059D01*
X89919680Y-105950863D01*
X89866742Y-105823059D01*
X89851817Y-105818790D01*
X89828624Y-105762796D01*
X89436204Y-105370376D01*
X89380210Y-105347183D01*
X89375941Y-105332258D01*
X89248137Y-105286680D01*
X89375941Y-105233742D01*
X89380210Y-105218817D01*
X89436204Y-105195624D01*
X89828624Y-104803204D01*
X89851817Y-104747210D01*
X89866742Y-104742941D01*
X89912320Y-104615137D01*
X89965258Y-104742941D01*
X89965258Y-104742941D01*
G37*
X89965258Y-104742941D02*
X89980183Y-104747210D01*
X90003376Y-104803204D01*
X90395796Y-105195624D01*
X90451790Y-105218817D01*
X90456059Y-105233742D01*
X90583863Y-105279320D01*
X90456059Y-105332258D01*
X90451790Y-105347183D01*
X90395796Y-105370376D01*
X90003376Y-105762796D01*
X89980183Y-105818790D01*
X89965258Y-105823059D01*
X89919680Y-105950863D01*
X89866742Y-105823059D01*
X89851817Y-105818790D01*
X89828624Y-105762796D01*
X89436204Y-105370376D01*
X89380210Y-105347183D01*
X89375941Y-105332258D01*
X89248137Y-105286680D01*
X89375941Y-105233742D01*
X89380210Y-105218817D01*
X89436204Y-105195624D01*
X89828624Y-104803204D01*
X89851817Y-104747210D01*
X89866742Y-104742941D01*
X89912320Y-104615137D01*
X89965258Y-104742941D01*
G36*
X97585258Y-104742941D02*
X97600183Y-104747210D01*
X97623376Y-104803204D01*
X98015796Y-105195624D01*
X98071790Y-105218817D01*
X98076059Y-105233742D01*
X98203863Y-105279320D01*
X98076059Y-105332258D01*
X98071790Y-105347183D01*
X98015796Y-105370376D01*
X97623376Y-105762796D01*
X97600183Y-105818790D01*
X97585258Y-105823059D01*
X97539680Y-105950863D01*
X97486742Y-105823059D01*
X97471817Y-105818790D01*
X97448624Y-105762796D01*
X97056204Y-105370376D01*
X97000210Y-105347183D01*
X96995941Y-105332258D01*
X96868137Y-105286680D01*
X96995941Y-105233742D01*
X97000210Y-105218817D01*
X97056204Y-105195624D01*
X97448624Y-104803204D01*
X97471817Y-104747210D01*
X97486742Y-104742941D01*
X97532320Y-104615137D01*
X97585258Y-104742941D01*
X97585258Y-104742941D01*
G37*
X97585258Y-104742941D02*
X97600183Y-104747210D01*
X97623376Y-104803204D01*
X98015796Y-105195624D01*
X98071790Y-105218817D01*
X98076059Y-105233742D01*
X98203863Y-105279320D01*
X98076059Y-105332258D01*
X98071790Y-105347183D01*
X98015796Y-105370376D01*
X97623376Y-105762796D01*
X97600183Y-105818790D01*
X97585258Y-105823059D01*
X97539680Y-105950863D01*
X97486742Y-105823059D01*
X97471817Y-105818790D01*
X97448624Y-105762796D01*
X97056204Y-105370376D01*
X97000210Y-105347183D01*
X96995941Y-105332258D01*
X96868137Y-105286680D01*
X96995941Y-105233742D01*
X97000210Y-105218817D01*
X97056204Y-105195624D01*
X97448624Y-104803204D01*
X97471817Y-104747210D01*
X97486742Y-104742941D01*
X97532320Y-104615137D01*
X97585258Y-104742941D01*
G36*
X140765258Y-104742941D02*
X140780183Y-104747210D01*
X140803376Y-104803204D01*
X141195796Y-105195624D01*
X141251790Y-105218817D01*
X141256059Y-105233742D01*
X141383863Y-105279320D01*
X141256059Y-105332258D01*
X141251790Y-105347183D01*
X141195796Y-105370376D01*
X140803376Y-105762796D01*
X140780183Y-105818790D01*
X140765258Y-105823059D01*
X140719680Y-105950863D01*
X140666742Y-105823059D01*
X140651817Y-105818790D01*
X140628624Y-105762796D01*
X140236204Y-105370376D01*
X140180210Y-105347183D01*
X140175941Y-105332258D01*
X140048137Y-105286680D01*
X140175941Y-105233742D01*
X140180210Y-105218817D01*
X140236204Y-105195624D01*
X140628624Y-104803204D01*
X140651817Y-104747210D01*
X140666742Y-104742941D01*
X140712320Y-104615137D01*
X140765258Y-104742941D01*
X140765258Y-104742941D01*
G37*
X140765258Y-104742941D02*
X140780183Y-104747210D01*
X140803376Y-104803204D01*
X141195796Y-105195624D01*
X141251790Y-105218817D01*
X141256059Y-105233742D01*
X141383863Y-105279320D01*
X141256059Y-105332258D01*
X141251790Y-105347183D01*
X141195796Y-105370376D01*
X140803376Y-105762796D01*
X140780183Y-105818790D01*
X140765258Y-105823059D01*
X140719680Y-105950863D01*
X140666742Y-105823059D01*
X140651817Y-105818790D01*
X140628624Y-105762796D01*
X140236204Y-105370376D01*
X140180210Y-105347183D01*
X140175941Y-105332258D01*
X140048137Y-105286680D01*
X140175941Y-105233742D01*
X140180210Y-105218817D01*
X140236204Y-105195624D01*
X140628624Y-104803204D01*
X140651817Y-104747210D01*
X140666742Y-104742941D01*
X140712320Y-104615137D01*
X140765258Y-104742941D01*
G36*
X87425258Y-104742941D02*
X87440183Y-104747210D01*
X87463376Y-104803204D01*
X87855796Y-105195624D01*
X87911790Y-105218817D01*
X87916059Y-105233742D01*
X88043863Y-105279320D01*
X87916059Y-105332258D01*
X87911790Y-105347183D01*
X87855796Y-105370376D01*
X87463376Y-105762796D01*
X87440183Y-105818790D01*
X87425258Y-105823059D01*
X87379680Y-105950863D01*
X87326742Y-105823059D01*
X87311817Y-105818790D01*
X87288624Y-105762796D01*
X86896204Y-105370376D01*
X86840210Y-105347183D01*
X86835941Y-105332258D01*
X86708137Y-105286680D01*
X86835941Y-105233742D01*
X86840210Y-105218817D01*
X86896204Y-105195624D01*
X87288624Y-104803204D01*
X87311817Y-104747210D01*
X87326742Y-104742941D01*
X87372320Y-104615137D01*
X87425258Y-104742941D01*
X87425258Y-104742941D01*
G37*
X87425258Y-104742941D02*
X87440183Y-104747210D01*
X87463376Y-104803204D01*
X87855796Y-105195624D01*
X87911790Y-105218817D01*
X87916059Y-105233742D01*
X88043863Y-105279320D01*
X87916059Y-105332258D01*
X87911790Y-105347183D01*
X87855796Y-105370376D01*
X87463376Y-105762796D01*
X87440183Y-105818790D01*
X87425258Y-105823059D01*
X87379680Y-105950863D01*
X87326742Y-105823059D01*
X87311817Y-105818790D01*
X87288624Y-105762796D01*
X86896204Y-105370376D01*
X86840210Y-105347183D01*
X86835941Y-105332258D01*
X86708137Y-105286680D01*
X86835941Y-105233742D01*
X86840210Y-105218817D01*
X86896204Y-105195624D01*
X87288624Y-104803204D01*
X87311817Y-104747210D01*
X87326742Y-104742941D01*
X87372320Y-104615137D01*
X87425258Y-104742941D01*
G36*
X145845258Y-104742941D02*
X145860183Y-104747210D01*
X145883376Y-104803204D01*
X146275796Y-105195624D01*
X146331790Y-105218817D01*
X146336059Y-105233742D01*
X146463863Y-105279320D01*
X146336059Y-105332258D01*
X146331790Y-105347183D01*
X146275796Y-105370376D01*
X145883376Y-105762796D01*
X145860183Y-105818790D01*
X145845258Y-105823059D01*
X145799680Y-105950863D01*
X145746742Y-105823059D01*
X145731817Y-105818790D01*
X145708624Y-105762796D01*
X145316204Y-105370376D01*
X145260210Y-105347183D01*
X145255941Y-105332258D01*
X145128137Y-105286680D01*
X145255941Y-105233742D01*
X145260210Y-105218817D01*
X145316204Y-105195624D01*
X145708624Y-104803204D01*
X145731817Y-104747210D01*
X145746742Y-104742941D01*
X145792320Y-104615137D01*
X145845258Y-104742941D01*
X145845258Y-104742941D01*
G37*
X145845258Y-104742941D02*
X145860183Y-104747210D01*
X145883376Y-104803204D01*
X146275796Y-105195624D01*
X146331790Y-105218817D01*
X146336059Y-105233742D01*
X146463863Y-105279320D01*
X146336059Y-105332258D01*
X146331790Y-105347183D01*
X146275796Y-105370376D01*
X145883376Y-105762796D01*
X145860183Y-105818790D01*
X145845258Y-105823059D01*
X145799680Y-105950863D01*
X145746742Y-105823059D01*
X145731817Y-105818790D01*
X145708624Y-105762796D01*
X145316204Y-105370376D01*
X145260210Y-105347183D01*
X145255941Y-105332258D01*
X145128137Y-105286680D01*
X145255941Y-105233742D01*
X145260210Y-105218817D01*
X145316204Y-105195624D01*
X145708624Y-104803204D01*
X145731817Y-104747210D01*
X145746742Y-104742941D01*
X145792320Y-104615137D01*
X145845258Y-104742941D01*
G36*
X84885258Y-104742941D02*
X84900183Y-104747210D01*
X84923376Y-104803204D01*
X85315796Y-105195624D01*
X85371790Y-105218817D01*
X85376059Y-105233742D01*
X85503863Y-105279320D01*
X85376059Y-105332258D01*
X85371790Y-105347183D01*
X85315796Y-105370376D01*
X84923376Y-105762796D01*
X84900183Y-105818790D01*
X84885258Y-105823059D01*
X84839680Y-105950863D01*
X84786742Y-105823059D01*
X84771817Y-105818790D01*
X84748624Y-105762796D01*
X84356204Y-105370376D01*
X84300210Y-105347183D01*
X84295941Y-105332258D01*
X84168137Y-105286680D01*
X84295941Y-105233742D01*
X84300210Y-105218817D01*
X84356204Y-105195624D01*
X84748624Y-104803204D01*
X84771817Y-104747210D01*
X84786742Y-104742941D01*
X84832320Y-104615137D01*
X84885258Y-104742941D01*
X84885258Y-104742941D01*
G37*
X84885258Y-104742941D02*
X84900183Y-104747210D01*
X84923376Y-104803204D01*
X85315796Y-105195624D01*
X85371790Y-105218817D01*
X85376059Y-105233742D01*
X85503863Y-105279320D01*
X85376059Y-105332258D01*
X85371790Y-105347183D01*
X85315796Y-105370376D01*
X84923376Y-105762796D01*
X84900183Y-105818790D01*
X84885258Y-105823059D01*
X84839680Y-105950863D01*
X84786742Y-105823059D01*
X84771817Y-105818790D01*
X84748624Y-105762796D01*
X84356204Y-105370376D01*
X84300210Y-105347183D01*
X84295941Y-105332258D01*
X84168137Y-105286680D01*
X84295941Y-105233742D01*
X84300210Y-105218817D01*
X84356204Y-105195624D01*
X84748624Y-104803204D01*
X84771817Y-104747210D01*
X84786742Y-104742941D01*
X84832320Y-104615137D01*
X84885258Y-104742941D01*
G36*
X148385258Y-104742941D02*
X148400183Y-104747210D01*
X148423376Y-104803204D01*
X148815796Y-105195624D01*
X148871790Y-105218817D01*
X148876059Y-105233742D01*
X149003863Y-105279320D01*
X148876059Y-105332258D01*
X148871790Y-105347183D01*
X148815796Y-105370376D01*
X148423376Y-105762796D01*
X148400183Y-105818790D01*
X148385258Y-105823059D01*
X148339680Y-105950863D01*
X148286742Y-105823059D01*
X148271817Y-105818790D01*
X148248624Y-105762796D01*
X147856204Y-105370376D01*
X147800210Y-105347183D01*
X147795941Y-105332258D01*
X147668137Y-105286680D01*
X147795941Y-105233742D01*
X147800210Y-105218817D01*
X147856204Y-105195624D01*
X148248624Y-104803204D01*
X148271817Y-104747210D01*
X148286742Y-104742941D01*
X148332320Y-104615137D01*
X148385258Y-104742941D01*
X148385258Y-104742941D01*
G37*
X148385258Y-104742941D02*
X148400183Y-104747210D01*
X148423376Y-104803204D01*
X148815796Y-105195624D01*
X148871790Y-105218817D01*
X148876059Y-105233742D01*
X149003863Y-105279320D01*
X148876059Y-105332258D01*
X148871790Y-105347183D01*
X148815796Y-105370376D01*
X148423376Y-105762796D01*
X148400183Y-105818790D01*
X148385258Y-105823059D01*
X148339680Y-105950863D01*
X148286742Y-105823059D01*
X148271817Y-105818790D01*
X148248624Y-105762796D01*
X147856204Y-105370376D01*
X147800210Y-105347183D01*
X147795941Y-105332258D01*
X147668137Y-105286680D01*
X147795941Y-105233742D01*
X147800210Y-105218817D01*
X147856204Y-105195624D01*
X148248624Y-104803204D01*
X148271817Y-104747210D01*
X148286742Y-104742941D01*
X148332320Y-104615137D01*
X148385258Y-104742941D01*
G36*
X150925258Y-104742941D02*
X150940183Y-104747210D01*
X150963376Y-104803204D01*
X151355796Y-105195624D01*
X151411790Y-105218817D01*
X151416059Y-105233742D01*
X151543863Y-105279320D01*
X151416059Y-105332258D01*
X151411790Y-105347183D01*
X151355796Y-105370376D01*
X150963376Y-105762796D01*
X150940183Y-105818790D01*
X150925258Y-105823059D01*
X150879680Y-105950863D01*
X150826742Y-105823059D01*
X150811817Y-105818790D01*
X150788624Y-105762796D01*
X150396204Y-105370376D01*
X150340210Y-105347183D01*
X150335941Y-105332258D01*
X150208137Y-105286680D01*
X150335941Y-105233742D01*
X150340210Y-105218817D01*
X150396204Y-105195624D01*
X150788624Y-104803204D01*
X150811817Y-104747210D01*
X150826742Y-104742941D01*
X150872320Y-104615137D01*
X150925258Y-104742941D01*
X150925258Y-104742941D01*
G37*
X150925258Y-104742941D02*
X150940183Y-104747210D01*
X150963376Y-104803204D01*
X151355796Y-105195624D01*
X151411790Y-105218817D01*
X151416059Y-105233742D01*
X151543863Y-105279320D01*
X151416059Y-105332258D01*
X151411790Y-105347183D01*
X151355796Y-105370376D01*
X150963376Y-105762796D01*
X150940183Y-105818790D01*
X150925258Y-105823059D01*
X150879680Y-105950863D01*
X150826742Y-105823059D01*
X150811817Y-105818790D01*
X150788624Y-105762796D01*
X150396204Y-105370376D01*
X150340210Y-105347183D01*
X150335941Y-105332258D01*
X150208137Y-105286680D01*
X150335941Y-105233742D01*
X150340210Y-105218817D01*
X150396204Y-105195624D01*
X150788624Y-104803204D01*
X150811817Y-104747210D01*
X150826742Y-104742941D01*
X150872320Y-104615137D01*
X150925258Y-104742941D01*
G36*
X82345258Y-104742941D02*
X82360183Y-104747210D01*
X82383376Y-104803204D01*
X82775796Y-105195624D01*
X82831790Y-105218817D01*
X82836059Y-105233742D01*
X82963863Y-105279320D01*
X82836059Y-105332258D01*
X82831790Y-105347183D01*
X82775796Y-105370376D01*
X82383376Y-105762796D01*
X82360183Y-105818790D01*
X82345258Y-105823059D01*
X82299680Y-105950863D01*
X82246742Y-105823059D01*
X82231817Y-105818790D01*
X82208624Y-105762796D01*
X81816204Y-105370376D01*
X81760210Y-105347183D01*
X81755941Y-105332258D01*
X81628137Y-105286680D01*
X81755941Y-105233742D01*
X81760210Y-105218817D01*
X81816204Y-105195624D01*
X82208624Y-104803204D01*
X82231817Y-104747210D01*
X82246742Y-104742941D01*
X82292320Y-104615137D01*
X82345258Y-104742941D01*
X82345258Y-104742941D01*
G37*
X82345258Y-104742941D02*
X82360183Y-104747210D01*
X82383376Y-104803204D01*
X82775796Y-105195624D01*
X82831790Y-105218817D01*
X82836059Y-105233742D01*
X82963863Y-105279320D01*
X82836059Y-105332258D01*
X82831790Y-105347183D01*
X82775796Y-105370376D01*
X82383376Y-105762796D01*
X82360183Y-105818790D01*
X82345258Y-105823059D01*
X82299680Y-105950863D01*
X82246742Y-105823059D01*
X82231817Y-105818790D01*
X82208624Y-105762796D01*
X81816204Y-105370376D01*
X81760210Y-105347183D01*
X81755941Y-105332258D01*
X81628137Y-105286680D01*
X81755941Y-105233742D01*
X81760210Y-105218817D01*
X81816204Y-105195624D01*
X82208624Y-104803204D01*
X82231817Y-104747210D01*
X82246742Y-104742941D01*
X82292320Y-104615137D01*
X82345258Y-104742941D01*
G36*
X153465258Y-104742941D02*
X153480183Y-104747210D01*
X153503376Y-104803204D01*
X153895796Y-105195624D01*
X153951790Y-105218817D01*
X153956059Y-105233742D01*
X154083863Y-105279320D01*
X153956059Y-105332258D01*
X153951790Y-105347183D01*
X153895796Y-105370376D01*
X153503376Y-105762796D01*
X153480183Y-105818790D01*
X153465258Y-105823059D01*
X153419680Y-105950863D01*
X153366742Y-105823059D01*
X153351817Y-105818790D01*
X153328624Y-105762796D01*
X152936204Y-105370376D01*
X152880210Y-105347183D01*
X152875941Y-105332258D01*
X152748137Y-105286680D01*
X152875941Y-105233742D01*
X152880210Y-105218817D01*
X152936204Y-105195624D01*
X153328624Y-104803204D01*
X153351817Y-104747210D01*
X153366742Y-104742941D01*
X153412320Y-104615137D01*
X153465258Y-104742941D01*
X153465258Y-104742941D01*
G37*
X153465258Y-104742941D02*
X153480183Y-104747210D01*
X153503376Y-104803204D01*
X153895796Y-105195624D01*
X153951790Y-105218817D01*
X153956059Y-105233742D01*
X154083863Y-105279320D01*
X153956059Y-105332258D01*
X153951790Y-105347183D01*
X153895796Y-105370376D01*
X153503376Y-105762796D01*
X153480183Y-105818790D01*
X153465258Y-105823059D01*
X153419680Y-105950863D01*
X153366742Y-105823059D01*
X153351817Y-105818790D01*
X153328624Y-105762796D01*
X152936204Y-105370376D01*
X152880210Y-105347183D01*
X152875941Y-105332258D01*
X152748137Y-105286680D01*
X152875941Y-105233742D01*
X152880210Y-105218817D01*
X152936204Y-105195624D01*
X153328624Y-104803204D01*
X153351817Y-104747210D01*
X153366742Y-104742941D01*
X153412320Y-104615137D01*
X153465258Y-104742941D01*
G36*
X156005258Y-104742941D02*
X156020183Y-104747210D01*
X156043376Y-104803204D01*
X156435796Y-105195624D01*
X156491790Y-105218817D01*
X156496059Y-105233742D01*
X156623863Y-105279320D01*
X156496059Y-105332258D01*
X156491790Y-105347183D01*
X156435796Y-105370376D01*
X156043376Y-105762796D01*
X156020183Y-105818790D01*
X156005258Y-105823059D01*
X155959680Y-105950863D01*
X155906742Y-105823059D01*
X155891817Y-105818790D01*
X155868624Y-105762796D01*
X155476204Y-105370376D01*
X155420210Y-105347183D01*
X155415941Y-105332258D01*
X155288137Y-105286680D01*
X155415941Y-105233742D01*
X155420210Y-105218817D01*
X155476204Y-105195624D01*
X155868624Y-104803204D01*
X155891817Y-104747210D01*
X155906742Y-104742941D01*
X155952320Y-104615137D01*
X156005258Y-104742941D01*
X156005258Y-104742941D01*
G37*
X156005258Y-104742941D02*
X156020183Y-104747210D01*
X156043376Y-104803204D01*
X156435796Y-105195624D01*
X156491790Y-105218817D01*
X156496059Y-105233742D01*
X156623863Y-105279320D01*
X156496059Y-105332258D01*
X156491790Y-105347183D01*
X156435796Y-105370376D01*
X156043376Y-105762796D01*
X156020183Y-105818790D01*
X156005258Y-105823059D01*
X155959680Y-105950863D01*
X155906742Y-105823059D01*
X155891817Y-105818790D01*
X155868624Y-105762796D01*
X155476204Y-105370376D01*
X155420210Y-105347183D01*
X155415941Y-105332258D01*
X155288137Y-105286680D01*
X155415941Y-105233742D01*
X155420210Y-105218817D01*
X155476204Y-105195624D01*
X155868624Y-104803204D01*
X155891817Y-104747210D01*
X155906742Y-104742941D01*
X155952320Y-104615137D01*
X156005258Y-104742941D01*
G36*
X79805258Y-104742941D02*
X79820183Y-104747210D01*
X79843376Y-104803204D01*
X80235796Y-105195624D01*
X80291790Y-105218817D01*
X80296059Y-105233742D01*
X80423863Y-105279320D01*
X80296059Y-105332258D01*
X80291790Y-105347183D01*
X80235796Y-105370376D01*
X79843376Y-105762796D01*
X79820183Y-105818790D01*
X79805258Y-105823059D01*
X79759680Y-105950863D01*
X79706742Y-105823059D01*
X79691817Y-105818790D01*
X79668624Y-105762796D01*
X79276204Y-105370376D01*
X79220210Y-105347183D01*
X79215941Y-105332258D01*
X79088137Y-105286680D01*
X79215941Y-105233742D01*
X79220210Y-105218817D01*
X79276204Y-105195624D01*
X79668624Y-104803204D01*
X79691817Y-104747210D01*
X79706742Y-104742941D01*
X79752320Y-104615137D01*
X79805258Y-104742941D01*
X79805258Y-104742941D01*
G37*
X79805258Y-104742941D02*
X79820183Y-104747210D01*
X79843376Y-104803204D01*
X80235796Y-105195624D01*
X80291790Y-105218817D01*
X80296059Y-105233742D01*
X80423863Y-105279320D01*
X80296059Y-105332258D01*
X80291790Y-105347183D01*
X80235796Y-105370376D01*
X79843376Y-105762796D01*
X79820183Y-105818790D01*
X79805258Y-105823059D01*
X79759680Y-105950863D01*
X79706742Y-105823059D01*
X79691817Y-105818790D01*
X79668624Y-105762796D01*
X79276204Y-105370376D01*
X79220210Y-105347183D01*
X79215941Y-105332258D01*
X79088137Y-105286680D01*
X79215941Y-105233742D01*
X79220210Y-105218817D01*
X79276204Y-105195624D01*
X79668624Y-104803204D01*
X79691817Y-104747210D01*
X79706742Y-104742941D01*
X79752320Y-104615137D01*
X79805258Y-104742941D01*
G36*
X158545258Y-104742941D02*
X158560183Y-104747210D01*
X158583376Y-104803204D01*
X158975796Y-105195624D01*
X159031790Y-105218817D01*
X159036059Y-105233742D01*
X159163863Y-105279320D01*
X159036059Y-105332258D01*
X159031790Y-105347183D01*
X158975796Y-105370376D01*
X158583376Y-105762796D01*
X158560183Y-105818790D01*
X158545258Y-105823059D01*
X158499680Y-105950863D01*
X158446742Y-105823059D01*
X158431817Y-105818790D01*
X158408624Y-105762796D01*
X158016204Y-105370376D01*
X157960210Y-105347183D01*
X157955941Y-105332258D01*
X157828137Y-105286680D01*
X157955941Y-105233742D01*
X157960210Y-105218817D01*
X158016204Y-105195624D01*
X158408624Y-104803204D01*
X158431817Y-104747210D01*
X158446742Y-104742941D01*
X158492320Y-104615137D01*
X158545258Y-104742941D01*
X158545258Y-104742941D01*
G37*
X158545258Y-104742941D02*
X158560183Y-104747210D01*
X158583376Y-104803204D01*
X158975796Y-105195624D01*
X159031790Y-105218817D01*
X159036059Y-105233742D01*
X159163863Y-105279320D01*
X159036059Y-105332258D01*
X159031790Y-105347183D01*
X158975796Y-105370376D01*
X158583376Y-105762796D01*
X158560183Y-105818790D01*
X158545258Y-105823059D01*
X158499680Y-105950863D01*
X158446742Y-105823059D01*
X158431817Y-105818790D01*
X158408624Y-105762796D01*
X158016204Y-105370376D01*
X157960210Y-105347183D01*
X157955941Y-105332258D01*
X157828137Y-105286680D01*
X157955941Y-105233742D01*
X157960210Y-105218817D01*
X158016204Y-105195624D01*
X158408624Y-104803204D01*
X158431817Y-104747210D01*
X158446742Y-104742941D01*
X158492320Y-104615137D01*
X158545258Y-104742941D01*
G36*
X77265258Y-104742941D02*
X77280183Y-104747210D01*
X77303376Y-104803204D01*
X77695796Y-105195624D01*
X77751790Y-105218817D01*
X77756059Y-105233742D01*
X77883863Y-105279320D01*
X77756059Y-105332258D01*
X77751790Y-105347183D01*
X77695796Y-105370376D01*
X77303376Y-105762796D01*
X77280183Y-105818790D01*
X77265258Y-105823059D01*
X77219680Y-105950863D01*
X77166742Y-105823059D01*
X77151817Y-105818790D01*
X77128624Y-105762796D01*
X76736204Y-105370376D01*
X76680210Y-105347183D01*
X76675941Y-105332258D01*
X76548137Y-105286680D01*
X76675941Y-105233742D01*
X76680210Y-105218817D01*
X76736204Y-105195624D01*
X77128624Y-104803204D01*
X77151817Y-104747210D01*
X77166742Y-104742941D01*
X77212320Y-104615137D01*
X77265258Y-104742941D01*
X77265258Y-104742941D01*
G37*
X77265258Y-104742941D02*
X77280183Y-104747210D01*
X77303376Y-104803204D01*
X77695796Y-105195624D01*
X77751790Y-105218817D01*
X77756059Y-105233742D01*
X77883863Y-105279320D01*
X77756059Y-105332258D01*
X77751790Y-105347183D01*
X77695796Y-105370376D01*
X77303376Y-105762796D01*
X77280183Y-105818790D01*
X77265258Y-105823059D01*
X77219680Y-105950863D01*
X77166742Y-105823059D01*
X77151817Y-105818790D01*
X77128624Y-105762796D01*
X76736204Y-105370376D01*
X76680210Y-105347183D01*
X76675941Y-105332258D01*
X76548137Y-105286680D01*
X76675941Y-105233742D01*
X76680210Y-105218817D01*
X76736204Y-105195624D01*
X77128624Y-104803204D01*
X77151817Y-104747210D01*
X77166742Y-104742941D01*
X77212320Y-104615137D01*
X77265258Y-104742941D01*
G36*
X92505258Y-104742941D02*
X92520183Y-104747210D01*
X92543376Y-104803204D01*
X92935796Y-105195624D01*
X92991790Y-105218817D01*
X92996059Y-105233742D01*
X93123863Y-105279320D01*
X92996059Y-105332258D01*
X92991790Y-105347183D01*
X92935796Y-105370376D01*
X92543376Y-105762796D01*
X92520183Y-105818790D01*
X92505258Y-105823059D01*
X92459680Y-105950863D01*
X92406742Y-105823059D01*
X92391817Y-105818790D01*
X92368624Y-105762796D01*
X91976204Y-105370376D01*
X91920210Y-105347183D01*
X91915941Y-105332258D01*
X91788137Y-105286680D01*
X91915941Y-105233742D01*
X91920210Y-105218817D01*
X91976204Y-105195624D01*
X92368624Y-104803204D01*
X92391817Y-104747210D01*
X92406742Y-104742941D01*
X92452320Y-104615137D01*
X92505258Y-104742941D01*
X92505258Y-104742941D01*
G37*
X92505258Y-104742941D02*
X92520183Y-104747210D01*
X92543376Y-104803204D01*
X92935796Y-105195624D01*
X92991790Y-105218817D01*
X92996059Y-105233742D01*
X93123863Y-105279320D01*
X92996059Y-105332258D01*
X92991790Y-105347183D01*
X92935796Y-105370376D01*
X92543376Y-105762796D01*
X92520183Y-105818790D01*
X92505258Y-105823059D01*
X92459680Y-105950863D01*
X92406742Y-105823059D01*
X92391817Y-105818790D01*
X92368624Y-105762796D01*
X91976204Y-105370376D01*
X91920210Y-105347183D01*
X91915941Y-105332258D01*
X91788137Y-105286680D01*
X91915941Y-105233742D01*
X91920210Y-105218817D01*
X91976204Y-105195624D01*
X92368624Y-104803204D01*
X92391817Y-104747210D01*
X92406742Y-104742941D01*
X92452320Y-104615137D01*
X92505258Y-104742941D01*
G36*
X143305258Y-104742941D02*
X143320183Y-104747210D01*
X143343376Y-104803204D01*
X143735796Y-105195624D01*
X143791790Y-105218817D01*
X143796059Y-105233742D01*
X143923863Y-105279320D01*
X143796059Y-105332258D01*
X143791790Y-105347183D01*
X143735796Y-105370376D01*
X143343376Y-105762796D01*
X143320183Y-105818790D01*
X143305258Y-105823059D01*
X143259680Y-105950863D01*
X143206742Y-105823059D01*
X143191817Y-105818790D01*
X143168624Y-105762796D01*
X142776204Y-105370376D01*
X142720210Y-105347183D01*
X142715941Y-105332258D01*
X142588137Y-105286680D01*
X142715941Y-105233742D01*
X142720210Y-105218817D01*
X142776204Y-105195624D01*
X143168624Y-104803204D01*
X143191817Y-104747210D01*
X143206742Y-104742941D01*
X143252320Y-104615137D01*
X143305258Y-104742941D01*
X143305258Y-104742941D01*
G37*
X143305258Y-104742941D02*
X143320183Y-104747210D01*
X143343376Y-104803204D01*
X143735796Y-105195624D01*
X143791790Y-105218817D01*
X143796059Y-105233742D01*
X143923863Y-105279320D01*
X143796059Y-105332258D01*
X143791790Y-105347183D01*
X143735796Y-105370376D01*
X143343376Y-105762796D01*
X143320183Y-105818790D01*
X143305258Y-105823059D01*
X143259680Y-105950863D01*
X143206742Y-105823059D01*
X143191817Y-105818790D01*
X143168624Y-105762796D01*
X142776204Y-105370376D01*
X142720210Y-105347183D01*
X142715941Y-105332258D01*
X142588137Y-105286680D01*
X142715941Y-105233742D01*
X142720210Y-105218817D01*
X142776204Y-105195624D01*
X143168624Y-104803204D01*
X143191817Y-104747210D01*
X143206742Y-104742941D01*
X143252320Y-104615137D01*
X143305258Y-104742941D01*
G36*
X161085258Y-104742941D02*
X161100183Y-104747210D01*
X161123376Y-104803204D01*
X161515796Y-105195624D01*
X161571790Y-105218817D01*
X161576059Y-105233742D01*
X161703863Y-105279320D01*
X161576059Y-105332258D01*
X161571790Y-105347183D01*
X161515796Y-105370376D01*
X161123376Y-105762796D01*
X161100183Y-105818790D01*
X161085258Y-105823059D01*
X161039680Y-105950863D01*
X160986742Y-105823059D01*
X160971817Y-105818790D01*
X160948624Y-105762796D01*
X160556204Y-105370376D01*
X160500210Y-105347183D01*
X160495941Y-105332258D01*
X160368137Y-105286680D01*
X160495941Y-105233742D01*
X160500210Y-105218817D01*
X160556204Y-105195624D01*
X160948624Y-104803204D01*
X160971817Y-104747210D01*
X160986742Y-104742941D01*
X161032320Y-104615137D01*
X161085258Y-104742941D01*
X161085258Y-104742941D01*
G37*
X161085258Y-104742941D02*
X161100183Y-104747210D01*
X161123376Y-104803204D01*
X161515796Y-105195624D01*
X161571790Y-105218817D01*
X161576059Y-105233742D01*
X161703863Y-105279320D01*
X161576059Y-105332258D01*
X161571790Y-105347183D01*
X161515796Y-105370376D01*
X161123376Y-105762796D01*
X161100183Y-105818790D01*
X161085258Y-105823059D01*
X161039680Y-105950863D01*
X160986742Y-105823059D01*
X160971817Y-105818790D01*
X160948624Y-105762796D01*
X160556204Y-105370376D01*
X160500210Y-105347183D01*
X160495941Y-105332258D01*
X160368137Y-105286680D01*
X160495941Y-105233742D01*
X160500210Y-105218817D01*
X160556204Y-105195624D01*
X160948624Y-104803204D01*
X160971817Y-104747210D01*
X160986742Y-104742941D01*
X161032320Y-104615137D01*
X161085258Y-104742941D01*
G36*
X163449000Y-102033000D02*
X138496967Y-102033000D01*
X122357766Y-83693000D01*
X138496967Y-65353000D01*
X163449000Y-65353000D01*
X163449000Y-102033000D01*
X163449000Y-102033000D01*
G37*
X163449000Y-102033000D02*
X138496967Y-102033000D01*
X122357766Y-83693000D01*
X138496967Y-65353000D01*
X163449000Y-65353000D01*
X163449000Y-102033000D01*
G36*
X115894233Y-83693000D02*
X99755034Y-102033000D01*
X74803000Y-102033000D01*
X74803000Y-65353000D01*
X99755034Y-65353000D01*
X115894233Y-83693000D01*
X115894233Y-83693000D01*
G37*
X115894233Y-83693000D02*
X99755034Y-102033000D01*
X74803000Y-102033000D01*
X74803000Y-65353000D01*
X99755034Y-65353000D01*
X115894233Y-83693000D01*
G36*
X119126000Y-80079879D02*
X101134930Y-59690000D01*
X137117070Y-59690000D01*
X119126000Y-80079879D01*
X119126000Y-80079879D01*
G37*
X119126000Y-80079879D02*
X101134930Y-59690000D01*
X137117070Y-59690000D01*
X119126000Y-80079879D01*
G36*
X161085258Y-61562941D02*
X161100183Y-61567210D01*
X161123376Y-61623204D01*
X161515796Y-62015624D01*
X161571790Y-62038817D01*
X161576059Y-62053742D01*
X161703863Y-62099320D01*
X161576059Y-62152258D01*
X161571790Y-62167183D01*
X161515796Y-62190376D01*
X161123376Y-62582796D01*
X161100183Y-62638790D01*
X161085258Y-62643059D01*
X161039680Y-62770863D01*
X160986742Y-62643059D01*
X160971817Y-62638790D01*
X160948624Y-62582796D01*
X160556204Y-62190376D01*
X160500210Y-62167183D01*
X160495941Y-62152258D01*
X160368137Y-62106680D01*
X160495941Y-62053742D01*
X160500210Y-62038817D01*
X160556204Y-62015624D01*
X160948624Y-61623204D01*
X160971817Y-61567210D01*
X160986742Y-61562941D01*
X161032320Y-61435137D01*
X161085258Y-61562941D01*
X161085258Y-61562941D01*
G37*
X161085258Y-61562941D02*
X161100183Y-61567210D01*
X161123376Y-61623204D01*
X161515796Y-62015624D01*
X161571790Y-62038817D01*
X161576059Y-62053742D01*
X161703863Y-62099320D01*
X161576059Y-62152258D01*
X161571790Y-62167183D01*
X161515796Y-62190376D01*
X161123376Y-62582796D01*
X161100183Y-62638790D01*
X161085258Y-62643059D01*
X161039680Y-62770863D01*
X160986742Y-62643059D01*
X160971817Y-62638790D01*
X160948624Y-62582796D01*
X160556204Y-62190376D01*
X160500210Y-62167183D01*
X160495941Y-62152258D01*
X160368137Y-62106680D01*
X160495941Y-62053742D01*
X160500210Y-62038817D01*
X160556204Y-62015624D01*
X160948624Y-61623204D01*
X160971817Y-61567210D01*
X160986742Y-61562941D01*
X161032320Y-61435137D01*
X161085258Y-61562941D01*
G36*
X92505258Y-61562941D02*
X92520183Y-61567210D01*
X92543376Y-61623204D01*
X92935796Y-62015624D01*
X92991790Y-62038817D01*
X92996059Y-62053742D01*
X93123863Y-62099320D01*
X92996059Y-62152258D01*
X92991790Y-62167183D01*
X92935796Y-62190376D01*
X92543376Y-62582796D01*
X92520183Y-62638790D01*
X92505258Y-62643059D01*
X92459680Y-62770863D01*
X92406742Y-62643059D01*
X92391817Y-62638790D01*
X92368624Y-62582796D01*
X91976204Y-62190376D01*
X91920210Y-62167183D01*
X91915941Y-62152258D01*
X91788137Y-62106680D01*
X91915941Y-62053742D01*
X91920210Y-62038817D01*
X91976204Y-62015624D01*
X92368624Y-61623204D01*
X92391817Y-61567210D01*
X92406742Y-61562941D01*
X92452320Y-61435137D01*
X92505258Y-61562941D01*
X92505258Y-61562941D01*
G37*
X92505258Y-61562941D02*
X92520183Y-61567210D01*
X92543376Y-61623204D01*
X92935796Y-62015624D01*
X92991790Y-62038817D01*
X92996059Y-62053742D01*
X93123863Y-62099320D01*
X92996059Y-62152258D01*
X92991790Y-62167183D01*
X92935796Y-62190376D01*
X92543376Y-62582796D01*
X92520183Y-62638790D01*
X92505258Y-62643059D01*
X92459680Y-62770863D01*
X92406742Y-62643059D01*
X92391817Y-62638790D01*
X92368624Y-62582796D01*
X91976204Y-62190376D01*
X91920210Y-62167183D01*
X91915941Y-62152258D01*
X91788137Y-62106680D01*
X91915941Y-62053742D01*
X91920210Y-62038817D01*
X91976204Y-62015624D01*
X92368624Y-61623204D01*
X92391817Y-61567210D01*
X92406742Y-61562941D01*
X92452320Y-61435137D01*
X92505258Y-61562941D01*
G36*
X77265258Y-61562941D02*
X77280183Y-61567210D01*
X77303376Y-61623204D01*
X77695796Y-62015624D01*
X77751790Y-62038817D01*
X77756059Y-62053742D01*
X77883863Y-62099320D01*
X77756059Y-62152258D01*
X77751790Y-62167183D01*
X77695796Y-62190376D01*
X77303376Y-62582796D01*
X77280183Y-62638790D01*
X77265258Y-62643059D01*
X77219680Y-62770863D01*
X77166742Y-62643059D01*
X77151817Y-62638790D01*
X77128624Y-62582796D01*
X76736204Y-62190376D01*
X76680210Y-62167183D01*
X76675941Y-62152258D01*
X76548137Y-62106680D01*
X76675941Y-62053742D01*
X76680210Y-62038817D01*
X76736204Y-62015624D01*
X77128624Y-61623204D01*
X77151817Y-61567210D01*
X77166742Y-61562941D01*
X77212320Y-61435137D01*
X77265258Y-61562941D01*
X77265258Y-61562941D01*
G37*
X77265258Y-61562941D02*
X77280183Y-61567210D01*
X77303376Y-61623204D01*
X77695796Y-62015624D01*
X77751790Y-62038817D01*
X77756059Y-62053742D01*
X77883863Y-62099320D01*
X77756059Y-62152258D01*
X77751790Y-62167183D01*
X77695796Y-62190376D01*
X77303376Y-62582796D01*
X77280183Y-62638790D01*
X77265258Y-62643059D01*
X77219680Y-62770863D01*
X77166742Y-62643059D01*
X77151817Y-62638790D01*
X77128624Y-62582796D01*
X76736204Y-62190376D01*
X76680210Y-62167183D01*
X76675941Y-62152258D01*
X76548137Y-62106680D01*
X76675941Y-62053742D01*
X76680210Y-62038817D01*
X76736204Y-62015624D01*
X77128624Y-61623204D01*
X77151817Y-61567210D01*
X77166742Y-61562941D01*
X77212320Y-61435137D01*
X77265258Y-61562941D01*
G36*
X158545258Y-61562941D02*
X158560183Y-61567210D01*
X158583376Y-61623204D01*
X158975796Y-62015624D01*
X159031790Y-62038817D01*
X159036059Y-62053742D01*
X159163863Y-62099320D01*
X159036059Y-62152258D01*
X159031790Y-62167183D01*
X158975796Y-62190376D01*
X158583376Y-62582796D01*
X158560183Y-62638790D01*
X158545258Y-62643059D01*
X158499680Y-62770863D01*
X158446742Y-62643059D01*
X158431817Y-62638790D01*
X158408624Y-62582796D01*
X158016204Y-62190376D01*
X157960210Y-62167183D01*
X157955941Y-62152258D01*
X157828137Y-62106680D01*
X157955941Y-62053742D01*
X157960210Y-62038817D01*
X158016204Y-62015624D01*
X158408624Y-61623204D01*
X158431817Y-61567210D01*
X158446742Y-61562941D01*
X158492320Y-61435137D01*
X158545258Y-61562941D01*
X158545258Y-61562941D01*
G37*
X158545258Y-61562941D02*
X158560183Y-61567210D01*
X158583376Y-61623204D01*
X158975796Y-62015624D01*
X159031790Y-62038817D01*
X159036059Y-62053742D01*
X159163863Y-62099320D01*
X159036059Y-62152258D01*
X159031790Y-62167183D01*
X158975796Y-62190376D01*
X158583376Y-62582796D01*
X158560183Y-62638790D01*
X158545258Y-62643059D01*
X158499680Y-62770863D01*
X158446742Y-62643059D01*
X158431817Y-62638790D01*
X158408624Y-62582796D01*
X158016204Y-62190376D01*
X157960210Y-62167183D01*
X157955941Y-62152258D01*
X157828137Y-62106680D01*
X157955941Y-62053742D01*
X157960210Y-62038817D01*
X158016204Y-62015624D01*
X158408624Y-61623204D01*
X158431817Y-61567210D01*
X158446742Y-61562941D01*
X158492320Y-61435137D01*
X158545258Y-61562941D01*
G36*
X79805258Y-61562941D02*
X79820183Y-61567210D01*
X79843376Y-61623204D01*
X80235796Y-62015624D01*
X80291790Y-62038817D01*
X80296059Y-62053742D01*
X80423863Y-62099320D01*
X80296059Y-62152258D01*
X80291790Y-62167183D01*
X80235796Y-62190376D01*
X79843376Y-62582796D01*
X79820183Y-62638790D01*
X79805258Y-62643059D01*
X79759680Y-62770863D01*
X79706742Y-62643059D01*
X79691817Y-62638790D01*
X79668624Y-62582796D01*
X79276204Y-62190376D01*
X79220210Y-62167183D01*
X79215941Y-62152258D01*
X79088137Y-62106680D01*
X79215941Y-62053742D01*
X79220210Y-62038817D01*
X79276204Y-62015624D01*
X79668624Y-61623204D01*
X79691817Y-61567210D01*
X79706742Y-61562941D01*
X79752320Y-61435137D01*
X79805258Y-61562941D01*
X79805258Y-61562941D01*
G37*
X79805258Y-61562941D02*
X79820183Y-61567210D01*
X79843376Y-61623204D01*
X80235796Y-62015624D01*
X80291790Y-62038817D01*
X80296059Y-62053742D01*
X80423863Y-62099320D01*
X80296059Y-62152258D01*
X80291790Y-62167183D01*
X80235796Y-62190376D01*
X79843376Y-62582796D01*
X79820183Y-62638790D01*
X79805258Y-62643059D01*
X79759680Y-62770863D01*
X79706742Y-62643059D01*
X79691817Y-62638790D01*
X79668624Y-62582796D01*
X79276204Y-62190376D01*
X79220210Y-62167183D01*
X79215941Y-62152258D01*
X79088137Y-62106680D01*
X79215941Y-62053742D01*
X79220210Y-62038817D01*
X79276204Y-62015624D01*
X79668624Y-61623204D01*
X79691817Y-61567210D01*
X79706742Y-61562941D01*
X79752320Y-61435137D01*
X79805258Y-61562941D01*
G36*
X156005258Y-61562941D02*
X156020183Y-61567210D01*
X156043376Y-61623204D01*
X156435796Y-62015624D01*
X156491790Y-62038817D01*
X156496059Y-62053742D01*
X156623863Y-62099320D01*
X156496059Y-62152258D01*
X156491790Y-62167183D01*
X156435796Y-62190376D01*
X156043376Y-62582796D01*
X156020183Y-62638790D01*
X156005258Y-62643059D01*
X155959680Y-62770863D01*
X155906742Y-62643059D01*
X155891817Y-62638790D01*
X155868624Y-62582796D01*
X155476204Y-62190376D01*
X155420210Y-62167183D01*
X155415941Y-62152258D01*
X155288137Y-62106680D01*
X155415941Y-62053742D01*
X155420210Y-62038817D01*
X155476204Y-62015624D01*
X155868624Y-61623204D01*
X155891817Y-61567210D01*
X155906742Y-61562941D01*
X155952320Y-61435137D01*
X156005258Y-61562941D01*
X156005258Y-61562941D01*
G37*
X156005258Y-61562941D02*
X156020183Y-61567210D01*
X156043376Y-61623204D01*
X156435796Y-62015624D01*
X156491790Y-62038817D01*
X156496059Y-62053742D01*
X156623863Y-62099320D01*
X156496059Y-62152258D01*
X156491790Y-62167183D01*
X156435796Y-62190376D01*
X156043376Y-62582796D01*
X156020183Y-62638790D01*
X156005258Y-62643059D01*
X155959680Y-62770863D01*
X155906742Y-62643059D01*
X155891817Y-62638790D01*
X155868624Y-62582796D01*
X155476204Y-62190376D01*
X155420210Y-62167183D01*
X155415941Y-62152258D01*
X155288137Y-62106680D01*
X155415941Y-62053742D01*
X155420210Y-62038817D01*
X155476204Y-62015624D01*
X155868624Y-61623204D01*
X155891817Y-61567210D01*
X155906742Y-61562941D01*
X155952320Y-61435137D01*
X156005258Y-61562941D01*
G36*
X153465258Y-61562941D02*
X153480183Y-61567210D01*
X153503376Y-61623204D01*
X153895796Y-62015624D01*
X153951790Y-62038817D01*
X153956059Y-62053742D01*
X154083863Y-62099320D01*
X153956059Y-62152258D01*
X153951790Y-62167183D01*
X153895796Y-62190376D01*
X153503376Y-62582796D01*
X153480183Y-62638790D01*
X153465258Y-62643059D01*
X153419680Y-62770863D01*
X153366742Y-62643059D01*
X153351817Y-62638790D01*
X153328624Y-62582796D01*
X152936204Y-62190376D01*
X152880210Y-62167183D01*
X152875941Y-62152258D01*
X152748137Y-62106680D01*
X152875941Y-62053742D01*
X152880210Y-62038817D01*
X152936204Y-62015624D01*
X153328624Y-61623204D01*
X153351817Y-61567210D01*
X153366742Y-61562941D01*
X153412320Y-61435137D01*
X153465258Y-61562941D01*
X153465258Y-61562941D01*
G37*
X153465258Y-61562941D02*
X153480183Y-61567210D01*
X153503376Y-61623204D01*
X153895796Y-62015624D01*
X153951790Y-62038817D01*
X153956059Y-62053742D01*
X154083863Y-62099320D01*
X153956059Y-62152258D01*
X153951790Y-62167183D01*
X153895796Y-62190376D01*
X153503376Y-62582796D01*
X153480183Y-62638790D01*
X153465258Y-62643059D01*
X153419680Y-62770863D01*
X153366742Y-62643059D01*
X153351817Y-62638790D01*
X153328624Y-62582796D01*
X152936204Y-62190376D01*
X152880210Y-62167183D01*
X152875941Y-62152258D01*
X152748137Y-62106680D01*
X152875941Y-62053742D01*
X152880210Y-62038817D01*
X152936204Y-62015624D01*
X153328624Y-61623204D01*
X153351817Y-61567210D01*
X153366742Y-61562941D01*
X153412320Y-61435137D01*
X153465258Y-61562941D01*
G36*
X82345258Y-61562941D02*
X82360183Y-61567210D01*
X82383376Y-61623204D01*
X82775796Y-62015624D01*
X82831790Y-62038817D01*
X82836059Y-62053742D01*
X82963863Y-62099320D01*
X82836059Y-62152258D01*
X82831790Y-62167183D01*
X82775796Y-62190376D01*
X82383376Y-62582796D01*
X82360183Y-62638790D01*
X82345258Y-62643059D01*
X82299680Y-62770863D01*
X82246742Y-62643059D01*
X82231817Y-62638790D01*
X82208624Y-62582796D01*
X81816204Y-62190376D01*
X81760210Y-62167183D01*
X81755941Y-62152258D01*
X81628137Y-62106680D01*
X81755941Y-62053742D01*
X81760210Y-62038817D01*
X81816204Y-62015624D01*
X82208624Y-61623204D01*
X82231817Y-61567210D01*
X82246742Y-61562941D01*
X82292320Y-61435137D01*
X82345258Y-61562941D01*
X82345258Y-61562941D01*
G37*
X82345258Y-61562941D02*
X82360183Y-61567210D01*
X82383376Y-61623204D01*
X82775796Y-62015624D01*
X82831790Y-62038817D01*
X82836059Y-62053742D01*
X82963863Y-62099320D01*
X82836059Y-62152258D01*
X82831790Y-62167183D01*
X82775796Y-62190376D01*
X82383376Y-62582796D01*
X82360183Y-62638790D01*
X82345258Y-62643059D01*
X82299680Y-62770863D01*
X82246742Y-62643059D01*
X82231817Y-62638790D01*
X82208624Y-62582796D01*
X81816204Y-62190376D01*
X81760210Y-62167183D01*
X81755941Y-62152258D01*
X81628137Y-62106680D01*
X81755941Y-62053742D01*
X81760210Y-62038817D01*
X81816204Y-62015624D01*
X82208624Y-61623204D01*
X82231817Y-61567210D01*
X82246742Y-61562941D01*
X82292320Y-61435137D01*
X82345258Y-61562941D01*
G36*
X150925258Y-61562941D02*
X150940183Y-61567210D01*
X150963376Y-61623204D01*
X151355796Y-62015624D01*
X151411790Y-62038817D01*
X151416059Y-62053742D01*
X151543863Y-62099320D01*
X151416059Y-62152258D01*
X151411790Y-62167183D01*
X151355796Y-62190376D01*
X150963376Y-62582796D01*
X150940183Y-62638790D01*
X150925258Y-62643059D01*
X150879680Y-62770863D01*
X150826742Y-62643059D01*
X150811817Y-62638790D01*
X150788624Y-62582796D01*
X150396204Y-62190376D01*
X150340210Y-62167183D01*
X150335941Y-62152258D01*
X150208137Y-62106680D01*
X150335941Y-62053742D01*
X150340210Y-62038817D01*
X150396204Y-62015624D01*
X150788624Y-61623204D01*
X150811817Y-61567210D01*
X150826742Y-61562941D01*
X150872320Y-61435137D01*
X150925258Y-61562941D01*
X150925258Y-61562941D01*
G37*
X150925258Y-61562941D02*
X150940183Y-61567210D01*
X150963376Y-61623204D01*
X151355796Y-62015624D01*
X151411790Y-62038817D01*
X151416059Y-62053742D01*
X151543863Y-62099320D01*
X151416059Y-62152258D01*
X151411790Y-62167183D01*
X151355796Y-62190376D01*
X150963376Y-62582796D01*
X150940183Y-62638790D01*
X150925258Y-62643059D01*
X150879680Y-62770863D01*
X150826742Y-62643059D01*
X150811817Y-62638790D01*
X150788624Y-62582796D01*
X150396204Y-62190376D01*
X150340210Y-62167183D01*
X150335941Y-62152258D01*
X150208137Y-62106680D01*
X150335941Y-62053742D01*
X150340210Y-62038817D01*
X150396204Y-62015624D01*
X150788624Y-61623204D01*
X150811817Y-61567210D01*
X150826742Y-61562941D01*
X150872320Y-61435137D01*
X150925258Y-61562941D01*
G36*
X148385258Y-61562941D02*
X148400183Y-61567210D01*
X148423376Y-61623204D01*
X148815796Y-62015624D01*
X148871790Y-62038817D01*
X148876059Y-62053742D01*
X149003863Y-62099320D01*
X148876059Y-62152258D01*
X148871790Y-62167183D01*
X148815796Y-62190376D01*
X148423376Y-62582796D01*
X148400183Y-62638790D01*
X148385258Y-62643059D01*
X148339680Y-62770863D01*
X148286742Y-62643059D01*
X148271817Y-62638790D01*
X148248624Y-62582796D01*
X147856204Y-62190376D01*
X147800210Y-62167183D01*
X147795941Y-62152258D01*
X147668137Y-62106680D01*
X147795941Y-62053742D01*
X147800210Y-62038817D01*
X147856204Y-62015624D01*
X148248624Y-61623204D01*
X148271817Y-61567210D01*
X148286742Y-61562941D01*
X148332320Y-61435137D01*
X148385258Y-61562941D01*
X148385258Y-61562941D01*
G37*
X148385258Y-61562941D02*
X148400183Y-61567210D01*
X148423376Y-61623204D01*
X148815796Y-62015624D01*
X148871790Y-62038817D01*
X148876059Y-62053742D01*
X149003863Y-62099320D01*
X148876059Y-62152258D01*
X148871790Y-62167183D01*
X148815796Y-62190376D01*
X148423376Y-62582796D01*
X148400183Y-62638790D01*
X148385258Y-62643059D01*
X148339680Y-62770863D01*
X148286742Y-62643059D01*
X148271817Y-62638790D01*
X148248624Y-62582796D01*
X147856204Y-62190376D01*
X147800210Y-62167183D01*
X147795941Y-62152258D01*
X147668137Y-62106680D01*
X147795941Y-62053742D01*
X147800210Y-62038817D01*
X147856204Y-62015624D01*
X148248624Y-61623204D01*
X148271817Y-61567210D01*
X148286742Y-61562941D01*
X148332320Y-61435137D01*
X148385258Y-61562941D01*
G36*
X84885258Y-61562941D02*
X84900183Y-61567210D01*
X84923376Y-61623204D01*
X85315796Y-62015624D01*
X85371790Y-62038817D01*
X85376059Y-62053742D01*
X85503863Y-62099320D01*
X85376059Y-62152258D01*
X85371790Y-62167183D01*
X85315796Y-62190376D01*
X84923376Y-62582796D01*
X84900183Y-62638790D01*
X84885258Y-62643059D01*
X84839680Y-62770863D01*
X84786742Y-62643059D01*
X84771817Y-62638790D01*
X84748624Y-62582796D01*
X84356204Y-62190376D01*
X84300210Y-62167183D01*
X84295941Y-62152258D01*
X84168137Y-62106680D01*
X84295941Y-62053742D01*
X84300210Y-62038817D01*
X84356204Y-62015624D01*
X84748624Y-61623204D01*
X84771817Y-61567210D01*
X84786742Y-61562941D01*
X84832320Y-61435137D01*
X84885258Y-61562941D01*
X84885258Y-61562941D01*
G37*
X84885258Y-61562941D02*
X84900183Y-61567210D01*
X84923376Y-61623204D01*
X85315796Y-62015624D01*
X85371790Y-62038817D01*
X85376059Y-62053742D01*
X85503863Y-62099320D01*
X85376059Y-62152258D01*
X85371790Y-62167183D01*
X85315796Y-62190376D01*
X84923376Y-62582796D01*
X84900183Y-62638790D01*
X84885258Y-62643059D01*
X84839680Y-62770863D01*
X84786742Y-62643059D01*
X84771817Y-62638790D01*
X84748624Y-62582796D01*
X84356204Y-62190376D01*
X84300210Y-62167183D01*
X84295941Y-62152258D01*
X84168137Y-62106680D01*
X84295941Y-62053742D01*
X84300210Y-62038817D01*
X84356204Y-62015624D01*
X84748624Y-61623204D01*
X84771817Y-61567210D01*
X84786742Y-61562941D01*
X84832320Y-61435137D01*
X84885258Y-61562941D01*
G36*
X145845258Y-61562941D02*
X145860183Y-61567210D01*
X145883376Y-61623204D01*
X146275796Y-62015624D01*
X146331790Y-62038817D01*
X146336059Y-62053742D01*
X146463863Y-62099320D01*
X146336059Y-62152258D01*
X146331790Y-62167183D01*
X146275796Y-62190376D01*
X145883376Y-62582796D01*
X145860183Y-62638790D01*
X145845258Y-62643059D01*
X145799680Y-62770863D01*
X145746742Y-62643059D01*
X145731817Y-62638790D01*
X145708624Y-62582796D01*
X145316204Y-62190376D01*
X145260210Y-62167183D01*
X145255941Y-62152258D01*
X145128137Y-62106680D01*
X145255941Y-62053742D01*
X145260210Y-62038817D01*
X145316204Y-62015624D01*
X145708624Y-61623204D01*
X145731817Y-61567210D01*
X145746742Y-61562941D01*
X145792320Y-61435137D01*
X145845258Y-61562941D01*
X145845258Y-61562941D01*
G37*
X145845258Y-61562941D02*
X145860183Y-61567210D01*
X145883376Y-61623204D01*
X146275796Y-62015624D01*
X146331790Y-62038817D01*
X146336059Y-62053742D01*
X146463863Y-62099320D01*
X146336059Y-62152258D01*
X146331790Y-62167183D01*
X146275796Y-62190376D01*
X145883376Y-62582796D01*
X145860183Y-62638790D01*
X145845258Y-62643059D01*
X145799680Y-62770863D01*
X145746742Y-62643059D01*
X145731817Y-62638790D01*
X145708624Y-62582796D01*
X145316204Y-62190376D01*
X145260210Y-62167183D01*
X145255941Y-62152258D01*
X145128137Y-62106680D01*
X145255941Y-62053742D01*
X145260210Y-62038817D01*
X145316204Y-62015624D01*
X145708624Y-61623204D01*
X145731817Y-61567210D01*
X145746742Y-61562941D01*
X145792320Y-61435137D01*
X145845258Y-61562941D01*
G36*
X143305258Y-61562941D02*
X143320183Y-61567210D01*
X143343376Y-61623204D01*
X143735796Y-62015624D01*
X143791790Y-62038817D01*
X143796059Y-62053742D01*
X143923863Y-62099320D01*
X143796059Y-62152258D01*
X143791790Y-62167183D01*
X143735796Y-62190376D01*
X143343376Y-62582796D01*
X143320183Y-62638790D01*
X143305258Y-62643059D01*
X143259680Y-62770863D01*
X143206742Y-62643059D01*
X143191817Y-62638790D01*
X143168624Y-62582796D01*
X142776204Y-62190376D01*
X142720210Y-62167183D01*
X142715941Y-62152258D01*
X142588137Y-62106680D01*
X142715941Y-62053742D01*
X142720210Y-62038817D01*
X142776204Y-62015624D01*
X143168624Y-61623204D01*
X143191817Y-61567210D01*
X143206742Y-61562941D01*
X143252320Y-61435137D01*
X143305258Y-61562941D01*
X143305258Y-61562941D01*
G37*
X143305258Y-61562941D02*
X143320183Y-61567210D01*
X143343376Y-61623204D01*
X143735796Y-62015624D01*
X143791790Y-62038817D01*
X143796059Y-62053742D01*
X143923863Y-62099320D01*
X143796059Y-62152258D01*
X143791790Y-62167183D01*
X143735796Y-62190376D01*
X143343376Y-62582796D01*
X143320183Y-62638790D01*
X143305258Y-62643059D01*
X143259680Y-62770863D01*
X143206742Y-62643059D01*
X143191817Y-62638790D01*
X143168624Y-62582796D01*
X142776204Y-62190376D01*
X142720210Y-62167183D01*
X142715941Y-62152258D01*
X142588137Y-62106680D01*
X142715941Y-62053742D01*
X142720210Y-62038817D01*
X142776204Y-62015624D01*
X143168624Y-61623204D01*
X143191817Y-61567210D01*
X143206742Y-61562941D01*
X143252320Y-61435137D01*
X143305258Y-61562941D01*
G36*
X87425258Y-61562941D02*
X87440183Y-61567210D01*
X87463376Y-61623204D01*
X87855796Y-62015624D01*
X87911790Y-62038817D01*
X87916059Y-62053742D01*
X88043863Y-62099320D01*
X87916059Y-62152258D01*
X87911790Y-62167183D01*
X87855796Y-62190376D01*
X87463376Y-62582796D01*
X87440183Y-62638790D01*
X87425258Y-62643059D01*
X87379680Y-62770863D01*
X87326742Y-62643059D01*
X87311817Y-62638790D01*
X87288624Y-62582796D01*
X86896204Y-62190376D01*
X86840210Y-62167183D01*
X86835941Y-62152258D01*
X86708137Y-62106680D01*
X86835941Y-62053742D01*
X86840210Y-62038817D01*
X86896204Y-62015624D01*
X87288624Y-61623204D01*
X87311817Y-61567210D01*
X87326742Y-61562941D01*
X87372320Y-61435137D01*
X87425258Y-61562941D01*
X87425258Y-61562941D01*
G37*
X87425258Y-61562941D02*
X87440183Y-61567210D01*
X87463376Y-61623204D01*
X87855796Y-62015624D01*
X87911790Y-62038817D01*
X87916059Y-62053742D01*
X88043863Y-62099320D01*
X87916059Y-62152258D01*
X87911790Y-62167183D01*
X87855796Y-62190376D01*
X87463376Y-62582796D01*
X87440183Y-62638790D01*
X87425258Y-62643059D01*
X87379680Y-62770863D01*
X87326742Y-62643059D01*
X87311817Y-62638790D01*
X87288624Y-62582796D01*
X86896204Y-62190376D01*
X86840210Y-62167183D01*
X86835941Y-62152258D01*
X86708137Y-62106680D01*
X86835941Y-62053742D01*
X86840210Y-62038817D01*
X86896204Y-62015624D01*
X87288624Y-61623204D01*
X87311817Y-61567210D01*
X87326742Y-61562941D01*
X87372320Y-61435137D01*
X87425258Y-61562941D01*
G36*
X140765258Y-61562941D02*
X140780183Y-61567210D01*
X140803376Y-61623204D01*
X141195796Y-62015624D01*
X141251790Y-62038817D01*
X141256059Y-62053742D01*
X141383863Y-62099320D01*
X141256059Y-62152258D01*
X141251790Y-62167183D01*
X141195796Y-62190376D01*
X140803376Y-62582796D01*
X140780183Y-62638790D01*
X140765258Y-62643059D01*
X140719680Y-62770863D01*
X140666742Y-62643059D01*
X140651817Y-62638790D01*
X140628624Y-62582796D01*
X140236204Y-62190376D01*
X140180210Y-62167183D01*
X140175941Y-62152258D01*
X140048137Y-62106680D01*
X140175941Y-62053742D01*
X140180210Y-62038817D01*
X140236204Y-62015624D01*
X140628624Y-61623204D01*
X140651817Y-61567210D01*
X140666742Y-61562941D01*
X140712320Y-61435137D01*
X140765258Y-61562941D01*
X140765258Y-61562941D01*
G37*
X140765258Y-61562941D02*
X140780183Y-61567210D01*
X140803376Y-61623204D01*
X141195796Y-62015624D01*
X141251790Y-62038817D01*
X141256059Y-62053742D01*
X141383863Y-62099320D01*
X141256059Y-62152258D01*
X141251790Y-62167183D01*
X141195796Y-62190376D01*
X140803376Y-62582796D01*
X140780183Y-62638790D01*
X140765258Y-62643059D01*
X140719680Y-62770863D01*
X140666742Y-62643059D01*
X140651817Y-62638790D01*
X140628624Y-62582796D01*
X140236204Y-62190376D01*
X140180210Y-62167183D01*
X140175941Y-62152258D01*
X140048137Y-62106680D01*
X140175941Y-62053742D01*
X140180210Y-62038817D01*
X140236204Y-62015624D01*
X140628624Y-61623204D01*
X140651817Y-61567210D01*
X140666742Y-61562941D01*
X140712320Y-61435137D01*
X140765258Y-61562941D01*
G36*
X97585258Y-61562941D02*
X97600183Y-61567210D01*
X97623376Y-61623204D01*
X98015796Y-62015624D01*
X98071790Y-62038817D01*
X98076059Y-62053742D01*
X98203863Y-62099320D01*
X98076059Y-62152258D01*
X98071790Y-62167183D01*
X98015796Y-62190376D01*
X97623376Y-62582796D01*
X97600183Y-62638790D01*
X97585258Y-62643059D01*
X97539680Y-62770863D01*
X97486742Y-62643059D01*
X97471817Y-62638790D01*
X97448624Y-62582796D01*
X97056204Y-62190376D01*
X97000210Y-62167183D01*
X96995941Y-62152258D01*
X96868137Y-62106680D01*
X96995941Y-62053742D01*
X97000210Y-62038817D01*
X97056204Y-62015624D01*
X97448624Y-61623204D01*
X97471817Y-61567210D01*
X97486742Y-61562941D01*
X97532320Y-61435137D01*
X97585258Y-61562941D01*
X97585258Y-61562941D01*
G37*
X97585258Y-61562941D02*
X97600183Y-61567210D01*
X97623376Y-61623204D01*
X98015796Y-62015624D01*
X98071790Y-62038817D01*
X98076059Y-62053742D01*
X98203863Y-62099320D01*
X98076059Y-62152258D01*
X98071790Y-62167183D01*
X98015796Y-62190376D01*
X97623376Y-62582796D01*
X97600183Y-62638790D01*
X97585258Y-62643059D01*
X97539680Y-62770863D01*
X97486742Y-62643059D01*
X97471817Y-62638790D01*
X97448624Y-62582796D01*
X97056204Y-62190376D01*
X97000210Y-62167183D01*
X96995941Y-62152258D01*
X96868137Y-62106680D01*
X96995941Y-62053742D01*
X97000210Y-62038817D01*
X97056204Y-62015624D01*
X97448624Y-61623204D01*
X97471817Y-61567210D01*
X97486742Y-61562941D01*
X97532320Y-61435137D01*
X97585258Y-61562941D01*
G36*
X89965258Y-61562941D02*
X89980183Y-61567210D01*
X90003376Y-61623204D01*
X90395796Y-62015624D01*
X90451790Y-62038817D01*
X90456059Y-62053742D01*
X90583863Y-62099320D01*
X90456059Y-62152258D01*
X90451790Y-62167183D01*
X90395796Y-62190376D01*
X90003376Y-62582796D01*
X89980183Y-62638790D01*
X89965258Y-62643059D01*
X89919680Y-62770863D01*
X89866742Y-62643059D01*
X89851817Y-62638790D01*
X89828624Y-62582796D01*
X89436204Y-62190376D01*
X89380210Y-62167183D01*
X89375941Y-62152258D01*
X89248137Y-62106680D01*
X89375941Y-62053742D01*
X89380210Y-62038817D01*
X89436204Y-62015624D01*
X89828624Y-61623204D01*
X89851817Y-61567210D01*
X89866742Y-61562941D01*
X89912320Y-61435137D01*
X89965258Y-61562941D01*
X89965258Y-61562941D01*
G37*
X89965258Y-61562941D02*
X89980183Y-61567210D01*
X90003376Y-61623204D01*
X90395796Y-62015624D01*
X90451790Y-62038817D01*
X90456059Y-62053742D01*
X90583863Y-62099320D01*
X90456059Y-62152258D01*
X90451790Y-62167183D01*
X90395796Y-62190376D01*
X90003376Y-62582796D01*
X89980183Y-62638790D01*
X89965258Y-62643059D01*
X89919680Y-62770863D01*
X89866742Y-62643059D01*
X89851817Y-62638790D01*
X89828624Y-62582796D01*
X89436204Y-62190376D01*
X89380210Y-62167183D01*
X89375941Y-62152258D01*
X89248137Y-62106680D01*
X89375941Y-62053742D01*
X89380210Y-62038817D01*
X89436204Y-62015624D01*
X89828624Y-61623204D01*
X89851817Y-61567210D01*
X89866742Y-61562941D01*
X89912320Y-61435137D01*
X89965258Y-61562941D01*
G36*
X95045258Y-61562941D02*
X95060183Y-61567210D01*
X95083376Y-61623204D01*
X95475796Y-62015624D01*
X95531790Y-62038817D01*
X95536059Y-62053742D01*
X95663863Y-62099320D01*
X95536059Y-62152258D01*
X95531790Y-62167183D01*
X95475796Y-62190376D01*
X95083376Y-62582796D01*
X95060183Y-62638790D01*
X95045258Y-62643059D01*
X94999680Y-62770863D01*
X94946742Y-62643059D01*
X94931817Y-62638790D01*
X94908624Y-62582796D01*
X94516204Y-62190376D01*
X94460210Y-62167183D01*
X94455941Y-62152258D01*
X94328137Y-62106680D01*
X94455941Y-62053742D01*
X94460210Y-62038817D01*
X94516204Y-62015624D01*
X94908624Y-61623204D01*
X94931817Y-61567210D01*
X94946742Y-61562941D01*
X94992320Y-61435137D01*
X95045258Y-61562941D01*
X95045258Y-61562941D01*
G37*
X95045258Y-61562941D02*
X95060183Y-61567210D01*
X95083376Y-61623204D01*
X95475796Y-62015624D01*
X95531790Y-62038817D01*
X95536059Y-62053742D01*
X95663863Y-62099320D01*
X95536059Y-62152258D01*
X95531790Y-62167183D01*
X95475796Y-62190376D01*
X95083376Y-62582796D01*
X95060183Y-62638790D01*
X95045258Y-62643059D01*
X94999680Y-62770863D01*
X94946742Y-62643059D01*
X94931817Y-62638790D01*
X94908624Y-62582796D01*
X94516204Y-62190376D01*
X94460210Y-62167183D01*
X94455941Y-62152258D01*
X94328137Y-62106680D01*
X94455941Y-62053742D01*
X94460210Y-62038817D01*
X94516204Y-62015624D01*
X94908624Y-61623204D01*
X94931817Y-61567210D01*
X94946742Y-61562941D01*
X94992320Y-61435137D01*
X95045258Y-61562941D01*
M02*
