G04 #@! TF.GenerationSoftware,KiCad,Pcbnew,(5.0.2)-1*
G04 #@! TF.CreationDate,2019-02-27T01:45:04-06:00*
G04 #@! TF.ProjectId,TIVA SMD Header Guide,54495641-2053-44d4-9420-486561646572,rev?*
G04 #@! TF.SameCoordinates,Original*
G04 #@! TF.FileFunction,Soldermask,Bot*
G04 #@! TF.FilePolarity,Negative*
%FSLAX46Y46*%
G04 Gerber Fmt 4.6, Leading zero omitted, Abs format (unit mm)*
G04 Created by KiCad (PCBNEW (5.0.2)-1) date 2/27/2019 1:45:04 AM*
%MOMM*%
%LPD*%
G01*
G04 APERTURE LIST*
%ADD10C,0.100000*%
G04 APERTURE END LIST*
D10*
G36*
X139633287Y-105611446D02*
X139726022Y-105629892D01*
X139900731Y-105702259D01*
X140055872Y-105805921D01*
X140057967Y-105807321D01*
X140191679Y-105941033D01*
X140296742Y-106098271D01*
X140369108Y-106272979D01*
X140406000Y-106458447D01*
X140406000Y-106647553D01*
X140369108Y-106833021D01*
X140296742Y-107007729D01*
X140191679Y-107164967D01*
X140057967Y-107298679D01*
X140057964Y-107298681D01*
X139900731Y-107403741D01*
X139726022Y-107476108D01*
X139633287Y-107494554D01*
X139540553Y-107513000D01*
X139351447Y-107513000D01*
X139258713Y-107494554D01*
X139165978Y-107476108D01*
X138991269Y-107403741D01*
X138834036Y-107298681D01*
X138834033Y-107298679D01*
X138700321Y-107164967D01*
X138595258Y-107007729D01*
X138522892Y-106833021D01*
X138486000Y-106647553D01*
X138486000Y-106458447D01*
X138522892Y-106272979D01*
X138595258Y-106098271D01*
X138700321Y-105941033D01*
X138834033Y-105807321D01*
X138836128Y-105805921D01*
X138991269Y-105702259D01*
X139165978Y-105629892D01*
X139258713Y-105611446D01*
X139351447Y-105593000D01*
X139540553Y-105593000D01*
X139633287Y-105611446D01*
X139633287Y-105611446D01*
G37*
G36*
X76133287Y-105611446D02*
X76226022Y-105629892D01*
X76400731Y-105702259D01*
X76555872Y-105805921D01*
X76557967Y-105807321D01*
X76691679Y-105941033D01*
X76796742Y-106098271D01*
X76869108Y-106272979D01*
X76906000Y-106458447D01*
X76906000Y-106647553D01*
X76869108Y-106833021D01*
X76796742Y-107007729D01*
X76691679Y-107164967D01*
X76557967Y-107298679D01*
X76557964Y-107298681D01*
X76400731Y-107403741D01*
X76226022Y-107476108D01*
X76133287Y-107494554D01*
X76040553Y-107513000D01*
X75851447Y-107513000D01*
X75758713Y-107494554D01*
X75665978Y-107476108D01*
X75491269Y-107403741D01*
X75334036Y-107298681D01*
X75334033Y-107298679D01*
X75200321Y-107164967D01*
X75095258Y-107007729D01*
X75022892Y-106833021D01*
X74986000Y-106647553D01*
X74986000Y-106458447D01*
X75022892Y-106272979D01*
X75095258Y-106098271D01*
X75200321Y-105941033D01*
X75334033Y-105807321D01*
X75336128Y-105805921D01*
X75491269Y-105702259D01*
X75665978Y-105629892D01*
X75758713Y-105611446D01*
X75851447Y-105593000D01*
X76040553Y-105593000D01*
X76133287Y-105611446D01*
X76133287Y-105611446D01*
G37*
G36*
X98993287Y-105611446D02*
X99086022Y-105629892D01*
X99260731Y-105702259D01*
X99415872Y-105805921D01*
X99417967Y-105807321D01*
X99551679Y-105941033D01*
X99656742Y-106098271D01*
X99729108Y-106272979D01*
X99766000Y-106458447D01*
X99766000Y-106647553D01*
X99729108Y-106833021D01*
X99656742Y-107007729D01*
X99551679Y-107164967D01*
X99417967Y-107298679D01*
X99417964Y-107298681D01*
X99260731Y-107403741D01*
X99086022Y-107476108D01*
X98993287Y-107494554D01*
X98900553Y-107513000D01*
X98711447Y-107513000D01*
X98618713Y-107494554D01*
X98525978Y-107476108D01*
X98351269Y-107403741D01*
X98194036Y-107298681D01*
X98194033Y-107298679D01*
X98060321Y-107164967D01*
X97955258Y-107007729D01*
X97882892Y-106833021D01*
X97846000Y-106647553D01*
X97846000Y-106458447D01*
X97882892Y-106272979D01*
X97955258Y-106098271D01*
X98060321Y-105941033D01*
X98194033Y-105807321D01*
X98196128Y-105805921D01*
X98351269Y-105702259D01*
X98525978Y-105629892D01*
X98618713Y-105611446D01*
X98711447Y-105593000D01*
X98900553Y-105593000D01*
X98993287Y-105611446D01*
X98993287Y-105611446D01*
G37*
G36*
X96453287Y-105611446D02*
X96546022Y-105629892D01*
X96720731Y-105702259D01*
X96875872Y-105805921D01*
X96877967Y-105807321D01*
X97011679Y-105941033D01*
X97116742Y-106098271D01*
X97189108Y-106272979D01*
X97226000Y-106458447D01*
X97226000Y-106647553D01*
X97189108Y-106833021D01*
X97116742Y-107007729D01*
X97011679Y-107164967D01*
X96877967Y-107298679D01*
X96877964Y-107298681D01*
X96720731Y-107403741D01*
X96546022Y-107476108D01*
X96453287Y-107494554D01*
X96360553Y-107513000D01*
X96171447Y-107513000D01*
X96078713Y-107494554D01*
X95985978Y-107476108D01*
X95811269Y-107403741D01*
X95654036Y-107298681D01*
X95654033Y-107298679D01*
X95520321Y-107164967D01*
X95415258Y-107007729D01*
X95342892Y-106833021D01*
X95306000Y-106647553D01*
X95306000Y-106458447D01*
X95342892Y-106272979D01*
X95415258Y-106098271D01*
X95520321Y-105941033D01*
X95654033Y-105807321D01*
X95656128Y-105805921D01*
X95811269Y-105702259D01*
X95985978Y-105629892D01*
X96078713Y-105611446D01*
X96171447Y-105593000D01*
X96360553Y-105593000D01*
X96453287Y-105611446D01*
X96453287Y-105611446D01*
G37*
G36*
X93913287Y-105611446D02*
X94006022Y-105629892D01*
X94180731Y-105702259D01*
X94335872Y-105805921D01*
X94337967Y-105807321D01*
X94471679Y-105941033D01*
X94576742Y-106098271D01*
X94649108Y-106272979D01*
X94686000Y-106458447D01*
X94686000Y-106647553D01*
X94649108Y-106833021D01*
X94576742Y-107007729D01*
X94471679Y-107164967D01*
X94337967Y-107298679D01*
X94337964Y-107298681D01*
X94180731Y-107403741D01*
X94006022Y-107476108D01*
X93913287Y-107494554D01*
X93820553Y-107513000D01*
X93631447Y-107513000D01*
X93538713Y-107494554D01*
X93445978Y-107476108D01*
X93271269Y-107403741D01*
X93114036Y-107298681D01*
X93114033Y-107298679D01*
X92980321Y-107164967D01*
X92875258Y-107007729D01*
X92802892Y-106833021D01*
X92766000Y-106647553D01*
X92766000Y-106458447D01*
X92802892Y-106272979D01*
X92875258Y-106098271D01*
X92980321Y-105941033D01*
X93114033Y-105807321D01*
X93116128Y-105805921D01*
X93271269Y-105702259D01*
X93445978Y-105629892D01*
X93538713Y-105611446D01*
X93631447Y-105593000D01*
X93820553Y-105593000D01*
X93913287Y-105611446D01*
X93913287Y-105611446D01*
G37*
G36*
X91373287Y-105611446D02*
X91466022Y-105629892D01*
X91640731Y-105702259D01*
X91795872Y-105805921D01*
X91797967Y-105807321D01*
X91931679Y-105941033D01*
X92036742Y-106098271D01*
X92109108Y-106272979D01*
X92146000Y-106458447D01*
X92146000Y-106647553D01*
X92109108Y-106833021D01*
X92036742Y-107007729D01*
X91931679Y-107164967D01*
X91797967Y-107298679D01*
X91797964Y-107298681D01*
X91640731Y-107403741D01*
X91466022Y-107476108D01*
X91373287Y-107494554D01*
X91280553Y-107513000D01*
X91091447Y-107513000D01*
X90998713Y-107494554D01*
X90905978Y-107476108D01*
X90731269Y-107403741D01*
X90574036Y-107298681D01*
X90574033Y-107298679D01*
X90440321Y-107164967D01*
X90335258Y-107007729D01*
X90262892Y-106833021D01*
X90226000Y-106647553D01*
X90226000Y-106458447D01*
X90262892Y-106272979D01*
X90335258Y-106098271D01*
X90440321Y-105941033D01*
X90574033Y-105807321D01*
X90576128Y-105805921D01*
X90731269Y-105702259D01*
X90905978Y-105629892D01*
X90998713Y-105611446D01*
X91091447Y-105593000D01*
X91280553Y-105593000D01*
X91373287Y-105611446D01*
X91373287Y-105611446D01*
G37*
G36*
X88833287Y-105611446D02*
X88926022Y-105629892D01*
X89100731Y-105702259D01*
X89255872Y-105805921D01*
X89257967Y-105807321D01*
X89391679Y-105941033D01*
X89496742Y-106098271D01*
X89569108Y-106272979D01*
X89606000Y-106458447D01*
X89606000Y-106647553D01*
X89569108Y-106833021D01*
X89496742Y-107007729D01*
X89391679Y-107164967D01*
X89257967Y-107298679D01*
X89257964Y-107298681D01*
X89100731Y-107403741D01*
X88926022Y-107476108D01*
X88833287Y-107494554D01*
X88740553Y-107513000D01*
X88551447Y-107513000D01*
X88458713Y-107494554D01*
X88365978Y-107476108D01*
X88191269Y-107403741D01*
X88034036Y-107298681D01*
X88034033Y-107298679D01*
X87900321Y-107164967D01*
X87795258Y-107007729D01*
X87722892Y-106833021D01*
X87686000Y-106647553D01*
X87686000Y-106458447D01*
X87722892Y-106272979D01*
X87795258Y-106098271D01*
X87900321Y-105941033D01*
X88034033Y-105807321D01*
X88036128Y-105805921D01*
X88191269Y-105702259D01*
X88365978Y-105629892D01*
X88458713Y-105611446D01*
X88551447Y-105593000D01*
X88740553Y-105593000D01*
X88833287Y-105611446D01*
X88833287Y-105611446D01*
G37*
G36*
X86293287Y-105611446D02*
X86386022Y-105629892D01*
X86560731Y-105702259D01*
X86715872Y-105805921D01*
X86717967Y-105807321D01*
X86851679Y-105941033D01*
X86956742Y-106098271D01*
X87029108Y-106272979D01*
X87066000Y-106458447D01*
X87066000Y-106647553D01*
X87029108Y-106833021D01*
X86956742Y-107007729D01*
X86851679Y-107164967D01*
X86717967Y-107298679D01*
X86717964Y-107298681D01*
X86560731Y-107403741D01*
X86386022Y-107476108D01*
X86293287Y-107494554D01*
X86200553Y-107513000D01*
X86011447Y-107513000D01*
X85918713Y-107494554D01*
X85825978Y-107476108D01*
X85651269Y-107403741D01*
X85494036Y-107298681D01*
X85494033Y-107298679D01*
X85360321Y-107164967D01*
X85255258Y-107007729D01*
X85182892Y-106833021D01*
X85146000Y-106647553D01*
X85146000Y-106458447D01*
X85182892Y-106272979D01*
X85255258Y-106098271D01*
X85360321Y-105941033D01*
X85494033Y-105807321D01*
X85496128Y-105805921D01*
X85651269Y-105702259D01*
X85825978Y-105629892D01*
X85918713Y-105611446D01*
X86011447Y-105593000D01*
X86200553Y-105593000D01*
X86293287Y-105611446D01*
X86293287Y-105611446D01*
G37*
G36*
X83753287Y-105611446D02*
X83846022Y-105629892D01*
X84020731Y-105702259D01*
X84175872Y-105805921D01*
X84177967Y-105807321D01*
X84311679Y-105941033D01*
X84416742Y-106098271D01*
X84489108Y-106272979D01*
X84526000Y-106458447D01*
X84526000Y-106647553D01*
X84489108Y-106833021D01*
X84416742Y-107007729D01*
X84311679Y-107164967D01*
X84177967Y-107298679D01*
X84177964Y-107298681D01*
X84020731Y-107403741D01*
X83846022Y-107476108D01*
X83753287Y-107494554D01*
X83660553Y-107513000D01*
X83471447Y-107513000D01*
X83378713Y-107494554D01*
X83285978Y-107476108D01*
X83111269Y-107403741D01*
X82954036Y-107298681D01*
X82954033Y-107298679D01*
X82820321Y-107164967D01*
X82715258Y-107007729D01*
X82642892Y-106833021D01*
X82606000Y-106647553D01*
X82606000Y-106458447D01*
X82642892Y-106272979D01*
X82715258Y-106098271D01*
X82820321Y-105941033D01*
X82954033Y-105807321D01*
X82956128Y-105805921D01*
X83111269Y-105702259D01*
X83285978Y-105629892D01*
X83378713Y-105611446D01*
X83471447Y-105593000D01*
X83660553Y-105593000D01*
X83753287Y-105611446D01*
X83753287Y-105611446D01*
G37*
G36*
X81213287Y-105611446D02*
X81306022Y-105629892D01*
X81480731Y-105702259D01*
X81635872Y-105805921D01*
X81637967Y-105807321D01*
X81771679Y-105941033D01*
X81876742Y-106098271D01*
X81949108Y-106272979D01*
X81986000Y-106458447D01*
X81986000Y-106647553D01*
X81949108Y-106833021D01*
X81876742Y-107007729D01*
X81771679Y-107164967D01*
X81637967Y-107298679D01*
X81637964Y-107298681D01*
X81480731Y-107403741D01*
X81306022Y-107476108D01*
X81213287Y-107494554D01*
X81120553Y-107513000D01*
X80931447Y-107513000D01*
X80838713Y-107494554D01*
X80745978Y-107476108D01*
X80571269Y-107403741D01*
X80414036Y-107298681D01*
X80414033Y-107298679D01*
X80280321Y-107164967D01*
X80175258Y-107007729D01*
X80102892Y-106833021D01*
X80066000Y-106647553D01*
X80066000Y-106458447D01*
X80102892Y-106272979D01*
X80175258Y-106098271D01*
X80280321Y-105941033D01*
X80414033Y-105807321D01*
X80416128Y-105805921D01*
X80571269Y-105702259D01*
X80745978Y-105629892D01*
X80838713Y-105611446D01*
X80931447Y-105593000D01*
X81120553Y-105593000D01*
X81213287Y-105611446D01*
X81213287Y-105611446D01*
G37*
G36*
X78673287Y-105611446D02*
X78766022Y-105629892D01*
X78940731Y-105702259D01*
X79095872Y-105805921D01*
X79097967Y-105807321D01*
X79231679Y-105941033D01*
X79336742Y-106098271D01*
X79409108Y-106272979D01*
X79446000Y-106458447D01*
X79446000Y-106647553D01*
X79409108Y-106833021D01*
X79336742Y-107007729D01*
X79231679Y-107164967D01*
X79097967Y-107298679D01*
X79097964Y-107298681D01*
X78940731Y-107403741D01*
X78766022Y-107476108D01*
X78673287Y-107494554D01*
X78580553Y-107513000D01*
X78391447Y-107513000D01*
X78298713Y-107494554D01*
X78205978Y-107476108D01*
X78031269Y-107403741D01*
X77874036Y-107298681D01*
X77874033Y-107298679D01*
X77740321Y-107164967D01*
X77635258Y-107007729D01*
X77562892Y-106833021D01*
X77526000Y-106647553D01*
X77526000Y-106458447D01*
X77562892Y-106272979D01*
X77635258Y-106098271D01*
X77740321Y-105941033D01*
X77874033Y-105807321D01*
X77876128Y-105805921D01*
X78031269Y-105702259D01*
X78205978Y-105629892D01*
X78298713Y-105611446D01*
X78391447Y-105593000D01*
X78580553Y-105593000D01*
X78673287Y-105611446D01*
X78673287Y-105611446D01*
G37*
G36*
X157413287Y-105611446D02*
X157506022Y-105629892D01*
X157680731Y-105702259D01*
X157835872Y-105805921D01*
X157837967Y-105807321D01*
X157971679Y-105941033D01*
X158076742Y-106098271D01*
X158149108Y-106272979D01*
X158186000Y-106458447D01*
X158186000Y-106647553D01*
X158149108Y-106833021D01*
X158076742Y-107007729D01*
X157971679Y-107164967D01*
X157837967Y-107298679D01*
X157837964Y-107298681D01*
X157680731Y-107403741D01*
X157506022Y-107476108D01*
X157413287Y-107494554D01*
X157320553Y-107513000D01*
X157131447Y-107513000D01*
X157038713Y-107494554D01*
X156945978Y-107476108D01*
X156771269Y-107403741D01*
X156614036Y-107298681D01*
X156614033Y-107298679D01*
X156480321Y-107164967D01*
X156375258Y-107007729D01*
X156302892Y-106833021D01*
X156266000Y-106647553D01*
X156266000Y-106458447D01*
X156302892Y-106272979D01*
X156375258Y-106098271D01*
X156480321Y-105941033D01*
X156614033Y-105807321D01*
X156616128Y-105805921D01*
X156771269Y-105702259D01*
X156945978Y-105629892D01*
X157038713Y-105611446D01*
X157131447Y-105593000D01*
X157320553Y-105593000D01*
X157413287Y-105611446D01*
X157413287Y-105611446D01*
G37*
G36*
X152333287Y-105611446D02*
X152426022Y-105629892D01*
X152600731Y-105702259D01*
X152755872Y-105805921D01*
X152757967Y-105807321D01*
X152891679Y-105941033D01*
X152996742Y-106098271D01*
X153069108Y-106272979D01*
X153106000Y-106458447D01*
X153106000Y-106647553D01*
X153069108Y-106833021D01*
X152996742Y-107007729D01*
X152891679Y-107164967D01*
X152757967Y-107298679D01*
X152757964Y-107298681D01*
X152600731Y-107403741D01*
X152426022Y-107476108D01*
X152333287Y-107494554D01*
X152240553Y-107513000D01*
X152051447Y-107513000D01*
X151958713Y-107494554D01*
X151865978Y-107476108D01*
X151691269Y-107403741D01*
X151534036Y-107298681D01*
X151534033Y-107298679D01*
X151400321Y-107164967D01*
X151295258Y-107007729D01*
X151222892Y-106833021D01*
X151186000Y-106647553D01*
X151186000Y-106458447D01*
X151222892Y-106272979D01*
X151295258Y-106098271D01*
X151400321Y-105941033D01*
X151534033Y-105807321D01*
X151536128Y-105805921D01*
X151691269Y-105702259D01*
X151865978Y-105629892D01*
X151958713Y-105611446D01*
X152051447Y-105593000D01*
X152240553Y-105593000D01*
X152333287Y-105611446D01*
X152333287Y-105611446D01*
G37*
G36*
X149793287Y-105611446D02*
X149886022Y-105629892D01*
X150060731Y-105702259D01*
X150215872Y-105805921D01*
X150217967Y-105807321D01*
X150351679Y-105941033D01*
X150456742Y-106098271D01*
X150529108Y-106272979D01*
X150566000Y-106458447D01*
X150566000Y-106647553D01*
X150529108Y-106833021D01*
X150456742Y-107007729D01*
X150351679Y-107164967D01*
X150217967Y-107298679D01*
X150217964Y-107298681D01*
X150060731Y-107403741D01*
X149886022Y-107476108D01*
X149793287Y-107494554D01*
X149700553Y-107513000D01*
X149511447Y-107513000D01*
X149418713Y-107494554D01*
X149325978Y-107476108D01*
X149151269Y-107403741D01*
X148994036Y-107298681D01*
X148994033Y-107298679D01*
X148860321Y-107164967D01*
X148755258Y-107007729D01*
X148682892Y-106833021D01*
X148646000Y-106647553D01*
X148646000Y-106458447D01*
X148682892Y-106272979D01*
X148755258Y-106098271D01*
X148860321Y-105941033D01*
X148994033Y-105807321D01*
X148996128Y-105805921D01*
X149151269Y-105702259D01*
X149325978Y-105629892D01*
X149418713Y-105611446D01*
X149511447Y-105593000D01*
X149700553Y-105593000D01*
X149793287Y-105611446D01*
X149793287Y-105611446D01*
G37*
G36*
X147253287Y-105611446D02*
X147346022Y-105629892D01*
X147520731Y-105702259D01*
X147675872Y-105805921D01*
X147677967Y-105807321D01*
X147811679Y-105941033D01*
X147916742Y-106098271D01*
X147989108Y-106272979D01*
X148026000Y-106458447D01*
X148026000Y-106647553D01*
X147989108Y-106833021D01*
X147916742Y-107007729D01*
X147811679Y-107164967D01*
X147677967Y-107298679D01*
X147677964Y-107298681D01*
X147520731Y-107403741D01*
X147346022Y-107476108D01*
X147253287Y-107494554D01*
X147160553Y-107513000D01*
X146971447Y-107513000D01*
X146878713Y-107494554D01*
X146785978Y-107476108D01*
X146611269Y-107403741D01*
X146454036Y-107298681D01*
X146454033Y-107298679D01*
X146320321Y-107164967D01*
X146215258Y-107007729D01*
X146142892Y-106833021D01*
X146106000Y-106647553D01*
X146106000Y-106458447D01*
X146142892Y-106272979D01*
X146215258Y-106098271D01*
X146320321Y-105941033D01*
X146454033Y-105807321D01*
X146456128Y-105805921D01*
X146611269Y-105702259D01*
X146785978Y-105629892D01*
X146878713Y-105611446D01*
X146971447Y-105593000D01*
X147160553Y-105593000D01*
X147253287Y-105611446D01*
X147253287Y-105611446D01*
G37*
G36*
X144713287Y-105611446D02*
X144806022Y-105629892D01*
X144980731Y-105702259D01*
X145135872Y-105805921D01*
X145137967Y-105807321D01*
X145271679Y-105941033D01*
X145376742Y-106098271D01*
X145449108Y-106272979D01*
X145486000Y-106458447D01*
X145486000Y-106647553D01*
X145449108Y-106833021D01*
X145376742Y-107007729D01*
X145271679Y-107164967D01*
X145137967Y-107298679D01*
X145137964Y-107298681D01*
X144980731Y-107403741D01*
X144806022Y-107476108D01*
X144713287Y-107494554D01*
X144620553Y-107513000D01*
X144431447Y-107513000D01*
X144338713Y-107494554D01*
X144245978Y-107476108D01*
X144071269Y-107403741D01*
X143914036Y-107298681D01*
X143914033Y-107298679D01*
X143780321Y-107164967D01*
X143675258Y-107007729D01*
X143602892Y-106833021D01*
X143566000Y-106647553D01*
X143566000Y-106458447D01*
X143602892Y-106272979D01*
X143675258Y-106098271D01*
X143780321Y-105941033D01*
X143914033Y-105807321D01*
X143916128Y-105805921D01*
X144071269Y-105702259D01*
X144245978Y-105629892D01*
X144338713Y-105611446D01*
X144431447Y-105593000D01*
X144620553Y-105593000D01*
X144713287Y-105611446D01*
X144713287Y-105611446D01*
G37*
G36*
X142173287Y-105611446D02*
X142266022Y-105629892D01*
X142440731Y-105702259D01*
X142595872Y-105805921D01*
X142597967Y-105807321D01*
X142731679Y-105941033D01*
X142836742Y-106098271D01*
X142909108Y-106272979D01*
X142946000Y-106458447D01*
X142946000Y-106647553D01*
X142909108Y-106833021D01*
X142836742Y-107007729D01*
X142731679Y-107164967D01*
X142597967Y-107298679D01*
X142597964Y-107298681D01*
X142440731Y-107403741D01*
X142266022Y-107476108D01*
X142173287Y-107494554D01*
X142080553Y-107513000D01*
X141891447Y-107513000D01*
X141798713Y-107494554D01*
X141705978Y-107476108D01*
X141531269Y-107403741D01*
X141374036Y-107298681D01*
X141374033Y-107298679D01*
X141240321Y-107164967D01*
X141135258Y-107007729D01*
X141062892Y-106833021D01*
X141026000Y-106647553D01*
X141026000Y-106458447D01*
X141062892Y-106272979D01*
X141135258Y-106098271D01*
X141240321Y-105941033D01*
X141374033Y-105807321D01*
X141376128Y-105805921D01*
X141531269Y-105702259D01*
X141705978Y-105629892D01*
X141798713Y-105611446D01*
X141891447Y-105593000D01*
X142080553Y-105593000D01*
X142173287Y-105611446D01*
X142173287Y-105611446D01*
G37*
G36*
X159953287Y-105611446D02*
X160046022Y-105629892D01*
X160220731Y-105702259D01*
X160375872Y-105805921D01*
X160377967Y-105807321D01*
X160511679Y-105941033D01*
X160616742Y-106098271D01*
X160689108Y-106272979D01*
X160726000Y-106458447D01*
X160726000Y-106647553D01*
X160689108Y-106833021D01*
X160616742Y-107007729D01*
X160511679Y-107164967D01*
X160377967Y-107298679D01*
X160377964Y-107298681D01*
X160220731Y-107403741D01*
X160046022Y-107476108D01*
X159953287Y-107494554D01*
X159860553Y-107513000D01*
X159671447Y-107513000D01*
X159578713Y-107494554D01*
X159485978Y-107476108D01*
X159311269Y-107403741D01*
X159154036Y-107298681D01*
X159154033Y-107298679D01*
X159020321Y-107164967D01*
X158915258Y-107007729D01*
X158842892Y-106833021D01*
X158806000Y-106647553D01*
X158806000Y-106458447D01*
X158842892Y-106272979D01*
X158915258Y-106098271D01*
X159020321Y-105941033D01*
X159154033Y-105807321D01*
X159156128Y-105805921D01*
X159311269Y-105702259D01*
X159485978Y-105629892D01*
X159578713Y-105611446D01*
X159671447Y-105593000D01*
X159860553Y-105593000D01*
X159953287Y-105611446D01*
X159953287Y-105611446D01*
G37*
G36*
X154873287Y-105611446D02*
X154966022Y-105629892D01*
X155140731Y-105702259D01*
X155295872Y-105805921D01*
X155297967Y-105807321D01*
X155431679Y-105941033D01*
X155536742Y-106098271D01*
X155609108Y-106272979D01*
X155646000Y-106458447D01*
X155646000Y-106647553D01*
X155609108Y-106833021D01*
X155536742Y-107007729D01*
X155431679Y-107164967D01*
X155297967Y-107298679D01*
X155297964Y-107298681D01*
X155140731Y-107403741D01*
X154966022Y-107476108D01*
X154873287Y-107494554D01*
X154780553Y-107513000D01*
X154591447Y-107513000D01*
X154498713Y-107494554D01*
X154405978Y-107476108D01*
X154231269Y-107403741D01*
X154074036Y-107298681D01*
X154074033Y-107298679D01*
X153940321Y-107164967D01*
X153835258Y-107007729D01*
X153762892Y-106833021D01*
X153726000Y-106647553D01*
X153726000Y-106458447D01*
X153762892Y-106272979D01*
X153835258Y-106098271D01*
X153940321Y-105941033D01*
X154074033Y-105807321D01*
X154076128Y-105805921D01*
X154231269Y-105702259D01*
X154405978Y-105629892D01*
X154498713Y-105611446D01*
X154591447Y-105593000D01*
X154780553Y-105593000D01*
X154873287Y-105611446D01*
X154873287Y-105611446D01*
G37*
G36*
X162493287Y-105611446D02*
X162586022Y-105629892D01*
X162760731Y-105702259D01*
X162915872Y-105805921D01*
X162917967Y-105807321D01*
X163051679Y-105941033D01*
X163156742Y-106098271D01*
X163229108Y-106272979D01*
X163266000Y-106458447D01*
X163266000Y-106647553D01*
X163229108Y-106833021D01*
X163156742Y-107007729D01*
X163051679Y-107164967D01*
X162917967Y-107298679D01*
X162917964Y-107298681D01*
X162760731Y-107403741D01*
X162586022Y-107476108D01*
X162493287Y-107494554D01*
X162400553Y-107513000D01*
X162211447Y-107513000D01*
X162118713Y-107494554D01*
X162025978Y-107476108D01*
X161851269Y-107403741D01*
X161694036Y-107298681D01*
X161694033Y-107298679D01*
X161560321Y-107164967D01*
X161455258Y-107007729D01*
X161382892Y-106833021D01*
X161346000Y-106647553D01*
X161346000Y-106458447D01*
X161382892Y-106272979D01*
X161455258Y-106098271D01*
X161560321Y-105941033D01*
X161694033Y-105807321D01*
X161696128Y-105805921D01*
X161851269Y-105702259D01*
X162025978Y-105629892D01*
X162118713Y-105611446D01*
X162211447Y-105593000D01*
X162400553Y-105593000D01*
X162493287Y-105611446D01*
X162493287Y-105611446D01*
G37*
G36*
X78673287Y-103071446D02*
X78766022Y-103089892D01*
X78940731Y-103162259D01*
X79095872Y-103265921D01*
X79097967Y-103267321D01*
X79231679Y-103401033D01*
X79336742Y-103558271D01*
X79409108Y-103732979D01*
X79446000Y-103918447D01*
X79446000Y-104107553D01*
X79409108Y-104293021D01*
X79336742Y-104467729D01*
X79231679Y-104624967D01*
X79097967Y-104758679D01*
X79097964Y-104758681D01*
X78940731Y-104863741D01*
X78766022Y-104936108D01*
X78673287Y-104954554D01*
X78580553Y-104973000D01*
X78391447Y-104973000D01*
X78298713Y-104954554D01*
X78205978Y-104936108D01*
X78031269Y-104863741D01*
X77874036Y-104758681D01*
X77874033Y-104758679D01*
X77740321Y-104624967D01*
X77635258Y-104467729D01*
X77562892Y-104293021D01*
X77526000Y-104107553D01*
X77526000Y-103918447D01*
X77562892Y-103732979D01*
X77635258Y-103558271D01*
X77740321Y-103401033D01*
X77874033Y-103267321D01*
X77876128Y-103265921D01*
X78031269Y-103162259D01*
X78205978Y-103089892D01*
X78298713Y-103071446D01*
X78391447Y-103053000D01*
X78580553Y-103053000D01*
X78673287Y-103071446D01*
X78673287Y-103071446D01*
G37*
G36*
X81213287Y-103071446D02*
X81306022Y-103089892D01*
X81480731Y-103162259D01*
X81635872Y-103265921D01*
X81637967Y-103267321D01*
X81771679Y-103401033D01*
X81876742Y-103558271D01*
X81949108Y-103732979D01*
X81986000Y-103918447D01*
X81986000Y-104107553D01*
X81949108Y-104293021D01*
X81876742Y-104467729D01*
X81771679Y-104624967D01*
X81637967Y-104758679D01*
X81637964Y-104758681D01*
X81480731Y-104863741D01*
X81306022Y-104936108D01*
X81213287Y-104954554D01*
X81120553Y-104973000D01*
X80931447Y-104973000D01*
X80838713Y-104954554D01*
X80745978Y-104936108D01*
X80571269Y-104863741D01*
X80414036Y-104758681D01*
X80414033Y-104758679D01*
X80280321Y-104624967D01*
X80175258Y-104467729D01*
X80102892Y-104293021D01*
X80066000Y-104107553D01*
X80066000Y-103918447D01*
X80102892Y-103732979D01*
X80175258Y-103558271D01*
X80280321Y-103401033D01*
X80414033Y-103267321D01*
X80416128Y-103265921D01*
X80571269Y-103162259D01*
X80745978Y-103089892D01*
X80838713Y-103071446D01*
X80931447Y-103053000D01*
X81120553Y-103053000D01*
X81213287Y-103071446D01*
X81213287Y-103071446D01*
G37*
G36*
X83753287Y-103071446D02*
X83846022Y-103089892D01*
X84020731Y-103162259D01*
X84175872Y-103265921D01*
X84177967Y-103267321D01*
X84311679Y-103401033D01*
X84416742Y-103558271D01*
X84489108Y-103732979D01*
X84526000Y-103918447D01*
X84526000Y-104107553D01*
X84489108Y-104293021D01*
X84416742Y-104467729D01*
X84311679Y-104624967D01*
X84177967Y-104758679D01*
X84177964Y-104758681D01*
X84020731Y-104863741D01*
X83846022Y-104936108D01*
X83753287Y-104954554D01*
X83660553Y-104973000D01*
X83471447Y-104973000D01*
X83378713Y-104954554D01*
X83285978Y-104936108D01*
X83111269Y-104863741D01*
X82954036Y-104758681D01*
X82954033Y-104758679D01*
X82820321Y-104624967D01*
X82715258Y-104467729D01*
X82642892Y-104293021D01*
X82606000Y-104107553D01*
X82606000Y-103918447D01*
X82642892Y-103732979D01*
X82715258Y-103558271D01*
X82820321Y-103401033D01*
X82954033Y-103267321D01*
X82956128Y-103265921D01*
X83111269Y-103162259D01*
X83285978Y-103089892D01*
X83378713Y-103071446D01*
X83471447Y-103053000D01*
X83660553Y-103053000D01*
X83753287Y-103071446D01*
X83753287Y-103071446D01*
G37*
G36*
X86293287Y-103071446D02*
X86386022Y-103089892D01*
X86560731Y-103162259D01*
X86715872Y-103265921D01*
X86717967Y-103267321D01*
X86851679Y-103401033D01*
X86956742Y-103558271D01*
X87029108Y-103732979D01*
X87066000Y-103918447D01*
X87066000Y-104107553D01*
X87029108Y-104293021D01*
X86956742Y-104467729D01*
X86851679Y-104624967D01*
X86717967Y-104758679D01*
X86717964Y-104758681D01*
X86560731Y-104863741D01*
X86386022Y-104936108D01*
X86293287Y-104954554D01*
X86200553Y-104973000D01*
X86011447Y-104973000D01*
X85918713Y-104954554D01*
X85825978Y-104936108D01*
X85651269Y-104863741D01*
X85494036Y-104758681D01*
X85494033Y-104758679D01*
X85360321Y-104624967D01*
X85255258Y-104467729D01*
X85182892Y-104293021D01*
X85146000Y-104107553D01*
X85146000Y-103918447D01*
X85182892Y-103732979D01*
X85255258Y-103558271D01*
X85360321Y-103401033D01*
X85494033Y-103267321D01*
X85496128Y-103265921D01*
X85651269Y-103162259D01*
X85825978Y-103089892D01*
X85918713Y-103071446D01*
X86011447Y-103053000D01*
X86200553Y-103053000D01*
X86293287Y-103071446D01*
X86293287Y-103071446D01*
G37*
G36*
X88833287Y-103071446D02*
X88926022Y-103089892D01*
X89100731Y-103162259D01*
X89255872Y-103265921D01*
X89257967Y-103267321D01*
X89391679Y-103401033D01*
X89496742Y-103558271D01*
X89569108Y-103732979D01*
X89606000Y-103918447D01*
X89606000Y-104107553D01*
X89569108Y-104293021D01*
X89496742Y-104467729D01*
X89391679Y-104624967D01*
X89257967Y-104758679D01*
X89257964Y-104758681D01*
X89100731Y-104863741D01*
X88926022Y-104936108D01*
X88833287Y-104954554D01*
X88740553Y-104973000D01*
X88551447Y-104973000D01*
X88458713Y-104954554D01*
X88365978Y-104936108D01*
X88191269Y-104863741D01*
X88034036Y-104758681D01*
X88034033Y-104758679D01*
X87900321Y-104624967D01*
X87795258Y-104467729D01*
X87722892Y-104293021D01*
X87686000Y-104107553D01*
X87686000Y-103918447D01*
X87722892Y-103732979D01*
X87795258Y-103558271D01*
X87900321Y-103401033D01*
X88034033Y-103267321D01*
X88036128Y-103265921D01*
X88191269Y-103162259D01*
X88365978Y-103089892D01*
X88458713Y-103071446D01*
X88551447Y-103053000D01*
X88740553Y-103053000D01*
X88833287Y-103071446D01*
X88833287Y-103071446D01*
G37*
G36*
X91373287Y-103071446D02*
X91466022Y-103089892D01*
X91640731Y-103162259D01*
X91795872Y-103265921D01*
X91797967Y-103267321D01*
X91931679Y-103401033D01*
X92036742Y-103558271D01*
X92109108Y-103732979D01*
X92146000Y-103918447D01*
X92146000Y-104107553D01*
X92109108Y-104293021D01*
X92036742Y-104467729D01*
X91931679Y-104624967D01*
X91797967Y-104758679D01*
X91797964Y-104758681D01*
X91640731Y-104863741D01*
X91466022Y-104936108D01*
X91373287Y-104954554D01*
X91280553Y-104973000D01*
X91091447Y-104973000D01*
X90998713Y-104954554D01*
X90905978Y-104936108D01*
X90731269Y-104863741D01*
X90574036Y-104758681D01*
X90574033Y-104758679D01*
X90440321Y-104624967D01*
X90335258Y-104467729D01*
X90262892Y-104293021D01*
X90226000Y-104107553D01*
X90226000Y-103918447D01*
X90262892Y-103732979D01*
X90335258Y-103558271D01*
X90440321Y-103401033D01*
X90574033Y-103267321D01*
X90576128Y-103265921D01*
X90731269Y-103162259D01*
X90905978Y-103089892D01*
X90998713Y-103071446D01*
X91091447Y-103053000D01*
X91280553Y-103053000D01*
X91373287Y-103071446D01*
X91373287Y-103071446D01*
G37*
G36*
X93913287Y-103071446D02*
X94006022Y-103089892D01*
X94180731Y-103162259D01*
X94335872Y-103265921D01*
X94337967Y-103267321D01*
X94471679Y-103401033D01*
X94576742Y-103558271D01*
X94649108Y-103732979D01*
X94686000Y-103918447D01*
X94686000Y-104107553D01*
X94649108Y-104293021D01*
X94576742Y-104467729D01*
X94471679Y-104624967D01*
X94337967Y-104758679D01*
X94337964Y-104758681D01*
X94180731Y-104863741D01*
X94006022Y-104936108D01*
X93913287Y-104954554D01*
X93820553Y-104973000D01*
X93631447Y-104973000D01*
X93538713Y-104954554D01*
X93445978Y-104936108D01*
X93271269Y-104863741D01*
X93114036Y-104758681D01*
X93114033Y-104758679D01*
X92980321Y-104624967D01*
X92875258Y-104467729D01*
X92802892Y-104293021D01*
X92766000Y-104107553D01*
X92766000Y-103918447D01*
X92802892Y-103732979D01*
X92875258Y-103558271D01*
X92980321Y-103401033D01*
X93114033Y-103267321D01*
X93116128Y-103265921D01*
X93271269Y-103162259D01*
X93445978Y-103089892D01*
X93538713Y-103071446D01*
X93631447Y-103053000D01*
X93820553Y-103053000D01*
X93913287Y-103071446D01*
X93913287Y-103071446D01*
G37*
G36*
X96453287Y-103071446D02*
X96546022Y-103089892D01*
X96720731Y-103162259D01*
X96875872Y-103265921D01*
X96877967Y-103267321D01*
X97011679Y-103401033D01*
X97116742Y-103558271D01*
X97189108Y-103732979D01*
X97226000Y-103918447D01*
X97226000Y-104107553D01*
X97189108Y-104293021D01*
X97116742Y-104467729D01*
X97011679Y-104624967D01*
X96877967Y-104758679D01*
X96877964Y-104758681D01*
X96720731Y-104863741D01*
X96546022Y-104936108D01*
X96453287Y-104954554D01*
X96360553Y-104973000D01*
X96171447Y-104973000D01*
X96078713Y-104954554D01*
X95985978Y-104936108D01*
X95811269Y-104863741D01*
X95654036Y-104758681D01*
X95654033Y-104758679D01*
X95520321Y-104624967D01*
X95415258Y-104467729D01*
X95342892Y-104293021D01*
X95306000Y-104107553D01*
X95306000Y-103918447D01*
X95342892Y-103732979D01*
X95415258Y-103558271D01*
X95520321Y-103401033D01*
X95654033Y-103267321D01*
X95656128Y-103265921D01*
X95811269Y-103162259D01*
X95985978Y-103089892D01*
X96078713Y-103071446D01*
X96171447Y-103053000D01*
X96360553Y-103053000D01*
X96453287Y-103071446D01*
X96453287Y-103071446D01*
G37*
G36*
X98993287Y-103071446D02*
X99086022Y-103089892D01*
X99260731Y-103162259D01*
X99415872Y-103265921D01*
X99417967Y-103267321D01*
X99551679Y-103401033D01*
X99656742Y-103558271D01*
X99729108Y-103732979D01*
X99766000Y-103918447D01*
X99766000Y-104107553D01*
X99729108Y-104293021D01*
X99656742Y-104467729D01*
X99551679Y-104624967D01*
X99417967Y-104758679D01*
X99417964Y-104758681D01*
X99260731Y-104863741D01*
X99086022Y-104936108D01*
X98993287Y-104954554D01*
X98900553Y-104973000D01*
X98711447Y-104973000D01*
X98618713Y-104954554D01*
X98525978Y-104936108D01*
X98351269Y-104863741D01*
X98194036Y-104758681D01*
X98194033Y-104758679D01*
X98060321Y-104624967D01*
X97955258Y-104467729D01*
X97882892Y-104293021D01*
X97846000Y-104107553D01*
X97846000Y-103918447D01*
X97882892Y-103732979D01*
X97955258Y-103558271D01*
X98060321Y-103401033D01*
X98194033Y-103267321D01*
X98196128Y-103265921D01*
X98351269Y-103162259D01*
X98525978Y-103089892D01*
X98618713Y-103071446D01*
X98711447Y-103053000D01*
X98900553Y-103053000D01*
X98993287Y-103071446D01*
X98993287Y-103071446D01*
G37*
G36*
X149793287Y-103071446D02*
X149886022Y-103089892D01*
X150060731Y-103162259D01*
X150215872Y-103265921D01*
X150217967Y-103267321D01*
X150351679Y-103401033D01*
X150456742Y-103558271D01*
X150529108Y-103732979D01*
X150566000Y-103918447D01*
X150566000Y-104107553D01*
X150529108Y-104293021D01*
X150456742Y-104467729D01*
X150351679Y-104624967D01*
X150217967Y-104758679D01*
X150217964Y-104758681D01*
X150060731Y-104863741D01*
X149886022Y-104936108D01*
X149793287Y-104954554D01*
X149700553Y-104973000D01*
X149511447Y-104973000D01*
X149418713Y-104954554D01*
X149325978Y-104936108D01*
X149151269Y-104863741D01*
X148994036Y-104758681D01*
X148994033Y-104758679D01*
X148860321Y-104624967D01*
X148755258Y-104467729D01*
X148682892Y-104293021D01*
X148646000Y-104107553D01*
X148646000Y-103918447D01*
X148682892Y-103732979D01*
X148755258Y-103558271D01*
X148860321Y-103401033D01*
X148994033Y-103267321D01*
X148996128Y-103265921D01*
X149151269Y-103162259D01*
X149325978Y-103089892D01*
X149418713Y-103071446D01*
X149511447Y-103053000D01*
X149700553Y-103053000D01*
X149793287Y-103071446D01*
X149793287Y-103071446D01*
G37*
G36*
X147253287Y-103071446D02*
X147346022Y-103089892D01*
X147520731Y-103162259D01*
X147675872Y-103265921D01*
X147677967Y-103267321D01*
X147811679Y-103401033D01*
X147916742Y-103558271D01*
X147989108Y-103732979D01*
X148026000Y-103918447D01*
X148026000Y-104107553D01*
X147989108Y-104293021D01*
X147916742Y-104467729D01*
X147811679Y-104624967D01*
X147677967Y-104758679D01*
X147677964Y-104758681D01*
X147520731Y-104863741D01*
X147346022Y-104936108D01*
X147253287Y-104954554D01*
X147160553Y-104973000D01*
X146971447Y-104973000D01*
X146878713Y-104954554D01*
X146785978Y-104936108D01*
X146611269Y-104863741D01*
X146454036Y-104758681D01*
X146454033Y-104758679D01*
X146320321Y-104624967D01*
X146215258Y-104467729D01*
X146142892Y-104293021D01*
X146106000Y-104107553D01*
X146106000Y-103918447D01*
X146142892Y-103732979D01*
X146215258Y-103558271D01*
X146320321Y-103401033D01*
X146454033Y-103267321D01*
X146456128Y-103265921D01*
X146611269Y-103162259D01*
X146785978Y-103089892D01*
X146878713Y-103071446D01*
X146971447Y-103053000D01*
X147160553Y-103053000D01*
X147253287Y-103071446D01*
X147253287Y-103071446D01*
G37*
G36*
X139633287Y-103071446D02*
X139726022Y-103089892D01*
X139900731Y-103162259D01*
X140055872Y-103265921D01*
X140057967Y-103267321D01*
X140191679Y-103401033D01*
X140296742Y-103558271D01*
X140369108Y-103732979D01*
X140406000Y-103918447D01*
X140406000Y-104107553D01*
X140369108Y-104293021D01*
X140296742Y-104467729D01*
X140191679Y-104624967D01*
X140057967Y-104758679D01*
X140057964Y-104758681D01*
X139900731Y-104863741D01*
X139726022Y-104936108D01*
X139633287Y-104954554D01*
X139540553Y-104973000D01*
X139351447Y-104973000D01*
X139258713Y-104954554D01*
X139165978Y-104936108D01*
X138991269Y-104863741D01*
X138834036Y-104758681D01*
X138834033Y-104758679D01*
X138700321Y-104624967D01*
X138595258Y-104467729D01*
X138522892Y-104293021D01*
X138486000Y-104107553D01*
X138486000Y-103918447D01*
X138522892Y-103732979D01*
X138595258Y-103558271D01*
X138700321Y-103401033D01*
X138834033Y-103267321D01*
X138836128Y-103265921D01*
X138991269Y-103162259D01*
X139165978Y-103089892D01*
X139258713Y-103071446D01*
X139351447Y-103053000D01*
X139540553Y-103053000D01*
X139633287Y-103071446D01*
X139633287Y-103071446D01*
G37*
G36*
X154873287Y-103071446D02*
X154966022Y-103089892D01*
X155140731Y-103162259D01*
X155295872Y-103265921D01*
X155297967Y-103267321D01*
X155431679Y-103401033D01*
X155536742Y-103558271D01*
X155609108Y-103732979D01*
X155646000Y-103918447D01*
X155646000Y-104107553D01*
X155609108Y-104293021D01*
X155536742Y-104467729D01*
X155431679Y-104624967D01*
X155297967Y-104758679D01*
X155297964Y-104758681D01*
X155140731Y-104863741D01*
X154966022Y-104936108D01*
X154873287Y-104954554D01*
X154780553Y-104973000D01*
X154591447Y-104973000D01*
X154498713Y-104954554D01*
X154405978Y-104936108D01*
X154231269Y-104863741D01*
X154074036Y-104758681D01*
X154074033Y-104758679D01*
X153940321Y-104624967D01*
X153835258Y-104467729D01*
X153762892Y-104293021D01*
X153726000Y-104107553D01*
X153726000Y-103918447D01*
X153762892Y-103732979D01*
X153835258Y-103558271D01*
X153940321Y-103401033D01*
X154074033Y-103267321D01*
X154076128Y-103265921D01*
X154231269Y-103162259D01*
X154405978Y-103089892D01*
X154498713Y-103071446D01*
X154591447Y-103053000D01*
X154780553Y-103053000D01*
X154873287Y-103071446D01*
X154873287Y-103071446D01*
G37*
G36*
X152333287Y-103071446D02*
X152426022Y-103089892D01*
X152600731Y-103162259D01*
X152755872Y-103265921D01*
X152757967Y-103267321D01*
X152891679Y-103401033D01*
X152996742Y-103558271D01*
X153069108Y-103732979D01*
X153106000Y-103918447D01*
X153106000Y-104107553D01*
X153069108Y-104293021D01*
X152996742Y-104467729D01*
X152891679Y-104624967D01*
X152757967Y-104758679D01*
X152757964Y-104758681D01*
X152600731Y-104863741D01*
X152426022Y-104936108D01*
X152333287Y-104954554D01*
X152240553Y-104973000D01*
X152051447Y-104973000D01*
X151958713Y-104954554D01*
X151865978Y-104936108D01*
X151691269Y-104863741D01*
X151534036Y-104758681D01*
X151534033Y-104758679D01*
X151400321Y-104624967D01*
X151295258Y-104467729D01*
X151222892Y-104293021D01*
X151186000Y-104107553D01*
X151186000Y-103918447D01*
X151222892Y-103732979D01*
X151295258Y-103558271D01*
X151400321Y-103401033D01*
X151534033Y-103267321D01*
X151536128Y-103265921D01*
X151691269Y-103162259D01*
X151865978Y-103089892D01*
X151958713Y-103071446D01*
X152051447Y-103053000D01*
X152240553Y-103053000D01*
X152333287Y-103071446D01*
X152333287Y-103071446D01*
G37*
G36*
X162493287Y-103071446D02*
X162586022Y-103089892D01*
X162760731Y-103162259D01*
X162915872Y-103265921D01*
X162917967Y-103267321D01*
X163051679Y-103401033D01*
X163156742Y-103558271D01*
X163229108Y-103732979D01*
X163266000Y-103918447D01*
X163266000Y-104107553D01*
X163229108Y-104293021D01*
X163156742Y-104467729D01*
X163051679Y-104624967D01*
X162917967Y-104758679D01*
X162917964Y-104758681D01*
X162760731Y-104863741D01*
X162586022Y-104936108D01*
X162493287Y-104954554D01*
X162400553Y-104973000D01*
X162211447Y-104973000D01*
X162118713Y-104954554D01*
X162025978Y-104936108D01*
X161851269Y-104863741D01*
X161694036Y-104758681D01*
X161694033Y-104758679D01*
X161560321Y-104624967D01*
X161455258Y-104467729D01*
X161382892Y-104293021D01*
X161346000Y-104107553D01*
X161346000Y-103918447D01*
X161382892Y-103732979D01*
X161455258Y-103558271D01*
X161560321Y-103401033D01*
X161694033Y-103267321D01*
X161696128Y-103265921D01*
X161851269Y-103162259D01*
X162025978Y-103089892D01*
X162118713Y-103071446D01*
X162211447Y-103053000D01*
X162400553Y-103053000D01*
X162493287Y-103071446D01*
X162493287Y-103071446D01*
G37*
G36*
X159953287Y-103071446D02*
X160046022Y-103089892D01*
X160220731Y-103162259D01*
X160375872Y-103265921D01*
X160377967Y-103267321D01*
X160511679Y-103401033D01*
X160616742Y-103558271D01*
X160689108Y-103732979D01*
X160726000Y-103918447D01*
X160726000Y-104107553D01*
X160689108Y-104293021D01*
X160616742Y-104467729D01*
X160511679Y-104624967D01*
X160377967Y-104758679D01*
X160377964Y-104758681D01*
X160220731Y-104863741D01*
X160046022Y-104936108D01*
X159953287Y-104954554D01*
X159860553Y-104973000D01*
X159671447Y-104973000D01*
X159578713Y-104954554D01*
X159485978Y-104936108D01*
X159311269Y-104863741D01*
X159154036Y-104758681D01*
X159154033Y-104758679D01*
X159020321Y-104624967D01*
X158915258Y-104467729D01*
X158842892Y-104293021D01*
X158806000Y-104107553D01*
X158806000Y-103918447D01*
X158842892Y-103732979D01*
X158915258Y-103558271D01*
X159020321Y-103401033D01*
X159154033Y-103267321D01*
X159156128Y-103265921D01*
X159311269Y-103162259D01*
X159485978Y-103089892D01*
X159578713Y-103071446D01*
X159671447Y-103053000D01*
X159860553Y-103053000D01*
X159953287Y-103071446D01*
X159953287Y-103071446D01*
G37*
G36*
X157413287Y-103071446D02*
X157506022Y-103089892D01*
X157680731Y-103162259D01*
X157835872Y-103265921D01*
X157837967Y-103267321D01*
X157971679Y-103401033D01*
X158076742Y-103558271D01*
X158149108Y-103732979D01*
X158186000Y-103918447D01*
X158186000Y-104107553D01*
X158149108Y-104293021D01*
X158076742Y-104467729D01*
X157971679Y-104624967D01*
X157837967Y-104758679D01*
X157837964Y-104758681D01*
X157680731Y-104863741D01*
X157506022Y-104936108D01*
X157413287Y-104954554D01*
X157320553Y-104973000D01*
X157131447Y-104973000D01*
X157038713Y-104954554D01*
X156945978Y-104936108D01*
X156771269Y-104863741D01*
X156614036Y-104758681D01*
X156614033Y-104758679D01*
X156480321Y-104624967D01*
X156375258Y-104467729D01*
X156302892Y-104293021D01*
X156266000Y-104107553D01*
X156266000Y-103918447D01*
X156302892Y-103732979D01*
X156375258Y-103558271D01*
X156480321Y-103401033D01*
X156614033Y-103267321D01*
X156616128Y-103265921D01*
X156771269Y-103162259D01*
X156945978Y-103089892D01*
X157038713Y-103071446D01*
X157131447Y-103053000D01*
X157320553Y-103053000D01*
X157413287Y-103071446D01*
X157413287Y-103071446D01*
G37*
G36*
X142173287Y-103071446D02*
X142266022Y-103089892D01*
X142440731Y-103162259D01*
X142595872Y-103265921D01*
X142597967Y-103267321D01*
X142731679Y-103401033D01*
X142836742Y-103558271D01*
X142909108Y-103732979D01*
X142946000Y-103918447D01*
X142946000Y-104107553D01*
X142909108Y-104293021D01*
X142836742Y-104467729D01*
X142731679Y-104624967D01*
X142597967Y-104758679D01*
X142597964Y-104758681D01*
X142440731Y-104863741D01*
X142266022Y-104936108D01*
X142173287Y-104954554D01*
X142080553Y-104973000D01*
X141891447Y-104973000D01*
X141798713Y-104954554D01*
X141705978Y-104936108D01*
X141531269Y-104863741D01*
X141374036Y-104758681D01*
X141374033Y-104758679D01*
X141240321Y-104624967D01*
X141135258Y-104467729D01*
X141062892Y-104293021D01*
X141026000Y-104107553D01*
X141026000Y-103918447D01*
X141062892Y-103732979D01*
X141135258Y-103558271D01*
X141240321Y-103401033D01*
X141374033Y-103267321D01*
X141376128Y-103265921D01*
X141531269Y-103162259D01*
X141705978Y-103089892D01*
X141798713Y-103071446D01*
X141891447Y-103053000D01*
X142080553Y-103053000D01*
X142173287Y-103071446D01*
X142173287Y-103071446D01*
G37*
G36*
X144713287Y-103071446D02*
X144806022Y-103089892D01*
X144980731Y-103162259D01*
X145135872Y-103265921D01*
X145137967Y-103267321D01*
X145271679Y-103401033D01*
X145376742Y-103558271D01*
X145449108Y-103732979D01*
X145486000Y-103918447D01*
X145486000Y-104107553D01*
X145449108Y-104293021D01*
X145376742Y-104467729D01*
X145271679Y-104624967D01*
X145137967Y-104758679D01*
X145137964Y-104758681D01*
X144980731Y-104863741D01*
X144806022Y-104936108D01*
X144713287Y-104954554D01*
X144620553Y-104973000D01*
X144431447Y-104973000D01*
X144338713Y-104954554D01*
X144245978Y-104936108D01*
X144071269Y-104863741D01*
X143914036Y-104758681D01*
X143914033Y-104758679D01*
X143780321Y-104624967D01*
X143675258Y-104467729D01*
X143602892Y-104293021D01*
X143566000Y-104107553D01*
X143566000Y-103918447D01*
X143602892Y-103732979D01*
X143675258Y-103558271D01*
X143780321Y-103401033D01*
X143914033Y-103267321D01*
X143916128Y-103265921D01*
X144071269Y-103162259D01*
X144245978Y-103089892D01*
X144338713Y-103071446D01*
X144431447Y-103053000D01*
X144620553Y-103053000D01*
X144713287Y-103071446D01*
X144713287Y-103071446D01*
G37*
G36*
X76133287Y-103071446D02*
X76226022Y-103089892D01*
X76400731Y-103162259D01*
X76555872Y-103265921D01*
X76557967Y-103267321D01*
X76691679Y-103401033D01*
X76796742Y-103558271D01*
X76869108Y-103732979D01*
X76906000Y-103918447D01*
X76906000Y-104107553D01*
X76869108Y-104293021D01*
X76796742Y-104467729D01*
X76691679Y-104624967D01*
X76557967Y-104758679D01*
X76557964Y-104758681D01*
X76400731Y-104863741D01*
X76226022Y-104936108D01*
X76133287Y-104954554D01*
X76040553Y-104973000D01*
X75851447Y-104973000D01*
X75758713Y-104954554D01*
X75665978Y-104936108D01*
X75491269Y-104863741D01*
X75334036Y-104758681D01*
X75334033Y-104758679D01*
X75200321Y-104624967D01*
X75095258Y-104467729D01*
X75022892Y-104293021D01*
X74986000Y-104107553D01*
X74986000Y-103918447D01*
X75022892Y-103732979D01*
X75095258Y-103558271D01*
X75200321Y-103401033D01*
X75334033Y-103267321D01*
X75336128Y-103265921D01*
X75491269Y-103162259D01*
X75665978Y-103089892D01*
X75758713Y-103071446D01*
X75851447Y-103053000D01*
X76040553Y-103053000D01*
X76133287Y-103071446D01*
X76133287Y-103071446D01*
G37*
G36*
X139633287Y-62431446D02*
X139726022Y-62449892D01*
X139900731Y-62522259D01*
X140055872Y-62625921D01*
X140057967Y-62627321D01*
X140191679Y-62761033D01*
X140296742Y-62918271D01*
X140369108Y-63092979D01*
X140406000Y-63278447D01*
X140406000Y-63467553D01*
X140369108Y-63653021D01*
X140296742Y-63827729D01*
X140191679Y-63984967D01*
X140057967Y-64118679D01*
X140057964Y-64118681D01*
X139900731Y-64223741D01*
X139726022Y-64296108D01*
X139633287Y-64314554D01*
X139540553Y-64333000D01*
X139351447Y-64333000D01*
X139258713Y-64314554D01*
X139165978Y-64296108D01*
X138991269Y-64223741D01*
X138834036Y-64118681D01*
X138834033Y-64118679D01*
X138700321Y-63984967D01*
X138595258Y-63827729D01*
X138522892Y-63653021D01*
X138486000Y-63467553D01*
X138486000Y-63278447D01*
X138522892Y-63092979D01*
X138595258Y-62918271D01*
X138700321Y-62761033D01*
X138834033Y-62627321D01*
X138836128Y-62625921D01*
X138991269Y-62522259D01*
X139165978Y-62449892D01*
X139258713Y-62431446D01*
X139351447Y-62413000D01*
X139540553Y-62413000D01*
X139633287Y-62431446D01*
X139633287Y-62431446D01*
G37*
G36*
X76133287Y-62431446D02*
X76226022Y-62449892D01*
X76400731Y-62522259D01*
X76555872Y-62625921D01*
X76557967Y-62627321D01*
X76691679Y-62761033D01*
X76796742Y-62918271D01*
X76869108Y-63092979D01*
X76906000Y-63278447D01*
X76906000Y-63467553D01*
X76869108Y-63653021D01*
X76796742Y-63827729D01*
X76691679Y-63984967D01*
X76557967Y-64118679D01*
X76557964Y-64118681D01*
X76400731Y-64223741D01*
X76226022Y-64296108D01*
X76133287Y-64314554D01*
X76040553Y-64333000D01*
X75851447Y-64333000D01*
X75758713Y-64314554D01*
X75665978Y-64296108D01*
X75491269Y-64223741D01*
X75334036Y-64118681D01*
X75334033Y-64118679D01*
X75200321Y-63984967D01*
X75095258Y-63827729D01*
X75022892Y-63653021D01*
X74986000Y-63467553D01*
X74986000Y-63278447D01*
X75022892Y-63092979D01*
X75095258Y-62918271D01*
X75200321Y-62761033D01*
X75334033Y-62627321D01*
X75336128Y-62625921D01*
X75491269Y-62522259D01*
X75665978Y-62449892D01*
X75758713Y-62431446D01*
X75851447Y-62413000D01*
X76040553Y-62413000D01*
X76133287Y-62431446D01*
X76133287Y-62431446D01*
G37*
G36*
X78673287Y-62431446D02*
X78766022Y-62449892D01*
X78940731Y-62522259D01*
X79095872Y-62625921D01*
X79097967Y-62627321D01*
X79231679Y-62761033D01*
X79336742Y-62918271D01*
X79409108Y-63092979D01*
X79446000Y-63278447D01*
X79446000Y-63467553D01*
X79409108Y-63653021D01*
X79336742Y-63827729D01*
X79231679Y-63984967D01*
X79097967Y-64118679D01*
X79097964Y-64118681D01*
X78940731Y-64223741D01*
X78766022Y-64296108D01*
X78673287Y-64314554D01*
X78580553Y-64333000D01*
X78391447Y-64333000D01*
X78298713Y-64314554D01*
X78205978Y-64296108D01*
X78031269Y-64223741D01*
X77874036Y-64118681D01*
X77874033Y-64118679D01*
X77740321Y-63984967D01*
X77635258Y-63827729D01*
X77562892Y-63653021D01*
X77526000Y-63467553D01*
X77526000Y-63278447D01*
X77562892Y-63092979D01*
X77635258Y-62918271D01*
X77740321Y-62761033D01*
X77874033Y-62627321D01*
X77876128Y-62625921D01*
X78031269Y-62522259D01*
X78205978Y-62449892D01*
X78298713Y-62431446D01*
X78391447Y-62413000D01*
X78580553Y-62413000D01*
X78673287Y-62431446D01*
X78673287Y-62431446D01*
G37*
G36*
X81213287Y-62431446D02*
X81306022Y-62449892D01*
X81480731Y-62522259D01*
X81635872Y-62625921D01*
X81637967Y-62627321D01*
X81771679Y-62761033D01*
X81876742Y-62918271D01*
X81949108Y-63092979D01*
X81986000Y-63278447D01*
X81986000Y-63467553D01*
X81949108Y-63653021D01*
X81876742Y-63827729D01*
X81771679Y-63984967D01*
X81637967Y-64118679D01*
X81637964Y-64118681D01*
X81480731Y-64223741D01*
X81306022Y-64296108D01*
X81213287Y-64314554D01*
X81120553Y-64333000D01*
X80931447Y-64333000D01*
X80838713Y-64314554D01*
X80745978Y-64296108D01*
X80571269Y-64223741D01*
X80414036Y-64118681D01*
X80414033Y-64118679D01*
X80280321Y-63984967D01*
X80175258Y-63827729D01*
X80102892Y-63653021D01*
X80066000Y-63467553D01*
X80066000Y-63278447D01*
X80102892Y-63092979D01*
X80175258Y-62918271D01*
X80280321Y-62761033D01*
X80414033Y-62627321D01*
X80416128Y-62625921D01*
X80571269Y-62522259D01*
X80745978Y-62449892D01*
X80838713Y-62431446D01*
X80931447Y-62413000D01*
X81120553Y-62413000D01*
X81213287Y-62431446D01*
X81213287Y-62431446D01*
G37*
G36*
X83753287Y-62431446D02*
X83846022Y-62449892D01*
X84020731Y-62522259D01*
X84175872Y-62625921D01*
X84177967Y-62627321D01*
X84311679Y-62761033D01*
X84416742Y-62918271D01*
X84489108Y-63092979D01*
X84526000Y-63278447D01*
X84526000Y-63467553D01*
X84489108Y-63653021D01*
X84416742Y-63827729D01*
X84311679Y-63984967D01*
X84177967Y-64118679D01*
X84177964Y-64118681D01*
X84020731Y-64223741D01*
X83846022Y-64296108D01*
X83753287Y-64314554D01*
X83660553Y-64333000D01*
X83471447Y-64333000D01*
X83378713Y-64314554D01*
X83285978Y-64296108D01*
X83111269Y-64223741D01*
X82954036Y-64118681D01*
X82954033Y-64118679D01*
X82820321Y-63984967D01*
X82715258Y-63827729D01*
X82642892Y-63653021D01*
X82606000Y-63467553D01*
X82606000Y-63278447D01*
X82642892Y-63092979D01*
X82715258Y-62918271D01*
X82820321Y-62761033D01*
X82954033Y-62627321D01*
X82956128Y-62625921D01*
X83111269Y-62522259D01*
X83285978Y-62449892D01*
X83378713Y-62431446D01*
X83471447Y-62413000D01*
X83660553Y-62413000D01*
X83753287Y-62431446D01*
X83753287Y-62431446D01*
G37*
G36*
X86293287Y-62431446D02*
X86386022Y-62449892D01*
X86560731Y-62522259D01*
X86715872Y-62625921D01*
X86717967Y-62627321D01*
X86851679Y-62761033D01*
X86956742Y-62918271D01*
X87029108Y-63092979D01*
X87066000Y-63278447D01*
X87066000Y-63467553D01*
X87029108Y-63653021D01*
X86956742Y-63827729D01*
X86851679Y-63984967D01*
X86717967Y-64118679D01*
X86717964Y-64118681D01*
X86560731Y-64223741D01*
X86386022Y-64296108D01*
X86293287Y-64314554D01*
X86200553Y-64333000D01*
X86011447Y-64333000D01*
X85918713Y-64314554D01*
X85825978Y-64296108D01*
X85651269Y-64223741D01*
X85494036Y-64118681D01*
X85494033Y-64118679D01*
X85360321Y-63984967D01*
X85255258Y-63827729D01*
X85182892Y-63653021D01*
X85146000Y-63467553D01*
X85146000Y-63278447D01*
X85182892Y-63092979D01*
X85255258Y-62918271D01*
X85360321Y-62761033D01*
X85494033Y-62627321D01*
X85496128Y-62625921D01*
X85651269Y-62522259D01*
X85825978Y-62449892D01*
X85918713Y-62431446D01*
X86011447Y-62413000D01*
X86200553Y-62413000D01*
X86293287Y-62431446D01*
X86293287Y-62431446D01*
G37*
G36*
X88833287Y-62431446D02*
X88926022Y-62449892D01*
X89100731Y-62522259D01*
X89255872Y-62625921D01*
X89257967Y-62627321D01*
X89391679Y-62761033D01*
X89496742Y-62918271D01*
X89569108Y-63092979D01*
X89606000Y-63278447D01*
X89606000Y-63467553D01*
X89569108Y-63653021D01*
X89496742Y-63827729D01*
X89391679Y-63984967D01*
X89257967Y-64118679D01*
X89257964Y-64118681D01*
X89100731Y-64223741D01*
X88926022Y-64296108D01*
X88833287Y-64314554D01*
X88740553Y-64333000D01*
X88551447Y-64333000D01*
X88458713Y-64314554D01*
X88365978Y-64296108D01*
X88191269Y-64223741D01*
X88034036Y-64118681D01*
X88034033Y-64118679D01*
X87900321Y-63984967D01*
X87795258Y-63827729D01*
X87722892Y-63653021D01*
X87686000Y-63467553D01*
X87686000Y-63278447D01*
X87722892Y-63092979D01*
X87795258Y-62918271D01*
X87900321Y-62761033D01*
X88034033Y-62627321D01*
X88036128Y-62625921D01*
X88191269Y-62522259D01*
X88365978Y-62449892D01*
X88458713Y-62431446D01*
X88551447Y-62413000D01*
X88740553Y-62413000D01*
X88833287Y-62431446D01*
X88833287Y-62431446D01*
G37*
G36*
X91373287Y-62431446D02*
X91466022Y-62449892D01*
X91640731Y-62522259D01*
X91795872Y-62625921D01*
X91797967Y-62627321D01*
X91931679Y-62761033D01*
X92036742Y-62918271D01*
X92109108Y-63092979D01*
X92146000Y-63278447D01*
X92146000Y-63467553D01*
X92109108Y-63653021D01*
X92036742Y-63827729D01*
X91931679Y-63984967D01*
X91797967Y-64118679D01*
X91797964Y-64118681D01*
X91640731Y-64223741D01*
X91466022Y-64296108D01*
X91373287Y-64314554D01*
X91280553Y-64333000D01*
X91091447Y-64333000D01*
X90998713Y-64314554D01*
X90905978Y-64296108D01*
X90731269Y-64223741D01*
X90574036Y-64118681D01*
X90574033Y-64118679D01*
X90440321Y-63984967D01*
X90335258Y-63827729D01*
X90262892Y-63653021D01*
X90226000Y-63467553D01*
X90226000Y-63278447D01*
X90262892Y-63092979D01*
X90335258Y-62918271D01*
X90440321Y-62761033D01*
X90574033Y-62627321D01*
X90576128Y-62625921D01*
X90731269Y-62522259D01*
X90905978Y-62449892D01*
X90998713Y-62431446D01*
X91091447Y-62413000D01*
X91280553Y-62413000D01*
X91373287Y-62431446D01*
X91373287Y-62431446D01*
G37*
G36*
X93913287Y-62431446D02*
X94006022Y-62449892D01*
X94180731Y-62522259D01*
X94335872Y-62625921D01*
X94337967Y-62627321D01*
X94471679Y-62761033D01*
X94576742Y-62918271D01*
X94649108Y-63092979D01*
X94686000Y-63278447D01*
X94686000Y-63467553D01*
X94649108Y-63653021D01*
X94576742Y-63827729D01*
X94471679Y-63984967D01*
X94337967Y-64118679D01*
X94337964Y-64118681D01*
X94180731Y-64223741D01*
X94006022Y-64296108D01*
X93913287Y-64314554D01*
X93820553Y-64333000D01*
X93631447Y-64333000D01*
X93538713Y-64314554D01*
X93445978Y-64296108D01*
X93271269Y-64223741D01*
X93114036Y-64118681D01*
X93114033Y-64118679D01*
X92980321Y-63984967D01*
X92875258Y-63827729D01*
X92802892Y-63653021D01*
X92766000Y-63467553D01*
X92766000Y-63278447D01*
X92802892Y-63092979D01*
X92875258Y-62918271D01*
X92980321Y-62761033D01*
X93114033Y-62627321D01*
X93116128Y-62625921D01*
X93271269Y-62522259D01*
X93445978Y-62449892D01*
X93538713Y-62431446D01*
X93631447Y-62413000D01*
X93820553Y-62413000D01*
X93913287Y-62431446D01*
X93913287Y-62431446D01*
G37*
G36*
X96453287Y-62431446D02*
X96546022Y-62449892D01*
X96720731Y-62522259D01*
X96875872Y-62625921D01*
X96877967Y-62627321D01*
X97011679Y-62761033D01*
X97116742Y-62918271D01*
X97189108Y-63092979D01*
X97226000Y-63278447D01*
X97226000Y-63467553D01*
X97189108Y-63653021D01*
X97116742Y-63827729D01*
X97011679Y-63984967D01*
X96877967Y-64118679D01*
X96877964Y-64118681D01*
X96720731Y-64223741D01*
X96546022Y-64296108D01*
X96453287Y-64314554D01*
X96360553Y-64333000D01*
X96171447Y-64333000D01*
X96078713Y-64314554D01*
X95985978Y-64296108D01*
X95811269Y-64223741D01*
X95654036Y-64118681D01*
X95654033Y-64118679D01*
X95520321Y-63984967D01*
X95415258Y-63827729D01*
X95342892Y-63653021D01*
X95306000Y-63467553D01*
X95306000Y-63278447D01*
X95342892Y-63092979D01*
X95415258Y-62918271D01*
X95520321Y-62761033D01*
X95654033Y-62627321D01*
X95656128Y-62625921D01*
X95811269Y-62522259D01*
X95985978Y-62449892D01*
X96078713Y-62431446D01*
X96171447Y-62413000D01*
X96360553Y-62413000D01*
X96453287Y-62431446D01*
X96453287Y-62431446D01*
G37*
G36*
X149793287Y-62431446D02*
X149886022Y-62449892D01*
X150060731Y-62522259D01*
X150215872Y-62625921D01*
X150217967Y-62627321D01*
X150351679Y-62761033D01*
X150456742Y-62918271D01*
X150529108Y-63092979D01*
X150566000Y-63278447D01*
X150566000Y-63467553D01*
X150529108Y-63653021D01*
X150456742Y-63827729D01*
X150351679Y-63984967D01*
X150217967Y-64118679D01*
X150217964Y-64118681D01*
X150060731Y-64223741D01*
X149886022Y-64296108D01*
X149793287Y-64314554D01*
X149700553Y-64333000D01*
X149511447Y-64333000D01*
X149418713Y-64314554D01*
X149325978Y-64296108D01*
X149151269Y-64223741D01*
X148994036Y-64118681D01*
X148994033Y-64118679D01*
X148860321Y-63984967D01*
X148755258Y-63827729D01*
X148682892Y-63653021D01*
X148646000Y-63467553D01*
X148646000Y-63278447D01*
X148682892Y-63092979D01*
X148755258Y-62918271D01*
X148860321Y-62761033D01*
X148994033Y-62627321D01*
X148996128Y-62625921D01*
X149151269Y-62522259D01*
X149325978Y-62449892D01*
X149418713Y-62431446D01*
X149511447Y-62413000D01*
X149700553Y-62413000D01*
X149793287Y-62431446D01*
X149793287Y-62431446D01*
G37*
G36*
X98993287Y-62431446D02*
X99086022Y-62449892D01*
X99260731Y-62522259D01*
X99415872Y-62625921D01*
X99417967Y-62627321D01*
X99551679Y-62761033D01*
X99656742Y-62918271D01*
X99729108Y-63092979D01*
X99766000Y-63278447D01*
X99766000Y-63467553D01*
X99729108Y-63653021D01*
X99656742Y-63827729D01*
X99551679Y-63984967D01*
X99417967Y-64118679D01*
X99417964Y-64118681D01*
X99260731Y-64223741D01*
X99086022Y-64296108D01*
X98993287Y-64314554D01*
X98900553Y-64333000D01*
X98711447Y-64333000D01*
X98618713Y-64314554D01*
X98525978Y-64296108D01*
X98351269Y-64223741D01*
X98194036Y-64118681D01*
X98194033Y-64118679D01*
X98060321Y-63984967D01*
X97955258Y-63827729D01*
X97882892Y-63653021D01*
X97846000Y-63467553D01*
X97846000Y-63278447D01*
X97882892Y-63092979D01*
X97955258Y-62918271D01*
X98060321Y-62761033D01*
X98194033Y-62627321D01*
X98196128Y-62625921D01*
X98351269Y-62522259D01*
X98525978Y-62449892D01*
X98618713Y-62431446D01*
X98711447Y-62413000D01*
X98900553Y-62413000D01*
X98993287Y-62431446D01*
X98993287Y-62431446D01*
G37*
G36*
X154873287Y-62431446D02*
X154966022Y-62449892D01*
X155140731Y-62522259D01*
X155295872Y-62625921D01*
X155297967Y-62627321D01*
X155431679Y-62761033D01*
X155536742Y-62918271D01*
X155609108Y-63092979D01*
X155646000Y-63278447D01*
X155646000Y-63467553D01*
X155609108Y-63653021D01*
X155536742Y-63827729D01*
X155431679Y-63984967D01*
X155297967Y-64118679D01*
X155297964Y-64118681D01*
X155140731Y-64223741D01*
X154966022Y-64296108D01*
X154873287Y-64314554D01*
X154780553Y-64333000D01*
X154591447Y-64333000D01*
X154498713Y-64314554D01*
X154405978Y-64296108D01*
X154231269Y-64223741D01*
X154074036Y-64118681D01*
X154074033Y-64118679D01*
X153940321Y-63984967D01*
X153835258Y-63827729D01*
X153762892Y-63653021D01*
X153726000Y-63467553D01*
X153726000Y-63278447D01*
X153762892Y-63092979D01*
X153835258Y-62918271D01*
X153940321Y-62761033D01*
X154074033Y-62627321D01*
X154076128Y-62625921D01*
X154231269Y-62522259D01*
X154405978Y-62449892D01*
X154498713Y-62431446D01*
X154591447Y-62413000D01*
X154780553Y-62413000D01*
X154873287Y-62431446D01*
X154873287Y-62431446D01*
G37*
G36*
X157413287Y-62431446D02*
X157506022Y-62449892D01*
X157680731Y-62522259D01*
X157835872Y-62625921D01*
X157837967Y-62627321D01*
X157971679Y-62761033D01*
X158076742Y-62918271D01*
X158149108Y-63092979D01*
X158186000Y-63278447D01*
X158186000Y-63467553D01*
X158149108Y-63653021D01*
X158076742Y-63827729D01*
X157971679Y-63984967D01*
X157837967Y-64118679D01*
X157837964Y-64118681D01*
X157680731Y-64223741D01*
X157506022Y-64296108D01*
X157413287Y-64314554D01*
X157320553Y-64333000D01*
X157131447Y-64333000D01*
X157038713Y-64314554D01*
X156945978Y-64296108D01*
X156771269Y-64223741D01*
X156614036Y-64118681D01*
X156614033Y-64118679D01*
X156480321Y-63984967D01*
X156375258Y-63827729D01*
X156302892Y-63653021D01*
X156266000Y-63467553D01*
X156266000Y-63278447D01*
X156302892Y-63092979D01*
X156375258Y-62918271D01*
X156480321Y-62761033D01*
X156614033Y-62627321D01*
X156616128Y-62625921D01*
X156771269Y-62522259D01*
X156945978Y-62449892D01*
X157038713Y-62431446D01*
X157131447Y-62413000D01*
X157320553Y-62413000D01*
X157413287Y-62431446D01*
X157413287Y-62431446D01*
G37*
G36*
X159953287Y-62431446D02*
X160046022Y-62449892D01*
X160220731Y-62522259D01*
X160375872Y-62625921D01*
X160377967Y-62627321D01*
X160511679Y-62761033D01*
X160616742Y-62918271D01*
X160689108Y-63092979D01*
X160726000Y-63278447D01*
X160726000Y-63467553D01*
X160689108Y-63653021D01*
X160616742Y-63827729D01*
X160511679Y-63984967D01*
X160377967Y-64118679D01*
X160377964Y-64118681D01*
X160220731Y-64223741D01*
X160046022Y-64296108D01*
X159953287Y-64314554D01*
X159860553Y-64333000D01*
X159671447Y-64333000D01*
X159578713Y-64314554D01*
X159485978Y-64296108D01*
X159311269Y-64223741D01*
X159154036Y-64118681D01*
X159154033Y-64118679D01*
X159020321Y-63984967D01*
X158915258Y-63827729D01*
X158842892Y-63653021D01*
X158806000Y-63467553D01*
X158806000Y-63278447D01*
X158842892Y-63092979D01*
X158915258Y-62918271D01*
X159020321Y-62761033D01*
X159154033Y-62627321D01*
X159156128Y-62625921D01*
X159311269Y-62522259D01*
X159485978Y-62449892D01*
X159578713Y-62431446D01*
X159671447Y-62413000D01*
X159860553Y-62413000D01*
X159953287Y-62431446D01*
X159953287Y-62431446D01*
G37*
G36*
X162493287Y-62431446D02*
X162586022Y-62449892D01*
X162760731Y-62522259D01*
X162915872Y-62625921D01*
X162917967Y-62627321D01*
X163051679Y-62761033D01*
X163156742Y-62918271D01*
X163229108Y-63092979D01*
X163266000Y-63278447D01*
X163266000Y-63467553D01*
X163229108Y-63653021D01*
X163156742Y-63827729D01*
X163051679Y-63984967D01*
X162917967Y-64118679D01*
X162917964Y-64118681D01*
X162760731Y-64223741D01*
X162586022Y-64296108D01*
X162493287Y-64314554D01*
X162400553Y-64333000D01*
X162211447Y-64333000D01*
X162118713Y-64314554D01*
X162025978Y-64296108D01*
X161851269Y-64223741D01*
X161694036Y-64118681D01*
X161694033Y-64118679D01*
X161560321Y-63984967D01*
X161455258Y-63827729D01*
X161382892Y-63653021D01*
X161346000Y-63467553D01*
X161346000Y-63278447D01*
X161382892Y-63092979D01*
X161455258Y-62918271D01*
X161560321Y-62761033D01*
X161694033Y-62627321D01*
X161696128Y-62625921D01*
X161851269Y-62522259D01*
X162025978Y-62449892D01*
X162118713Y-62431446D01*
X162211447Y-62413000D01*
X162400553Y-62413000D01*
X162493287Y-62431446D01*
X162493287Y-62431446D01*
G37*
G36*
X152333287Y-62431446D02*
X152426022Y-62449892D01*
X152600731Y-62522259D01*
X152755872Y-62625921D01*
X152757967Y-62627321D01*
X152891679Y-62761033D01*
X152996742Y-62918271D01*
X153069108Y-63092979D01*
X153106000Y-63278447D01*
X153106000Y-63467553D01*
X153069108Y-63653021D01*
X152996742Y-63827729D01*
X152891679Y-63984967D01*
X152757967Y-64118679D01*
X152757964Y-64118681D01*
X152600731Y-64223741D01*
X152426022Y-64296108D01*
X152333287Y-64314554D01*
X152240553Y-64333000D01*
X152051447Y-64333000D01*
X151958713Y-64314554D01*
X151865978Y-64296108D01*
X151691269Y-64223741D01*
X151534036Y-64118681D01*
X151534033Y-64118679D01*
X151400321Y-63984967D01*
X151295258Y-63827729D01*
X151222892Y-63653021D01*
X151186000Y-63467553D01*
X151186000Y-63278447D01*
X151222892Y-63092979D01*
X151295258Y-62918271D01*
X151400321Y-62761033D01*
X151534033Y-62627321D01*
X151536128Y-62625921D01*
X151691269Y-62522259D01*
X151865978Y-62449892D01*
X151958713Y-62431446D01*
X152051447Y-62413000D01*
X152240553Y-62413000D01*
X152333287Y-62431446D01*
X152333287Y-62431446D01*
G37*
G36*
X142173287Y-62431446D02*
X142266022Y-62449892D01*
X142440731Y-62522259D01*
X142595872Y-62625921D01*
X142597967Y-62627321D01*
X142731679Y-62761033D01*
X142836742Y-62918271D01*
X142909108Y-63092979D01*
X142946000Y-63278447D01*
X142946000Y-63467553D01*
X142909108Y-63653021D01*
X142836742Y-63827729D01*
X142731679Y-63984967D01*
X142597967Y-64118679D01*
X142597964Y-64118681D01*
X142440731Y-64223741D01*
X142266022Y-64296108D01*
X142173287Y-64314554D01*
X142080553Y-64333000D01*
X141891447Y-64333000D01*
X141798713Y-64314554D01*
X141705978Y-64296108D01*
X141531269Y-64223741D01*
X141374036Y-64118681D01*
X141374033Y-64118679D01*
X141240321Y-63984967D01*
X141135258Y-63827729D01*
X141062892Y-63653021D01*
X141026000Y-63467553D01*
X141026000Y-63278447D01*
X141062892Y-63092979D01*
X141135258Y-62918271D01*
X141240321Y-62761033D01*
X141374033Y-62627321D01*
X141376128Y-62625921D01*
X141531269Y-62522259D01*
X141705978Y-62449892D01*
X141798713Y-62431446D01*
X141891447Y-62413000D01*
X142080553Y-62413000D01*
X142173287Y-62431446D01*
X142173287Y-62431446D01*
G37*
G36*
X144713287Y-62431446D02*
X144806022Y-62449892D01*
X144980731Y-62522259D01*
X145135872Y-62625921D01*
X145137967Y-62627321D01*
X145271679Y-62761033D01*
X145376742Y-62918271D01*
X145449108Y-63092979D01*
X145486000Y-63278447D01*
X145486000Y-63467553D01*
X145449108Y-63653021D01*
X145376742Y-63827729D01*
X145271679Y-63984967D01*
X145137967Y-64118679D01*
X145137964Y-64118681D01*
X144980731Y-64223741D01*
X144806022Y-64296108D01*
X144713287Y-64314554D01*
X144620553Y-64333000D01*
X144431447Y-64333000D01*
X144338713Y-64314554D01*
X144245978Y-64296108D01*
X144071269Y-64223741D01*
X143914036Y-64118681D01*
X143914033Y-64118679D01*
X143780321Y-63984967D01*
X143675258Y-63827729D01*
X143602892Y-63653021D01*
X143566000Y-63467553D01*
X143566000Y-63278447D01*
X143602892Y-63092979D01*
X143675258Y-62918271D01*
X143780321Y-62761033D01*
X143914033Y-62627321D01*
X143916128Y-62625921D01*
X144071269Y-62522259D01*
X144245978Y-62449892D01*
X144338713Y-62431446D01*
X144431447Y-62413000D01*
X144620553Y-62413000D01*
X144713287Y-62431446D01*
X144713287Y-62431446D01*
G37*
G36*
X147253287Y-62431446D02*
X147346022Y-62449892D01*
X147520731Y-62522259D01*
X147675872Y-62625921D01*
X147677967Y-62627321D01*
X147811679Y-62761033D01*
X147916742Y-62918271D01*
X147989108Y-63092979D01*
X148026000Y-63278447D01*
X148026000Y-63467553D01*
X147989108Y-63653021D01*
X147916742Y-63827729D01*
X147811679Y-63984967D01*
X147677967Y-64118679D01*
X147677964Y-64118681D01*
X147520731Y-64223741D01*
X147346022Y-64296108D01*
X147253287Y-64314554D01*
X147160553Y-64333000D01*
X146971447Y-64333000D01*
X146878713Y-64314554D01*
X146785978Y-64296108D01*
X146611269Y-64223741D01*
X146454036Y-64118681D01*
X146454033Y-64118679D01*
X146320321Y-63984967D01*
X146215258Y-63827729D01*
X146142892Y-63653021D01*
X146106000Y-63467553D01*
X146106000Y-63278447D01*
X146142892Y-63092979D01*
X146215258Y-62918271D01*
X146320321Y-62761033D01*
X146454033Y-62627321D01*
X146456128Y-62625921D01*
X146611269Y-62522259D01*
X146785978Y-62449892D01*
X146878713Y-62431446D01*
X146971447Y-62413000D01*
X147160553Y-62413000D01*
X147253287Y-62431446D01*
X147253287Y-62431446D01*
G37*
G36*
X139633287Y-59891446D02*
X139726022Y-59909892D01*
X139900731Y-59982259D01*
X140055872Y-60085921D01*
X140057967Y-60087321D01*
X140191679Y-60221033D01*
X140296742Y-60378271D01*
X140369108Y-60552979D01*
X140406000Y-60738447D01*
X140406000Y-60927553D01*
X140369108Y-61113021D01*
X140296742Y-61287729D01*
X140191679Y-61444967D01*
X140057967Y-61578679D01*
X140057964Y-61578681D01*
X139900731Y-61683741D01*
X139726022Y-61756108D01*
X139633287Y-61774554D01*
X139540553Y-61793000D01*
X139351447Y-61793000D01*
X139258713Y-61774554D01*
X139165978Y-61756108D01*
X138991269Y-61683741D01*
X138834036Y-61578681D01*
X138834033Y-61578679D01*
X138700321Y-61444967D01*
X138595258Y-61287729D01*
X138522892Y-61113021D01*
X138486000Y-60927553D01*
X138486000Y-60738447D01*
X138522892Y-60552979D01*
X138595258Y-60378271D01*
X138700321Y-60221033D01*
X138834033Y-60087321D01*
X138836128Y-60085921D01*
X138991269Y-59982259D01*
X139165978Y-59909892D01*
X139258713Y-59891446D01*
X139351447Y-59873000D01*
X139540553Y-59873000D01*
X139633287Y-59891446D01*
X139633287Y-59891446D01*
G37*
G36*
X142173287Y-59891446D02*
X142266022Y-59909892D01*
X142440731Y-59982259D01*
X142595872Y-60085921D01*
X142597967Y-60087321D01*
X142731679Y-60221033D01*
X142836742Y-60378271D01*
X142909108Y-60552979D01*
X142946000Y-60738447D01*
X142946000Y-60927553D01*
X142909108Y-61113021D01*
X142836742Y-61287729D01*
X142731679Y-61444967D01*
X142597967Y-61578679D01*
X142597964Y-61578681D01*
X142440731Y-61683741D01*
X142266022Y-61756108D01*
X142173287Y-61774554D01*
X142080553Y-61793000D01*
X141891447Y-61793000D01*
X141798713Y-61774554D01*
X141705978Y-61756108D01*
X141531269Y-61683741D01*
X141374036Y-61578681D01*
X141374033Y-61578679D01*
X141240321Y-61444967D01*
X141135258Y-61287729D01*
X141062892Y-61113021D01*
X141026000Y-60927553D01*
X141026000Y-60738447D01*
X141062892Y-60552979D01*
X141135258Y-60378271D01*
X141240321Y-60221033D01*
X141374033Y-60087321D01*
X141376128Y-60085921D01*
X141531269Y-59982259D01*
X141705978Y-59909892D01*
X141798713Y-59891446D01*
X141891447Y-59873000D01*
X142080553Y-59873000D01*
X142173287Y-59891446D01*
X142173287Y-59891446D01*
G37*
G36*
X144713287Y-59891446D02*
X144806022Y-59909892D01*
X144980731Y-59982259D01*
X145135872Y-60085921D01*
X145137967Y-60087321D01*
X145271679Y-60221033D01*
X145376742Y-60378271D01*
X145449108Y-60552979D01*
X145486000Y-60738447D01*
X145486000Y-60927553D01*
X145449108Y-61113021D01*
X145376742Y-61287729D01*
X145271679Y-61444967D01*
X145137967Y-61578679D01*
X145137964Y-61578681D01*
X144980731Y-61683741D01*
X144806022Y-61756108D01*
X144713287Y-61774554D01*
X144620553Y-61793000D01*
X144431447Y-61793000D01*
X144338713Y-61774554D01*
X144245978Y-61756108D01*
X144071269Y-61683741D01*
X143914036Y-61578681D01*
X143914033Y-61578679D01*
X143780321Y-61444967D01*
X143675258Y-61287729D01*
X143602892Y-61113021D01*
X143566000Y-60927553D01*
X143566000Y-60738447D01*
X143602892Y-60552979D01*
X143675258Y-60378271D01*
X143780321Y-60221033D01*
X143914033Y-60087321D01*
X143916128Y-60085921D01*
X144071269Y-59982259D01*
X144245978Y-59909892D01*
X144338713Y-59891446D01*
X144431447Y-59873000D01*
X144620553Y-59873000D01*
X144713287Y-59891446D01*
X144713287Y-59891446D01*
G37*
G36*
X147253287Y-59891446D02*
X147346022Y-59909892D01*
X147520731Y-59982259D01*
X147675872Y-60085921D01*
X147677967Y-60087321D01*
X147811679Y-60221033D01*
X147916742Y-60378271D01*
X147989108Y-60552979D01*
X148026000Y-60738447D01*
X148026000Y-60927553D01*
X147989108Y-61113021D01*
X147916742Y-61287729D01*
X147811679Y-61444967D01*
X147677967Y-61578679D01*
X147677964Y-61578681D01*
X147520731Y-61683741D01*
X147346022Y-61756108D01*
X147253287Y-61774554D01*
X147160553Y-61793000D01*
X146971447Y-61793000D01*
X146878713Y-61774554D01*
X146785978Y-61756108D01*
X146611269Y-61683741D01*
X146454036Y-61578681D01*
X146454033Y-61578679D01*
X146320321Y-61444967D01*
X146215258Y-61287729D01*
X146142892Y-61113021D01*
X146106000Y-60927553D01*
X146106000Y-60738447D01*
X146142892Y-60552979D01*
X146215258Y-60378271D01*
X146320321Y-60221033D01*
X146454033Y-60087321D01*
X146456128Y-60085921D01*
X146611269Y-59982259D01*
X146785978Y-59909892D01*
X146878713Y-59891446D01*
X146971447Y-59873000D01*
X147160553Y-59873000D01*
X147253287Y-59891446D01*
X147253287Y-59891446D01*
G37*
G36*
X149793287Y-59891446D02*
X149886022Y-59909892D01*
X150060731Y-59982259D01*
X150215872Y-60085921D01*
X150217967Y-60087321D01*
X150351679Y-60221033D01*
X150456742Y-60378271D01*
X150529108Y-60552979D01*
X150566000Y-60738447D01*
X150566000Y-60927553D01*
X150529108Y-61113021D01*
X150456742Y-61287729D01*
X150351679Y-61444967D01*
X150217967Y-61578679D01*
X150217964Y-61578681D01*
X150060731Y-61683741D01*
X149886022Y-61756108D01*
X149793287Y-61774554D01*
X149700553Y-61793000D01*
X149511447Y-61793000D01*
X149418713Y-61774554D01*
X149325978Y-61756108D01*
X149151269Y-61683741D01*
X148994036Y-61578681D01*
X148994033Y-61578679D01*
X148860321Y-61444967D01*
X148755258Y-61287729D01*
X148682892Y-61113021D01*
X148646000Y-60927553D01*
X148646000Y-60738447D01*
X148682892Y-60552979D01*
X148755258Y-60378271D01*
X148860321Y-60221033D01*
X148994033Y-60087321D01*
X148996128Y-60085921D01*
X149151269Y-59982259D01*
X149325978Y-59909892D01*
X149418713Y-59891446D01*
X149511447Y-59873000D01*
X149700553Y-59873000D01*
X149793287Y-59891446D01*
X149793287Y-59891446D01*
G37*
G36*
X152333287Y-59891446D02*
X152426022Y-59909892D01*
X152600731Y-59982259D01*
X152755872Y-60085921D01*
X152757967Y-60087321D01*
X152891679Y-60221033D01*
X152996742Y-60378271D01*
X153069108Y-60552979D01*
X153106000Y-60738447D01*
X153106000Y-60927553D01*
X153069108Y-61113021D01*
X152996742Y-61287729D01*
X152891679Y-61444967D01*
X152757967Y-61578679D01*
X152757964Y-61578681D01*
X152600731Y-61683741D01*
X152426022Y-61756108D01*
X152333287Y-61774554D01*
X152240553Y-61793000D01*
X152051447Y-61793000D01*
X151958713Y-61774554D01*
X151865978Y-61756108D01*
X151691269Y-61683741D01*
X151534036Y-61578681D01*
X151534033Y-61578679D01*
X151400321Y-61444967D01*
X151295258Y-61287729D01*
X151222892Y-61113021D01*
X151186000Y-60927553D01*
X151186000Y-60738447D01*
X151222892Y-60552979D01*
X151295258Y-60378271D01*
X151400321Y-60221033D01*
X151534033Y-60087321D01*
X151536128Y-60085921D01*
X151691269Y-59982259D01*
X151865978Y-59909892D01*
X151958713Y-59891446D01*
X152051447Y-59873000D01*
X152240553Y-59873000D01*
X152333287Y-59891446D01*
X152333287Y-59891446D01*
G37*
G36*
X154873287Y-59891446D02*
X154966022Y-59909892D01*
X155140731Y-59982259D01*
X155295872Y-60085921D01*
X155297967Y-60087321D01*
X155431679Y-60221033D01*
X155536742Y-60378271D01*
X155609108Y-60552979D01*
X155646000Y-60738447D01*
X155646000Y-60927553D01*
X155609108Y-61113021D01*
X155536742Y-61287729D01*
X155431679Y-61444967D01*
X155297967Y-61578679D01*
X155297964Y-61578681D01*
X155140731Y-61683741D01*
X154966022Y-61756108D01*
X154873287Y-61774554D01*
X154780553Y-61793000D01*
X154591447Y-61793000D01*
X154498713Y-61774554D01*
X154405978Y-61756108D01*
X154231269Y-61683741D01*
X154074036Y-61578681D01*
X154074033Y-61578679D01*
X153940321Y-61444967D01*
X153835258Y-61287729D01*
X153762892Y-61113021D01*
X153726000Y-60927553D01*
X153726000Y-60738447D01*
X153762892Y-60552979D01*
X153835258Y-60378271D01*
X153940321Y-60221033D01*
X154074033Y-60087321D01*
X154076128Y-60085921D01*
X154231269Y-59982259D01*
X154405978Y-59909892D01*
X154498713Y-59891446D01*
X154591447Y-59873000D01*
X154780553Y-59873000D01*
X154873287Y-59891446D01*
X154873287Y-59891446D01*
G37*
G36*
X157413287Y-59891446D02*
X157506022Y-59909892D01*
X157680731Y-59982259D01*
X157835872Y-60085921D01*
X157837967Y-60087321D01*
X157971679Y-60221033D01*
X158076742Y-60378271D01*
X158149108Y-60552979D01*
X158186000Y-60738447D01*
X158186000Y-60927553D01*
X158149108Y-61113021D01*
X158076742Y-61287729D01*
X157971679Y-61444967D01*
X157837967Y-61578679D01*
X157837964Y-61578681D01*
X157680731Y-61683741D01*
X157506022Y-61756108D01*
X157413287Y-61774554D01*
X157320553Y-61793000D01*
X157131447Y-61793000D01*
X157038713Y-61774554D01*
X156945978Y-61756108D01*
X156771269Y-61683741D01*
X156614036Y-61578681D01*
X156614033Y-61578679D01*
X156480321Y-61444967D01*
X156375258Y-61287729D01*
X156302892Y-61113021D01*
X156266000Y-60927553D01*
X156266000Y-60738447D01*
X156302892Y-60552979D01*
X156375258Y-60378271D01*
X156480321Y-60221033D01*
X156614033Y-60087321D01*
X156616128Y-60085921D01*
X156771269Y-59982259D01*
X156945978Y-59909892D01*
X157038713Y-59891446D01*
X157131447Y-59873000D01*
X157320553Y-59873000D01*
X157413287Y-59891446D01*
X157413287Y-59891446D01*
G37*
G36*
X159953287Y-59891446D02*
X160046022Y-59909892D01*
X160220731Y-59982259D01*
X160375872Y-60085921D01*
X160377967Y-60087321D01*
X160511679Y-60221033D01*
X160616742Y-60378271D01*
X160689108Y-60552979D01*
X160726000Y-60738447D01*
X160726000Y-60927553D01*
X160689108Y-61113021D01*
X160616742Y-61287729D01*
X160511679Y-61444967D01*
X160377967Y-61578679D01*
X160377964Y-61578681D01*
X160220731Y-61683741D01*
X160046022Y-61756108D01*
X159953287Y-61774554D01*
X159860553Y-61793000D01*
X159671447Y-61793000D01*
X159578713Y-61774554D01*
X159485978Y-61756108D01*
X159311269Y-61683741D01*
X159154036Y-61578681D01*
X159154033Y-61578679D01*
X159020321Y-61444967D01*
X158915258Y-61287729D01*
X158842892Y-61113021D01*
X158806000Y-60927553D01*
X158806000Y-60738447D01*
X158842892Y-60552979D01*
X158915258Y-60378271D01*
X159020321Y-60221033D01*
X159154033Y-60087321D01*
X159156128Y-60085921D01*
X159311269Y-59982259D01*
X159485978Y-59909892D01*
X159578713Y-59891446D01*
X159671447Y-59873000D01*
X159860553Y-59873000D01*
X159953287Y-59891446D01*
X159953287Y-59891446D01*
G37*
G36*
X162493287Y-59891446D02*
X162586022Y-59909892D01*
X162760731Y-59982259D01*
X162915872Y-60085921D01*
X162917967Y-60087321D01*
X163051679Y-60221033D01*
X163156742Y-60378271D01*
X163229108Y-60552979D01*
X163266000Y-60738447D01*
X163266000Y-60927553D01*
X163229108Y-61113021D01*
X163156742Y-61287729D01*
X163051679Y-61444967D01*
X162917967Y-61578679D01*
X162917964Y-61578681D01*
X162760731Y-61683741D01*
X162586022Y-61756108D01*
X162493287Y-61774554D01*
X162400553Y-61793000D01*
X162211447Y-61793000D01*
X162118713Y-61774554D01*
X162025978Y-61756108D01*
X161851269Y-61683741D01*
X161694036Y-61578681D01*
X161694033Y-61578679D01*
X161560321Y-61444967D01*
X161455258Y-61287729D01*
X161382892Y-61113021D01*
X161346000Y-60927553D01*
X161346000Y-60738447D01*
X161382892Y-60552979D01*
X161455258Y-60378271D01*
X161560321Y-60221033D01*
X161694033Y-60087321D01*
X161696128Y-60085921D01*
X161851269Y-59982259D01*
X162025978Y-59909892D01*
X162118713Y-59891446D01*
X162211447Y-59873000D01*
X162400553Y-59873000D01*
X162493287Y-59891446D01*
X162493287Y-59891446D01*
G37*
G36*
X91373287Y-59891446D02*
X91466022Y-59909892D01*
X91640731Y-59982259D01*
X91795872Y-60085921D01*
X91797967Y-60087321D01*
X91931679Y-60221033D01*
X92036742Y-60378271D01*
X92109108Y-60552979D01*
X92146000Y-60738447D01*
X92146000Y-60927553D01*
X92109108Y-61113021D01*
X92036742Y-61287729D01*
X91931679Y-61444967D01*
X91797967Y-61578679D01*
X91797964Y-61578681D01*
X91640731Y-61683741D01*
X91466022Y-61756108D01*
X91373287Y-61774554D01*
X91280553Y-61793000D01*
X91091447Y-61793000D01*
X90998713Y-61774554D01*
X90905978Y-61756108D01*
X90731269Y-61683741D01*
X90574036Y-61578681D01*
X90574033Y-61578679D01*
X90440321Y-61444967D01*
X90335258Y-61287729D01*
X90262892Y-61113021D01*
X90226000Y-60927553D01*
X90226000Y-60738447D01*
X90262892Y-60552979D01*
X90335258Y-60378271D01*
X90440321Y-60221033D01*
X90574033Y-60087321D01*
X90576128Y-60085921D01*
X90731269Y-59982259D01*
X90905978Y-59909892D01*
X90998713Y-59891446D01*
X91091447Y-59873000D01*
X91280553Y-59873000D01*
X91373287Y-59891446D01*
X91373287Y-59891446D01*
G37*
G36*
X88833287Y-59891446D02*
X88926022Y-59909892D01*
X89100731Y-59982259D01*
X89255872Y-60085921D01*
X89257967Y-60087321D01*
X89391679Y-60221033D01*
X89496742Y-60378271D01*
X89569108Y-60552979D01*
X89606000Y-60738447D01*
X89606000Y-60927553D01*
X89569108Y-61113021D01*
X89496742Y-61287729D01*
X89391679Y-61444967D01*
X89257967Y-61578679D01*
X89257964Y-61578681D01*
X89100731Y-61683741D01*
X88926022Y-61756108D01*
X88833287Y-61774554D01*
X88740553Y-61793000D01*
X88551447Y-61793000D01*
X88458713Y-61774554D01*
X88365978Y-61756108D01*
X88191269Y-61683741D01*
X88034036Y-61578681D01*
X88034033Y-61578679D01*
X87900321Y-61444967D01*
X87795258Y-61287729D01*
X87722892Y-61113021D01*
X87686000Y-60927553D01*
X87686000Y-60738447D01*
X87722892Y-60552979D01*
X87795258Y-60378271D01*
X87900321Y-60221033D01*
X88034033Y-60087321D01*
X88036128Y-60085921D01*
X88191269Y-59982259D01*
X88365978Y-59909892D01*
X88458713Y-59891446D01*
X88551447Y-59873000D01*
X88740553Y-59873000D01*
X88833287Y-59891446D01*
X88833287Y-59891446D01*
G37*
G36*
X86293287Y-59891446D02*
X86386022Y-59909892D01*
X86560731Y-59982259D01*
X86715872Y-60085921D01*
X86717967Y-60087321D01*
X86851679Y-60221033D01*
X86956742Y-60378271D01*
X87029108Y-60552979D01*
X87066000Y-60738447D01*
X87066000Y-60927553D01*
X87029108Y-61113021D01*
X86956742Y-61287729D01*
X86851679Y-61444967D01*
X86717967Y-61578679D01*
X86717964Y-61578681D01*
X86560731Y-61683741D01*
X86386022Y-61756108D01*
X86293287Y-61774554D01*
X86200553Y-61793000D01*
X86011447Y-61793000D01*
X85918713Y-61774554D01*
X85825978Y-61756108D01*
X85651269Y-61683741D01*
X85494036Y-61578681D01*
X85494033Y-61578679D01*
X85360321Y-61444967D01*
X85255258Y-61287729D01*
X85182892Y-61113021D01*
X85146000Y-60927553D01*
X85146000Y-60738447D01*
X85182892Y-60552979D01*
X85255258Y-60378271D01*
X85360321Y-60221033D01*
X85494033Y-60087321D01*
X85496128Y-60085921D01*
X85651269Y-59982259D01*
X85825978Y-59909892D01*
X85918713Y-59891446D01*
X86011447Y-59873000D01*
X86200553Y-59873000D01*
X86293287Y-59891446D01*
X86293287Y-59891446D01*
G37*
G36*
X83753287Y-59891446D02*
X83846022Y-59909892D01*
X84020731Y-59982259D01*
X84175872Y-60085921D01*
X84177967Y-60087321D01*
X84311679Y-60221033D01*
X84416742Y-60378271D01*
X84489108Y-60552979D01*
X84526000Y-60738447D01*
X84526000Y-60927553D01*
X84489108Y-61113021D01*
X84416742Y-61287729D01*
X84311679Y-61444967D01*
X84177967Y-61578679D01*
X84177964Y-61578681D01*
X84020731Y-61683741D01*
X83846022Y-61756108D01*
X83753287Y-61774554D01*
X83660553Y-61793000D01*
X83471447Y-61793000D01*
X83378713Y-61774554D01*
X83285978Y-61756108D01*
X83111269Y-61683741D01*
X82954036Y-61578681D01*
X82954033Y-61578679D01*
X82820321Y-61444967D01*
X82715258Y-61287729D01*
X82642892Y-61113021D01*
X82606000Y-60927553D01*
X82606000Y-60738447D01*
X82642892Y-60552979D01*
X82715258Y-60378271D01*
X82820321Y-60221033D01*
X82954033Y-60087321D01*
X82956128Y-60085921D01*
X83111269Y-59982259D01*
X83285978Y-59909892D01*
X83378713Y-59891446D01*
X83471447Y-59873000D01*
X83660553Y-59873000D01*
X83753287Y-59891446D01*
X83753287Y-59891446D01*
G37*
G36*
X81213287Y-59891446D02*
X81306022Y-59909892D01*
X81480731Y-59982259D01*
X81635872Y-60085921D01*
X81637967Y-60087321D01*
X81771679Y-60221033D01*
X81876742Y-60378271D01*
X81949108Y-60552979D01*
X81986000Y-60738447D01*
X81986000Y-60927553D01*
X81949108Y-61113021D01*
X81876742Y-61287729D01*
X81771679Y-61444967D01*
X81637967Y-61578679D01*
X81637964Y-61578681D01*
X81480731Y-61683741D01*
X81306022Y-61756108D01*
X81213287Y-61774554D01*
X81120553Y-61793000D01*
X80931447Y-61793000D01*
X80838713Y-61774554D01*
X80745978Y-61756108D01*
X80571269Y-61683741D01*
X80414036Y-61578681D01*
X80414033Y-61578679D01*
X80280321Y-61444967D01*
X80175258Y-61287729D01*
X80102892Y-61113021D01*
X80066000Y-60927553D01*
X80066000Y-60738447D01*
X80102892Y-60552979D01*
X80175258Y-60378271D01*
X80280321Y-60221033D01*
X80414033Y-60087321D01*
X80416128Y-60085921D01*
X80571269Y-59982259D01*
X80745978Y-59909892D01*
X80838713Y-59891446D01*
X80931447Y-59873000D01*
X81120553Y-59873000D01*
X81213287Y-59891446D01*
X81213287Y-59891446D01*
G37*
G36*
X78673287Y-59891446D02*
X78766022Y-59909892D01*
X78940731Y-59982259D01*
X79095872Y-60085921D01*
X79097967Y-60087321D01*
X79231679Y-60221033D01*
X79336742Y-60378271D01*
X79409108Y-60552979D01*
X79446000Y-60738447D01*
X79446000Y-60927553D01*
X79409108Y-61113021D01*
X79336742Y-61287729D01*
X79231679Y-61444967D01*
X79097967Y-61578679D01*
X79097964Y-61578681D01*
X78940731Y-61683741D01*
X78766022Y-61756108D01*
X78673287Y-61774554D01*
X78580553Y-61793000D01*
X78391447Y-61793000D01*
X78298713Y-61774554D01*
X78205978Y-61756108D01*
X78031269Y-61683741D01*
X77874036Y-61578681D01*
X77874033Y-61578679D01*
X77740321Y-61444967D01*
X77635258Y-61287729D01*
X77562892Y-61113021D01*
X77526000Y-60927553D01*
X77526000Y-60738447D01*
X77562892Y-60552979D01*
X77635258Y-60378271D01*
X77740321Y-60221033D01*
X77874033Y-60087321D01*
X77876128Y-60085921D01*
X78031269Y-59982259D01*
X78205978Y-59909892D01*
X78298713Y-59891446D01*
X78391447Y-59873000D01*
X78580553Y-59873000D01*
X78673287Y-59891446D01*
X78673287Y-59891446D01*
G37*
G36*
X76133287Y-59891446D02*
X76226022Y-59909892D01*
X76400731Y-59982259D01*
X76555872Y-60085921D01*
X76557967Y-60087321D01*
X76691679Y-60221033D01*
X76796742Y-60378271D01*
X76869108Y-60552979D01*
X76906000Y-60738447D01*
X76906000Y-60927553D01*
X76869108Y-61113021D01*
X76796742Y-61287729D01*
X76691679Y-61444967D01*
X76557967Y-61578679D01*
X76557964Y-61578681D01*
X76400731Y-61683741D01*
X76226022Y-61756108D01*
X76133287Y-61774554D01*
X76040553Y-61793000D01*
X75851447Y-61793000D01*
X75758713Y-61774554D01*
X75665978Y-61756108D01*
X75491269Y-61683741D01*
X75334036Y-61578681D01*
X75334033Y-61578679D01*
X75200321Y-61444967D01*
X75095258Y-61287729D01*
X75022892Y-61113021D01*
X74986000Y-60927553D01*
X74986000Y-60738447D01*
X75022892Y-60552979D01*
X75095258Y-60378271D01*
X75200321Y-60221033D01*
X75334033Y-60087321D01*
X75336128Y-60085921D01*
X75491269Y-59982259D01*
X75665978Y-59909892D01*
X75758713Y-59891446D01*
X75851447Y-59873000D01*
X76040553Y-59873000D01*
X76133287Y-59891446D01*
X76133287Y-59891446D01*
G37*
G36*
X96453287Y-59891446D02*
X96546022Y-59909892D01*
X96720731Y-59982259D01*
X96875872Y-60085921D01*
X96877967Y-60087321D01*
X97011679Y-60221033D01*
X97116742Y-60378271D01*
X97189108Y-60552979D01*
X97226000Y-60738447D01*
X97226000Y-60927553D01*
X97189108Y-61113021D01*
X97116742Y-61287729D01*
X97011679Y-61444967D01*
X96877967Y-61578679D01*
X96877964Y-61578681D01*
X96720731Y-61683741D01*
X96546022Y-61756108D01*
X96453287Y-61774554D01*
X96360553Y-61793000D01*
X96171447Y-61793000D01*
X96078713Y-61774554D01*
X95985978Y-61756108D01*
X95811269Y-61683741D01*
X95654036Y-61578681D01*
X95654033Y-61578679D01*
X95520321Y-61444967D01*
X95415258Y-61287729D01*
X95342892Y-61113021D01*
X95306000Y-60927553D01*
X95306000Y-60738447D01*
X95342892Y-60552979D01*
X95415258Y-60378271D01*
X95520321Y-60221033D01*
X95654033Y-60087321D01*
X95656128Y-60085921D01*
X95811269Y-59982259D01*
X95985978Y-59909892D01*
X96078713Y-59891446D01*
X96171447Y-59873000D01*
X96360553Y-59873000D01*
X96453287Y-59891446D01*
X96453287Y-59891446D01*
G37*
G36*
X93913287Y-59891446D02*
X94006022Y-59909892D01*
X94180731Y-59982259D01*
X94335872Y-60085921D01*
X94337967Y-60087321D01*
X94471679Y-60221033D01*
X94576742Y-60378271D01*
X94649108Y-60552979D01*
X94686000Y-60738447D01*
X94686000Y-60927553D01*
X94649108Y-61113021D01*
X94576742Y-61287729D01*
X94471679Y-61444967D01*
X94337967Y-61578679D01*
X94337964Y-61578681D01*
X94180731Y-61683741D01*
X94006022Y-61756108D01*
X93913287Y-61774554D01*
X93820553Y-61793000D01*
X93631447Y-61793000D01*
X93538713Y-61774554D01*
X93445978Y-61756108D01*
X93271269Y-61683741D01*
X93114036Y-61578681D01*
X93114033Y-61578679D01*
X92980321Y-61444967D01*
X92875258Y-61287729D01*
X92802892Y-61113021D01*
X92766000Y-60927553D01*
X92766000Y-60738447D01*
X92802892Y-60552979D01*
X92875258Y-60378271D01*
X92980321Y-60221033D01*
X93114033Y-60087321D01*
X93116128Y-60085921D01*
X93271269Y-59982259D01*
X93445978Y-59909892D01*
X93538713Y-59891446D01*
X93631447Y-59873000D01*
X93820553Y-59873000D01*
X93913287Y-59891446D01*
X93913287Y-59891446D01*
G37*
G36*
X98993287Y-59891446D02*
X99086022Y-59909892D01*
X99260731Y-59982259D01*
X99415872Y-60085921D01*
X99417967Y-60087321D01*
X99551679Y-60221033D01*
X99656742Y-60378271D01*
X99729108Y-60552979D01*
X99766000Y-60738447D01*
X99766000Y-60927553D01*
X99729108Y-61113021D01*
X99656742Y-61287729D01*
X99551679Y-61444967D01*
X99417967Y-61578679D01*
X99417964Y-61578681D01*
X99260731Y-61683741D01*
X99086022Y-61756108D01*
X98993287Y-61774554D01*
X98900553Y-61793000D01*
X98711447Y-61793000D01*
X98618713Y-61774554D01*
X98525978Y-61756108D01*
X98351269Y-61683741D01*
X98194036Y-61578681D01*
X98194033Y-61578679D01*
X98060321Y-61444967D01*
X97955258Y-61287729D01*
X97882892Y-61113021D01*
X97846000Y-60927553D01*
X97846000Y-60738447D01*
X97882892Y-60552979D01*
X97955258Y-60378271D01*
X98060321Y-60221033D01*
X98194033Y-60087321D01*
X98196128Y-60085921D01*
X98351269Y-59982259D01*
X98525978Y-59909892D01*
X98618713Y-59891446D01*
X98711447Y-59873000D01*
X98900553Y-59873000D01*
X98993287Y-59891446D01*
X98993287Y-59891446D01*
G37*
M02*
