G04 #@! TF.GenerationSoftware,KiCad,Pcbnew,(5.0.0)*
G04 #@! TF.CreationDate,2018-10-04T19:52:15-05:00*
G04 #@! TF.ProjectId,TIVA SMD Header Guide,5449564120534D442048656164657220,rev?*
G04 #@! TF.SameCoordinates,Original*
G04 #@! TF.FileFunction,Soldermask,Top*
G04 #@! TF.FilePolarity,Negative*
%FSLAX46Y46*%
G04 Gerber Fmt 4.6, Leading zero omitted, Abs format (unit mm)*
G04 Created by KiCad (PCBNEW (5.0.0)) date 10/04/18 19:52:15*
%MOMM*%
%LPD*%
G01*
G04 APERTURE LIST*
%ADD10C,1.920000*%
G04 APERTURE END LIST*
D10*
G04 #@! TO.C,REF\002A\002A*
X139446000Y-106553000D03*
X162306000Y-60833000D03*
X159766000Y-60833000D03*
X152146000Y-60833000D03*
X149606000Y-104013000D03*
X154686000Y-60833000D03*
X157226000Y-60833000D03*
X154686000Y-106553000D03*
X159766000Y-104013000D03*
X149606000Y-60833000D03*
X147066000Y-60833000D03*
X159766000Y-106553000D03*
X154686000Y-104013000D03*
X152146000Y-104013000D03*
X139446000Y-104013000D03*
X141986000Y-104013000D03*
X144526000Y-104013000D03*
X147066000Y-104013000D03*
X157226000Y-104013000D03*
X162306000Y-104013000D03*
X141986000Y-106553000D03*
X144526000Y-106553000D03*
X147066000Y-106553000D03*
X149606000Y-106553000D03*
X152146000Y-106553000D03*
X157226000Y-106553000D03*
X162306000Y-106553000D03*
X139446000Y-63373000D03*
X141986000Y-63373000D03*
X144526000Y-63373000D03*
X147066000Y-63373000D03*
X149606000Y-63373000D03*
X152146000Y-63373000D03*
X154686000Y-63373000D03*
X157226000Y-63373000D03*
X159766000Y-63373000D03*
X162306000Y-63373000D03*
X139446000Y-60833000D03*
X141986000Y-60833000D03*
X144526000Y-60833000D03*
X75946000Y-104013000D03*
X78486000Y-104013000D03*
X81026000Y-104013000D03*
X83566000Y-104013000D03*
X86106000Y-104013000D03*
X88646000Y-104013000D03*
X91186000Y-104013000D03*
X93726000Y-104013000D03*
X96266000Y-104013000D03*
X98806000Y-104013000D03*
X75946000Y-106553000D03*
X78486000Y-106553000D03*
X81026000Y-106553000D03*
X83566000Y-106553000D03*
X86106000Y-106553000D03*
X88646000Y-106553000D03*
X91186000Y-106553000D03*
X93726000Y-106553000D03*
X96266000Y-106553000D03*
X98806000Y-106553000D03*
X75946000Y-63373000D03*
X78486000Y-63373000D03*
X81026000Y-63373000D03*
X83566000Y-63373000D03*
X86106000Y-63373000D03*
X88646000Y-63373000D03*
X91186000Y-63373000D03*
X93726000Y-63373000D03*
X96266000Y-63373000D03*
X98806000Y-63373000D03*
X75946000Y-60833000D03*
X78486000Y-60833000D03*
X81026000Y-60833000D03*
X83566000Y-60833000D03*
X86106000Y-60833000D03*
X88646000Y-60833000D03*
X91186000Y-60833000D03*
X93726000Y-60833000D03*
X96266000Y-60833000D03*
X98806000Y-60833000D03*
G04 #@! TD*
M02*
