G04 #@! TF.GenerationSoftware,KiCad,Pcbnew,(5.0.0)*
G04 #@! TF.CreationDate,2018-10-04T19:52:15-05:00*
G04 #@! TF.ProjectId,TIVA SMD Header Guide,5449564120534D442048656164657220,rev?*
G04 #@! TF.SameCoordinates,Original*
G04 #@! TF.FileFunction,Profile,NP*
%FSLAX46Y46*%
G04 Gerber Fmt 4.6, Leading zero omitted, Abs format (unit mm)*
G04 Created by KiCad (PCBNEW (5.0.0)) date 10/04/18 19:52:15*
%MOMM*%
%LPD*%
G01*
G04 APERTURE LIST*
%ADD10C,0.150000*%
G04 APERTURE END LIST*
D10*
X138176000Y-64643000D02*
X121412000Y-83693000D01*
X100076000Y-59563000D02*
X119126000Y-81153000D01*
X116840000Y-83693000D02*
X100076000Y-64643000D01*
X100076000Y-102743000D02*
X116840000Y-83693000D01*
X119126000Y-86233000D02*
X100076000Y-107823000D01*
X138176000Y-107823000D02*
X119126000Y-86233000D01*
X121412000Y-83693000D02*
X138176000Y-102743000D01*
X119126000Y-81153000D02*
X138176000Y-59563000D01*
X163576000Y-107823000D02*
X138176000Y-107823000D01*
X163576000Y-102743000D02*
X163576000Y-107823000D01*
X138176000Y-102743000D02*
X163576000Y-102743000D01*
X163576000Y-64643000D02*
X138176000Y-64643000D01*
X163576000Y-59563000D02*
X163576000Y-64643000D01*
X138176000Y-59563000D02*
X163576000Y-59563000D01*
X74676000Y-59563000D02*
X100076000Y-59563000D01*
X74676000Y-64643000D02*
X74676000Y-59563000D01*
X100076000Y-64643000D02*
X74676000Y-64643000D01*
X74676000Y-102743000D02*
X100076000Y-102743000D01*
X74676000Y-107823000D02*
X74676000Y-102743000D01*
X100076000Y-107823000D02*
X74676000Y-107823000D01*
M02*
