M48
;DRILL file {KiCad (5.0.0)} date 10/04/18 19:52:16
;FORMAT={-:-/ absolute / inch / decimal}
FMAT,2
INCH,TZ
T1C0.0394
%
G90
G05
M72
T1
X2.99Y-2.395
X2.99Y-2.495
X2.99Y-4.095
X2.99Y-4.195
X3.09Y-2.395
X3.09Y-2.495
X3.09Y-4.095
X3.09Y-4.195
X3.19Y-2.395
X3.19Y-2.495
X3.19Y-4.095
X3.19Y-4.195
X3.29Y-2.395
X3.29Y-2.495
X3.29Y-4.095
X3.29Y-4.195
X3.39Y-2.395
X3.39Y-2.495
X3.39Y-4.095
X3.39Y-4.195
X3.49Y-2.395
X3.49Y-2.495
X3.49Y-4.095
X3.49Y-4.195
X3.59Y-2.395
X3.59Y-2.495
X3.59Y-4.095
X3.59Y-4.195
X3.69Y-2.395
X3.69Y-2.495
X3.69Y-4.095
X3.69Y-4.195
X3.79Y-2.395
X3.79Y-2.495
X3.79Y-4.095
X3.79Y-4.195
X3.89Y-2.395
X3.89Y-2.495
X3.89Y-4.095
X3.89Y-4.195
X5.49Y-2.395
X5.49Y-2.495
X5.49Y-4.095
X5.49Y-4.195
X5.59Y-2.395
X5.59Y-2.495
X5.59Y-4.095
X5.59Y-4.195
X5.69Y-2.395
X5.69Y-2.495
X5.69Y-4.095
X5.69Y-4.195
X5.79Y-2.395
X5.79Y-2.495
X5.79Y-4.095
X5.79Y-4.195
X5.89Y-2.395
X5.89Y-2.495
X5.89Y-4.095
X5.89Y-4.195
X5.99Y-2.395
X5.99Y-2.495
X5.99Y-4.095
X5.99Y-4.195
X6.09Y-2.395
X6.09Y-2.495
X6.09Y-4.095
X6.09Y-4.195
X6.19Y-2.395
X6.19Y-2.495
X6.19Y-4.095
X6.19Y-4.195
X6.29Y-2.395
X6.29Y-2.495
X6.29Y-4.095
X6.29Y-4.195
X6.39Y-2.395
X6.39Y-2.495
X6.39Y-4.095
X6.39Y-4.195
T0
M30
