G04 #@! TF.GenerationSoftware,KiCad,Pcbnew,(5.0.0)*
G04 #@! TF.CreationDate,2018-10-04T19:52:15-05:00*
G04 #@! TF.ProjectId,TIVA SMD Header Guide,5449564120534D442048656164657220,rev?*
G04 #@! TF.SameCoordinates,Original*
G04 #@! TF.FileFunction,Legend,Top*
G04 #@! TF.FilePolarity,Positive*
%FSLAX46Y46*%
G04 Gerber Fmt 4.6, Leading zero omitted, Abs format (unit mm)*
G04 Created by KiCad (PCBNEW (5.0.0)) date 10/04/18 19:52:15*
%MOMM*%
%LPD*%
G01*
G04 APERTURE LIST*
%ADD10C,0.150000*%
%ADD11C,0.010000*%
G04 APERTURE END LIST*
D10*
G04 #@! TO.C,REF\002A\002A*
X100076000Y-107823000D02*
X100076000Y-102743000D01*
X100076000Y-102743000D02*
X74676000Y-102743000D01*
X74676000Y-102743000D02*
X74676000Y-107823000D01*
X74676000Y-107823000D02*
X100076000Y-107823000D01*
X100076000Y-64643000D02*
X100076000Y-59563000D01*
X100076000Y-59563000D02*
X74676000Y-59563000D01*
X74676000Y-59563000D02*
X74676000Y-64643000D01*
X74676000Y-64643000D02*
X100076000Y-64643000D01*
X163576000Y-102743000D02*
X138176000Y-102743000D01*
X138176000Y-64643000D02*
X163576000Y-64643000D01*
X163576000Y-107823000D02*
X163576000Y-102743000D01*
X138176000Y-102743000D02*
X138176000Y-107823000D01*
X138176000Y-107823000D02*
X163576000Y-107823000D01*
X163576000Y-64643000D02*
X163576000Y-59563000D01*
X163576000Y-59563000D02*
X138176000Y-59563000D01*
X138176000Y-59563000D02*
X138176000Y-64643000D01*
D11*
G04 #@! TO.C,G\002A\002A\002A*
G36*
X121448294Y-81739839D02*
X121463586Y-81741030D01*
X121476896Y-81742846D01*
X121485995Y-81744888D01*
X121496665Y-81748282D01*
X121504784Y-81751485D01*
X121509921Y-81754301D01*
X121511646Y-81756473D01*
X121509859Y-81756786D01*
X121505015Y-81756418D01*
X121497888Y-81755452D01*
X121490642Y-81754227D01*
X121473277Y-81751820D01*
X121454725Y-81750576D01*
X121436232Y-81750503D01*
X121419042Y-81751607D01*
X121405161Y-81753730D01*
X121378134Y-81761234D01*
X121349928Y-81772435D01*
X121320569Y-81787316D01*
X121290082Y-81805856D01*
X121258492Y-81828035D01*
X121225825Y-81853834D01*
X121192106Y-81883234D01*
X121157361Y-81916215D01*
X121121614Y-81952758D01*
X121084891Y-81992842D01*
X121064038Y-82016681D01*
X121052397Y-82030329D01*
X121039515Y-82045665D01*
X121025839Y-82062134D01*
X121011819Y-82079186D01*
X120997904Y-82096267D01*
X120984543Y-82112825D01*
X120972185Y-82128309D01*
X120961280Y-82142164D01*
X120952276Y-82153840D01*
X120949126Y-82158020D01*
X120934537Y-82177835D01*
X120918247Y-82200459D01*
X120900611Y-82225374D01*
X120881982Y-82252062D01*
X120862711Y-82280008D01*
X120843154Y-82308694D01*
X120823663Y-82337603D01*
X120804590Y-82366218D01*
X120786290Y-82394023D01*
X120769116Y-82420501D01*
X120759524Y-82435495D01*
X120730513Y-82481177D01*
X120703476Y-82523883D01*
X120678240Y-82563903D01*
X120654627Y-82601523D01*
X120632464Y-82637031D01*
X120611575Y-82670716D01*
X120591784Y-82702865D01*
X120572916Y-82733765D01*
X120554795Y-82763705D01*
X120537247Y-82792973D01*
X120520096Y-82821855D01*
X120503167Y-82850640D01*
X120486284Y-82879616D01*
X120469271Y-82909071D01*
X120451955Y-82939292D01*
X120443317Y-82954446D01*
X120434019Y-82970733D01*
X120423218Y-82989568D01*
X120411387Y-83010128D01*
X120399002Y-83031590D01*
X120386537Y-83053132D01*
X120374468Y-83073931D01*
X120363268Y-83093166D01*
X120362125Y-83095123D01*
X120350697Y-83114780D01*
X120338064Y-83136650D01*
X120324760Y-83159800D01*
X120311319Y-83183298D01*
X120298273Y-83206211D01*
X120286158Y-83227606D01*
X120275685Y-83246229D01*
X120265715Y-83264056D01*
X120257501Y-83278803D01*
X120250884Y-83290798D01*
X120245705Y-83300365D01*
X120241805Y-83307831D01*
X120239024Y-83313524D01*
X120237203Y-83317768D01*
X120236184Y-83320891D01*
X120235806Y-83323218D01*
X120235910Y-83325076D01*
X120236337Y-83326791D01*
X120236348Y-83326825D01*
X120238088Y-83331225D01*
X120239726Y-83333432D01*
X120239954Y-83333492D01*
X120241811Y-83332222D01*
X120246041Y-83328689D01*
X120252172Y-83323306D01*
X120259732Y-83316490D01*
X120268248Y-83308655D01*
X120268446Y-83308471D01*
X120304507Y-83275305D01*
X120338148Y-83245073D01*
X120369452Y-83217711D01*
X120398505Y-83193152D01*
X120425391Y-83171332D01*
X120450194Y-83152187D01*
X120473000Y-83135651D01*
X120493893Y-83121660D01*
X120512957Y-83110149D01*
X120530278Y-83101053D01*
X120545940Y-83094307D01*
X120549689Y-83092951D01*
X120563810Y-83088892D01*
X120575275Y-83087485D01*
X120584316Y-83088751D01*
X120591165Y-83092708D01*
X120594508Y-83096668D01*
X120596534Y-83100033D01*
X120595919Y-83100927D01*
X120592353Y-83100180D01*
X120583853Y-83098288D01*
X120577439Y-83097658D01*
X120571510Y-83098264D01*
X120565455Y-83099793D01*
X120555819Y-83103801D01*
X120543967Y-83110869D01*
X120529891Y-83121006D01*
X120513584Y-83134219D01*
X120495038Y-83150516D01*
X120474244Y-83169905D01*
X120451195Y-83192393D01*
X120425882Y-83217988D01*
X120398298Y-83246698D01*
X120368435Y-83278531D01*
X120336283Y-83313495D01*
X120301837Y-83351597D01*
X120274007Y-83382782D01*
X120258868Y-83399833D01*
X120263895Y-83420882D01*
X120275985Y-83477685D01*
X120285713Y-83536775D01*
X120291842Y-83586515D01*
X120292857Y-83597242D01*
X120293671Y-83608383D01*
X120294300Y-83620500D01*
X120294764Y-83634156D01*
X120295081Y-83649913D01*
X120295269Y-83668334D01*
X120295346Y-83689982D01*
X120295350Y-83694954D01*
X120295306Y-83718236D01*
X120295130Y-83738330D01*
X120294780Y-83755953D01*
X120294217Y-83771824D01*
X120293398Y-83786660D01*
X120292284Y-83801180D01*
X120290833Y-83816101D01*
X120289005Y-83832141D01*
X120286758Y-83850020D01*
X120286370Y-83852998D01*
X120275768Y-83919146D01*
X120261394Y-83984373D01*
X120243308Y-84048541D01*
X120221569Y-84111510D01*
X120196234Y-84173140D01*
X120167362Y-84233293D01*
X120135011Y-84291827D01*
X120099240Y-84348604D01*
X120060107Y-84403484D01*
X120051319Y-84414946D01*
X120033040Y-84437612D01*
X120012443Y-84461623D01*
X119990220Y-84486250D01*
X119967065Y-84510767D01*
X119943672Y-84534445D01*
X119920732Y-84556556D01*
X119898941Y-84576372D01*
X119891222Y-84583050D01*
X119837429Y-84626422D01*
X119782144Y-84666185D01*
X119725339Y-84702352D01*
X119666984Y-84734935D01*
X119607051Y-84763950D01*
X119545513Y-84789408D01*
X119482340Y-84811323D01*
X119417505Y-84829709D01*
X119350979Y-84844579D01*
X119328410Y-84848759D01*
X119318632Y-84850507D01*
X119310349Y-84852043D01*
X119304262Y-84853231D01*
X119301074Y-84853938D01*
X119300772Y-84854049D01*
X119299596Y-84855763D01*
X119296615Y-84860213D01*
X119292178Y-84866874D01*
X119286634Y-84875224D01*
X119280729Y-84884139D01*
X119266364Y-84905625D01*
X119251160Y-84927966D01*
X119235538Y-84950563D01*
X119219920Y-84972822D01*
X119204727Y-84994146D01*
X119190381Y-85013938D01*
X119177302Y-85031601D01*
X119166304Y-85046038D01*
X119142537Y-85075680D01*
X119118126Y-85104272D01*
X119093515Y-85131348D01*
X119069145Y-85156441D01*
X119045460Y-85179085D01*
X119022901Y-85198812D01*
X119016584Y-85203960D01*
X118996721Y-85218889D01*
X118975364Y-85233202D01*
X118953337Y-85246429D01*
X118931467Y-85258099D01*
X118910580Y-85267743D01*
X118892719Y-85274494D01*
X118866107Y-85281663D01*
X118837989Y-85286356D01*
X118809555Y-85288457D01*
X118781997Y-85287847D01*
X118769423Y-85286557D01*
X118737522Y-85280483D01*
X118707076Y-85270838D01*
X118677973Y-85257571D01*
X118650104Y-85240631D01*
X118623356Y-85219968D01*
X118622682Y-85219388D01*
X118607057Y-85205885D01*
X118579801Y-85204515D01*
X118543189Y-85201796D01*
X118508902Y-85197471D01*
X118477329Y-85191604D01*
X118472871Y-85190454D01*
X118742773Y-85190454D01*
X118745556Y-85191303D01*
X118751180Y-85192456D01*
X118758611Y-85193710D01*
X118761607Y-85194158D01*
X118783741Y-85195625D01*
X118806127Y-85193879D01*
X118825108Y-85189700D01*
X118850568Y-85180222D01*
X118876170Y-85166856D01*
X118901890Y-85149619D01*
X118927705Y-85128525D01*
X118953590Y-85103592D01*
X118957819Y-85099160D01*
X118968415Y-85087929D01*
X118944100Y-85104107D01*
X118910059Y-85125336D01*
X118876404Y-85143329D01*
X118842167Y-85158517D01*
X118806380Y-85171332D01*
X118769712Y-85181789D01*
X118759899Y-85184395D01*
X118751775Y-85186765D01*
X118745930Y-85188710D01*
X118742954Y-85190040D01*
X118742773Y-85190454D01*
X118472871Y-85190454D01*
X118448856Y-85184260D01*
X118437721Y-85180684D01*
X118421718Y-85174597D01*
X118403938Y-85166823D01*
X118385677Y-85157997D01*
X118368227Y-85148751D01*
X118352884Y-85139721D01*
X118349073Y-85137272D01*
X118335730Y-85129261D01*
X118323774Y-85123814D01*
X118316835Y-85121568D01*
X118294128Y-85114270D01*
X118274384Y-85105547D01*
X118256786Y-85094965D01*
X118247189Y-85087369D01*
X118596634Y-85087369D01*
X118597289Y-85089080D01*
X118600029Y-85092391D01*
X118603936Y-85096400D01*
X118608093Y-85100207D01*
X118611581Y-85102912D01*
X118613256Y-85103677D01*
X118616104Y-85103359D01*
X118621784Y-85102511D01*
X118629284Y-85101287D01*
X118632886Y-85100672D01*
X118680169Y-85090772D01*
X118724973Y-85077992D01*
X118735035Y-85074674D01*
X118743646Y-85071719D01*
X118750182Y-85069351D01*
X118754018Y-85067791D01*
X118754769Y-85067319D01*
X118753241Y-85066942D01*
X118751350Y-85067361D01*
X118744063Y-85069177D01*
X118733603Y-85071146D01*
X118720697Y-85073183D01*
X118706071Y-85075202D01*
X118690453Y-85077118D01*
X118674569Y-85078846D01*
X118659146Y-85080300D01*
X118644913Y-85081393D01*
X118632594Y-85082041D01*
X118625434Y-85082184D01*
X118613611Y-85082533D01*
X118605058Y-85083649D01*
X118599194Y-85085637D01*
X118596634Y-85087369D01*
X118247189Y-85087369D01*
X118240517Y-85082089D01*
X118237603Y-85079435D01*
X118222952Y-85064652D01*
X118211009Y-85049791D01*
X118200772Y-85033543D01*
X118196716Y-85025944D01*
X118186344Y-85002656D01*
X118178165Y-84977564D01*
X118172025Y-84950101D01*
X118167791Y-84919907D01*
X118166337Y-84907917D01*
X118164579Y-84897955D01*
X118162143Y-84888442D01*
X118158654Y-84877803D01*
X118156212Y-84871061D01*
X118141679Y-84827561D01*
X118139672Y-84820139D01*
X118210000Y-84820139D01*
X118210931Y-84836373D01*
X118211627Y-84845517D01*
X118212598Y-84854570D01*
X118213647Y-84861730D01*
X118213768Y-84862368D01*
X118215524Y-84867928D01*
X118218974Y-84876078D01*
X118223740Y-84886092D01*
X118229446Y-84897245D01*
X118235714Y-84908811D01*
X118242169Y-84920067D01*
X118248435Y-84930285D01*
X118251304Y-84934669D01*
X118269103Y-84959280D01*
X118288668Y-84982984D01*
X118309263Y-85004974D01*
X118330154Y-85024446D01*
X118342508Y-85034572D01*
X118350392Y-85040634D01*
X118356035Y-85044693D01*
X118360279Y-85047146D01*
X118363967Y-85048391D01*
X118367942Y-85048823D01*
X118372792Y-85048842D01*
X118381318Y-85048405D01*
X118391135Y-85047393D01*
X118397810Y-85046407D01*
X118411104Y-85044084D01*
X118391620Y-85033476D01*
X118360412Y-85014389D01*
X118331423Y-84992288D01*
X118304579Y-84967092D01*
X118279803Y-84938718D01*
X118257020Y-84907084D01*
X118236155Y-84872108D01*
X118226239Y-84852981D01*
X118210000Y-84820139D01*
X118139672Y-84820139D01*
X118129000Y-84780678D01*
X118118184Y-84730478D01*
X118109244Y-84677024D01*
X118102191Y-84620383D01*
X118097034Y-84560616D01*
X118094276Y-84510450D01*
X118093732Y-84495154D01*
X118093341Y-84479416D01*
X118093116Y-84464214D01*
X118093069Y-84450527D01*
X118093213Y-84439334D01*
X118093339Y-84435461D01*
X118094097Y-84418332D01*
X118094928Y-84401472D01*
X118095800Y-84385350D01*
X118096683Y-84370433D01*
X118097548Y-84357189D01*
X118098363Y-84346085D01*
X118099100Y-84337589D01*
X118099728Y-84332169D01*
X118100118Y-84330385D01*
X118100599Y-84331553D01*
X118101276Y-84336136D01*
X118102099Y-84343652D01*
X118103020Y-84353614D01*
X118103990Y-84365539D01*
X118104845Y-84377277D01*
X118107882Y-84418381D01*
X118111087Y-84456058D01*
X118114527Y-84490788D01*
X118118268Y-84523049D01*
X118122376Y-84553321D01*
X118126918Y-84582084D01*
X118131958Y-84609816D01*
X118137565Y-84636998D01*
X118143803Y-84664108D01*
X118145265Y-84670100D01*
X118148294Y-84682005D01*
X118151878Y-84695445D01*
X118155791Y-84709638D01*
X118159809Y-84723803D01*
X118163708Y-84737157D01*
X118167263Y-84748919D01*
X118170250Y-84758306D01*
X118172086Y-84763595D01*
X118173864Y-84768367D01*
X118174993Y-84763595D01*
X118177931Y-84749413D01*
X118179320Y-84737496D01*
X118179204Y-84726536D01*
X118177623Y-84715228D01*
X118176686Y-84710742D01*
X118171856Y-84687477D01*
X118167626Y-84663451D01*
X118163929Y-84638112D01*
X118160696Y-84610908D01*
X118157861Y-84581286D01*
X118155354Y-84548693D01*
X118153792Y-84524361D01*
X118152452Y-84496628D01*
X118151702Y-84468642D01*
X118151535Y-84441184D01*
X118151945Y-84415035D01*
X118152926Y-84390979D01*
X118154021Y-84375970D01*
X118174753Y-84375970D01*
X118174778Y-84381583D01*
X118175044Y-84390025D01*
X118175520Y-84400762D01*
X118176177Y-84413261D01*
X118176983Y-84426988D01*
X118177909Y-84441408D01*
X118178923Y-84455990D01*
X118179996Y-84470199D01*
X118181097Y-84483500D01*
X118181518Y-84488215D01*
X118182814Y-84500970D01*
X118184489Y-84515237D01*
X118186464Y-84530510D01*
X118188657Y-84546286D01*
X118190989Y-84562059D01*
X118193378Y-84577325D01*
X118195744Y-84591578D01*
X118198007Y-84604314D01*
X118200085Y-84615028D01*
X118201899Y-84623215D01*
X118203368Y-84628370D01*
X118204125Y-84629884D01*
X118204964Y-84628465D01*
X118206633Y-84623988D01*
X118208887Y-84617154D01*
X118211445Y-84608799D01*
X118216624Y-84591904D01*
X118221935Y-84575667D01*
X118227223Y-84560465D01*
X118232337Y-84546680D01*
X118237125Y-84534691D01*
X118241433Y-84524877D01*
X118245109Y-84517619D01*
X118248001Y-84513297D01*
X118249956Y-84512289D01*
X118250143Y-84512430D01*
X118249985Y-84514481D01*
X118249139Y-84519894D01*
X118247691Y-84528197D01*
X118245725Y-84538922D01*
X118243327Y-84551599D01*
X118240581Y-84565758D01*
X118239244Y-84572546D01*
X118236038Y-84588981D01*
X118232858Y-84605723D01*
X118229854Y-84621964D01*
X118227172Y-84636892D01*
X118224959Y-84649700D01*
X118223363Y-84659576D01*
X118223233Y-84660438D01*
X118218961Y-84689053D01*
X118223338Y-84702445D01*
X118235591Y-84736952D01*
X118249388Y-84770438D01*
X118264404Y-84802227D01*
X118280313Y-84831642D01*
X118296790Y-84858006D01*
X118301165Y-84864330D01*
X118314842Y-84881678D01*
X118331349Y-84899367D01*
X118349835Y-84916661D01*
X118369448Y-84932828D01*
X118389339Y-84947135D01*
X118408658Y-84958846D01*
X118413897Y-84961585D01*
X118421362Y-84965202D01*
X118429490Y-84968927D01*
X118437488Y-84972424D01*
X118444562Y-84975356D01*
X118449916Y-84977389D01*
X118452759Y-84978186D01*
X118452999Y-84978139D01*
X118452403Y-84976280D01*
X118450484Y-84971489D01*
X118447506Y-84964401D01*
X118443734Y-84955655D01*
X118441818Y-84951277D01*
X118410419Y-84875119D01*
X118382312Y-84796972D01*
X118357573Y-84717067D01*
X118336279Y-84635635D01*
X118333549Y-84624007D01*
X118330397Y-84610342D01*
X118328063Y-84600016D01*
X118326479Y-84592561D01*
X118325576Y-84587511D01*
X118325286Y-84584398D01*
X118325540Y-84582757D01*
X118326269Y-84582120D01*
X118327365Y-84582019D01*
X118328614Y-84583788D01*
X118331129Y-84588862D01*
X118334764Y-84596899D01*
X118339372Y-84607560D01*
X118344807Y-84620506D01*
X118350924Y-84635395D01*
X118357577Y-84651888D01*
X118359906Y-84657730D01*
X118370368Y-84683995D01*
X118379559Y-84706968D01*
X118387626Y-84726998D01*
X118394716Y-84744436D01*
X118400975Y-84759632D01*
X118406548Y-84772936D01*
X118411584Y-84784698D01*
X118416227Y-84795267D01*
X118420624Y-84804994D01*
X118424921Y-84814228D01*
X118428281Y-84821279D01*
X118434542Y-84833952D01*
X118442113Y-84848718D01*
X118450694Y-84865033D01*
X118459982Y-84882353D01*
X118469677Y-84900136D01*
X118479476Y-84917838D01*
X118489080Y-84934915D01*
X118498185Y-84950824D01*
X118506491Y-84965022D01*
X118513696Y-84976965D01*
X118519499Y-84986110D01*
X118520706Y-84987911D01*
X118525003Y-84993098D01*
X118529642Y-84995961D01*
X118535180Y-84996460D01*
X118542175Y-84994559D01*
X118551185Y-84990218D01*
X118559768Y-84985236D01*
X118581272Y-84971404D01*
X118605045Y-84954631D01*
X118630934Y-84935038D01*
X118658250Y-84913177D01*
X118868092Y-84913177D01*
X118869069Y-84914154D01*
X118870046Y-84913177D01*
X118869069Y-84912200D01*
X118868092Y-84913177D01*
X118658250Y-84913177D01*
X118658784Y-84912750D01*
X118661922Y-84910119D01*
X118874433Y-84910119D01*
X118874700Y-84910246D01*
X118876483Y-84908870D01*
X118876884Y-84908292D01*
X118877382Y-84906465D01*
X118877115Y-84906338D01*
X118875332Y-84907714D01*
X118874931Y-84908292D01*
X118874433Y-84910119D01*
X118661922Y-84910119D01*
X118666967Y-84905890D01*
X118879815Y-84905890D01*
X118881043Y-84905750D01*
X118882258Y-84904941D01*
X118884778Y-84903039D01*
X118889655Y-84899384D01*
X118896113Y-84894558D01*
X118901308Y-84890681D01*
X118911616Y-84882901D01*
X118921525Y-84875252D01*
X118930579Y-84868104D01*
X118938322Y-84861826D01*
X118944299Y-84856788D01*
X118948053Y-84853359D01*
X118949135Y-84851914D01*
X118948803Y-84851699D01*
X118948168Y-84851832D01*
X118946870Y-84852581D01*
X118944548Y-84854218D01*
X118940843Y-84857010D01*
X118935396Y-84861227D01*
X118927846Y-84867139D01*
X118917835Y-84875015D01*
X118909326Y-84881716D01*
X118900173Y-84888972D01*
X118892176Y-84895400D01*
X118885805Y-84900613D01*
X118881532Y-84904227D01*
X118879827Y-84905855D01*
X118879815Y-84905890D01*
X118666967Y-84905890D01*
X118688442Y-84887890D01*
X118719752Y-84860580D01*
X118748908Y-84834291D01*
X118756745Y-84827131D01*
X118763608Y-84820877D01*
X118768960Y-84816019D01*
X118772264Y-84813044D01*
X118773014Y-84812386D01*
X118771981Y-84811269D01*
X118769760Y-84810197D01*
X118779625Y-84810197D01*
X118796016Y-84815177D01*
X118820536Y-84822173D01*
X118847932Y-84829188D01*
X118877179Y-84835984D01*
X118907253Y-84842324D01*
X118937131Y-84847971D01*
X118939735Y-84848430D01*
X118941854Y-84848601D01*
X118944161Y-84848174D01*
X118947061Y-84846870D01*
X118950958Y-84844412D01*
X118956257Y-84840523D01*
X118963360Y-84834926D01*
X118972673Y-84827343D01*
X118983588Y-84818334D01*
X118993992Y-84809790D01*
X119003459Y-84802145D01*
X119011560Y-84795737D01*
X119017865Y-84790901D01*
X119021945Y-84787974D01*
X119023314Y-84787231D01*
X119022809Y-84788496D01*
X119019740Y-84791985D01*
X119014479Y-84797342D01*
X119007395Y-84804210D01*
X118998860Y-84812234D01*
X118989245Y-84821057D01*
X118978921Y-84830324D01*
X118972982Y-84835562D01*
X118955756Y-84850654D01*
X118963213Y-84851924D01*
X118969461Y-84852841D01*
X118978748Y-84854014D01*
X118990224Y-84855353D01*
X119003035Y-84856765D01*
X119016329Y-84858159D01*
X119029254Y-84859443D01*
X119040958Y-84860524D01*
X119049800Y-84861253D01*
X119061546Y-84861922D01*
X119076393Y-84862433D01*
X119093534Y-84862786D01*
X119112166Y-84862980D01*
X119131483Y-84863016D01*
X119150680Y-84862892D01*
X119168953Y-84862609D01*
X119185498Y-84862165D01*
X119199509Y-84861560D01*
X119203210Y-84861340D01*
X119215370Y-84860458D01*
X119228528Y-84859333D01*
X119242100Y-84858036D01*
X119255505Y-84856631D01*
X119268158Y-84855189D01*
X119279476Y-84853775D01*
X119288878Y-84852457D01*
X119295780Y-84851304D01*
X119299599Y-84850383D01*
X119300128Y-84850100D01*
X119301398Y-84848168D01*
X119304465Y-84843269D01*
X119309099Y-84835775D01*
X119315071Y-84826061D01*
X119322152Y-84814500D01*
X119330111Y-84801465D01*
X119338719Y-84787331D01*
X119340015Y-84785200D01*
X119355782Y-84759262D01*
X119369726Y-84736308D01*
X119382052Y-84715980D01*
X119392968Y-84697925D01*
X119402682Y-84681786D01*
X119411402Y-84667208D01*
X119419334Y-84653837D01*
X119426687Y-84641316D01*
X119433667Y-84629291D01*
X119440483Y-84617405D01*
X119447341Y-84605305D01*
X119454450Y-84592634D01*
X119462016Y-84579038D01*
X119470247Y-84564160D01*
X119479351Y-84547646D01*
X119489477Y-84529246D01*
X119498700Y-84512701D01*
X119508137Y-84496175D01*
X119517406Y-84480310D01*
X119526129Y-84465743D01*
X119533925Y-84453116D01*
X119540414Y-84443068D01*
X119542399Y-84440144D01*
X119550683Y-84428062D01*
X119560060Y-84414215D01*
X119569504Y-84400124D01*
X119577994Y-84387309D01*
X119579864Y-84384459D01*
X119584390Y-84377503D01*
X119588581Y-84370954D01*
X119592649Y-84364443D01*
X119596806Y-84357603D01*
X119601264Y-84350066D01*
X119606235Y-84341461D01*
X119611930Y-84331422D01*
X119618563Y-84319580D01*
X119626344Y-84305566D01*
X119635485Y-84289012D01*
X119646199Y-84269550D01*
X119651165Y-84260518D01*
X119658066Y-84248106D01*
X119664455Y-84236984D01*
X119670725Y-84226553D01*
X119677270Y-84216212D01*
X119684482Y-84205359D01*
X119692754Y-84193393D01*
X119702480Y-84179715D01*
X119714052Y-84163723D01*
X119718266Y-84157941D01*
X119750118Y-84113999D01*
X119779499Y-84072861D01*
X119806394Y-84034547D01*
X119830791Y-83999076D01*
X119852675Y-83966469D01*
X119872033Y-83936745D01*
X119888852Y-83909925D01*
X119903118Y-83886028D01*
X119904576Y-83883500D01*
X119909813Y-83874537D01*
X119916572Y-83863197D01*
X119924293Y-83850408D01*
X119932415Y-83837099D01*
X119940376Y-83824196D01*
X119941771Y-83821954D01*
X119949718Y-83809005D01*
X119958922Y-83793704D01*
X119968751Y-83777120D01*
X119978575Y-83760320D01*
X119987762Y-83744375D01*
X119991973Y-83736961D01*
X119999173Y-83724221D01*
X120005970Y-83712212D01*
X120012060Y-83701472D01*
X120017139Y-83692536D01*
X120020902Y-83685941D01*
X120023027Y-83682254D01*
X120025492Y-83678681D01*
X120030097Y-83672610D01*
X120036458Y-83664523D01*
X120044190Y-83654905D01*
X120052909Y-83644237D01*
X120061894Y-83633407D01*
X120073443Y-83619535D01*
X120086530Y-83603725D01*
X120100245Y-83587085D01*
X120113676Y-83570721D01*
X120125911Y-83555740D01*
X120130277Y-83550369D01*
X120141727Y-83536300D01*
X120153798Y-83521539D01*
X120166227Y-83506402D01*
X120178750Y-83491206D01*
X120191105Y-83476267D01*
X120203027Y-83461902D01*
X120214252Y-83448427D01*
X120224519Y-83436158D01*
X120233562Y-83425412D01*
X120241119Y-83416505D01*
X120246926Y-83409754D01*
X120250720Y-83405475D01*
X120252084Y-83404080D01*
X120254723Y-83400918D01*
X120255323Y-83399085D01*
X120254798Y-83396483D01*
X120253351Y-83390848D01*
X120251174Y-83382894D01*
X120248462Y-83373332D01*
X120246971Y-83368194D01*
X120238619Y-83339616D01*
X120222465Y-83354382D01*
X120215960Y-83360201D01*
X120210561Y-83364794D01*
X120206873Y-83367661D01*
X120205520Y-83368356D01*
X120206143Y-83366468D01*
X120208392Y-83361820D01*
X120211945Y-83355038D01*
X120216481Y-83346747D01*
X120218374Y-83343370D01*
X120232018Y-83319175D01*
X120220976Y-83289699D01*
X120196948Y-83230748D01*
X120169484Y-83172831D01*
X120139035Y-83116890D01*
X120135870Y-83111487D01*
X120130098Y-83101771D01*
X120124969Y-83093279D01*
X120120824Y-83086563D01*
X120118004Y-83082176D01*
X120116884Y-83080679D01*
X120115703Y-83082164D01*
X120112893Y-83086720D01*
X120108669Y-83093971D01*
X120103244Y-83103539D01*
X120096830Y-83115049D01*
X120089641Y-83128125D01*
X120081891Y-83142391D01*
X120081710Y-83142724D01*
X120071806Y-83161000D01*
X120061393Y-83180103D01*
X120050632Y-83199743D01*
X120039686Y-83219632D01*
X120028717Y-83239479D01*
X120017887Y-83258997D01*
X120007357Y-83277896D01*
X119997291Y-83295886D01*
X119987850Y-83312678D01*
X119979195Y-83327985D01*
X119971490Y-83341515D01*
X119964896Y-83352981D01*
X119959576Y-83362092D01*
X119955690Y-83368561D01*
X119953403Y-83372097D01*
X119952836Y-83372667D01*
X119952740Y-83372315D01*
X119952729Y-83371802D01*
X119952877Y-83370924D01*
X119953258Y-83369478D01*
X119953946Y-83367258D01*
X119955016Y-83364061D01*
X119956543Y-83359684D01*
X119958599Y-83353920D01*
X119961260Y-83346568D01*
X119964600Y-83337422D01*
X119968694Y-83326279D01*
X119973614Y-83312935D01*
X119979436Y-83297185D01*
X119986235Y-83278825D01*
X119994083Y-83257652D01*
X120003056Y-83233461D01*
X120013228Y-83206048D01*
X120024673Y-83175209D01*
X120026689Y-83169779D01*
X120035542Y-83145844D01*
X120043820Y-83123307D01*
X120051433Y-83102418D01*
X120058293Y-83083429D01*
X120064309Y-83066590D01*
X120069394Y-83052154D01*
X120073458Y-83040369D01*
X120076411Y-83031489D01*
X120078165Y-83025764D01*
X120078631Y-83023446D01*
X120077119Y-83020897D01*
X120073814Y-83016064D01*
X120069198Y-83009592D01*
X120063751Y-83002124D01*
X120057952Y-82994307D01*
X120052282Y-82986784D01*
X120047222Y-82980202D01*
X120043251Y-82975205D01*
X120040849Y-82972438D01*
X120040400Y-82972092D01*
X120039428Y-82973805D01*
X120036879Y-82978797D01*
X120032871Y-82986822D01*
X120027523Y-82997639D01*
X120020954Y-83011005D01*
X120013283Y-83026677D01*
X120004628Y-83044411D01*
X119995108Y-83063966D01*
X119984843Y-83085098D01*
X119973950Y-83107564D01*
X119962550Y-83131122D01*
X119959404Y-83137629D01*
X119945831Y-83165692D01*
X119930856Y-83196617D01*
X119914793Y-83229755D01*
X119897956Y-83264459D01*
X119880661Y-83300080D01*
X119863222Y-83335971D01*
X119845954Y-83371483D01*
X119829173Y-83405968D01*
X119813192Y-83438778D01*
X119798327Y-83469265D01*
X119793550Y-83479054D01*
X119780826Y-83505132D01*
X119768077Y-83531278D01*
X119755474Y-83557141D01*
X119743188Y-83582369D01*
X119731391Y-83606612D01*
X119720251Y-83629518D01*
X119709942Y-83650736D01*
X119700632Y-83669915D01*
X119692494Y-83686703D01*
X119685697Y-83700750D01*
X119680413Y-83711705D01*
X119679591Y-83713414D01*
X119673062Y-83726868D01*
X119665041Y-83743186D01*
X119655831Y-83761763D01*
X119645734Y-83781992D01*
X119635056Y-83803268D01*
X119624099Y-83824984D01*
X119613166Y-83846535D01*
X119602562Y-83867314D01*
X119600828Y-83870699D01*
X119590710Y-83890468D01*
X119580520Y-83910438D01*
X119570512Y-83930111D01*
X119560939Y-83948986D01*
X119552052Y-83966563D01*
X119544106Y-83982344D01*
X119537353Y-83995829D01*
X119532045Y-84006517D01*
X119530549Y-84009559D01*
X119510909Y-84049649D01*
X119441970Y-84117998D01*
X119425237Y-84134534D01*
X119406417Y-84153042D01*
X119386250Y-84172799D01*
X119365477Y-84193081D01*
X119344842Y-84213165D01*
X119325083Y-84232327D01*
X119306944Y-84249843D01*
X119300849Y-84255707D01*
X119283039Y-84272824D01*
X119267789Y-84287493D01*
X119254843Y-84299975D01*
X119243943Y-84310530D01*
X119234833Y-84319419D01*
X119227256Y-84326902D01*
X119220953Y-84333238D01*
X119215669Y-84338689D01*
X119211147Y-84343514D01*
X119207128Y-84347973D01*
X119203356Y-84352328D01*
X119199575Y-84356838D01*
X119195527Y-84361763D01*
X119192812Y-84365088D01*
X119189054Y-84369685D01*
X119185430Y-84374086D01*
X119181778Y-84378474D01*
X119177937Y-84383032D01*
X119173745Y-84387941D01*
X119169038Y-84393383D01*
X119163656Y-84399541D01*
X119157436Y-84406596D01*
X119150216Y-84414731D01*
X119141833Y-84424128D01*
X119132127Y-84434969D01*
X119120934Y-84447437D01*
X119108094Y-84461712D01*
X119093442Y-84477979D01*
X119076818Y-84496417D01*
X119058060Y-84517211D01*
X119037005Y-84540541D01*
X119013691Y-84566369D01*
X118988285Y-84594210D01*
X118960424Y-84624183D01*
X118930564Y-84655810D01*
X118899157Y-84688614D01*
X118866660Y-84722117D01*
X118833527Y-84755843D01*
X118825454Y-84763995D01*
X118779625Y-84810197D01*
X118769760Y-84810197D01*
X118767906Y-84809303D01*
X118761483Y-84806791D01*
X118755430Y-84804695D01*
X118708476Y-84787788D01*
X118660500Y-84767798D01*
X118612280Y-84745109D01*
X118564593Y-84720107D01*
X118518216Y-84693176D01*
X118477558Y-84667150D01*
X118423203Y-84628312D01*
X118371085Y-84586315D01*
X118321366Y-84541309D01*
X118274207Y-84493446D01*
X118229772Y-84442878D01*
X118206176Y-84413484D01*
X118199268Y-84404520D01*
X118192676Y-84395841D01*
X118187038Y-84388294D01*
X118182990Y-84382727D01*
X118182200Y-84381597D01*
X118178684Y-84376906D01*
X118176009Y-84374103D01*
X118174999Y-84373719D01*
X118174753Y-84375970D01*
X118154021Y-84375970D01*
X118154457Y-84370007D01*
X118172523Y-84370007D01*
X118173500Y-84370984D01*
X118174477Y-84370007D01*
X118173500Y-84369030D01*
X118172523Y-84370007D01*
X118154457Y-84370007D01*
X118154473Y-84369796D01*
X118154991Y-84364633D01*
X118157033Y-84345582D01*
X118143472Y-84324491D01*
X118118921Y-84284151D01*
X118095194Y-84240928D01*
X118072788Y-84195834D01*
X118052203Y-84149880D01*
X118033938Y-84104078D01*
X118031578Y-84097691D01*
X118010798Y-84035217D01*
X117993670Y-83971538D01*
X117980203Y-83906873D01*
X117970410Y-83841438D01*
X117964301Y-83775449D01*
X117961888Y-83709125D01*
X117963181Y-83642682D01*
X117968191Y-83576337D01*
X117976930Y-83510308D01*
X117989408Y-83444810D01*
X117996756Y-83413519D01*
X118014823Y-83349097D01*
X118036487Y-83286107D01*
X118061664Y-83224668D01*
X118090270Y-83164903D01*
X118122221Y-83106929D01*
X118157433Y-83050869D01*
X118195821Y-82996843D01*
X118237302Y-82944970D01*
X118281792Y-82895371D01*
X118329206Y-82848167D01*
X118379461Y-82803478D01*
X118432472Y-82761424D01*
X118472086Y-82732991D01*
X118526150Y-82698135D01*
X118582419Y-82666353D01*
X118640628Y-82637720D01*
X118700512Y-82612312D01*
X118761807Y-82590204D01*
X118824248Y-82571473D01*
X118887569Y-82556194D01*
X118951507Y-82544443D01*
X119015796Y-82536296D01*
X119080171Y-82531829D01*
X119144369Y-82531116D01*
X119174262Y-82532093D01*
X119242367Y-82536959D01*
X119308479Y-82545109D01*
X119372809Y-82556600D01*
X119435570Y-82571489D01*
X119496971Y-82589833D01*
X119557224Y-82611689D01*
X119616541Y-82637115D01*
X119675132Y-82666167D01*
X119679915Y-82668714D01*
X119732387Y-82698689D01*
X119783849Y-82731815D01*
X119833844Y-82767726D01*
X119881921Y-82806058D01*
X119927624Y-82846446D01*
X119970500Y-82888526D01*
X120010094Y-82931932D01*
X120015433Y-82938193D01*
X120039199Y-82966305D01*
X120074156Y-82896387D01*
X120095706Y-82853598D01*
X120116217Y-82813548D01*
X120136149Y-82775367D01*
X120155966Y-82738185D01*
X120176127Y-82701132D01*
X120197093Y-82663338D01*
X120208083Y-82643784D01*
X120222586Y-82618503D01*
X120235627Y-82596674D01*
X120247300Y-82578162D01*
X120257696Y-82562833D01*
X120266908Y-82550554D01*
X120275030Y-82541190D01*
X120282152Y-82534607D01*
X120284942Y-82532591D01*
X120290355Y-82529270D01*
X120294582Y-82527077D01*
X120296214Y-82526554D01*
X120296034Y-82527961D01*
X120293825Y-82531727D01*
X120290012Y-82537169D01*
X120287818Y-82540071D01*
X120275897Y-82556917D01*
X120264485Y-82576048D01*
X120253199Y-82598131D01*
X120248565Y-82608090D01*
X120243612Y-82619283D01*
X120237402Y-82633779D01*
X120230075Y-82651232D01*
X120221770Y-82671295D01*
X120212625Y-82693620D01*
X120202778Y-82717862D01*
X120192368Y-82743672D01*
X120181535Y-82770705D01*
X120170416Y-82798613D01*
X120159150Y-82827049D01*
X120147876Y-82855667D01*
X120136733Y-82884119D01*
X120125859Y-82912059D01*
X120115393Y-82939139D01*
X120105473Y-82965014D01*
X120097146Y-82986933D01*
X120083019Y-83024305D01*
X120099597Y-83049126D01*
X120105359Y-83057566D01*
X120110379Y-83064562D01*
X120114265Y-83069598D01*
X120116628Y-83072159D01*
X120117139Y-83072323D01*
X120118228Y-83070344D01*
X120121005Y-83065251D01*
X120125297Y-83057362D01*
X120130929Y-83046998D01*
X120137727Y-83034480D01*
X120145518Y-83020127D01*
X120154128Y-83004260D01*
X120163383Y-82987199D01*
X120168430Y-82977892D01*
X120180213Y-82956208D01*
X120193308Y-82932188D01*
X120207235Y-82906711D01*
X120221510Y-82880655D01*
X120235653Y-82854900D01*
X120249181Y-82830323D01*
X120261613Y-82807805D01*
X120268048Y-82796184D01*
X120278850Y-82776681D01*
X120290138Y-82756261D01*
X120301561Y-82735561D01*
X120312768Y-82715221D01*
X120323407Y-82695877D01*
X120333126Y-82678169D01*
X120341575Y-82662734D01*
X120347116Y-82652577D01*
X120365736Y-82618459D01*
X120382883Y-82587260D01*
X120398874Y-82558427D01*
X120414028Y-82531408D01*
X120428662Y-82505647D01*
X120443095Y-82480593D01*
X120457645Y-82455692D01*
X120472631Y-82430391D01*
X120488370Y-82404136D01*
X120505181Y-82376375D01*
X120519024Y-82353676D01*
X120529343Y-82336834D01*
X120537972Y-82322847D01*
X120545233Y-82311221D01*
X120551449Y-82301462D01*
X120556942Y-82293075D01*
X120562035Y-82285566D01*
X120567049Y-82278440D01*
X120572307Y-82271203D01*
X120576374Y-82265715D01*
X120582956Y-82257354D01*
X120590658Y-82248310D01*
X120598884Y-82239207D01*
X120607037Y-82230672D01*
X120614520Y-82223329D01*
X120620736Y-82217804D01*
X120624991Y-82214774D01*
X120632238Y-82212379D01*
X120639305Y-82212439D01*
X120644806Y-82214916D01*
X120645247Y-82215326D01*
X120649581Y-82221579D01*
X120652738Y-82229661D01*
X120653908Y-82237260D01*
X120653252Y-82241423D01*
X120651374Y-82241994D01*
X120648409Y-82239046D01*
X120644492Y-82232651D01*
X120644138Y-82231988D01*
X120641111Y-82226778D01*
X120638240Y-82223447D01*
X120635213Y-82222191D01*
X120631720Y-82223208D01*
X120627449Y-82226695D01*
X120622088Y-82232849D01*
X120615326Y-82241869D01*
X120606852Y-82253952D01*
X120604808Y-82256923D01*
X120599164Y-82265244D01*
X120593896Y-82273272D01*
X120588804Y-82281375D01*
X120583688Y-82289920D01*
X120578349Y-82299275D01*
X120572586Y-82309808D01*
X120566200Y-82321885D01*
X120558992Y-82335875D01*
X120550762Y-82352146D01*
X120541309Y-82371064D01*
X120530435Y-82392998D01*
X120525962Y-82402050D01*
X120517288Y-82419632D01*
X120509165Y-82436142D01*
X120501492Y-82451799D01*
X120494169Y-82466823D01*
X120487096Y-82481432D01*
X120480171Y-82495848D01*
X120473295Y-82510289D01*
X120466368Y-82524974D01*
X120459289Y-82540124D01*
X120451958Y-82555959D01*
X120444274Y-82572696D01*
X120436137Y-82590557D01*
X120427448Y-82609761D01*
X120418104Y-82630527D01*
X120408007Y-82653075D01*
X120397056Y-82677624D01*
X120385150Y-82704394D01*
X120372190Y-82733604D01*
X120358074Y-82765475D01*
X120342703Y-82800226D01*
X120325976Y-82838075D01*
X120307793Y-82879243D01*
X120304460Y-82886792D01*
X120295706Y-82906644D01*
X120287476Y-82925360D01*
X120279897Y-82942648D01*
X120273097Y-82958214D01*
X120267202Y-82971768D01*
X120262339Y-82983018D01*
X120258635Y-82991670D01*
X120256218Y-82997432D01*
X120255213Y-83000013D01*
X120255215Y-83000115D01*
X120256864Y-82997889D01*
X120260581Y-82992593D01*
X120266252Y-82984396D01*
X120273761Y-82973468D01*
X120282992Y-82959977D01*
X120293830Y-82944093D01*
X120306158Y-82925985D01*
X120319860Y-82905823D01*
X120334822Y-82883777D01*
X120346518Y-82866523D01*
X120355079Y-82853952D01*
X120365636Y-82838556D01*
X120377932Y-82820704D01*
X120391710Y-82800763D01*
X120406714Y-82779103D01*
X120422687Y-82756092D01*
X120439372Y-82732098D01*
X120456513Y-82707490D01*
X120473853Y-82682636D01*
X120491135Y-82657904D01*
X120508103Y-82633662D01*
X120524499Y-82610280D01*
X120540068Y-82588126D01*
X120554553Y-82567567D01*
X120567697Y-82548973D01*
X120571816Y-82543161D01*
X120597995Y-82506637D01*
X120625755Y-82468610D01*
X120654739Y-82429540D01*
X120684588Y-82389891D01*
X120714943Y-82350125D01*
X120745446Y-82310703D01*
X120775738Y-82272089D01*
X120805461Y-82234745D01*
X120834256Y-82199132D01*
X120861765Y-82165714D01*
X120887629Y-82134952D01*
X120896106Y-82125038D01*
X120925763Y-82090805D01*
X120953469Y-82059447D01*
X120979536Y-82030657D01*
X121004278Y-82004126D01*
X121028010Y-81979546D01*
X121051043Y-81956608D01*
X121073692Y-81935003D01*
X121096270Y-81914425D01*
X121119091Y-81894563D01*
X121142468Y-81875110D01*
X121166714Y-81855758D01*
X121181446Y-81844345D01*
X121211204Y-81822710D01*
X121241286Y-81803124D01*
X121271296Y-81785783D01*
X121300837Y-81770886D01*
X121329511Y-81758630D01*
X121356922Y-81749211D01*
X121382672Y-81742828D01*
X121387551Y-81741940D01*
X121400648Y-81740324D01*
X121415812Y-81739456D01*
X121432032Y-81739304D01*
X121448294Y-81739839D01*
X121448294Y-81739839D01*
G37*
X121448294Y-81739839D02*
X121463586Y-81741030D01*
X121476896Y-81742846D01*
X121485995Y-81744888D01*
X121496665Y-81748282D01*
X121504784Y-81751485D01*
X121509921Y-81754301D01*
X121511646Y-81756473D01*
X121509859Y-81756786D01*
X121505015Y-81756418D01*
X121497888Y-81755452D01*
X121490642Y-81754227D01*
X121473277Y-81751820D01*
X121454725Y-81750576D01*
X121436232Y-81750503D01*
X121419042Y-81751607D01*
X121405161Y-81753730D01*
X121378134Y-81761234D01*
X121349928Y-81772435D01*
X121320569Y-81787316D01*
X121290082Y-81805856D01*
X121258492Y-81828035D01*
X121225825Y-81853834D01*
X121192106Y-81883234D01*
X121157361Y-81916215D01*
X121121614Y-81952758D01*
X121084891Y-81992842D01*
X121064038Y-82016681D01*
X121052397Y-82030329D01*
X121039515Y-82045665D01*
X121025839Y-82062134D01*
X121011819Y-82079186D01*
X120997904Y-82096267D01*
X120984543Y-82112825D01*
X120972185Y-82128309D01*
X120961280Y-82142164D01*
X120952276Y-82153840D01*
X120949126Y-82158020D01*
X120934537Y-82177835D01*
X120918247Y-82200459D01*
X120900611Y-82225374D01*
X120881982Y-82252062D01*
X120862711Y-82280008D01*
X120843154Y-82308694D01*
X120823663Y-82337603D01*
X120804590Y-82366218D01*
X120786290Y-82394023D01*
X120769116Y-82420501D01*
X120759524Y-82435495D01*
X120730513Y-82481177D01*
X120703476Y-82523883D01*
X120678240Y-82563903D01*
X120654627Y-82601523D01*
X120632464Y-82637031D01*
X120611575Y-82670716D01*
X120591784Y-82702865D01*
X120572916Y-82733765D01*
X120554795Y-82763705D01*
X120537247Y-82792973D01*
X120520096Y-82821855D01*
X120503167Y-82850640D01*
X120486284Y-82879616D01*
X120469271Y-82909071D01*
X120451955Y-82939292D01*
X120443317Y-82954446D01*
X120434019Y-82970733D01*
X120423218Y-82989568D01*
X120411387Y-83010128D01*
X120399002Y-83031590D01*
X120386537Y-83053132D01*
X120374468Y-83073931D01*
X120363268Y-83093166D01*
X120362125Y-83095123D01*
X120350697Y-83114780D01*
X120338064Y-83136650D01*
X120324760Y-83159800D01*
X120311319Y-83183298D01*
X120298273Y-83206211D01*
X120286158Y-83227606D01*
X120275685Y-83246229D01*
X120265715Y-83264056D01*
X120257501Y-83278803D01*
X120250884Y-83290798D01*
X120245705Y-83300365D01*
X120241805Y-83307831D01*
X120239024Y-83313524D01*
X120237203Y-83317768D01*
X120236184Y-83320891D01*
X120235806Y-83323218D01*
X120235910Y-83325076D01*
X120236337Y-83326791D01*
X120236348Y-83326825D01*
X120238088Y-83331225D01*
X120239726Y-83333432D01*
X120239954Y-83333492D01*
X120241811Y-83332222D01*
X120246041Y-83328689D01*
X120252172Y-83323306D01*
X120259732Y-83316490D01*
X120268248Y-83308655D01*
X120268446Y-83308471D01*
X120304507Y-83275305D01*
X120338148Y-83245073D01*
X120369452Y-83217711D01*
X120398505Y-83193152D01*
X120425391Y-83171332D01*
X120450194Y-83152187D01*
X120473000Y-83135651D01*
X120493893Y-83121660D01*
X120512957Y-83110149D01*
X120530278Y-83101053D01*
X120545940Y-83094307D01*
X120549689Y-83092951D01*
X120563810Y-83088892D01*
X120575275Y-83087485D01*
X120584316Y-83088751D01*
X120591165Y-83092708D01*
X120594508Y-83096668D01*
X120596534Y-83100033D01*
X120595919Y-83100927D01*
X120592353Y-83100180D01*
X120583853Y-83098288D01*
X120577439Y-83097658D01*
X120571510Y-83098264D01*
X120565455Y-83099793D01*
X120555819Y-83103801D01*
X120543967Y-83110869D01*
X120529891Y-83121006D01*
X120513584Y-83134219D01*
X120495038Y-83150516D01*
X120474244Y-83169905D01*
X120451195Y-83192393D01*
X120425882Y-83217988D01*
X120398298Y-83246698D01*
X120368435Y-83278531D01*
X120336283Y-83313495D01*
X120301837Y-83351597D01*
X120274007Y-83382782D01*
X120258868Y-83399833D01*
X120263895Y-83420882D01*
X120275985Y-83477685D01*
X120285713Y-83536775D01*
X120291842Y-83586515D01*
X120292857Y-83597242D01*
X120293671Y-83608383D01*
X120294300Y-83620500D01*
X120294764Y-83634156D01*
X120295081Y-83649913D01*
X120295269Y-83668334D01*
X120295346Y-83689982D01*
X120295350Y-83694954D01*
X120295306Y-83718236D01*
X120295130Y-83738330D01*
X120294780Y-83755953D01*
X120294217Y-83771824D01*
X120293398Y-83786660D01*
X120292284Y-83801180D01*
X120290833Y-83816101D01*
X120289005Y-83832141D01*
X120286758Y-83850020D01*
X120286370Y-83852998D01*
X120275768Y-83919146D01*
X120261394Y-83984373D01*
X120243308Y-84048541D01*
X120221569Y-84111510D01*
X120196234Y-84173140D01*
X120167362Y-84233293D01*
X120135011Y-84291827D01*
X120099240Y-84348604D01*
X120060107Y-84403484D01*
X120051319Y-84414946D01*
X120033040Y-84437612D01*
X120012443Y-84461623D01*
X119990220Y-84486250D01*
X119967065Y-84510767D01*
X119943672Y-84534445D01*
X119920732Y-84556556D01*
X119898941Y-84576372D01*
X119891222Y-84583050D01*
X119837429Y-84626422D01*
X119782144Y-84666185D01*
X119725339Y-84702352D01*
X119666984Y-84734935D01*
X119607051Y-84763950D01*
X119545513Y-84789408D01*
X119482340Y-84811323D01*
X119417505Y-84829709D01*
X119350979Y-84844579D01*
X119328410Y-84848759D01*
X119318632Y-84850507D01*
X119310349Y-84852043D01*
X119304262Y-84853231D01*
X119301074Y-84853938D01*
X119300772Y-84854049D01*
X119299596Y-84855763D01*
X119296615Y-84860213D01*
X119292178Y-84866874D01*
X119286634Y-84875224D01*
X119280729Y-84884139D01*
X119266364Y-84905625D01*
X119251160Y-84927966D01*
X119235538Y-84950563D01*
X119219920Y-84972822D01*
X119204727Y-84994146D01*
X119190381Y-85013938D01*
X119177302Y-85031601D01*
X119166304Y-85046038D01*
X119142537Y-85075680D01*
X119118126Y-85104272D01*
X119093515Y-85131348D01*
X119069145Y-85156441D01*
X119045460Y-85179085D01*
X119022901Y-85198812D01*
X119016584Y-85203960D01*
X118996721Y-85218889D01*
X118975364Y-85233202D01*
X118953337Y-85246429D01*
X118931467Y-85258099D01*
X118910580Y-85267743D01*
X118892719Y-85274494D01*
X118866107Y-85281663D01*
X118837989Y-85286356D01*
X118809555Y-85288457D01*
X118781997Y-85287847D01*
X118769423Y-85286557D01*
X118737522Y-85280483D01*
X118707076Y-85270838D01*
X118677973Y-85257571D01*
X118650104Y-85240631D01*
X118623356Y-85219968D01*
X118622682Y-85219388D01*
X118607057Y-85205885D01*
X118579801Y-85204515D01*
X118543189Y-85201796D01*
X118508902Y-85197471D01*
X118477329Y-85191604D01*
X118472871Y-85190454D01*
X118742773Y-85190454D01*
X118745556Y-85191303D01*
X118751180Y-85192456D01*
X118758611Y-85193710D01*
X118761607Y-85194158D01*
X118783741Y-85195625D01*
X118806127Y-85193879D01*
X118825108Y-85189700D01*
X118850568Y-85180222D01*
X118876170Y-85166856D01*
X118901890Y-85149619D01*
X118927705Y-85128525D01*
X118953590Y-85103592D01*
X118957819Y-85099160D01*
X118968415Y-85087929D01*
X118944100Y-85104107D01*
X118910059Y-85125336D01*
X118876404Y-85143329D01*
X118842167Y-85158517D01*
X118806380Y-85171332D01*
X118769712Y-85181789D01*
X118759899Y-85184395D01*
X118751775Y-85186765D01*
X118745930Y-85188710D01*
X118742954Y-85190040D01*
X118742773Y-85190454D01*
X118472871Y-85190454D01*
X118448856Y-85184260D01*
X118437721Y-85180684D01*
X118421718Y-85174597D01*
X118403938Y-85166823D01*
X118385677Y-85157997D01*
X118368227Y-85148751D01*
X118352884Y-85139721D01*
X118349073Y-85137272D01*
X118335730Y-85129261D01*
X118323774Y-85123814D01*
X118316835Y-85121568D01*
X118294128Y-85114270D01*
X118274384Y-85105547D01*
X118256786Y-85094965D01*
X118247189Y-85087369D01*
X118596634Y-85087369D01*
X118597289Y-85089080D01*
X118600029Y-85092391D01*
X118603936Y-85096400D01*
X118608093Y-85100207D01*
X118611581Y-85102912D01*
X118613256Y-85103677D01*
X118616104Y-85103359D01*
X118621784Y-85102511D01*
X118629284Y-85101287D01*
X118632886Y-85100672D01*
X118680169Y-85090772D01*
X118724973Y-85077992D01*
X118735035Y-85074674D01*
X118743646Y-85071719D01*
X118750182Y-85069351D01*
X118754018Y-85067791D01*
X118754769Y-85067319D01*
X118753241Y-85066942D01*
X118751350Y-85067361D01*
X118744063Y-85069177D01*
X118733603Y-85071146D01*
X118720697Y-85073183D01*
X118706071Y-85075202D01*
X118690453Y-85077118D01*
X118674569Y-85078846D01*
X118659146Y-85080300D01*
X118644913Y-85081393D01*
X118632594Y-85082041D01*
X118625434Y-85082184D01*
X118613611Y-85082533D01*
X118605058Y-85083649D01*
X118599194Y-85085637D01*
X118596634Y-85087369D01*
X118247189Y-85087369D01*
X118240517Y-85082089D01*
X118237603Y-85079435D01*
X118222952Y-85064652D01*
X118211009Y-85049791D01*
X118200772Y-85033543D01*
X118196716Y-85025944D01*
X118186344Y-85002656D01*
X118178165Y-84977564D01*
X118172025Y-84950101D01*
X118167791Y-84919907D01*
X118166337Y-84907917D01*
X118164579Y-84897955D01*
X118162143Y-84888442D01*
X118158654Y-84877803D01*
X118156212Y-84871061D01*
X118141679Y-84827561D01*
X118139672Y-84820139D01*
X118210000Y-84820139D01*
X118210931Y-84836373D01*
X118211627Y-84845517D01*
X118212598Y-84854570D01*
X118213647Y-84861730D01*
X118213768Y-84862368D01*
X118215524Y-84867928D01*
X118218974Y-84876078D01*
X118223740Y-84886092D01*
X118229446Y-84897245D01*
X118235714Y-84908811D01*
X118242169Y-84920067D01*
X118248435Y-84930285D01*
X118251304Y-84934669D01*
X118269103Y-84959280D01*
X118288668Y-84982984D01*
X118309263Y-85004974D01*
X118330154Y-85024446D01*
X118342508Y-85034572D01*
X118350392Y-85040634D01*
X118356035Y-85044693D01*
X118360279Y-85047146D01*
X118363967Y-85048391D01*
X118367942Y-85048823D01*
X118372792Y-85048842D01*
X118381318Y-85048405D01*
X118391135Y-85047393D01*
X118397810Y-85046407D01*
X118411104Y-85044084D01*
X118391620Y-85033476D01*
X118360412Y-85014389D01*
X118331423Y-84992288D01*
X118304579Y-84967092D01*
X118279803Y-84938718D01*
X118257020Y-84907084D01*
X118236155Y-84872108D01*
X118226239Y-84852981D01*
X118210000Y-84820139D01*
X118139672Y-84820139D01*
X118129000Y-84780678D01*
X118118184Y-84730478D01*
X118109244Y-84677024D01*
X118102191Y-84620383D01*
X118097034Y-84560616D01*
X118094276Y-84510450D01*
X118093732Y-84495154D01*
X118093341Y-84479416D01*
X118093116Y-84464214D01*
X118093069Y-84450527D01*
X118093213Y-84439334D01*
X118093339Y-84435461D01*
X118094097Y-84418332D01*
X118094928Y-84401472D01*
X118095800Y-84385350D01*
X118096683Y-84370433D01*
X118097548Y-84357189D01*
X118098363Y-84346085D01*
X118099100Y-84337589D01*
X118099728Y-84332169D01*
X118100118Y-84330385D01*
X118100599Y-84331553D01*
X118101276Y-84336136D01*
X118102099Y-84343652D01*
X118103020Y-84353614D01*
X118103990Y-84365539D01*
X118104845Y-84377277D01*
X118107882Y-84418381D01*
X118111087Y-84456058D01*
X118114527Y-84490788D01*
X118118268Y-84523049D01*
X118122376Y-84553321D01*
X118126918Y-84582084D01*
X118131958Y-84609816D01*
X118137565Y-84636998D01*
X118143803Y-84664108D01*
X118145265Y-84670100D01*
X118148294Y-84682005D01*
X118151878Y-84695445D01*
X118155791Y-84709638D01*
X118159809Y-84723803D01*
X118163708Y-84737157D01*
X118167263Y-84748919D01*
X118170250Y-84758306D01*
X118172086Y-84763595D01*
X118173864Y-84768367D01*
X118174993Y-84763595D01*
X118177931Y-84749413D01*
X118179320Y-84737496D01*
X118179204Y-84726536D01*
X118177623Y-84715228D01*
X118176686Y-84710742D01*
X118171856Y-84687477D01*
X118167626Y-84663451D01*
X118163929Y-84638112D01*
X118160696Y-84610908D01*
X118157861Y-84581286D01*
X118155354Y-84548693D01*
X118153792Y-84524361D01*
X118152452Y-84496628D01*
X118151702Y-84468642D01*
X118151535Y-84441184D01*
X118151945Y-84415035D01*
X118152926Y-84390979D01*
X118154021Y-84375970D01*
X118174753Y-84375970D01*
X118174778Y-84381583D01*
X118175044Y-84390025D01*
X118175520Y-84400762D01*
X118176177Y-84413261D01*
X118176983Y-84426988D01*
X118177909Y-84441408D01*
X118178923Y-84455990D01*
X118179996Y-84470199D01*
X118181097Y-84483500D01*
X118181518Y-84488215D01*
X118182814Y-84500970D01*
X118184489Y-84515237D01*
X118186464Y-84530510D01*
X118188657Y-84546286D01*
X118190989Y-84562059D01*
X118193378Y-84577325D01*
X118195744Y-84591578D01*
X118198007Y-84604314D01*
X118200085Y-84615028D01*
X118201899Y-84623215D01*
X118203368Y-84628370D01*
X118204125Y-84629884D01*
X118204964Y-84628465D01*
X118206633Y-84623988D01*
X118208887Y-84617154D01*
X118211445Y-84608799D01*
X118216624Y-84591904D01*
X118221935Y-84575667D01*
X118227223Y-84560465D01*
X118232337Y-84546680D01*
X118237125Y-84534691D01*
X118241433Y-84524877D01*
X118245109Y-84517619D01*
X118248001Y-84513297D01*
X118249956Y-84512289D01*
X118250143Y-84512430D01*
X118249985Y-84514481D01*
X118249139Y-84519894D01*
X118247691Y-84528197D01*
X118245725Y-84538922D01*
X118243327Y-84551599D01*
X118240581Y-84565758D01*
X118239244Y-84572546D01*
X118236038Y-84588981D01*
X118232858Y-84605723D01*
X118229854Y-84621964D01*
X118227172Y-84636892D01*
X118224959Y-84649700D01*
X118223363Y-84659576D01*
X118223233Y-84660438D01*
X118218961Y-84689053D01*
X118223338Y-84702445D01*
X118235591Y-84736952D01*
X118249388Y-84770438D01*
X118264404Y-84802227D01*
X118280313Y-84831642D01*
X118296790Y-84858006D01*
X118301165Y-84864330D01*
X118314842Y-84881678D01*
X118331349Y-84899367D01*
X118349835Y-84916661D01*
X118369448Y-84932828D01*
X118389339Y-84947135D01*
X118408658Y-84958846D01*
X118413897Y-84961585D01*
X118421362Y-84965202D01*
X118429490Y-84968927D01*
X118437488Y-84972424D01*
X118444562Y-84975356D01*
X118449916Y-84977389D01*
X118452759Y-84978186D01*
X118452999Y-84978139D01*
X118452403Y-84976280D01*
X118450484Y-84971489D01*
X118447506Y-84964401D01*
X118443734Y-84955655D01*
X118441818Y-84951277D01*
X118410419Y-84875119D01*
X118382312Y-84796972D01*
X118357573Y-84717067D01*
X118336279Y-84635635D01*
X118333549Y-84624007D01*
X118330397Y-84610342D01*
X118328063Y-84600016D01*
X118326479Y-84592561D01*
X118325576Y-84587511D01*
X118325286Y-84584398D01*
X118325540Y-84582757D01*
X118326269Y-84582120D01*
X118327365Y-84582019D01*
X118328614Y-84583788D01*
X118331129Y-84588862D01*
X118334764Y-84596899D01*
X118339372Y-84607560D01*
X118344807Y-84620506D01*
X118350924Y-84635395D01*
X118357577Y-84651888D01*
X118359906Y-84657730D01*
X118370368Y-84683995D01*
X118379559Y-84706968D01*
X118387626Y-84726998D01*
X118394716Y-84744436D01*
X118400975Y-84759632D01*
X118406548Y-84772936D01*
X118411584Y-84784698D01*
X118416227Y-84795267D01*
X118420624Y-84804994D01*
X118424921Y-84814228D01*
X118428281Y-84821279D01*
X118434542Y-84833952D01*
X118442113Y-84848718D01*
X118450694Y-84865033D01*
X118459982Y-84882353D01*
X118469677Y-84900136D01*
X118479476Y-84917838D01*
X118489080Y-84934915D01*
X118498185Y-84950824D01*
X118506491Y-84965022D01*
X118513696Y-84976965D01*
X118519499Y-84986110D01*
X118520706Y-84987911D01*
X118525003Y-84993098D01*
X118529642Y-84995961D01*
X118535180Y-84996460D01*
X118542175Y-84994559D01*
X118551185Y-84990218D01*
X118559768Y-84985236D01*
X118581272Y-84971404D01*
X118605045Y-84954631D01*
X118630934Y-84935038D01*
X118658250Y-84913177D01*
X118868092Y-84913177D01*
X118869069Y-84914154D01*
X118870046Y-84913177D01*
X118869069Y-84912200D01*
X118868092Y-84913177D01*
X118658250Y-84913177D01*
X118658784Y-84912750D01*
X118661922Y-84910119D01*
X118874433Y-84910119D01*
X118874700Y-84910246D01*
X118876483Y-84908870D01*
X118876884Y-84908292D01*
X118877382Y-84906465D01*
X118877115Y-84906338D01*
X118875332Y-84907714D01*
X118874931Y-84908292D01*
X118874433Y-84910119D01*
X118661922Y-84910119D01*
X118666967Y-84905890D01*
X118879815Y-84905890D01*
X118881043Y-84905750D01*
X118882258Y-84904941D01*
X118884778Y-84903039D01*
X118889655Y-84899384D01*
X118896113Y-84894558D01*
X118901308Y-84890681D01*
X118911616Y-84882901D01*
X118921525Y-84875252D01*
X118930579Y-84868104D01*
X118938322Y-84861826D01*
X118944299Y-84856788D01*
X118948053Y-84853359D01*
X118949135Y-84851914D01*
X118948803Y-84851699D01*
X118948168Y-84851832D01*
X118946870Y-84852581D01*
X118944548Y-84854218D01*
X118940843Y-84857010D01*
X118935396Y-84861227D01*
X118927846Y-84867139D01*
X118917835Y-84875015D01*
X118909326Y-84881716D01*
X118900173Y-84888972D01*
X118892176Y-84895400D01*
X118885805Y-84900613D01*
X118881532Y-84904227D01*
X118879827Y-84905855D01*
X118879815Y-84905890D01*
X118666967Y-84905890D01*
X118688442Y-84887890D01*
X118719752Y-84860580D01*
X118748908Y-84834291D01*
X118756745Y-84827131D01*
X118763608Y-84820877D01*
X118768960Y-84816019D01*
X118772264Y-84813044D01*
X118773014Y-84812386D01*
X118771981Y-84811269D01*
X118769760Y-84810197D01*
X118779625Y-84810197D01*
X118796016Y-84815177D01*
X118820536Y-84822173D01*
X118847932Y-84829188D01*
X118877179Y-84835984D01*
X118907253Y-84842324D01*
X118937131Y-84847971D01*
X118939735Y-84848430D01*
X118941854Y-84848601D01*
X118944161Y-84848174D01*
X118947061Y-84846870D01*
X118950958Y-84844412D01*
X118956257Y-84840523D01*
X118963360Y-84834926D01*
X118972673Y-84827343D01*
X118983588Y-84818334D01*
X118993992Y-84809790D01*
X119003459Y-84802145D01*
X119011560Y-84795737D01*
X119017865Y-84790901D01*
X119021945Y-84787974D01*
X119023314Y-84787231D01*
X119022809Y-84788496D01*
X119019740Y-84791985D01*
X119014479Y-84797342D01*
X119007395Y-84804210D01*
X118998860Y-84812234D01*
X118989245Y-84821057D01*
X118978921Y-84830324D01*
X118972982Y-84835562D01*
X118955756Y-84850654D01*
X118963213Y-84851924D01*
X118969461Y-84852841D01*
X118978748Y-84854014D01*
X118990224Y-84855353D01*
X119003035Y-84856765D01*
X119016329Y-84858159D01*
X119029254Y-84859443D01*
X119040958Y-84860524D01*
X119049800Y-84861253D01*
X119061546Y-84861922D01*
X119076393Y-84862433D01*
X119093534Y-84862786D01*
X119112166Y-84862980D01*
X119131483Y-84863016D01*
X119150680Y-84862892D01*
X119168953Y-84862609D01*
X119185498Y-84862165D01*
X119199509Y-84861560D01*
X119203210Y-84861340D01*
X119215370Y-84860458D01*
X119228528Y-84859333D01*
X119242100Y-84858036D01*
X119255505Y-84856631D01*
X119268158Y-84855189D01*
X119279476Y-84853775D01*
X119288878Y-84852457D01*
X119295780Y-84851304D01*
X119299599Y-84850383D01*
X119300128Y-84850100D01*
X119301398Y-84848168D01*
X119304465Y-84843269D01*
X119309099Y-84835775D01*
X119315071Y-84826061D01*
X119322152Y-84814500D01*
X119330111Y-84801465D01*
X119338719Y-84787331D01*
X119340015Y-84785200D01*
X119355782Y-84759262D01*
X119369726Y-84736308D01*
X119382052Y-84715980D01*
X119392968Y-84697925D01*
X119402682Y-84681786D01*
X119411402Y-84667208D01*
X119419334Y-84653837D01*
X119426687Y-84641316D01*
X119433667Y-84629291D01*
X119440483Y-84617405D01*
X119447341Y-84605305D01*
X119454450Y-84592634D01*
X119462016Y-84579038D01*
X119470247Y-84564160D01*
X119479351Y-84547646D01*
X119489477Y-84529246D01*
X119498700Y-84512701D01*
X119508137Y-84496175D01*
X119517406Y-84480310D01*
X119526129Y-84465743D01*
X119533925Y-84453116D01*
X119540414Y-84443068D01*
X119542399Y-84440144D01*
X119550683Y-84428062D01*
X119560060Y-84414215D01*
X119569504Y-84400124D01*
X119577994Y-84387309D01*
X119579864Y-84384459D01*
X119584390Y-84377503D01*
X119588581Y-84370954D01*
X119592649Y-84364443D01*
X119596806Y-84357603D01*
X119601264Y-84350066D01*
X119606235Y-84341461D01*
X119611930Y-84331422D01*
X119618563Y-84319580D01*
X119626344Y-84305566D01*
X119635485Y-84289012D01*
X119646199Y-84269550D01*
X119651165Y-84260518D01*
X119658066Y-84248106D01*
X119664455Y-84236984D01*
X119670725Y-84226553D01*
X119677270Y-84216212D01*
X119684482Y-84205359D01*
X119692754Y-84193393D01*
X119702480Y-84179715D01*
X119714052Y-84163723D01*
X119718266Y-84157941D01*
X119750118Y-84113999D01*
X119779499Y-84072861D01*
X119806394Y-84034547D01*
X119830791Y-83999076D01*
X119852675Y-83966469D01*
X119872033Y-83936745D01*
X119888852Y-83909925D01*
X119903118Y-83886028D01*
X119904576Y-83883500D01*
X119909813Y-83874537D01*
X119916572Y-83863197D01*
X119924293Y-83850408D01*
X119932415Y-83837099D01*
X119940376Y-83824196D01*
X119941771Y-83821954D01*
X119949718Y-83809005D01*
X119958922Y-83793704D01*
X119968751Y-83777120D01*
X119978575Y-83760320D01*
X119987762Y-83744375D01*
X119991973Y-83736961D01*
X119999173Y-83724221D01*
X120005970Y-83712212D01*
X120012060Y-83701472D01*
X120017139Y-83692536D01*
X120020902Y-83685941D01*
X120023027Y-83682254D01*
X120025492Y-83678681D01*
X120030097Y-83672610D01*
X120036458Y-83664523D01*
X120044190Y-83654905D01*
X120052909Y-83644237D01*
X120061894Y-83633407D01*
X120073443Y-83619535D01*
X120086530Y-83603725D01*
X120100245Y-83587085D01*
X120113676Y-83570721D01*
X120125911Y-83555740D01*
X120130277Y-83550369D01*
X120141727Y-83536300D01*
X120153798Y-83521539D01*
X120166227Y-83506402D01*
X120178750Y-83491206D01*
X120191105Y-83476267D01*
X120203027Y-83461902D01*
X120214252Y-83448427D01*
X120224519Y-83436158D01*
X120233562Y-83425412D01*
X120241119Y-83416505D01*
X120246926Y-83409754D01*
X120250720Y-83405475D01*
X120252084Y-83404080D01*
X120254723Y-83400918D01*
X120255323Y-83399085D01*
X120254798Y-83396483D01*
X120253351Y-83390848D01*
X120251174Y-83382894D01*
X120248462Y-83373332D01*
X120246971Y-83368194D01*
X120238619Y-83339616D01*
X120222465Y-83354382D01*
X120215960Y-83360201D01*
X120210561Y-83364794D01*
X120206873Y-83367661D01*
X120205520Y-83368356D01*
X120206143Y-83366468D01*
X120208392Y-83361820D01*
X120211945Y-83355038D01*
X120216481Y-83346747D01*
X120218374Y-83343370D01*
X120232018Y-83319175D01*
X120220976Y-83289699D01*
X120196948Y-83230748D01*
X120169484Y-83172831D01*
X120139035Y-83116890D01*
X120135870Y-83111487D01*
X120130098Y-83101771D01*
X120124969Y-83093279D01*
X120120824Y-83086563D01*
X120118004Y-83082176D01*
X120116884Y-83080679D01*
X120115703Y-83082164D01*
X120112893Y-83086720D01*
X120108669Y-83093971D01*
X120103244Y-83103539D01*
X120096830Y-83115049D01*
X120089641Y-83128125D01*
X120081891Y-83142391D01*
X120081710Y-83142724D01*
X120071806Y-83161000D01*
X120061393Y-83180103D01*
X120050632Y-83199743D01*
X120039686Y-83219632D01*
X120028717Y-83239479D01*
X120017887Y-83258997D01*
X120007357Y-83277896D01*
X119997291Y-83295886D01*
X119987850Y-83312678D01*
X119979195Y-83327985D01*
X119971490Y-83341515D01*
X119964896Y-83352981D01*
X119959576Y-83362092D01*
X119955690Y-83368561D01*
X119953403Y-83372097D01*
X119952836Y-83372667D01*
X119952740Y-83372315D01*
X119952729Y-83371802D01*
X119952877Y-83370924D01*
X119953258Y-83369478D01*
X119953946Y-83367258D01*
X119955016Y-83364061D01*
X119956543Y-83359684D01*
X119958599Y-83353920D01*
X119961260Y-83346568D01*
X119964600Y-83337422D01*
X119968694Y-83326279D01*
X119973614Y-83312935D01*
X119979436Y-83297185D01*
X119986235Y-83278825D01*
X119994083Y-83257652D01*
X120003056Y-83233461D01*
X120013228Y-83206048D01*
X120024673Y-83175209D01*
X120026689Y-83169779D01*
X120035542Y-83145844D01*
X120043820Y-83123307D01*
X120051433Y-83102418D01*
X120058293Y-83083429D01*
X120064309Y-83066590D01*
X120069394Y-83052154D01*
X120073458Y-83040369D01*
X120076411Y-83031489D01*
X120078165Y-83025764D01*
X120078631Y-83023446D01*
X120077119Y-83020897D01*
X120073814Y-83016064D01*
X120069198Y-83009592D01*
X120063751Y-83002124D01*
X120057952Y-82994307D01*
X120052282Y-82986784D01*
X120047222Y-82980202D01*
X120043251Y-82975205D01*
X120040849Y-82972438D01*
X120040400Y-82972092D01*
X120039428Y-82973805D01*
X120036879Y-82978797D01*
X120032871Y-82986822D01*
X120027523Y-82997639D01*
X120020954Y-83011005D01*
X120013283Y-83026677D01*
X120004628Y-83044411D01*
X119995108Y-83063966D01*
X119984843Y-83085098D01*
X119973950Y-83107564D01*
X119962550Y-83131122D01*
X119959404Y-83137629D01*
X119945831Y-83165692D01*
X119930856Y-83196617D01*
X119914793Y-83229755D01*
X119897956Y-83264459D01*
X119880661Y-83300080D01*
X119863222Y-83335971D01*
X119845954Y-83371483D01*
X119829173Y-83405968D01*
X119813192Y-83438778D01*
X119798327Y-83469265D01*
X119793550Y-83479054D01*
X119780826Y-83505132D01*
X119768077Y-83531278D01*
X119755474Y-83557141D01*
X119743188Y-83582369D01*
X119731391Y-83606612D01*
X119720251Y-83629518D01*
X119709942Y-83650736D01*
X119700632Y-83669915D01*
X119692494Y-83686703D01*
X119685697Y-83700750D01*
X119680413Y-83711705D01*
X119679591Y-83713414D01*
X119673062Y-83726868D01*
X119665041Y-83743186D01*
X119655831Y-83761763D01*
X119645734Y-83781992D01*
X119635056Y-83803268D01*
X119624099Y-83824984D01*
X119613166Y-83846535D01*
X119602562Y-83867314D01*
X119600828Y-83870699D01*
X119590710Y-83890468D01*
X119580520Y-83910438D01*
X119570512Y-83930111D01*
X119560939Y-83948986D01*
X119552052Y-83966563D01*
X119544106Y-83982344D01*
X119537353Y-83995829D01*
X119532045Y-84006517D01*
X119530549Y-84009559D01*
X119510909Y-84049649D01*
X119441970Y-84117998D01*
X119425237Y-84134534D01*
X119406417Y-84153042D01*
X119386250Y-84172799D01*
X119365477Y-84193081D01*
X119344842Y-84213165D01*
X119325083Y-84232327D01*
X119306944Y-84249843D01*
X119300849Y-84255707D01*
X119283039Y-84272824D01*
X119267789Y-84287493D01*
X119254843Y-84299975D01*
X119243943Y-84310530D01*
X119234833Y-84319419D01*
X119227256Y-84326902D01*
X119220953Y-84333238D01*
X119215669Y-84338689D01*
X119211147Y-84343514D01*
X119207128Y-84347973D01*
X119203356Y-84352328D01*
X119199575Y-84356838D01*
X119195527Y-84361763D01*
X119192812Y-84365088D01*
X119189054Y-84369685D01*
X119185430Y-84374086D01*
X119181778Y-84378474D01*
X119177937Y-84383032D01*
X119173745Y-84387941D01*
X119169038Y-84393383D01*
X119163656Y-84399541D01*
X119157436Y-84406596D01*
X119150216Y-84414731D01*
X119141833Y-84424128D01*
X119132127Y-84434969D01*
X119120934Y-84447437D01*
X119108094Y-84461712D01*
X119093442Y-84477979D01*
X119076818Y-84496417D01*
X119058060Y-84517211D01*
X119037005Y-84540541D01*
X119013691Y-84566369D01*
X118988285Y-84594210D01*
X118960424Y-84624183D01*
X118930564Y-84655810D01*
X118899157Y-84688614D01*
X118866660Y-84722117D01*
X118833527Y-84755843D01*
X118825454Y-84763995D01*
X118779625Y-84810197D01*
X118769760Y-84810197D01*
X118767906Y-84809303D01*
X118761483Y-84806791D01*
X118755430Y-84804695D01*
X118708476Y-84787788D01*
X118660500Y-84767798D01*
X118612280Y-84745109D01*
X118564593Y-84720107D01*
X118518216Y-84693176D01*
X118477558Y-84667150D01*
X118423203Y-84628312D01*
X118371085Y-84586315D01*
X118321366Y-84541309D01*
X118274207Y-84493446D01*
X118229772Y-84442878D01*
X118206176Y-84413484D01*
X118199268Y-84404520D01*
X118192676Y-84395841D01*
X118187038Y-84388294D01*
X118182990Y-84382727D01*
X118182200Y-84381597D01*
X118178684Y-84376906D01*
X118176009Y-84374103D01*
X118174999Y-84373719D01*
X118174753Y-84375970D01*
X118154021Y-84375970D01*
X118154457Y-84370007D01*
X118172523Y-84370007D01*
X118173500Y-84370984D01*
X118174477Y-84370007D01*
X118173500Y-84369030D01*
X118172523Y-84370007D01*
X118154457Y-84370007D01*
X118154473Y-84369796D01*
X118154991Y-84364633D01*
X118157033Y-84345582D01*
X118143472Y-84324491D01*
X118118921Y-84284151D01*
X118095194Y-84240928D01*
X118072788Y-84195834D01*
X118052203Y-84149880D01*
X118033938Y-84104078D01*
X118031578Y-84097691D01*
X118010798Y-84035217D01*
X117993670Y-83971538D01*
X117980203Y-83906873D01*
X117970410Y-83841438D01*
X117964301Y-83775449D01*
X117961888Y-83709125D01*
X117963181Y-83642682D01*
X117968191Y-83576337D01*
X117976930Y-83510308D01*
X117989408Y-83444810D01*
X117996756Y-83413519D01*
X118014823Y-83349097D01*
X118036487Y-83286107D01*
X118061664Y-83224668D01*
X118090270Y-83164903D01*
X118122221Y-83106929D01*
X118157433Y-83050869D01*
X118195821Y-82996843D01*
X118237302Y-82944970D01*
X118281792Y-82895371D01*
X118329206Y-82848167D01*
X118379461Y-82803478D01*
X118432472Y-82761424D01*
X118472086Y-82732991D01*
X118526150Y-82698135D01*
X118582419Y-82666353D01*
X118640628Y-82637720D01*
X118700512Y-82612312D01*
X118761807Y-82590204D01*
X118824248Y-82571473D01*
X118887569Y-82556194D01*
X118951507Y-82544443D01*
X119015796Y-82536296D01*
X119080171Y-82531829D01*
X119144369Y-82531116D01*
X119174262Y-82532093D01*
X119242367Y-82536959D01*
X119308479Y-82545109D01*
X119372809Y-82556600D01*
X119435570Y-82571489D01*
X119496971Y-82589833D01*
X119557224Y-82611689D01*
X119616541Y-82637115D01*
X119675132Y-82666167D01*
X119679915Y-82668714D01*
X119732387Y-82698689D01*
X119783849Y-82731815D01*
X119833844Y-82767726D01*
X119881921Y-82806058D01*
X119927624Y-82846446D01*
X119970500Y-82888526D01*
X120010094Y-82931932D01*
X120015433Y-82938193D01*
X120039199Y-82966305D01*
X120074156Y-82896387D01*
X120095706Y-82853598D01*
X120116217Y-82813548D01*
X120136149Y-82775367D01*
X120155966Y-82738185D01*
X120176127Y-82701132D01*
X120197093Y-82663338D01*
X120208083Y-82643784D01*
X120222586Y-82618503D01*
X120235627Y-82596674D01*
X120247300Y-82578162D01*
X120257696Y-82562833D01*
X120266908Y-82550554D01*
X120275030Y-82541190D01*
X120282152Y-82534607D01*
X120284942Y-82532591D01*
X120290355Y-82529270D01*
X120294582Y-82527077D01*
X120296214Y-82526554D01*
X120296034Y-82527961D01*
X120293825Y-82531727D01*
X120290012Y-82537169D01*
X120287818Y-82540071D01*
X120275897Y-82556917D01*
X120264485Y-82576048D01*
X120253199Y-82598131D01*
X120248565Y-82608090D01*
X120243612Y-82619283D01*
X120237402Y-82633779D01*
X120230075Y-82651232D01*
X120221770Y-82671295D01*
X120212625Y-82693620D01*
X120202778Y-82717862D01*
X120192368Y-82743672D01*
X120181535Y-82770705D01*
X120170416Y-82798613D01*
X120159150Y-82827049D01*
X120147876Y-82855667D01*
X120136733Y-82884119D01*
X120125859Y-82912059D01*
X120115393Y-82939139D01*
X120105473Y-82965014D01*
X120097146Y-82986933D01*
X120083019Y-83024305D01*
X120099597Y-83049126D01*
X120105359Y-83057566D01*
X120110379Y-83064562D01*
X120114265Y-83069598D01*
X120116628Y-83072159D01*
X120117139Y-83072323D01*
X120118228Y-83070344D01*
X120121005Y-83065251D01*
X120125297Y-83057362D01*
X120130929Y-83046998D01*
X120137727Y-83034480D01*
X120145518Y-83020127D01*
X120154128Y-83004260D01*
X120163383Y-82987199D01*
X120168430Y-82977892D01*
X120180213Y-82956208D01*
X120193308Y-82932188D01*
X120207235Y-82906711D01*
X120221510Y-82880655D01*
X120235653Y-82854900D01*
X120249181Y-82830323D01*
X120261613Y-82807805D01*
X120268048Y-82796184D01*
X120278850Y-82776681D01*
X120290138Y-82756261D01*
X120301561Y-82735561D01*
X120312768Y-82715221D01*
X120323407Y-82695877D01*
X120333126Y-82678169D01*
X120341575Y-82662734D01*
X120347116Y-82652577D01*
X120365736Y-82618459D01*
X120382883Y-82587260D01*
X120398874Y-82558427D01*
X120414028Y-82531408D01*
X120428662Y-82505647D01*
X120443095Y-82480593D01*
X120457645Y-82455692D01*
X120472631Y-82430391D01*
X120488370Y-82404136D01*
X120505181Y-82376375D01*
X120519024Y-82353676D01*
X120529343Y-82336834D01*
X120537972Y-82322847D01*
X120545233Y-82311221D01*
X120551449Y-82301462D01*
X120556942Y-82293075D01*
X120562035Y-82285566D01*
X120567049Y-82278440D01*
X120572307Y-82271203D01*
X120576374Y-82265715D01*
X120582956Y-82257354D01*
X120590658Y-82248310D01*
X120598884Y-82239207D01*
X120607037Y-82230672D01*
X120614520Y-82223329D01*
X120620736Y-82217804D01*
X120624991Y-82214774D01*
X120632238Y-82212379D01*
X120639305Y-82212439D01*
X120644806Y-82214916D01*
X120645247Y-82215326D01*
X120649581Y-82221579D01*
X120652738Y-82229661D01*
X120653908Y-82237260D01*
X120653252Y-82241423D01*
X120651374Y-82241994D01*
X120648409Y-82239046D01*
X120644492Y-82232651D01*
X120644138Y-82231988D01*
X120641111Y-82226778D01*
X120638240Y-82223447D01*
X120635213Y-82222191D01*
X120631720Y-82223208D01*
X120627449Y-82226695D01*
X120622088Y-82232849D01*
X120615326Y-82241869D01*
X120606852Y-82253952D01*
X120604808Y-82256923D01*
X120599164Y-82265244D01*
X120593896Y-82273272D01*
X120588804Y-82281375D01*
X120583688Y-82289920D01*
X120578349Y-82299275D01*
X120572586Y-82309808D01*
X120566200Y-82321885D01*
X120558992Y-82335875D01*
X120550762Y-82352146D01*
X120541309Y-82371064D01*
X120530435Y-82392998D01*
X120525962Y-82402050D01*
X120517288Y-82419632D01*
X120509165Y-82436142D01*
X120501492Y-82451799D01*
X120494169Y-82466823D01*
X120487096Y-82481432D01*
X120480171Y-82495848D01*
X120473295Y-82510289D01*
X120466368Y-82524974D01*
X120459289Y-82540124D01*
X120451958Y-82555959D01*
X120444274Y-82572696D01*
X120436137Y-82590557D01*
X120427448Y-82609761D01*
X120418104Y-82630527D01*
X120408007Y-82653075D01*
X120397056Y-82677624D01*
X120385150Y-82704394D01*
X120372190Y-82733604D01*
X120358074Y-82765475D01*
X120342703Y-82800226D01*
X120325976Y-82838075D01*
X120307793Y-82879243D01*
X120304460Y-82886792D01*
X120295706Y-82906644D01*
X120287476Y-82925360D01*
X120279897Y-82942648D01*
X120273097Y-82958214D01*
X120267202Y-82971768D01*
X120262339Y-82983018D01*
X120258635Y-82991670D01*
X120256218Y-82997432D01*
X120255213Y-83000013D01*
X120255215Y-83000115D01*
X120256864Y-82997889D01*
X120260581Y-82992593D01*
X120266252Y-82984396D01*
X120273761Y-82973468D01*
X120282992Y-82959977D01*
X120293830Y-82944093D01*
X120306158Y-82925985D01*
X120319860Y-82905823D01*
X120334822Y-82883777D01*
X120346518Y-82866523D01*
X120355079Y-82853952D01*
X120365636Y-82838556D01*
X120377932Y-82820704D01*
X120391710Y-82800763D01*
X120406714Y-82779103D01*
X120422687Y-82756092D01*
X120439372Y-82732098D01*
X120456513Y-82707490D01*
X120473853Y-82682636D01*
X120491135Y-82657904D01*
X120508103Y-82633662D01*
X120524499Y-82610280D01*
X120540068Y-82588126D01*
X120554553Y-82567567D01*
X120567697Y-82548973D01*
X120571816Y-82543161D01*
X120597995Y-82506637D01*
X120625755Y-82468610D01*
X120654739Y-82429540D01*
X120684588Y-82389891D01*
X120714943Y-82350125D01*
X120745446Y-82310703D01*
X120775738Y-82272089D01*
X120805461Y-82234745D01*
X120834256Y-82199132D01*
X120861765Y-82165714D01*
X120887629Y-82134952D01*
X120896106Y-82125038D01*
X120925763Y-82090805D01*
X120953469Y-82059447D01*
X120979536Y-82030657D01*
X121004278Y-82004126D01*
X121028010Y-81979546D01*
X121051043Y-81956608D01*
X121073692Y-81935003D01*
X121096270Y-81914425D01*
X121119091Y-81894563D01*
X121142468Y-81875110D01*
X121166714Y-81855758D01*
X121181446Y-81844345D01*
X121211204Y-81822710D01*
X121241286Y-81803124D01*
X121271296Y-81785783D01*
X121300837Y-81770886D01*
X121329511Y-81758630D01*
X121356922Y-81749211D01*
X121382672Y-81742828D01*
X121387551Y-81741940D01*
X121400648Y-81740324D01*
X121415812Y-81739456D01*
X121432032Y-81739304D01*
X121448294Y-81739839D01*
G04 #@! TO.C,REF\002A\002A*
D10*
X76231714Y-65857380D02*
X75660285Y-65857380D01*
X75946000Y-65857380D02*
X75946000Y-64857380D01*
X75850761Y-65000238D01*
X75755523Y-65095476D01*
X75660285Y-65143095D01*
X98869523Y-65857380D02*
X98298095Y-65857380D01*
X98583809Y-65857380D02*
X98583809Y-64857380D01*
X98488571Y-65000238D01*
X98393333Y-65095476D01*
X98298095Y-65143095D01*
X99488571Y-64857380D02*
X99583809Y-64857380D01*
X99679047Y-64905000D01*
X99726666Y-64952619D01*
X99774285Y-65047857D01*
X99821904Y-65238333D01*
X99821904Y-65476428D01*
X99774285Y-65666904D01*
X99726666Y-65762142D01*
X99679047Y-65809761D01*
X99583809Y-65857380D01*
X99488571Y-65857380D01*
X99393333Y-65809761D01*
X99345714Y-65762142D01*
X99298095Y-65666904D01*
X99250476Y-65476428D01*
X99250476Y-65238333D01*
X99298095Y-65047857D01*
X99345714Y-64952619D01*
X99393333Y-64905000D01*
X99488571Y-64857380D01*
X76231714Y-102433380D02*
X75660285Y-102433380D01*
X75946000Y-102433380D02*
X75946000Y-101433380D01*
X75850761Y-101576238D01*
X75755523Y-101671476D01*
X75660285Y-101719095D01*
X98869523Y-102433380D02*
X98298095Y-102433380D01*
X98583809Y-102433380D02*
X98583809Y-101433380D01*
X98488571Y-101576238D01*
X98393333Y-101671476D01*
X98298095Y-101719095D01*
X99488571Y-101433380D02*
X99583809Y-101433380D01*
X99679047Y-101481000D01*
X99726666Y-101528619D01*
X99774285Y-101623857D01*
X99821904Y-101814333D01*
X99821904Y-102052428D01*
X99774285Y-102242904D01*
X99726666Y-102338142D01*
X99679047Y-102385761D01*
X99583809Y-102433380D01*
X99488571Y-102433380D01*
X99393333Y-102385761D01*
X99345714Y-102338142D01*
X99298095Y-102242904D01*
X99250476Y-102052428D01*
X99250476Y-101814333D01*
X99298095Y-101623857D01*
X99345714Y-101528619D01*
X99393333Y-101481000D01*
X99488571Y-101433380D01*
X139731714Y-65857380D02*
X139160285Y-65857380D01*
X139446000Y-65857380D02*
X139446000Y-64857380D01*
X139350761Y-65000238D01*
X139255523Y-65095476D01*
X139160285Y-65143095D01*
X162115523Y-65857380D02*
X161544095Y-65857380D01*
X161829809Y-65857380D02*
X161829809Y-64857380D01*
X161734571Y-65000238D01*
X161639333Y-65095476D01*
X161544095Y-65143095D01*
X162734571Y-64857380D02*
X162829809Y-64857380D01*
X162925047Y-64905000D01*
X162972666Y-64952619D01*
X163020285Y-65047857D01*
X163067904Y-65238333D01*
X163067904Y-65476428D01*
X163020285Y-65666904D01*
X162972666Y-65762142D01*
X162925047Y-65809761D01*
X162829809Y-65857380D01*
X162734571Y-65857380D01*
X162639333Y-65809761D01*
X162591714Y-65762142D01*
X162544095Y-65666904D01*
X162496476Y-65476428D01*
X162496476Y-65238333D01*
X162544095Y-65047857D01*
X162591714Y-64952619D01*
X162639333Y-64905000D01*
X162734571Y-64857380D01*
X162115523Y-102433380D02*
X161544095Y-102433380D01*
X161829809Y-102433380D02*
X161829809Y-101433380D01*
X161734571Y-101576238D01*
X161639333Y-101671476D01*
X161544095Y-101719095D01*
X162734571Y-101433380D02*
X162829809Y-101433380D01*
X162925047Y-101481000D01*
X162972666Y-101528619D01*
X163020285Y-101623857D01*
X163067904Y-101814333D01*
X163067904Y-102052428D01*
X163020285Y-102242904D01*
X162972666Y-102338142D01*
X162925047Y-102385761D01*
X162829809Y-102433380D01*
X162734571Y-102433380D01*
X162639333Y-102385761D01*
X162591714Y-102338142D01*
X162544095Y-102242904D01*
X162496476Y-102052428D01*
X162496476Y-101814333D01*
X162544095Y-101623857D01*
X162591714Y-101528619D01*
X162639333Y-101481000D01*
X162734571Y-101433380D01*
X139731714Y-102433380D02*
X139160285Y-102433380D01*
X139446000Y-102433380D02*
X139446000Y-101433380D01*
X139350761Y-101576238D01*
X139255523Y-101671476D01*
X139160285Y-101719095D01*
X98250476Y-66127380D02*
X98917142Y-67127380D01*
X98917142Y-66127380D02*
X98250476Y-67127380D01*
X99345714Y-67127380D02*
X99536190Y-67127380D01*
X99631428Y-67079761D01*
X99679047Y-67032142D01*
X99774285Y-66889285D01*
X99821904Y-66698809D01*
X99821904Y-66317857D01*
X99774285Y-66222619D01*
X99726666Y-66175000D01*
X99631428Y-66127380D01*
X99440952Y-66127380D01*
X99345714Y-66175000D01*
X99298095Y-66222619D01*
X99250476Y-66317857D01*
X99250476Y-66555952D01*
X99298095Y-66651190D01*
X99345714Y-66698809D01*
X99440952Y-66746428D01*
X99631428Y-66746428D01*
X99726666Y-66698809D01*
X99774285Y-66651190D01*
X99821904Y-66555952D01*
X98250476Y-100163380D02*
X98917142Y-101163380D01*
X98917142Y-100163380D02*
X98250476Y-101163380D01*
X99440952Y-100591952D02*
X99345714Y-100544333D01*
X99298095Y-100496714D01*
X99250476Y-100401476D01*
X99250476Y-100353857D01*
X99298095Y-100258619D01*
X99345714Y-100211000D01*
X99440952Y-100163380D01*
X99631428Y-100163380D01*
X99726666Y-100211000D01*
X99774285Y-100258619D01*
X99821904Y-100353857D01*
X99821904Y-100401476D01*
X99774285Y-100496714D01*
X99726666Y-100544333D01*
X99631428Y-100591952D01*
X99440952Y-100591952D01*
X99345714Y-100639571D01*
X99298095Y-100687190D01*
X99250476Y-100782428D01*
X99250476Y-100972904D01*
X99298095Y-101068142D01*
X99345714Y-101115761D01*
X99440952Y-101163380D01*
X99631428Y-101163380D01*
X99726666Y-101115761D01*
X99774285Y-101068142D01*
X99821904Y-100972904D01*
X99821904Y-100782428D01*
X99774285Y-100687190D01*
X99726666Y-100639571D01*
X99631428Y-100591952D01*
X161496476Y-66127380D02*
X162163142Y-67127380D01*
X162163142Y-66127380D02*
X161496476Y-67127380D01*
X162448857Y-66127380D02*
X163115523Y-66127380D01*
X162686952Y-67127380D01*
X161496476Y-100163380D02*
X162163142Y-101163380D01*
X162163142Y-100163380D02*
X161496476Y-101163380D01*
X162972666Y-100163380D02*
X162782190Y-100163380D01*
X162686952Y-100211000D01*
X162639333Y-100258619D01*
X162544095Y-100401476D01*
X162496476Y-100591952D01*
X162496476Y-100972904D01*
X162544095Y-101068142D01*
X162591714Y-101115761D01*
X162686952Y-101163380D01*
X162877428Y-101163380D01*
X162972666Y-101115761D01*
X163020285Y-101068142D01*
X163067904Y-100972904D01*
X163067904Y-100734809D01*
X163020285Y-100639571D01*
X162972666Y-100591952D01*
X162877428Y-100544333D01*
X162686952Y-100544333D01*
X162591714Y-100591952D01*
X162544095Y-100639571D01*
X162496476Y-100734809D01*
X100925333Y-63730142D02*
X100877714Y-63777761D01*
X100734857Y-63825380D01*
X100639619Y-63825380D01*
X100496761Y-63777761D01*
X100401523Y-63682523D01*
X100353904Y-63587285D01*
X100306285Y-63396809D01*
X100306285Y-63253952D01*
X100353904Y-63063476D01*
X100401523Y-62968238D01*
X100496761Y-62873000D01*
X100639619Y-62825380D01*
X100734857Y-62825380D01*
X100877714Y-62873000D01*
X100925333Y-62920619D01*
X101877714Y-63825380D02*
X101306285Y-63825380D01*
X101592000Y-63825380D02*
X101592000Y-62825380D01*
X101496761Y-62968238D01*
X101401523Y-63063476D01*
X101306285Y-63111095D01*
X100353904Y-61539380D02*
X100353904Y-60539380D01*
X100592000Y-60539380D01*
X100734857Y-60587000D01*
X100830095Y-60682238D01*
X100877714Y-60777476D01*
X100925333Y-60967952D01*
X100925333Y-61110809D01*
X100877714Y-61301285D01*
X100830095Y-61396523D01*
X100734857Y-61491761D01*
X100592000Y-61539380D01*
X100353904Y-61539380D01*
X101877714Y-61539380D02*
X101306285Y-61539380D01*
X101592000Y-61539380D02*
X101592000Y-60539380D01*
X101496761Y-60682238D01*
X101401523Y-60777476D01*
X101306285Y-60825095D01*
X164425333Y-63730142D02*
X164377714Y-63777761D01*
X164234857Y-63825380D01*
X164139619Y-63825380D01*
X163996761Y-63777761D01*
X163901523Y-63682523D01*
X163853904Y-63587285D01*
X163806285Y-63396809D01*
X163806285Y-63253952D01*
X163853904Y-63063476D01*
X163901523Y-62968238D01*
X163996761Y-62873000D01*
X164139619Y-62825380D01*
X164234857Y-62825380D01*
X164377714Y-62873000D01*
X164425333Y-62920619D01*
X164806285Y-62920619D02*
X164853904Y-62873000D01*
X164949142Y-62825380D01*
X165187238Y-62825380D01*
X165282476Y-62873000D01*
X165330095Y-62920619D01*
X165377714Y-63015857D01*
X165377714Y-63111095D01*
X165330095Y-63253952D01*
X164758666Y-63825380D01*
X165377714Y-63825380D01*
X163853904Y-61031380D02*
X163853904Y-60031380D01*
X164092000Y-60031380D01*
X164234857Y-60079000D01*
X164330095Y-60174238D01*
X164377714Y-60269476D01*
X164425333Y-60459952D01*
X164425333Y-60602809D01*
X164377714Y-60793285D01*
X164330095Y-60888523D01*
X164234857Y-60983761D01*
X164092000Y-61031380D01*
X163853904Y-61031380D01*
X164806285Y-60126619D02*
X164853904Y-60079000D01*
X164949142Y-60031380D01*
X165187238Y-60031380D01*
X165282476Y-60079000D01*
X165330095Y-60126619D01*
X165377714Y-60221857D01*
X165377714Y-60317095D01*
X165330095Y-60459952D01*
X164758666Y-61031380D01*
X165377714Y-61031380D01*
X100687238Y-103941571D02*
X100830095Y-103989190D01*
X100877714Y-104036809D01*
X100925333Y-104132047D01*
X100925333Y-104274904D01*
X100877714Y-104370142D01*
X100830095Y-104417761D01*
X100734857Y-104465380D01*
X100353904Y-104465380D01*
X100353904Y-103465380D01*
X100687238Y-103465380D01*
X100782476Y-103513000D01*
X100830095Y-103560619D01*
X100877714Y-103655857D01*
X100877714Y-103751095D01*
X100830095Y-103846333D01*
X100782476Y-103893952D01*
X100687238Y-103941571D01*
X100353904Y-103941571D01*
X101877714Y-104465380D02*
X101306285Y-104465380D01*
X101592000Y-104465380D02*
X101592000Y-103465380D01*
X101496761Y-103608238D01*
X101401523Y-103703476D01*
X101306285Y-103751095D01*
X100377714Y-106719666D02*
X100853904Y-106719666D01*
X100282476Y-107005380D02*
X100615809Y-106005380D01*
X100949142Y-107005380D01*
X101806285Y-107005380D02*
X101234857Y-107005380D01*
X101520571Y-107005380D02*
X101520571Y-106005380D01*
X101425333Y-106148238D01*
X101330095Y-106243476D01*
X101234857Y-106291095D01*
X164949238Y-103687571D02*
X165092095Y-103735190D01*
X165139714Y-103782809D01*
X165187333Y-103878047D01*
X165187333Y-104020904D01*
X165139714Y-104116142D01*
X165092095Y-104163761D01*
X164996857Y-104211380D01*
X164615904Y-104211380D01*
X164615904Y-103211380D01*
X164949238Y-103211380D01*
X165044476Y-103259000D01*
X165092095Y-103306619D01*
X165139714Y-103401857D01*
X165139714Y-103497095D01*
X165092095Y-103592333D01*
X165044476Y-103639952D01*
X164949238Y-103687571D01*
X164615904Y-103687571D01*
X165568285Y-103306619D02*
X165615904Y-103259000D01*
X165711142Y-103211380D01*
X165949238Y-103211380D01*
X166044476Y-103259000D01*
X166092095Y-103306619D01*
X166139714Y-103401857D01*
X166139714Y-103497095D01*
X166092095Y-103639952D01*
X165520666Y-104211380D01*
X166139714Y-104211380D01*
X164639714Y-106719666D02*
X165115904Y-106719666D01*
X164544476Y-107005380D02*
X164877809Y-106005380D01*
X165211142Y-107005380D01*
X165496857Y-106100619D02*
X165544476Y-106053000D01*
X165639714Y-106005380D01*
X165877809Y-106005380D01*
X165973047Y-106053000D01*
X166020666Y-106100619D01*
X166068285Y-106195857D01*
X166068285Y-106291095D01*
X166020666Y-106433952D01*
X165449238Y-107005380D01*
X166068285Y-107005380D01*
G04 #@! TD*
M02*
