G04 #@! TF.GenerationSoftware,KiCad,Pcbnew,(5.0.2)-1*
G04 #@! TF.CreationDate,2019-02-27T01:45:04-06:00*
G04 #@! TF.ProjectId,TIVA SMD Header Guide,54495641-2053-44d4-9420-486561646572,rev?*
G04 #@! TF.SameCoordinates,Original*
G04 #@! TF.FileFunction,Copper,L2,Bot*
G04 #@! TF.FilePolarity,Positive*
%FSLAX46Y46*%
G04 Gerber Fmt 4.6, Leading zero omitted, Abs format (unit mm)*
G04 Created by KiCad (PCBNEW (5.0.2)-1) date 2/27/2019 1:45:04 AM*
%MOMM*%
%LPD*%
G01*
G04 APERTURE LIST*
G04 #@! TA.AperFunction,ComponentPad*
%ADD10C,1.520000*%
G04 #@! TD*
G04 #@! TA.AperFunction,NonConductor*
%ADD11C,0.254000*%
G04 #@! TD*
G04 APERTURE END LIST*
D10*
G04 #@! TO.P,REF\002A\002A,+3V3*
G04 #@! TO.N,N/C*
X139446000Y-106553000D03*
G04 #@! TO.P,REF\002A\002A,PM6*
X162306000Y-60833000D03*
G04 #@! TO.P,REF\002A\002A,PQ1*
X159766000Y-60833000D03*
G04 #@! TO.P,REF\002A\002A,PQ2*
X152146000Y-60833000D03*
G04 #@! TO.P,REF\002A\002A,PK0*
X149606000Y-104013000D03*
G04 #@! TO.P,REF\002A\002A,PQ3*
X154686000Y-60833000D03*
G04 #@! TO.P,REF\002A\002A,PP3*
X157226000Y-60833000D03*
G04 #@! TO.P,REF\002A\002A,PQ0*
X154686000Y-106553000D03*
G04 #@! TO.P,REF\002A\002A,PA4*
X159766000Y-104013000D03*
G04 #@! TO.P,REF\002A\002A,Rese*
X149606000Y-60833000D03*
G04 #@! TO.P,REF\002A\002A,PA7*
X147066000Y-60833000D03*
G04 #@! TO.P,REF\002A\002A,PN5*
X159766000Y-106553000D03*
G04 #@! TO.P,REF\002A\002A,PK2*
X154686000Y-104013000D03*
G04 #@! TO.P,REF\002A\002A,PK1*
X152146000Y-104013000D03*
G04 #@! TO.P,REF\002A\002A,+5V*
X139446000Y-104013000D03*
G04 #@! TO.P,REF\002A\002A,GND*
X141986000Y-104013000D03*
G04 #@! TO.P,REF\002A\002A,PB4*
X144526000Y-104013000D03*
G04 #@! TO.P,REF\002A\002A,PB5*
X147066000Y-104013000D03*
G04 #@! TO.P,REF\002A\002A,PK3*
X157226000Y-104013000D03*
G04 #@! TO.P,REF\002A\002A,PA5*
X162306000Y-104013000D03*
G04 #@! TO.P,REF\002A\002A,PD2*
X141986000Y-106553000D03*
G04 #@! TO.P,REF\002A\002A,PP0*
X144526000Y-106553000D03*
G04 #@! TO.P,REF\002A\002A,PP1*
X147066000Y-106553000D03*
G04 #@! TO.P,REF\002A\002A,PD4*
X149606000Y-106553000D03*
G04 #@! TO.P,REF\002A\002A,PD5*
X152146000Y-106553000D03*
G04 #@! TO.P,REF\002A\002A,PP4*
X157226000Y-106553000D03*
G04 #@! TO.P,REF\002A\002A,PN4*
X162306000Y-106553000D03*
G04 #@! TO.P,REF\002A\002A,PG1*
X139446000Y-63373000D03*
G04 #@! TO.P,REF\002A\002A,PK4*
X141986000Y-63373000D03*
G04 #@! TO.P,REF\002A\002A,PK5*
X144526000Y-63373000D03*
G04 #@! TO.P,REF\002A\002A,PM0*
X147066000Y-63373000D03*
G04 #@! TO.P,REF\002A\002A,PM1*
X149606000Y-63373000D03*
G04 #@! TO.P,REF\002A\002A,PM2*
X152146000Y-63373000D03*
G04 #@! TO.P,REF\002A\002A,PH0*
X154686000Y-63373000D03*
G04 #@! TO.P,REF\002A\002A,PH1*
X157226000Y-63373000D03*
G04 #@! TO.P,REF\002A\002A,PK6*
X159766000Y-63373000D03*
G04 #@! TO.P,REF\002A\002A,PK7*
X162306000Y-63373000D03*
G04 #@! TO.P,REF\002A\002A,GND*
X139446000Y-60833000D03*
G04 #@! TO.P,REF\002A\002A,PM7*
X141986000Y-60833000D03*
G04 #@! TO.P,REF\002A\002A,PP5*
X144526000Y-60833000D03*
G04 #@! TO.P,REF\002A\002A,+5V*
X75946000Y-104013000D03*
G04 #@! TO.P,REF\002A\002A,GND*
X78486000Y-104013000D03*
G04 #@! TO.P,REF\002A\002A,PE0*
X81026000Y-104013000D03*
G04 #@! TO.P,REF\002A\002A,PE1*
X83566000Y-104013000D03*
G04 #@! TO.P,REF\002A\002A,PE2*
X86106000Y-104013000D03*
G04 #@! TO.P,REF\002A\002A,PE3*
X88646000Y-104013000D03*
G04 #@! TO.P,REF\002A\002A,PD7*
X91186000Y-104013000D03*
G04 #@! TO.P,REF\002A\002A,PA6*
X93726000Y-104013000D03*
G04 #@! TO.P,REF\002A\002A,PM4*
X96266000Y-104013000D03*
G04 #@! TO.P,REF\002A\002A,PM5*
X98806000Y-104013000D03*
G04 #@! TO.P,REF\002A\002A,+3V3*
X75946000Y-106553000D03*
G04 #@! TO.P,REF\002A\002A,PE4*
X78486000Y-106553000D03*
G04 #@! TO.P,REF\002A\002A,PC4*
X81026000Y-106553000D03*
G04 #@! TO.P,REF\002A\002A,PC5*
X83566000Y-106553000D03*
G04 #@! TO.P,REF\002A\002A,PC6*
X86106000Y-106553000D03*
G04 #@! TO.P,REF\002A\002A,PE5*
X88646000Y-106553000D03*
G04 #@! TO.P,REF\002A\002A,PD3*
X91186000Y-106553000D03*
G04 #@! TO.P,REF\002A\002A,PC7*
X93726000Y-106553000D03*
G04 #@! TO.P,REF\002A\002A,PB2*
X96266000Y-106553000D03*
G04 #@! TO.P,REF\002A\002A,PB3*
X98806000Y-106553000D03*
G04 #@! TO.P,REF\002A\002A,PF1*
X75946000Y-63373000D03*
G04 #@! TO.P,REF\002A\002A,PF2*
X78486000Y-63373000D03*
G04 #@! TO.P,REF\002A\002A,PF3*
X81026000Y-63373000D03*
G04 #@! TO.P,REF\002A\002A,PG0*
X83566000Y-63373000D03*
G04 #@! TO.P,REF\002A\002A,PL4*
X86106000Y-63373000D03*
G04 #@! TO.P,REF\002A\002A,PL5*
X88646000Y-63373000D03*
G04 #@! TO.P,REF\002A\002A,PL0*
X91186000Y-63373000D03*
G04 #@! TO.P,REF\002A\002A,PL1*
X93726000Y-63373000D03*
G04 #@! TO.P,REF\002A\002A,PL2*
X96266000Y-63373000D03*
G04 #@! TO.P,REF\002A\002A,PL3*
X98806000Y-63373000D03*
G04 #@! TO.P,REF\002A\002A,GND*
X75946000Y-60833000D03*
G04 #@! TO.P,REF\002A\002A,PM3*
X78486000Y-60833000D03*
G04 #@! TO.P,REF\002A\002A,PH2*
X81026000Y-60833000D03*
G04 #@! TO.P,REF\002A\002A,PH3*
X83566000Y-60833000D03*
G04 #@! TO.P,REF\002A\002A,Rese*
X86106000Y-60833000D03*
G04 #@! TO.P,REF\002A\002A,PD1*
X88646000Y-60833000D03*
G04 #@! TO.P,REF\002A\002A,PD0*
X91186000Y-60833000D03*
G04 #@! TO.P,REF\002A\002A,PN2*
X93726000Y-60833000D03*
G04 #@! TO.P,REF\002A\002A,PN3*
X96266000Y-60833000D03*
G04 #@! TO.P,REF\002A\002A,PP2*
X98806000Y-60833000D03*
G04 #@! TD*
D11*
G36*
X120819496Y-102254718D02*
X122975617Y-102448288D01*
X125112966Y-102791787D01*
X127221164Y-103283548D01*
X129289903Y-103921165D01*
X131309152Y-104701548D01*
X133269017Y-105620871D01*
X135160008Y-106674685D01*
X136724905Y-107696000D01*
X101543860Y-107696000D01*
X102293372Y-107173718D01*
X104151477Y-106062990D01*
X106082553Y-105084575D01*
X108077148Y-104243260D01*
X110125591Y-103543124D01*
X112217869Y-102987587D01*
X114343831Y-102579350D01*
X116493071Y-102320409D01*
X118655135Y-102212022D01*
X120819496Y-102254718D01*
X120819496Y-102254718D01*
G37*
X120819496Y-102254718D02*
X122975617Y-102448288D01*
X125112966Y-102791787D01*
X127221164Y-103283548D01*
X129289903Y-103921165D01*
X131309152Y-104701548D01*
X133269017Y-105620871D01*
X135160008Y-106674685D01*
X136724905Y-107696000D01*
X101543860Y-107696000D01*
X102293372Y-107173718D01*
X104151477Y-106062990D01*
X106082553Y-105084575D01*
X108077148Y-104243260D01*
X110125591Y-103543124D01*
X112217869Y-102987587D01*
X114343831Y-102579350D01*
X116493071Y-102320409D01*
X118655135Y-102212022D01*
X120819496Y-102254718D01*
G36*
X138051000Y-60555517D02*
X138051000Y-60591696D01*
X138038845Y-60625780D01*
X138051000Y-60868001D01*
X138051000Y-61110483D01*
X138064845Y-61143909D01*
X138066659Y-61180049D01*
X138225258Y-61562941D01*
X138240183Y-61567210D01*
X138263376Y-61623204D01*
X138655796Y-62015624D01*
X138711790Y-62038817D01*
X138716059Y-62053742D01*
X138843863Y-62099320D01*
X138716059Y-62152258D01*
X138711790Y-62167183D01*
X138655796Y-62190376D01*
X138263376Y-62582796D01*
X138240183Y-62638790D01*
X138225258Y-62643059D01*
X138143794Y-62871493D01*
X138051000Y-63095517D01*
X138051000Y-63131696D01*
X138038845Y-63165780D01*
X138051000Y-63408001D01*
X138051000Y-63650483D01*
X138064845Y-63683909D01*
X138066659Y-63720049D01*
X138144856Y-63908833D01*
X138099171Y-63912028D01*
X138048368Y-63919167D01*
X137998187Y-63929834D01*
X137948873Y-63943975D01*
X137900664Y-63961521D01*
X137853798Y-63982388D01*
X137808499Y-64006473D01*
X137764993Y-64033659D01*
X137723489Y-64063814D01*
X137684189Y-64096790D01*
X137647285Y-64132428D01*
X137612957Y-64170552D01*
X137581372Y-64210979D01*
X137014714Y-64990917D01*
X137004410Y-65006194D01*
X136993830Y-65021230D01*
X135782650Y-66877046D01*
X135782627Y-66877078D01*
X135756105Y-66920993D01*
X134677312Y-68856808D01*
X134653917Y-68902466D01*
X134653907Y-68902490D01*
X133712788Y-70908820D01*
X133692635Y-70955998D01*
X133692630Y-70956013D01*
X132893753Y-73023113D01*
X132876940Y-73071582D01*
X132876933Y-73071608D01*
X132224208Y-75189364D01*
X132224199Y-75189390D01*
X132210809Y-75238914D01*
X131707389Y-77397095D01*
X131697486Y-77447433D01*
X131345840Y-79635474D01*
X131339472Y-79686379D01*
X131141312Y-81893620D01*
X131138511Y-81944846D01*
X131094803Y-84160533D01*
X131095581Y-84211829D01*
X131095583Y-84211858D01*
X131206538Y-86425138D01*
X131206538Y-86425167D01*
X131210894Y-86476284D01*
X131475976Y-88676491D01*
X131483886Y-88727180D01*
X131901800Y-90903537D01*
X131913227Y-90953551D01*
X132481934Y-93095432D01*
X132481939Y-93095452D01*
X132496827Y-93144547D01*
X133213564Y-95241561D01*
X133231840Y-95289497D01*
X133231851Y-95289521D01*
X134093107Y-97331391D01*
X134093112Y-97331405D01*
X134104687Y-97356375D01*
X134114688Y-97377951D01*
X134114694Y-97377962D01*
X135116298Y-99354805D01*
X135141068Y-99399732D01*
X135141076Y-99399744D01*
X136278130Y-101301890D01*
X136278137Y-101301903D01*
X136305981Y-101344992D01*
X137572969Y-103163211D01*
X137603750Y-103204253D01*
X137637319Y-103243047D01*
X137673513Y-103279405D01*
X137712155Y-103313150D01*
X137753057Y-103344118D01*
X137796018Y-103372157D01*
X137840833Y-103397131D01*
X137887279Y-103418917D01*
X137935131Y-103437411D01*
X137984157Y-103452522D01*
X138034118Y-103464176D01*
X138084771Y-103472316D01*
X138135868Y-103476903D01*
X138155988Y-103477300D01*
X138143794Y-103511493D01*
X138051000Y-103735517D01*
X138051000Y-103771696D01*
X138038845Y-103805780D01*
X138051000Y-104048001D01*
X138051000Y-104290483D01*
X138064845Y-104323909D01*
X138066659Y-104360049D01*
X138225258Y-104742941D01*
X138240183Y-104747210D01*
X138263376Y-104803204D01*
X138655796Y-105195624D01*
X138711790Y-105218817D01*
X138716059Y-105233742D01*
X138843863Y-105279320D01*
X138716059Y-105332258D01*
X138711790Y-105347183D01*
X138655796Y-105370376D01*
X138263376Y-105762796D01*
X138240183Y-105818790D01*
X138225258Y-105823059D01*
X138143794Y-106051493D01*
X138051000Y-106275517D01*
X138051000Y-106311696D01*
X138038845Y-106345780D01*
X138051000Y-106588001D01*
X138051000Y-106823672D01*
X137828083Y-106661713D01*
X137812806Y-106651409D01*
X137797770Y-106640829D01*
X135941954Y-105429649D01*
X135941922Y-105429626D01*
X135898007Y-105403104D01*
X133962192Y-104324311D01*
X133916534Y-104300916D01*
X133916510Y-104300906D01*
X131910192Y-103359793D01*
X131910181Y-103359787D01*
X131882575Y-103347995D01*
X131863002Y-103339634D01*
X131862987Y-103339629D01*
X129795887Y-102540752D01*
X129747418Y-102523939D01*
X129747392Y-102523932D01*
X127629636Y-101871207D01*
X127629610Y-101871198D01*
X127580086Y-101857808D01*
X125421905Y-101354388D01*
X125371568Y-101344485D01*
X125371563Y-101344484D01*
X123183526Y-100992839D01*
X123132621Y-100986471D01*
X120925380Y-100788311D01*
X120874154Y-100785510D01*
X118658467Y-100741802D01*
X118607171Y-100742580D01*
X118607144Y-100742582D01*
X116393862Y-100853537D01*
X116393833Y-100853537D01*
X116342716Y-100857893D01*
X114142509Y-101122975D01*
X114091820Y-101130885D01*
X114091815Y-101130886D01*
X111915463Y-101548799D01*
X111865450Y-101560226D01*
X109723547Y-102128938D01*
X109680184Y-102142088D01*
X109674453Y-102143826D01*
X107577439Y-102860563D01*
X107529503Y-102878839D01*
X105487620Y-103740102D01*
X105487595Y-103740111D01*
X105441050Y-103761687D01*
X103464206Y-104763292D01*
X103464194Y-104763297D01*
X103419268Y-104788067D01*
X101517110Y-105925129D01*
X101517097Y-105925136D01*
X101500183Y-105936065D01*
X101474008Y-105952979D01*
X101473989Y-105952993D01*
X100195430Y-106843931D01*
X100201000Y-106830483D01*
X100201000Y-106794304D01*
X100213155Y-106760220D01*
X100201000Y-106517999D01*
X100201000Y-106275517D01*
X100187155Y-106242091D01*
X100185341Y-106205951D01*
X100026742Y-105823059D01*
X100011817Y-105818790D01*
X99988624Y-105762796D01*
X99596204Y-105370376D01*
X99540210Y-105347183D01*
X99535941Y-105332258D01*
X99408137Y-105286680D01*
X99535941Y-105233742D01*
X99540210Y-105218817D01*
X99596204Y-105195624D01*
X99988624Y-104803204D01*
X100011817Y-104747210D01*
X100026742Y-104742941D01*
X100108206Y-104514507D01*
X100201000Y-104290483D01*
X100201000Y-104254304D01*
X100213155Y-104220220D01*
X100201000Y-103977999D01*
X100201000Y-103735517D01*
X100187155Y-103702091D01*
X100185341Y-103665951D01*
X100107144Y-103477167D01*
X100152830Y-103473972D01*
X100203633Y-103466833D01*
X100253814Y-103456167D01*
X100303128Y-103442025D01*
X100351336Y-103424479D01*
X100398203Y-103403613D01*
X100443501Y-103379527D01*
X100487008Y-103352342D01*
X100528512Y-103322186D01*
X100567812Y-103289210D01*
X100604716Y-103253573D01*
X100639044Y-103215448D01*
X100670629Y-103175021D01*
X101237286Y-102395083D01*
X101247578Y-102379825D01*
X101258171Y-102364769D01*
X102469360Y-100508941D01*
X102469374Y-100508921D01*
X102495896Y-100465007D01*
X103574689Y-98529192D01*
X103598084Y-98483534D01*
X103598094Y-98483510D01*
X104539213Y-96477180D01*
X104553115Y-96444637D01*
X104559366Y-96430002D01*
X105358248Y-94362887D01*
X105375061Y-94314418D01*
X105375068Y-94314392D01*
X106027790Y-92196644D01*
X106027802Y-92196610D01*
X106041192Y-92147086D01*
X106544612Y-89988904D01*
X106554515Y-89938567D01*
X106906161Y-87750526D01*
X106909753Y-87721816D01*
X106912529Y-87699621D01*
X107110689Y-85492380D01*
X107113490Y-85441155D01*
X107113490Y-85441154D01*
X107157198Y-83225467D01*
X107156420Y-83174171D01*
X107156418Y-83174144D01*
X107045463Y-80960862D01*
X107045463Y-80960833D01*
X107041107Y-80909716D01*
X106776025Y-78709509D01*
X106768115Y-78658820D01*
X106768114Y-78658815D01*
X106350201Y-76482463D01*
X106338774Y-76432450D01*
X105770062Y-74290547D01*
X105755174Y-74241453D01*
X105038437Y-72144439D01*
X105020161Y-72096503D01*
X104158898Y-70054620D01*
X104158889Y-70054595D01*
X104137313Y-70008050D01*
X103135703Y-68031195D01*
X103135703Y-68031194D01*
X103110933Y-67986268D01*
X101973871Y-66084110D01*
X101973864Y-66084097D01*
X101953022Y-66051843D01*
X101946021Y-66041008D01*
X101946007Y-66040989D01*
X100679032Y-64222789D01*
X100648251Y-64181747D01*
X100614682Y-64142953D01*
X100578488Y-64106595D01*
X100539846Y-64072850D01*
X100498944Y-64041882D01*
X100455983Y-64013843D01*
X100411168Y-63988869D01*
X100364722Y-63967083D01*
X100316870Y-63948589D01*
X100267844Y-63933478D01*
X100217883Y-63921824D01*
X100167230Y-63913684D01*
X100116133Y-63909097D01*
X100096012Y-63908700D01*
X100108206Y-63874507D01*
X100201000Y-63650483D01*
X100201000Y-63614304D01*
X100213155Y-63580220D01*
X100201000Y-63337999D01*
X100201000Y-63095517D01*
X100187155Y-63062091D01*
X100185341Y-63025951D01*
X100026742Y-62643059D01*
X100011817Y-62638790D01*
X99988624Y-62582796D01*
X99596204Y-62190376D01*
X99540210Y-62167183D01*
X99535941Y-62152258D01*
X99408137Y-62106680D01*
X99535941Y-62053742D01*
X99540210Y-62038817D01*
X99596204Y-62015624D01*
X99988624Y-61623204D01*
X100011817Y-61567210D01*
X100026742Y-61562941D01*
X100108206Y-61334507D01*
X100201000Y-61110483D01*
X100201000Y-61074304D01*
X100213155Y-61040220D01*
X100201000Y-60797999D01*
X100201000Y-60562327D01*
X100423916Y-60724285D01*
X100439174Y-60734577D01*
X100454230Y-60745170D01*
X102310058Y-61956359D01*
X102310078Y-61956373D01*
X102353992Y-61982895D01*
X104289807Y-63061688D01*
X104335465Y-63085083D01*
X104335489Y-63085093D01*
X106341807Y-64026206D01*
X106341818Y-64026212D01*
X106388997Y-64046365D01*
X108456112Y-64845247D01*
X108504581Y-64862060D01*
X108504607Y-64862067D01*
X110622355Y-65514789D01*
X110622389Y-65514801D01*
X110671913Y-65528191D01*
X112830088Y-66031609D01*
X112830094Y-66031611D01*
X112880432Y-66041514D01*
X115068468Y-66393159D01*
X115068472Y-66393160D01*
X115119378Y-66399528D01*
X117326619Y-66597688D01*
X117377844Y-66600489D01*
X117377845Y-66600489D01*
X119593532Y-66644197D01*
X119644828Y-66643419D01*
X119644857Y-66643417D01*
X121858137Y-66532462D01*
X121858166Y-66532462D01*
X121909283Y-66528106D01*
X124109490Y-66263024D01*
X124160179Y-66255114D01*
X126336536Y-65837200D01*
X126386550Y-65825773D01*
X128528431Y-65257066D01*
X128528451Y-65257061D01*
X128568989Y-65244768D01*
X128577547Y-65242173D01*
X128577556Y-65242170D01*
X130674560Y-64525436D01*
X130722496Y-64507160D01*
X130722520Y-64507149D01*
X132764390Y-63645893D01*
X132764404Y-63645888D01*
X132789845Y-63634095D01*
X132810950Y-63624312D01*
X132810961Y-63624306D01*
X134787804Y-62622702D01*
X134832731Y-62597932D01*
X134832743Y-62597924D01*
X136734889Y-61460870D01*
X136734902Y-61460863D01*
X136762745Y-61442871D01*
X136777990Y-61433020D01*
X136777996Y-61433016D01*
X138056571Y-60542067D01*
X138051000Y-60555517D01*
X138051000Y-60555517D01*
G37*
X138051000Y-60555517D02*
X138051000Y-60591696D01*
X138038845Y-60625780D01*
X138051000Y-60868001D01*
X138051000Y-61110483D01*
X138064845Y-61143909D01*
X138066659Y-61180049D01*
X138225258Y-61562941D01*
X138240183Y-61567210D01*
X138263376Y-61623204D01*
X138655796Y-62015624D01*
X138711790Y-62038817D01*
X138716059Y-62053742D01*
X138843863Y-62099320D01*
X138716059Y-62152258D01*
X138711790Y-62167183D01*
X138655796Y-62190376D01*
X138263376Y-62582796D01*
X138240183Y-62638790D01*
X138225258Y-62643059D01*
X138143794Y-62871493D01*
X138051000Y-63095517D01*
X138051000Y-63131696D01*
X138038845Y-63165780D01*
X138051000Y-63408001D01*
X138051000Y-63650483D01*
X138064845Y-63683909D01*
X138066659Y-63720049D01*
X138144856Y-63908833D01*
X138099171Y-63912028D01*
X138048368Y-63919167D01*
X137998187Y-63929834D01*
X137948873Y-63943975D01*
X137900664Y-63961521D01*
X137853798Y-63982388D01*
X137808499Y-64006473D01*
X137764993Y-64033659D01*
X137723489Y-64063814D01*
X137684189Y-64096790D01*
X137647285Y-64132428D01*
X137612957Y-64170552D01*
X137581372Y-64210979D01*
X137014714Y-64990917D01*
X137004410Y-65006194D01*
X136993830Y-65021230D01*
X135782650Y-66877046D01*
X135782627Y-66877078D01*
X135756105Y-66920993D01*
X134677312Y-68856808D01*
X134653917Y-68902466D01*
X134653907Y-68902490D01*
X133712788Y-70908820D01*
X133692635Y-70955998D01*
X133692630Y-70956013D01*
X132893753Y-73023113D01*
X132876940Y-73071582D01*
X132876933Y-73071608D01*
X132224208Y-75189364D01*
X132224199Y-75189390D01*
X132210809Y-75238914D01*
X131707389Y-77397095D01*
X131697486Y-77447433D01*
X131345840Y-79635474D01*
X131339472Y-79686379D01*
X131141312Y-81893620D01*
X131138511Y-81944846D01*
X131094803Y-84160533D01*
X131095581Y-84211829D01*
X131095583Y-84211858D01*
X131206538Y-86425138D01*
X131206538Y-86425167D01*
X131210894Y-86476284D01*
X131475976Y-88676491D01*
X131483886Y-88727180D01*
X131901800Y-90903537D01*
X131913227Y-90953551D01*
X132481934Y-93095432D01*
X132481939Y-93095452D01*
X132496827Y-93144547D01*
X133213564Y-95241561D01*
X133231840Y-95289497D01*
X133231851Y-95289521D01*
X134093107Y-97331391D01*
X134093112Y-97331405D01*
X134104687Y-97356375D01*
X134114688Y-97377951D01*
X134114694Y-97377962D01*
X135116298Y-99354805D01*
X135141068Y-99399732D01*
X135141076Y-99399744D01*
X136278130Y-101301890D01*
X136278137Y-101301903D01*
X136305981Y-101344992D01*
X137572969Y-103163211D01*
X137603750Y-103204253D01*
X137637319Y-103243047D01*
X137673513Y-103279405D01*
X137712155Y-103313150D01*
X137753057Y-103344118D01*
X137796018Y-103372157D01*
X137840833Y-103397131D01*
X137887279Y-103418917D01*
X137935131Y-103437411D01*
X137984157Y-103452522D01*
X138034118Y-103464176D01*
X138084771Y-103472316D01*
X138135868Y-103476903D01*
X138155988Y-103477300D01*
X138143794Y-103511493D01*
X138051000Y-103735517D01*
X138051000Y-103771696D01*
X138038845Y-103805780D01*
X138051000Y-104048001D01*
X138051000Y-104290483D01*
X138064845Y-104323909D01*
X138066659Y-104360049D01*
X138225258Y-104742941D01*
X138240183Y-104747210D01*
X138263376Y-104803204D01*
X138655796Y-105195624D01*
X138711790Y-105218817D01*
X138716059Y-105233742D01*
X138843863Y-105279320D01*
X138716059Y-105332258D01*
X138711790Y-105347183D01*
X138655796Y-105370376D01*
X138263376Y-105762796D01*
X138240183Y-105818790D01*
X138225258Y-105823059D01*
X138143794Y-106051493D01*
X138051000Y-106275517D01*
X138051000Y-106311696D01*
X138038845Y-106345780D01*
X138051000Y-106588001D01*
X138051000Y-106823672D01*
X137828083Y-106661713D01*
X137812806Y-106651409D01*
X137797770Y-106640829D01*
X135941954Y-105429649D01*
X135941922Y-105429626D01*
X135898007Y-105403104D01*
X133962192Y-104324311D01*
X133916534Y-104300916D01*
X133916510Y-104300906D01*
X131910192Y-103359793D01*
X131910181Y-103359787D01*
X131882575Y-103347995D01*
X131863002Y-103339634D01*
X131862987Y-103339629D01*
X129795887Y-102540752D01*
X129747418Y-102523939D01*
X129747392Y-102523932D01*
X127629636Y-101871207D01*
X127629610Y-101871198D01*
X127580086Y-101857808D01*
X125421905Y-101354388D01*
X125371568Y-101344485D01*
X125371563Y-101344484D01*
X123183526Y-100992839D01*
X123132621Y-100986471D01*
X120925380Y-100788311D01*
X120874154Y-100785510D01*
X118658467Y-100741802D01*
X118607171Y-100742580D01*
X118607144Y-100742582D01*
X116393862Y-100853537D01*
X116393833Y-100853537D01*
X116342716Y-100857893D01*
X114142509Y-101122975D01*
X114091820Y-101130885D01*
X114091815Y-101130886D01*
X111915463Y-101548799D01*
X111865450Y-101560226D01*
X109723547Y-102128938D01*
X109680184Y-102142088D01*
X109674453Y-102143826D01*
X107577439Y-102860563D01*
X107529503Y-102878839D01*
X105487620Y-103740102D01*
X105487595Y-103740111D01*
X105441050Y-103761687D01*
X103464206Y-104763292D01*
X103464194Y-104763297D01*
X103419268Y-104788067D01*
X101517110Y-105925129D01*
X101517097Y-105925136D01*
X101500183Y-105936065D01*
X101474008Y-105952979D01*
X101473989Y-105952993D01*
X100195430Y-106843931D01*
X100201000Y-106830483D01*
X100201000Y-106794304D01*
X100213155Y-106760220D01*
X100201000Y-106517999D01*
X100201000Y-106275517D01*
X100187155Y-106242091D01*
X100185341Y-106205951D01*
X100026742Y-105823059D01*
X100011817Y-105818790D01*
X99988624Y-105762796D01*
X99596204Y-105370376D01*
X99540210Y-105347183D01*
X99535941Y-105332258D01*
X99408137Y-105286680D01*
X99535941Y-105233742D01*
X99540210Y-105218817D01*
X99596204Y-105195624D01*
X99988624Y-104803204D01*
X100011817Y-104747210D01*
X100026742Y-104742941D01*
X100108206Y-104514507D01*
X100201000Y-104290483D01*
X100201000Y-104254304D01*
X100213155Y-104220220D01*
X100201000Y-103977999D01*
X100201000Y-103735517D01*
X100187155Y-103702091D01*
X100185341Y-103665951D01*
X100107144Y-103477167D01*
X100152830Y-103473972D01*
X100203633Y-103466833D01*
X100253814Y-103456167D01*
X100303128Y-103442025D01*
X100351336Y-103424479D01*
X100398203Y-103403613D01*
X100443501Y-103379527D01*
X100487008Y-103352342D01*
X100528512Y-103322186D01*
X100567812Y-103289210D01*
X100604716Y-103253573D01*
X100639044Y-103215448D01*
X100670629Y-103175021D01*
X101237286Y-102395083D01*
X101247578Y-102379825D01*
X101258171Y-102364769D01*
X102469360Y-100508941D01*
X102469374Y-100508921D01*
X102495896Y-100465007D01*
X103574689Y-98529192D01*
X103598084Y-98483534D01*
X103598094Y-98483510D01*
X104539213Y-96477180D01*
X104553115Y-96444637D01*
X104559366Y-96430002D01*
X105358248Y-94362887D01*
X105375061Y-94314418D01*
X105375068Y-94314392D01*
X106027790Y-92196644D01*
X106027802Y-92196610D01*
X106041192Y-92147086D01*
X106544612Y-89988904D01*
X106554515Y-89938567D01*
X106906161Y-87750526D01*
X106909753Y-87721816D01*
X106912529Y-87699621D01*
X107110689Y-85492380D01*
X107113490Y-85441155D01*
X107113490Y-85441154D01*
X107157198Y-83225467D01*
X107156420Y-83174171D01*
X107156418Y-83174144D01*
X107045463Y-80960862D01*
X107045463Y-80960833D01*
X107041107Y-80909716D01*
X106776025Y-78709509D01*
X106768115Y-78658820D01*
X106768114Y-78658815D01*
X106350201Y-76482463D01*
X106338774Y-76432450D01*
X105770062Y-74290547D01*
X105755174Y-74241453D01*
X105038437Y-72144439D01*
X105020161Y-72096503D01*
X104158898Y-70054620D01*
X104158889Y-70054595D01*
X104137313Y-70008050D01*
X103135703Y-68031195D01*
X103135703Y-68031194D01*
X103110933Y-67986268D01*
X101973871Y-66084110D01*
X101973864Y-66084097D01*
X101953022Y-66051843D01*
X101946021Y-66041008D01*
X101946007Y-66040989D01*
X100679032Y-64222789D01*
X100648251Y-64181747D01*
X100614682Y-64142953D01*
X100578488Y-64106595D01*
X100539846Y-64072850D01*
X100498944Y-64041882D01*
X100455983Y-64013843D01*
X100411168Y-63988869D01*
X100364722Y-63967083D01*
X100316870Y-63948589D01*
X100267844Y-63933478D01*
X100217883Y-63921824D01*
X100167230Y-63913684D01*
X100116133Y-63909097D01*
X100096012Y-63908700D01*
X100108206Y-63874507D01*
X100201000Y-63650483D01*
X100201000Y-63614304D01*
X100213155Y-63580220D01*
X100201000Y-63337999D01*
X100201000Y-63095517D01*
X100187155Y-63062091D01*
X100185341Y-63025951D01*
X100026742Y-62643059D01*
X100011817Y-62638790D01*
X99988624Y-62582796D01*
X99596204Y-62190376D01*
X99540210Y-62167183D01*
X99535941Y-62152258D01*
X99408137Y-62106680D01*
X99535941Y-62053742D01*
X99540210Y-62038817D01*
X99596204Y-62015624D01*
X99988624Y-61623204D01*
X100011817Y-61567210D01*
X100026742Y-61562941D01*
X100108206Y-61334507D01*
X100201000Y-61110483D01*
X100201000Y-61074304D01*
X100213155Y-61040220D01*
X100201000Y-60797999D01*
X100201000Y-60562327D01*
X100423916Y-60724285D01*
X100439174Y-60734577D01*
X100454230Y-60745170D01*
X102310058Y-61956359D01*
X102310078Y-61956373D01*
X102353992Y-61982895D01*
X104289807Y-63061688D01*
X104335465Y-63085083D01*
X104335489Y-63085093D01*
X106341807Y-64026206D01*
X106341818Y-64026212D01*
X106388997Y-64046365D01*
X108456112Y-64845247D01*
X108504581Y-64862060D01*
X108504607Y-64862067D01*
X110622355Y-65514789D01*
X110622389Y-65514801D01*
X110671913Y-65528191D01*
X112830088Y-66031609D01*
X112830094Y-66031611D01*
X112880432Y-66041514D01*
X115068468Y-66393159D01*
X115068472Y-66393160D01*
X115119378Y-66399528D01*
X117326619Y-66597688D01*
X117377844Y-66600489D01*
X117377845Y-66600489D01*
X119593532Y-66644197D01*
X119644828Y-66643419D01*
X119644857Y-66643417D01*
X121858137Y-66532462D01*
X121858166Y-66532462D01*
X121909283Y-66528106D01*
X124109490Y-66263024D01*
X124160179Y-66255114D01*
X126336536Y-65837200D01*
X126386550Y-65825773D01*
X128528431Y-65257066D01*
X128528451Y-65257061D01*
X128568989Y-65244768D01*
X128577547Y-65242173D01*
X128577556Y-65242170D01*
X130674560Y-64525436D01*
X130722496Y-64507160D01*
X130722520Y-64507149D01*
X132764390Y-63645893D01*
X132764404Y-63645888D01*
X132789845Y-63634095D01*
X132810950Y-63624312D01*
X132810961Y-63624306D01*
X134787804Y-62622702D01*
X134832731Y-62597932D01*
X134832743Y-62597924D01*
X136734889Y-61460870D01*
X136734902Y-61460863D01*
X136762745Y-61442871D01*
X136777990Y-61433020D01*
X136777996Y-61433016D01*
X138056571Y-60542067D01*
X138051000Y-60555517D01*
G36*
X79805258Y-104742941D02*
X79820183Y-104747210D01*
X79843376Y-104803204D01*
X80235796Y-105195624D01*
X80291790Y-105218817D01*
X80296059Y-105233742D01*
X80423863Y-105279320D01*
X80296059Y-105332258D01*
X80291790Y-105347183D01*
X80235796Y-105370376D01*
X79843376Y-105762796D01*
X79820183Y-105818790D01*
X79805258Y-105823059D01*
X79759680Y-105950863D01*
X79706742Y-105823059D01*
X79691817Y-105818790D01*
X79668624Y-105762796D01*
X79276204Y-105370376D01*
X79220210Y-105347183D01*
X79215941Y-105332258D01*
X79088137Y-105286680D01*
X79215941Y-105233742D01*
X79220210Y-105218817D01*
X79276204Y-105195624D01*
X79668624Y-104803204D01*
X79691817Y-104747210D01*
X79706742Y-104742941D01*
X79752320Y-104615137D01*
X79805258Y-104742941D01*
X79805258Y-104742941D01*
G37*
X79805258Y-104742941D02*
X79820183Y-104747210D01*
X79843376Y-104803204D01*
X80235796Y-105195624D01*
X80291790Y-105218817D01*
X80296059Y-105233742D01*
X80423863Y-105279320D01*
X80296059Y-105332258D01*
X80291790Y-105347183D01*
X80235796Y-105370376D01*
X79843376Y-105762796D01*
X79820183Y-105818790D01*
X79805258Y-105823059D01*
X79759680Y-105950863D01*
X79706742Y-105823059D01*
X79691817Y-105818790D01*
X79668624Y-105762796D01*
X79276204Y-105370376D01*
X79220210Y-105347183D01*
X79215941Y-105332258D01*
X79088137Y-105286680D01*
X79215941Y-105233742D01*
X79220210Y-105218817D01*
X79276204Y-105195624D01*
X79668624Y-104803204D01*
X79691817Y-104747210D01*
X79706742Y-104742941D01*
X79752320Y-104615137D01*
X79805258Y-104742941D01*
G36*
X82345258Y-104742941D02*
X82360183Y-104747210D01*
X82383376Y-104803204D01*
X82775796Y-105195624D01*
X82831790Y-105218817D01*
X82836059Y-105233742D01*
X82963863Y-105279320D01*
X82836059Y-105332258D01*
X82831790Y-105347183D01*
X82775796Y-105370376D01*
X82383376Y-105762796D01*
X82360183Y-105818790D01*
X82345258Y-105823059D01*
X82299680Y-105950863D01*
X82246742Y-105823059D01*
X82231817Y-105818790D01*
X82208624Y-105762796D01*
X81816204Y-105370376D01*
X81760210Y-105347183D01*
X81755941Y-105332258D01*
X81628137Y-105286680D01*
X81755941Y-105233742D01*
X81760210Y-105218817D01*
X81816204Y-105195624D01*
X82208624Y-104803204D01*
X82231817Y-104747210D01*
X82246742Y-104742941D01*
X82292320Y-104615137D01*
X82345258Y-104742941D01*
X82345258Y-104742941D01*
G37*
X82345258Y-104742941D02*
X82360183Y-104747210D01*
X82383376Y-104803204D01*
X82775796Y-105195624D01*
X82831790Y-105218817D01*
X82836059Y-105233742D01*
X82963863Y-105279320D01*
X82836059Y-105332258D01*
X82831790Y-105347183D01*
X82775796Y-105370376D01*
X82383376Y-105762796D01*
X82360183Y-105818790D01*
X82345258Y-105823059D01*
X82299680Y-105950863D01*
X82246742Y-105823059D01*
X82231817Y-105818790D01*
X82208624Y-105762796D01*
X81816204Y-105370376D01*
X81760210Y-105347183D01*
X81755941Y-105332258D01*
X81628137Y-105286680D01*
X81755941Y-105233742D01*
X81760210Y-105218817D01*
X81816204Y-105195624D01*
X82208624Y-104803204D01*
X82231817Y-104747210D01*
X82246742Y-104742941D01*
X82292320Y-104615137D01*
X82345258Y-104742941D01*
G36*
X140765258Y-104742941D02*
X140780183Y-104747210D01*
X140803376Y-104803204D01*
X141195796Y-105195624D01*
X141251790Y-105218817D01*
X141256059Y-105233742D01*
X141383863Y-105279320D01*
X141256059Y-105332258D01*
X141251790Y-105347183D01*
X141195796Y-105370376D01*
X140803376Y-105762796D01*
X140780183Y-105818790D01*
X140765258Y-105823059D01*
X140719680Y-105950863D01*
X140666742Y-105823059D01*
X140651817Y-105818790D01*
X140628624Y-105762796D01*
X140236204Y-105370376D01*
X140180210Y-105347183D01*
X140175941Y-105332258D01*
X140048137Y-105286680D01*
X140175941Y-105233742D01*
X140180210Y-105218817D01*
X140236204Y-105195624D01*
X140628624Y-104803204D01*
X140651817Y-104747210D01*
X140666742Y-104742941D01*
X140712320Y-104615137D01*
X140765258Y-104742941D01*
X140765258Y-104742941D01*
G37*
X140765258Y-104742941D02*
X140780183Y-104747210D01*
X140803376Y-104803204D01*
X141195796Y-105195624D01*
X141251790Y-105218817D01*
X141256059Y-105233742D01*
X141383863Y-105279320D01*
X141256059Y-105332258D01*
X141251790Y-105347183D01*
X141195796Y-105370376D01*
X140803376Y-105762796D01*
X140780183Y-105818790D01*
X140765258Y-105823059D01*
X140719680Y-105950863D01*
X140666742Y-105823059D01*
X140651817Y-105818790D01*
X140628624Y-105762796D01*
X140236204Y-105370376D01*
X140180210Y-105347183D01*
X140175941Y-105332258D01*
X140048137Y-105286680D01*
X140175941Y-105233742D01*
X140180210Y-105218817D01*
X140236204Y-105195624D01*
X140628624Y-104803204D01*
X140651817Y-104747210D01*
X140666742Y-104742941D01*
X140712320Y-104615137D01*
X140765258Y-104742941D01*
G36*
X161085258Y-104742941D02*
X161100183Y-104747210D01*
X161123376Y-104803204D01*
X161515796Y-105195624D01*
X161571790Y-105218817D01*
X161576059Y-105233742D01*
X161703863Y-105279320D01*
X161576059Y-105332258D01*
X161571790Y-105347183D01*
X161515796Y-105370376D01*
X161123376Y-105762796D01*
X161100183Y-105818790D01*
X161085258Y-105823059D01*
X161039680Y-105950863D01*
X160986742Y-105823059D01*
X160971817Y-105818790D01*
X160948624Y-105762796D01*
X160556204Y-105370376D01*
X160500210Y-105347183D01*
X160495941Y-105332258D01*
X160368137Y-105286680D01*
X160495941Y-105233742D01*
X160500210Y-105218817D01*
X160556204Y-105195624D01*
X160948624Y-104803204D01*
X160971817Y-104747210D01*
X160986742Y-104742941D01*
X161032320Y-104615137D01*
X161085258Y-104742941D01*
X161085258Y-104742941D01*
G37*
X161085258Y-104742941D02*
X161100183Y-104747210D01*
X161123376Y-104803204D01*
X161515796Y-105195624D01*
X161571790Y-105218817D01*
X161576059Y-105233742D01*
X161703863Y-105279320D01*
X161576059Y-105332258D01*
X161571790Y-105347183D01*
X161515796Y-105370376D01*
X161123376Y-105762796D01*
X161100183Y-105818790D01*
X161085258Y-105823059D01*
X161039680Y-105950863D01*
X160986742Y-105823059D01*
X160971817Y-105818790D01*
X160948624Y-105762796D01*
X160556204Y-105370376D01*
X160500210Y-105347183D01*
X160495941Y-105332258D01*
X160368137Y-105286680D01*
X160495941Y-105233742D01*
X160500210Y-105218817D01*
X160556204Y-105195624D01*
X160948624Y-104803204D01*
X160971817Y-104747210D01*
X160986742Y-104742941D01*
X161032320Y-104615137D01*
X161085258Y-104742941D01*
G36*
X158545258Y-104742941D02*
X158560183Y-104747210D01*
X158583376Y-104803204D01*
X158975796Y-105195624D01*
X159031790Y-105218817D01*
X159036059Y-105233742D01*
X159163863Y-105279320D01*
X159036059Y-105332258D01*
X159031790Y-105347183D01*
X158975796Y-105370376D01*
X158583376Y-105762796D01*
X158560183Y-105818790D01*
X158545258Y-105823059D01*
X158499680Y-105950863D01*
X158446742Y-105823059D01*
X158431817Y-105818790D01*
X158408624Y-105762796D01*
X158016204Y-105370376D01*
X157960210Y-105347183D01*
X157955941Y-105332258D01*
X157828137Y-105286680D01*
X157955941Y-105233742D01*
X157960210Y-105218817D01*
X158016204Y-105195624D01*
X158408624Y-104803204D01*
X158431817Y-104747210D01*
X158446742Y-104742941D01*
X158492320Y-104615137D01*
X158545258Y-104742941D01*
X158545258Y-104742941D01*
G37*
X158545258Y-104742941D02*
X158560183Y-104747210D01*
X158583376Y-104803204D01*
X158975796Y-105195624D01*
X159031790Y-105218817D01*
X159036059Y-105233742D01*
X159163863Y-105279320D01*
X159036059Y-105332258D01*
X159031790Y-105347183D01*
X158975796Y-105370376D01*
X158583376Y-105762796D01*
X158560183Y-105818790D01*
X158545258Y-105823059D01*
X158499680Y-105950863D01*
X158446742Y-105823059D01*
X158431817Y-105818790D01*
X158408624Y-105762796D01*
X158016204Y-105370376D01*
X157960210Y-105347183D01*
X157955941Y-105332258D01*
X157828137Y-105286680D01*
X157955941Y-105233742D01*
X157960210Y-105218817D01*
X158016204Y-105195624D01*
X158408624Y-104803204D01*
X158431817Y-104747210D01*
X158446742Y-104742941D01*
X158492320Y-104615137D01*
X158545258Y-104742941D01*
G36*
X156005258Y-104742941D02*
X156020183Y-104747210D01*
X156043376Y-104803204D01*
X156435796Y-105195624D01*
X156491790Y-105218817D01*
X156496059Y-105233742D01*
X156623863Y-105279320D01*
X156496059Y-105332258D01*
X156491790Y-105347183D01*
X156435796Y-105370376D01*
X156043376Y-105762796D01*
X156020183Y-105818790D01*
X156005258Y-105823059D01*
X155959680Y-105950863D01*
X155906742Y-105823059D01*
X155891817Y-105818790D01*
X155868624Y-105762796D01*
X155476204Y-105370376D01*
X155420210Y-105347183D01*
X155415941Y-105332258D01*
X155288137Y-105286680D01*
X155415941Y-105233742D01*
X155420210Y-105218817D01*
X155476204Y-105195624D01*
X155868624Y-104803204D01*
X155891817Y-104747210D01*
X155906742Y-104742941D01*
X155952320Y-104615137D01*
X156005258Y-104742941D01*
X156005258Y-104742941D01*
G37*
X156005258Y-104742941D02*
X156020183Y-104747210D01*
X156043376Y-104803204D01*
X156435796Y-105195624D01*
X156491790Y-105218817D01*
X156496059Y-105233742D01*
X156623863Y-105279320D01*
X156496059Y-105332258D01*
X156491790Y-105347183D01*
X156435796Y-105370376D01*
X156043376Y-105762796D01*
X156020183Y-105818790D01*
X156005258Y-105823059D01*
X155959680Y-105950863D01*
X155906742Y-105823059D01*
X155891817Y-105818790D01*
X155868624Y-105762796D01*
X155476204Y-105370376D01*
X155420210Y-105347183D01*
X155415941Y-105332258D01*
X155288137Y-105286680D01*
X155415941Y-105233742D01*
X155420210Y-105218817D01*
X155476204Y-105195624D01*
X155868624Y-104803204D01*
X155891817Y-104747210D01*
X155906742Y-104742941D01*
X155952320Y-104615137D01*
X156005258Y-104742941D01*
G36*
X87425258Y-104742941D02*
X87440183Y-104747210D01*
X87463376Y-104803204D01*
X87855796Y-105195624D01*
X87911790Y-105218817D01*
X87916059Y-105233742D01*
X88043863Y-105279320D01*
X87916059Y-105332258D01*
X87911790Y-105347183D01*
X87855796Y-105370376D01*
X87463376Y-105762796D01*
X87440183Y-105818790D01*
X87425258Y-105823059D01*
X87379680Y-105950863D01*
X87326742Y-105823059D01*
X87311817Y-105818790D01*
X87288624Y-105762796D01*
X86896204Y-105370376D01*
X86840210Y-105347183D01*
X86835941Y-105332258D01*
X86708137Y-105286680D01*
X86835941Y-105233742D01*
X86840210Y-105218817D01*
X86896204Y-105195624D01*
X87288624Y-104803204D01*
X87311817Y-104747210D01*
X87326742Y-104742941D01*
X87372320Y-104615137D01*
X87425258Y-104742941D01*
X87425258Y-104742941D01*
G37*
X87425258Y-104742941D02*
X87440183Y-104747210D01*
X87463376Y-104803204D01*
X87855796Y-105195624D01*
X87911790Y-105218817D01*
X87916059Y-105233742D01*
X88043863Y-105279320D01*
X87916059Y-105332258D01*
X87911790Y-105347183D01*
X87855796Y-105370376D01*
X87463376Y-105762796D01*
X87440183Y-105818790D01*
X87425258Y-105823059D01*
X87379680Y-105950863D01*
X87326742Y-105823059D01*
X87311817Y-105818790D01*
X87288624Y-105762796D01*
X86896204Y-105370376D01*
X86840210Y-105347183D01*
X86835941Y-105332258D01*
X86708137Y-105286680D01*
X86835941Y-105233742D01*
X86840210Y-105218817D01*
X86896204Y-105195624D01*
X87288624Y-104803204D01*
X87311817Y-104747210D01*
X87326742Y-104742941D01*
X87372320Y-104615137D01*
X87425258Y-104742941D01*
G36*
X89965258Y-104742941D02*
X89980183Y-104747210D01*
X90003376Y-104803204D01*
X90395796Y-105195624D01*
X90451790Y-105218817D01*
X90456059Y-105233742D01*
X90583863Y-105279320D01*
X90456059Y-105332258D01*
X90451790Y-105347183D01*
X90395796Y-105370376D01*
X90003376Y-105762796D01*
X89980183Y-105818790D01*
X89965258Y-105823059D01*
X89919680Y-105950863D01*
X89866742Y-105823059D01*
X89851817Y-105818790D01*
X89828624Y-105762796D01*
X89436204Y-105370376D01*
X89380210Y-105347183D01*
X89375941Y-105332258D01*
X89248137Y-105286680D01*
X89375941Y-105233742D01*
X89380210Y-105218817D01*
X89436204Y-105195624D01*
X89828624Y-104803204D01*
X89851817Y-104747210D01*
X89866742Y-104742941D01*
X89912320Y-104615137D01*
X89965258Y-104742941D01*
X89965258Y-104742941D01*
G37*
X89965258Y-104742941D02*
X89980183Y-104747210D01*
X90003376Y-104803204D01*
X90395796Y-105195624D01*
X90451790Y-105218817D01*
X90456059Y-105233742D01*
X90583863Y-105279320D01*
X90456059Y-105332258D01*
X90451790Y-105347183D01*
X90395796Y-105370376D01*
X90003376Y-105762796D01*
X89980183Y-105818790D01*
X89965258Y-105823059D01*
X89919680Y-105950863D01*
X89866742Y-105823059D01*
X89851817Y-105818790D01*
X89828624Y-105762796D01*
X89436204Y-105370376D01*
X89380210Y-105347183D01*
X89375941Y-105332258D01*
X89248137Y-105286680D01*
X89375941Y-105233742D01*
X89380210Y-105218817D01*
X89436204Y-105195624D01*
X89828624Y-104803204D01*
X89851817Y-104747210D01*
X89866742Y-104742941D01*
X89912320Y-104615137D01*
X89965258Y-104742941D01*
G36*
X92505258Y-104742941D02*
X92520183Y-104747210D01*
X92543376Y-104803204D01*
X92935796Y-105195624D01*
X92991790Y-105218817D01*
X92996059Y-105233742D01*
X93123863Y-105279320D01*
X92996059Y-105332258D01*
X92991790Y-105347183D01*
X92935796Y-105370376D01*
X92543376Y-105762796D01*
X92520183Y-105818790D01*
X92505258Y-105823059D01*
X92459680Y-105950863D01*
X92406742Y-105823059D01*
X92391817Y-105818790D01*
X92368624Y-105762796D01*
X91976204Y-105370376D01*
X91920210Y-105347183D01*
X91915941Y-105332258D01*
X91788137Y-105286680D01*
X91915941Y-105233742D01*
X91920210Y-105218817D01*
X91976204Y-105195624D01*
X92368624Y-104803204D01*
X92391817Y-104747210D01*
X92406742Y-104742941D01*
X92452320Y-104615137D01*
X92505258Y-104742941D01*
X92505258Y-104742941D01*
G37*
X92505258Y-104742941D02*
X92520183Y-104747210D01*
X92543376Y-104803204D01*
X92935796Y-105195624D01*
X92991790Y-105218817D01*
X92996059Y-105233742D01*
X93123863Y-105279320D01*
X92996059Y-105332258D01*
X92991790Y-105347183D01*
X92935796Y-105370376D01*
X92543376Y-105762796D01*
X92520183Y-105818790D01*
X92505258Y-105823059D01*
X92459680Y-105950863D01*
X92406742Y-105823059D01*
X92391817Y-105818790D01*
X92368624Y-105762796D01*
X91976204Y-105370376D01*
X91920210Y-105347183D01*
X91915941Y-105332258D01*
X91788137Y-105286680D01*
X91915941Y-105233742D01*
X91920210Y-105218817D01*
X91976204Y-105195624D01*
X92368624Y-104803204D01*
X92391817Y-104747210D01*
X92406742Y-104742941D01*
X92452320Y-104615137D01*
X92505258Y-104742941D01*
G36*
X97585258Y-104742941D02*
X97600183Y-104747210D01*
X97623376Y-104803204D01*
X98015796Y-105195624D01*
X98071790Y-105218817D01*
X98076059Y-105233742D01*
X98203863Y-105279320D01*
X98076059Y-105332258D01*
X98071790Y-105347183D01*
X98015796Y-105370376D01*
X97623376Y-105762796D01*
X97600183Y-105818790D01*
X97585258Y-105823059D01*
X97539680Y-105950863D01*
X97486742Y-105823059D01*
X97471817Y-105818790D01*
X97448624Y-105762796D01*
X97056204Y-105370376D01*
X97000210Y-105347183D01*
X96995941Y-105332258D01*
X96868137Y-105286680D01*
X96995941Y-105233742D01*
X97000210Y-105218817D01*
X97056204Y-105195624D01*
X97448624Y-104803204D01*
X97471817Y-104747210D01*
X97486742Y-104742941D01*
X97532320Y-104615137D01*
X97585258Y-104742941D01*
X97585258Y-104742941D01*
G37*
X97585258Y-104742941D02*
X97600183Y-104747210D01*
X97623376Y-104803204D01*
X98015796Y-105195624D01*
X98071790Y-105218817D01*
X98076059Y-105233742D01*
X98203863Y-105279320D01*
X98076059Y-105332258D01*
X98071790Y-105347183D01*
X98015796Y-105370376D01*
X97623376Y-105762796D01*
X97600183Y-105818790D01*
X97585258Y-105823059D01*
X97539680Y-105950863D01*
X97486742Y-105823059D01*
X97471817Y-105818790D01*
X97448624Y-105762796D01*
X97056204Y-105370376D01*
X97000210Y-105347183D01*
X96995941Y-105332258D01*
X96868137Y-105286680D01*
X96995941Y-105233742D01*
X97000210Y-105218817D01*
X97056204Y-105195624D01*
X97448624Y-104803204D01*
X97471817Y-104747210D01*
X97486742Y-104742941D01*
X97532320Y-104615137D01*
X97585258Y-104742941D01*
G36*
X77265258Y-104742941D02*
X77280183Y-104747210D01*
X77303376Y-104803204D01*
X77695796Y-105195624D01*
X77751790Y-105218817D01*
X77756059Y-105233742D01*
X77883863Y-105279320D01*
X77756059Y-105332258D01*
X77751790Y-105347183D01*
X77695796Y-105370376D01*
X77303376Y-105762796D01*
X77280183Y-105818790D01*
X77265258Y-105823059D01*
X77219680Y-105950863D01*
X77166742Y-105823059D01*
X77151817Y-105818790D01*
X77128624Y-105762796D01*
X76736204Y-105370376D01*
X76680210Y-105347183D01*
X76675941Y-105332258D01*
X76548137Y-105286680D01*
X76675941Y-105233742D01*
X76680210Y-105218817D01*
X76736204Y-105195624D01*
X77128624Y-104803204D01*
X77151817Y-104747210D01*
X77166742Y-104742941D01*
X77212320Y-104615137D01*
X77265258Y-104742941D01*
X77265258Y-104742941D01*
G37*
X77265258Y-104742941D02*
X77280183Y-104747210D01*
X77303376Y-104803204D01*
X77695796Y-105195624D01*
X77751790Y-105218817D01*
X77756059Y-105233742D01*
X77883863Y-105279320D01*
X77756059Y-105332258D01*
X77751790Y-105347183D01*
X77695796Y-105370376D01*
X77303376Y-105762796D01*
X77280183Y-105818790D01*
X77265258Y-105823059D01*
X77219680Y-105950863D01*
X77166742Y-105823059D01*
X77151817Y-105818790D01*
X77128624Y-105762796D01*
X76736204Y-105370376D01*
X76680210Y-105347183D01*
X76675941Y-105332258D01*
X76548137Y-105286680D01*
X76675941Y-105233742D01*
X76680210Y-105218817D01*
X76736204Y-105195624D01*
X77128624Y-104803204D01*
X77151817Y-104747210D01*
X77166742Y-104742941D01*
X77212320Y-104615137D01*
X77265258Y-104742941D01*
G36*
X143305258Y-104742941D02*
X143320183Y-104747210D01*
X143343376Y-104803204D01*
X143735796Y-105195624D01*
X143791790Y-105218817D01*
X143796059Y-105233742D01*
X143923863Y-105279320D01*
X143796059Y-105332258D01*
X143791790Y-105347183D01*
X143735796Y-105370376D01*
X143343376Y-105762796D01*
X143320183Y-105818790D01*
X143305258Y-105823059D01*
X143259680Y-105950863D01*
X143206742Y-105823059D01*
X143191817Y-105818790D01*
X143168624Y-105762796D01*
X142776204Y-105370376D01*
X142720210Y-105347183D01*
X142715941Y-105332258D01*
X142588137Y-105286680D01*
X142715941Y-105233742D01*
X142720210Y-105218817D01*
X142776204Y-105195624D01*
X143168624Y-104803204D01*
X143191817Y-104747210D01*
X143206742Y-104742941D01*
X143252320Y-104615137D01*
X143305258Y-104742941D01*
X143305258Y-104742941D01*
G37*
X143305258Y-104742941D02*
X143320183Y-104747210D01*
X143343376Y-104803204D01*
X143735796Y-105195624D01*
X143791790Y-105218817D01*
X143796059Y-105233742D01*
X143923863Y-105279320D01*
X143796059Y-105332258D01*
X143791790Y-105347183D01*
X143735796Y-105370376D01*
X143343376Y-105762796D01*
X143320183Y-105818790D01*
X143305258Y-105823059D01*
X143259680Y-105950863D01*
X143206742Y-105823059D01*
X143191817Y-105818790D01*
X143168624Y-105762796D01*
X142776204Y-105370376D01*
X142720210Y-105347183D01*
X142715941Y-105332258D01*
X142588137Y-105286680D01*
X142715941Y-105233742D01*
X142720210Y-105218817D01*
X142776204Y-105195624D01*
X143168624Y-104803204D01*
X143191817Y-104747210D01*
X143206742Y-104742941D01*
X143252320Y-104615137D01*
X143305258Y-104742941D01*
G36*
X145845258Y-104742941D02*
X145860183Y-104747210D01*
X145883376Y-104803204D01*
X146275796Y-105195624D01*
X146331790Y-105218817D01*
X146336059Y-105233742D01*
X146463863Y-105279320D01*
X146336059Y-105332258D01*
X146331790Y-105347183D01*
X146275796Y-105370376D01*
X145883376Y-105762796D01*
X145860183Y-105818790D01*
X145845258Y-105823059D01*
X145799680Y-105950863D01*
X145746742Y-105823059D01*
X145731817Y-105818790D01*
X145708624Y-105762796D01*
X145316204Y-105370376D01*
X145260210Y-105347183D01*
X145255941Y-105332258D01*
X145128137Y-105286680D01*
X145255941Y-105233742D01*
X145260210Y-105218817D01*
X145316204Y-105195624D01*
X145708624Y-104803204D01*
X145731817Y-104747210D01*
X145746742Y-104742941D01*
X145792320Y-104615137D01*
X145845258Y-104742941D01*
X145845258Y-104742941D01*
G37*
X145845258Y-104742941D02*
X145860183Y-104747210D01*
X145883376Y-104803204D01*
X146275796Y-105195624D01*
X146331790Y-105218817D01*
X146336059Y-105233742D01*
X146463863Y-105279320D01*
X146336059Y-105332258D01*
X146331790Y-105347183D01*
X146275796Y-105370376D01*
X145883376Y-105762796D01*
X145860183Y-105818790D01*
X145845258Y-105823059D01*
X145799680Y-105950863D01*
X145746742Y-105823059D01*
X145731817Y-105818790D01*
X145708624Y-105762796D01*
X145316204Y-105370376D01*
X145260210Y-105347183D01*
X145255941Y-105332258D01*
X145128137Y-105286680D01*
X145255941Y-105233742D01*
X145260210Y-105218817D01*
X145316204Y-105195624D01*
X145708624Y-104803204D01*
X145731817Y-104747210D01*
X145746742Y-104742941D01*
X145792320Y-104615137D01*
X145845258Y-104742941D01*
G36*
X148385258Y-104742941D02*
X148400183Y-104747210D01*
X148423376Y-104803204D01*
X148815796Y-105195624D01*
X148871790Y-105218817D01*
X148876059Y-105233742D01*
X149003863Y-105279320D01*
X148876059Y-105332258D01*
X148871790Y-105347183D01*
X148815796Y-105370376D01*
X148423376Y-105762796D01*
X148400183Y-105818790D01*
X148385258Y-105823059D01*
X148339680Y-105950863D01*
X148286742Y-105823059D01*
X148271817Y-105818790D01*
X148248624Y-105762796D01*
X147856204Y-105370376D01*
X147800210Y-105347183D01*
X147795941Y-105332258D01*
X147668137Y-105286680D01*
X147795941Y-105233742D01*
X147800210Y-105218817D01*
X147856204Y-105195624D01*
X148248624Y-104803204D01*
X148271817Y-104747210D01*
X148286742Y-104742941D01*
X148332320Y-104615137D01*
X148385258Y-104742941D01*
X148385258Y-104742941D01*
G37*
X148385258Y-104742941D02*
X148400183Y-104747210D01*
X148423376Y-104803204D01*
X148815796Y-105195624D01*
X148871790Y-105218817D01*
X148876059Y-105233742D01*
X149003863Y-105279320D01*
X148876059Y-105332258D01*
X148871790Y-105347183D01*
X148815796Y-105370376D01*
X148423376Y-105762796D01*
X148400183Y-105818790D01*
X148385258Y-105823059D01*
X148339680Y-105950863D01*
X148286742Y-105823059D01*
X148271817Y-105818790D01*
X148248624Y-105762796D01*
X147856204Y-105370376D01*
X147800210Y-105347183D01*
X147795941Y-105332258D01*
X147668137Y-105286680D01*
X147795941Y-105233742D01*
X147800210Y-105218817D01*
X147856204Y-105195624D01*
X148248624Y-104803204D01*
X148271817Y-104747210D01*
X148286742Y-104742941D01*
X148332320Y-104615137D01*
X148385258Y-104742941D01*
G36*
X150925258Y-104742941D02*
X150940183Y-104747210D01*
X150963376Y-104803204D01*
X151355796Y-105195624D01*
X151411790Y-105218817D01*
X151416059Y-105233742D01*
X151543863Y-105279320D01*
X151416059Y-105332258D01*
X151411790Y-105347183D01*
X151355796Y-105370376D01*
X150963376Y-105762796D01*
X150940183Y-105818790D01*
X150925258Y-105823059D01*
X150879680Y-105950863D01*
X150826742Y-105823059D01*
X150811817Y-105818790D01*
X150788624Y-105762796D01*
X150396204Y-105370376D01*
X150340210Y-105347183D01*
X150335941Y-105332258D01*
X150208137Y-105286680D01*
X150335941Y-105233742D01*
X150340210Y-105218817D01*
X150396204Y-105195624D01*
X150788624Y-104803204D01*
X150811817Y-104747210D01*
X150826742Y-104742941D01*
X150872320Y-104615137D01*
X150925258Y-104742941D01*
X150925258Y-104742941D01*
G37*
X150925258Y-104742941D02*
X150940183Y-104747210D01*
X150963376Y-104803204D01*
X151355796Y-105195624D01*
X151411790Y-105218817D01*
X151416059Y-105233742D01*
X151543863Y-105279320D01*
X151416059Y-105332258D01*
X151411790Y-105347183D01*
X151355796Y-105370376D01*
X150963376Y-105762796D01*
X150940183Y-105818790D01*
X150925258Y-105823059D01*
X150879680Y-105950863D01*
X150826742Y-105823059D01*
X150811817Y-105818790D01*
X150788624Y-105762796D01*
X150396204Y-105370376D01*
X150340210Y-105347183D01*
X150335941Y-105332258D01*
X150208137Y-105286680D01*
X150335941Y-105233742D01*
X150340210Y-105218817D01*
X150396204Y-105195624D01*
X150788624Y-104803204D01*
X150811817Y-104747210D01*
X150826742Y-104742941D01*
X150872320Y-104615137D01*
X150925258Y-104742941D01*
G36*
X84885258Y-104742941D02*
X84900183Y-104747210D01*
X84923376Y-104803204D01*
X85315796Y-105195624D01*
X85371790Y-105218817D01*
X85376059Y-105233742D01*
X85503863Y-105279320D01*
X85376059Y-105332258D01*
X85371790Y-105347183D01*
X85315796Y-105370376D01*
X84923376Y-105762796D01*
X84900183Y-105818790D01*
X84885258Y-105823059D01*
X84839680Y-105950863D01*
X84786742Y-105823059D01*
X84771817Y-105818790D01*
X84748624Y-105762796D01*
X84356204Y-105370376D01*
X84300210Y-105347183D01*
X84295941Y-105332258D01*
X84168137Y-105286680D01*
X84295941Y-105233742D01*
X84300210Y-105218817D01*
X84356204Y-105195624D01*
X84748624Y-104803204D01*
X84771817Y-104747210D01*
X84786742Y-104742941D01*
X84832320Y-104615137D01*
X84885258Y-104742941D01*
X84885258Y-104742941D01*
G37*
X84885258Y-104742941D02*
X84900183Y-104747210D01*
X84923376Y-104803204D01*
X85315796Y-105195624D01*
X85371790Y-105218817D01*
X85376059Y-105233742D01*
X85503863Y-105279320D01*
X85376059Y-105332258D01*
X85371790Y-105347183D01*
X85315796Y-105370376D01*
X84923376Y-105762796D01*
X84900183Y-105818790D01*
X84885258Y-105823059D01*
X84839680Y-105950863D01*
X84786742Y-105823059D01*
X84771817Y-105818790D01*
X84748624Y-105762796D01*
X84356204Y-105370376D01*
X84300210Y-105347183D01*
X84295941Y-105332258D01*
X84168137Y-105286680D01*
X84295941Y-105233742D01*
X84300210Y-105218817D01*
X84356204Y-105195624D01*
X84748624Y-104803204D01*
X84771817Y-104747210D01*
X84786742Y-104742941D01*
X84832320Y-104615137D01*
X84885258Y-104742941D01*
G36*
X153465258Y-104742941D02*
X153480183Y-104747210D01*
X153503376Y-104803204D01*
X153895796Y-105195624D01*
X153951790Y-105218817D01*
X153956059Y-105233742D01*
X154083863Y-105279320D01*
X153956059Y-105332258D01*
X153951790Y-105347183D01*
X153895796Y-105370376D01*
X153503376Y-105762796D01*
X153480183Y-105818790D01*
X153465258Y-105823059D01*
X153419680Y-105950863D01*
X153366742Y-105823059D01*
X153351817Y-105818790D01*
X153328624Y-105762796D01*
X152936204Y-105370376D01*
X152880210Y-105347183D01*
X152875941Y-105332258D01*
X152748137Y-105286680D01*
X152875941Y-105233742D01*
X152880210Y-105218817D01*
X152936204Y-105195624D01*
X153328624Y-104803204D01*
X153351817Y-104747210D01*
X153366742Y-104742941D01*
X153412320Y-104615137D01*
X153465258Y-104742941D01*
X153465258Y-104742941D01*
G37*
X153465258Y-104742941D02*
X153480183Y-104747210D01*
X153503376Y-104803204D01*
X153895796Y-105195624D01*
X153951790Y-105218817D01*
X153956059Y-105233742D01*
X154083863Y-105279320D01*
X153956059Y-105332258D01*
X153951790Y-105347183D01*
X153895796Y-105370376D01*
X153503376Y-105762796D01*
X153480183Y-105818790D01*
X153465258Y-105823059D01*
X153419680Y-105950863D01*
X153366742Y-105823059D01*
X153351817Y-105818790D01*
X153328624Y-105762796D01*
X152936204Y-105370376D01*
X152880210Y-105347183D01*
X152875941Y-105332258D01*
X152748137Y-105286680D01*
X152875941Y-105233742D01*
X152880210Y-105218817D01*
X152936204Y-105195624D01*
X153328624Y-104803204D01*
X153351817Y-104747210D01*
X153366742Y-104742941D01*
X153412320Y-104615137D01*
X153465258Y-104742941D01*
G36*
X95045258Y-104742941D02*
X95060183Y-104747210D01*
X95083376Y-104803204D01*
X95475796Y-105195624D01*
X95531790Y-105218817D01*
X95536059Y-105233742D01*
X95663863Y-105279320D01*
X95536059Y-105332258D01*
X95531790Y-105347183D01*
X95475796Y-105370376D01*
X95083376Y-105762796D01*
X95060183Y-105818790D01*
X95045258Y-105823059D01*
X94999680Y-105950863D01*
X94946742Y-105823059D01*
X94931817Y-105818790D01*
X94908624Y-105762796D01*
X94516204Y-105370376D01*
X94460210Y-105347183D01*
X94455941Y-105332258D01*
X94328137Y-105286680D01*
X94455941Y-105233742D01*
X94460210Y-105218817D01*
X94516204Y-105195624D01*
X94908624Y-104803204D01*
X94931817Y-104747210D01*
X94946742Y-104742941D01*
X94992320Y-104615137D01*
X95045258Y-104742941D01*
X95045258Y-104742941D01*
G37*
X95045258Y-104742941D02*
X95060183Y-104747210D01*
X95083376Y-104803204D01*
X95475796Y-105195624D01*
X95531790Y-105218817D01*
X95536059Y-105233742D01*
X95663863Y-105279320D01*
X95536059Y-105332258D01*
X95531790Y-105347183D01*
X95475796Y-105370376D01*
X95083376Y-105762796D01*
X95060183Y-105818790D01*
X95045258Y-105823059D01*
X94999680Y-105950863D01*
X94946742Y-105823059D01*
X94931817Y-105818790D01*
X94908624Y-105762796D01*
X94516204Y-105370376D01*
X94460210Y-105347183D01*
X94455941Y-105332258D01*
X94328137Y-105286680D01*
X94455941Y-105233742D01*
X94460210Y-105218817D01*
X94516204Y-105195624D01*
X94908624Y-104803204D01*
X94931817Y-104747210D01*
X94946742Y-104742941D01*
X94992320Y-104615137D01*
X95045258Y-104742941D01*
G36*
X100725282Y-66860372D02*
X101836010Y-68718477D01*
X102814425Y-70649553D01*
X103655740Y-72644148D01*
X104355876Y-74692591D01*
X104911413Y-76784869D01*
X105319650Y-78910831D01*
X105578591Y-81060071D01*
X105686978Y-83222135D01*
X105644282Y-85386496D01*
X105450712Y-87542617D01*
X105107213Y-89679966D01*
X104615451Y-91788167D01*
X103977831Y-93856914D01*
X103197452Y-95876152D01*
X102278129Y-97836017D01*
X101224319Y-99727002D01*
X100037218Y-101545922D01*
X99683335Y-102033000D01*
X74803000Y-102033000D01*
X74803000Y-65353000D01*
X99674901Y-65353000D01*
X100725282Y-66860372D01*
X100725282Y-66860372D01*
G37*
X100725282Y-66860372D02*
X101836010Y-68718477D01*
X102814425Y-70649553D01*
X103655740Y-72644148D01*
X104355876Y-74692591D01*
X104911413Y-76784869D01*
X105319650Y-78910831D01*
X105578591Y-81060071D01*
X105686978Y-83222135D01*
X105644282Y-85386496D01*
X105450712Y-87542617D01*
X105107213Y-89679966D01*
X104615451Y-91788167D01*
X103977831Y-93856914D01*
X103197452Y-95876152D01*
X102278129Y-97836017D01*
X101224319Y-99727002D01*
X100037218Y-101545922D01*
X99683335Y-102033000D01*
X74803000Y-102033000D01*
X74803000Y-65353000D01*
X99674901Y-65353000D01*
X100725282Y-66860372D01*
G36*
X163449000Y-102033000D02*
X138577100Y-102033000D01*
X137526723Y-100525634D01*
X136415991Y-98667523D01*
X135437582Y-96736459D01*
X134596263Y-94741857D01*
X133896124Y-92693406D01*
X133340585Y-90601115D01*
X132932351Y-88475169D01*
X132673410Y-86325930D01*
X132565023Y-84163865D01*
X132607719Y-81999504D01*
X132801289Y-79843383D01*
X133144788Y-77706034D01*
X133636549Y-75597836D01*
X134274166Y-73529097D01*
X135054549Y-71509848D01*
X135973872Y-69549983D01*
X137027686Y-67658992D01*
X138214783Y-65840078D01*
X138568665Y-65353000D01*
X163449000Y-65353000D01*
X163449000Y-102033000D01*
X163449000Y-102033000D01*
G37*
X163449000Y-102033000D02*
X138577100Y-102033000D01*
X137526723Y-100525634D01*
X136415991Y-98667523D01*
X135437582Y-96736459D01*
X134596263Y-94741857D01*
X133896124Y-92693406D01*
X133340585Y-90601115D01*
X132932351Y-88475169D01*
X132673410Y-86325930D01*
X132565023Y-84163865D01*
X132607719Y-81999504D01*
X132801289Y-79843383D01*
X133144788Y-77706034D01*
X133636549Y-75597836D01*
X134274166Y-73529097D01*
X135054549Y-71509848D01*
X135973872Y-69549983D01*
X137027686Y-67658992D01*
X138214783Y-65840078D01*
X138568665Y-65353000D01*
X163449000Y-65353000D01*
X163449000Y-102033000D01*
G36*
X135958633Y-60212277D02*
X134100522Y-61323009D01*
X132169458Y-62301418D01*
X130174856Y-63142737D01*
X128126405Y-63842876D01*
X126034114Y-64398415D01*
X123908168Y-64806649D01*
X121758929Y-65065590D01*
X119596864Y-65173977D01*
X117432503Y-65131281D01*
X115276382Y-64937711D01*
X113139033Y-64594212D01*
X111030832Y-64102450D01*
X108962085Y-63464830D01*
X106942847Y-62684451D01*
X104982982Y-61765128D01*
X103091997Y-60711318D01*
X101527096Y-59690000D01*
X136708138Y-59690000D01*
X135958633Y-60212277D01*
X135958633Y-60212277D01*
G37*
X135958633Y-60212277D02*
X134100522Y-61323009D01*
X132169458Y-62301418D01*
X130174856Y-63142737D01*
X128126405Y-63842876D01*
X126034114Y-64398415D01*
X123908168Y-64806649D01*
X121758929Y-65065590D01*
X119596864Y-65173977D01*
X117432503Y-65131281D01*
X115276382Y-64937711D01*
X113139033Y-64594212D01*
X111030832Y-64102450D01*
X108962085Y-63464830D01*
X106942847Y-62684451D01*
X104982982Y-61765128D01*
X103091997Y-60711318D01*
X101527096Y-59690000D01*
X136708138Y-59690000D01*
X135958633Y-60212277D01*
G36*
X140765258Y-61562941D02*
X140780183Y-61567210D01*
X140803376Y-61623204D01*
X141195796Y-62015624D01*
X141251790Y-62038817D01*
X141256059Y-62053742D01*
X141383863Y-62099320D01*
X141256059Y-62152258D01*
X141251790Y-62167183D01*
X141195796Y-62190376D01*
X140803376Y-62582796D01*
X140780183Y-62638790D01*
X140765258Y-62643059D01*
X140719680Y-62770863D01*
X140666742Y-62643059D01*
X140651817Y-62638790D01*
X140628624Y-62582796D01*
X140236204Y-62190376D01*
X140180210Y-62167183D01*
X140175941Y-62152258D01*
X140048137Y-62106680D01*
X140175941Y-62053742D01*
X140180210Y-62038817D01*
X140236204Y-62015624D01*
X140628624Y-61623204D01*
X140651817Y-61567210D01*
X140666742Y-61562941D01*
X140712320Y-61435137D01*
X140765258Y-61562941D01*
X140765258Y-61562941D01*
G37*
X140765258Y-61562941D02*
X140780183Y-61567210D01*
X140803376Y-61623204D01*
X141195796Y-62015624D01*
X141251790Y-62038817D01*
X141256059Y-62053742D01*
X141383863Y-62099320D01*
X141256059Y-62152258D01*
X141251790Y-62167183D01*
X141195796Y-62190376D01*
X140803376Y-62582796D01*
X140780183Y-62638790D01*
X140765258Y-62643059D01*
X140719680Y-62770863D01*
X140666742Y-62643059D01*
X140651817Y-62638790D01*
X140628624Y-62582796D01*
X140236204Y-62190376D01*
X140180210Y-62167183D01*
X140175941Y-62152258D01*
X140048137Y-62106680D01*
X140175941Y-62053742D01*
X140180210Y-62038817D01*
X140236204Y-62015624D01*
X140628624Y-61623204D01*
X140651817Y-61567210D01*
X140666742Y-61562941D01*
X140712320Y-61435137D01*
X140765258Y-61562941D01*
G36*
X161085258Y-61562941D02*
X161100183Y-61567210D01*
X161123376Y-61623204D01*
X161515796Y-62015624D01*
X161571790Y-62038817D01*
X161576059Y-62053742D01*
X161703863Y-62099320D01*
X161576059Y-62152258D01*
X161571790Y-62167183D01*
X161515796Y-62190376D01*
X161123376Y-62582796D01*
X161100183Y-62638790D01*
X161085258Y-62643059D01*
X161039680Y-62770863D01*
X160986742Y-62643059D01*
X160971817Y-62638790D01*
X160948624Y-62582796D01*
X160556204Y-62190376D01*
X160500210Y-62167183D01*
X160495941Y-62152258D01*
X160368137Y-62106680D01*
X160495941Y-62053742D01*
X160500210Y-62038817D01*
X160556204Y-62015624D01*
X160948624Y-61623204D01*
X160971817Y-61567210D01*
X160986742Y-61562941D01*
X161032320Y-61435137D01*
X161085258Y-61562941D01*
X161085258Y-61562941D01*
G37*
X161085258Y-61562941D02*
X161100183Y-61567210D01*
X161123376Y-61623204D01*
X161515796Y-62015624D01*
X161571790Y-62038817D01*
X161576059Y-62053742D01*
X161703863Y-62099320D01*
X161576059Y-62152258D01*
X161571790Y-62167183D01*
X161515796Y-62190376D01*
X161123376Y-62582796D01*
X161100183Y-62638790D01*
X161085258Y-62643059D01*
X161039680Y-62770863D01*
X160986742Y-62643059D01*
X160971817Y-62638790D01*
X160948624Y-62582796D01*
X160556204Y-62190376D01*
X160500210Y-62167183D01*
X160495941Y-62152258D01*
X160368137Y-62106680D01*
X160495941Y-62053742D01*
X160500210Y-62038817D01*
X160556204Y-62015624D01*
X160948624Y-61623204D01*
X160971817Y-61567210D01*
X160986742Y-61562941D01*
X161032320Y-61435137D01*
X161085258Y-61562941D01*
G36*
X158545258Y-61562941D02*
X158560183Y-61567210D01*
X158583376Y-61623204D01*
X158975796Y-62015624D01*
X159031790Y-62038817D01*
X159036059Y-62053742D01*
X159163863Y-62099320D01*
X159036059Y-62152258D01*
X159031790Y-62167183D01*
X158975796Y-62190376D01*
X158583376Y-62582796D01*
X158560183Y-62638790D01*
X158545258Y-62643059D01*
X158499680Y-62770863D01*
X158446742Y-62643059D01*
X158431817Y-62638790D01*
X158408624Y-62582796D01*
X158016204Y-62190376D01*
X157960210Y-62167183D01*
X157955941Y-62152258D01*
X157828137Y-62106680D01*
X157955941Y-62053742D01*
X157960210Y-62038817D01*
X158016204Y-62015624D01*
X158408624Y-61623204D01*
X158431817Y-61567210D01*
X158446742Y-61562941D01*
X158492320Y-61435137D01*
X158545258Y-61562941D01*
X158545258Y-61562941D01*
G37*
X158545258Y-61562941D02*
X158560183Y-61567210D01*
X158583376Y-61623204D01*
X158975796Y-62015624D01*
X159031790Y-62038817D01*
X159036059Y-62053742D01*
X159163863Y-62099320D01*
X159036059Y-62152258D01*
X159031790Y-62167183D01*
X158975796Y-62190376D01*
X158583376Y-62582796D01*
X158560183Y-62638790D01*
X158545258Y-62643059D01*
X158499680Y-62770863D01*
X158446742Y-62643059D01*
X158431817Y-62638790D01*
X158408624Y-62582796D01*
X158016204Y-62190376D01*
X157960210Y-62167183D01*
X157955941Y-62152258D01*
X157828137Y-62106680D01*
X157955941Y-62053742D01*
X157960210Y-62038817D01*
X158016204Y-62015624D01*
X158408624Y-61623204D01*
X158431817Y-61567210D01*
X158446742Y-61562941D01*
X158492320Y-61435137D01*
X158545258Y-61562941D01*
G36*
X156005258Y-61562941D02*
X156020183Y-61567210D01*
X156043376Y-61623204D01*
X156435796Y-62015624D01*
X156491790Y-62038817D01*
X156496059Y-62053742D01*
X156623863Y-62099320D01*
X156496059Y-62152258D01*
X156491790Y-62167183D01*
X156435796Y-62190376D01*
X156043376Y-62582796D01*
X156020183Y-62638790D01*
X156005258Y-62643059D01*
X155959680Y-62770863D01*
X155906742Y-62643059D01*
X155891817Y-62638790D01*
X155868624Y-62582796D01*
X155476204Y-62190376D01*
X155420210Y-62167183D01*
X155415941Y-62152258D01*
X155288137Y-62106680D01*
X155415941Y-62053742D01*
X155420210Y-62038817D01*
X155476204Y-62015624D01*
X155868624Y-61623204D01*
X155891817Y-61567210D01*
X155906742Y-61562941D01*
X155952320Y-61435137D01*
X156005258Y-61562941D01*
X156005258Y-61562941D01*
G37*
X156005258Y-61562941D02*
X156020183Y-61567210D01*
X156043376Y-61623204D01*
X156435796Y-62015624D01*
X156491790Y-62038817D01*
X156496059Y-62053742D01*
X156623863Y-62099320D01*
X156496059Y-62152258D01*
X156491790Y-62167183D01*
X156435796Y-62190376D01*
X156043376Y-62582796D01*
X156020183Y-62638790D01*
X156005258Y-62643059D01*
X155959680Y-62770863D01*
X155906742Y-62643059D01*
X155891817Y-62638790D01*
X155868624Y-62582796D01*
X155476204Y-62190376D01*
X155420210Y-62167183D01*
X155415941Y-62152258D01*
X155288137Y-62106680D01*
X155415941Y-62053742D01*
X155420210Y-62038817D01*
X155476204Y-62015624D01*
X155868624Y-61623204D01*
X155891817Y-61567210D01*
X155906742Y-61562941D01*
X155952320Y-61435137D01*
X156005258Y-61562941D01*
G36*
X153465258Y-61562941D02*
X153480183Y-61567210D01*
X153503376Y-61623204D01*
X153895796Y-62015624D01*
X153951790Y-62038817D01*
X153956059Y-62053742D01*
X154083863Y-62099320D01*
X153956059Y-62152258D01*
X153951790Y-62167183D01*
X153895796Y-62190376D01*
X153503376Y-62582796D01*
X153480183Y-62638790D01*
X153465258Y-62643059D01*
X153419680Y-62770863D01*
X153366742Y-62643059D01*
X153351817Y-62638790D01*
X153328624Y-62582796D01*
X152936204Y-62190376D01*
X152880210Y-62167183D01*
X152875941Y-62152258D01*
X152748137Y-62106680D01*
X152875941Y-62053742D01*
X152880210Y-62038817D01*
X152936204Y-62015624D01*
X153328624Y-61623204D01*
X153351817Y-61567210D01*
X153366742Y-61562941D01*
X153412320Y-61435137D01*
X153465258Y-61562941D01*
X153465258Y-61562941D01*
G37*
X153465258Y-61562941D02*
X153480183Y-61567210D01*
X153503376Y-61623204D01*
X153895796Y-62015624D01*
X153951790Y-62038817D01*
X153956059Y-62053742D01*
X154083863Y-62099320D01*
X153956059Y-62152258D01*
X153951790Y-62167183D01*
X153895796Y-62190376D01*
X153503376Y-62582796D01*
X153480183Y-62638790D01*
X153465258Y-62643059D01*
X153419680Y-62770863D01*
X153366742Y-62643059D01*
X153351817Y-62638790D01*
X153328624Y-62582796D01*
X152936204Y-62190376D01*
X152880210Y-62167183D01*
X152875941Y-62152258D01*
X152748137Y-62106680D01*
X152875941Y-62053742D01*
X152880210Y-62038817D01*
X152936204Y-62015624D01*
X153328624Y-61623204D01*
X153351817Y-61567210D01*
X153366742Y-61562941D01*
X153412320Y-61435137D01*
X153465258Y-61562941D01*
G36*
X150925258Y-61562941D02*
X150940183Y-61567210D01*
X150963376Y-61623204D01*
X151355796Y-62015624D01*
X151411790Y-62038817D01*
X151416059Y-62053742D01*
X151543863Y-62099320D01*
X151416059Y-62152258D01*
X151411790Y-62167183D01*
X151355796Y-62190376D01*
X150963376Y-62582796D01*
X150940183Y-62638790D01*
X150925258Y-62643059D01*
X150879680Y-62770863D01*
X150826742Y-62643059D01*
X150811817Y-62638790D01*
X150788624Y-62582796D01*
X150396204Y-62190376D01*
X150340210Y-62167183D01*
X150335941Y-62152258D01*
X150208137Y-62106680D01*
X150335941Y-62053742D01*
X150340210Y-62038817D01*
X150396204Y-62015624D01*
X150788624Y-61623204D01*
X150811817Y-61567210D01*
X150826742Y-61562941D01*
X150872320Y-61435137D01*
X150925258Y-61562941D01*
X150925258Y-61562941D01*
G37*
X150925258Y-61562941D02*
X150940183Y-61567210D01*
X150963376Y-61623204D01*
X151355796Y-62015624D01*
X151411790Y-62038817D01*
X151416059Y-62053742D01*
X151543863Y-62099320D01*
X151416059Y-62152258D01*
X151411790Y-62167183D01*
X151355796Y-62190376D01*
X150963376Y-62582796D01*
X150940183Y-62638790D01*
X150925258Y-62643059D01*
X150879680Y-62770863D01*
X150826742Y-62643059D01*
X150811817Y-62638790D01*
X150788624Y-62582796D01*
X150396204Y-62190376D01*
X150340210Y-62167183D01*
X150335941Y-62152258D01*
X150208137Y-62106680D01*
X150335941Y-62053742D01*
X150340210Y-62038817D01*
X150396204Y-62015624D01*
X150788624Y-61623204D01*
X150811817Y-61567210D01*
X150826742Y-61562941D01*
X150872320Y-61435137D01*
X150925258Y-61562941D01*
G36*
X148385258Y-61562941D02*
X148400183Y-61567210D01*
X148423376Y-61623204D01*
X148815796Y-62015624D01*
X148871790Y-62038817D01*
X148876059Y-62053742D01*
X149003863Y-62099320D01*
X148876059Y-62152258D01*
X148871790Y-62167183D01*
X148815796Y-62190376D01*
X148423376Y-62582796D01*
X148400183Y-62638790D01*
X148385258Y-62643059D01*
X148339680Y-62770863D01*
X148286742Y-62643059D01*
X148271817Y-62638790D01*
X148248624Y-62582796D01*
X147856204Y-62190376D01*
X147800210Y-62167183D01*
X147795941Y-62152258D01*
X147668137Y-62106680D01*
X147795941Y-62053742D01*
X147800210Y-62038817D01*
X147856204Y-62015624D01*
X148248624Y-61623204D01*
X148271817Y-61567210D01*
X148286742Y-61562941D01*
X148332320Y-61435137D01*
X148385258Y-61562941D01*
X148385258Y-61562941D01*
G37*
X148385258Y-61562941D02*
X148400183Y-61567210D01*
X148423376Y-61623204D01*
X148815796Y-62015624D01*
X148871790Y-62038817D01*
X148876059Y-62053742D01*
X149003863Y-62099320D01*
X148876059Y-62152258D01*
X148871790Y-62167183D01*
X148815796Y-62190376D01*
X148423376Y-62582796D01*
X148400183Y-62638790D01*
X148385258Y-62643059D01*
X148339680Y-62770863D01*
X148286742Y-62643059D01*
X148271817Y-62638790D01*
X148248624Y-62582796D01*
X147856204Y-62190376D01*
X147800210Y-62167183D01*
X147795941Y-62152258D01*
X147668137Y-62106680D01*
X147795941Y-62053742D01*
X147800210Y-62038817D01*
X147856204Y-62015624D01*
X148248624Y-61623204D01*
X148271817Y-61567210D01*
X148286742Y-61562941D01*
X148332320Y-61435137D01*
X148385258Y-61562941D01*
G36*
X145845258Y-61562941D02*
X145860183Y-61567210D01*
X145883376Y-61623204D01*
X146275796Y-62015624D01*
X146331790Y-62038817D01*
X146336059Y-62053742D01*
X146463863Y-62099320D01*
X146336059Y-62152258D01*
X146331790Y-62167183D01*
X146275796Y-62190376D01*
X145883376Y-62582796D01*
X145860183Y-62638790D01*
X145845258Y-62643059D01*
X145799680Y-62770863D01*
X145746742Y-62643059D01*
X145731817Y-62638790D01*
X145708624Y-62582796D01*
X145316204Y-62190376D01*
X145260210Y-62167183D01*
X145255941Y-62152258D01*
X145128137Y-62106680D01*
X145255941Y-62053742D01*
X145260210Y-62038817D01*
X145316204Y-62015624D01*
X145708624Y-61623204D01*
X145731817Y-61567210D01*
X145746742Y-61562941D01*
X145792320Y-61435137D01*
X145845258Y-61562941D01*
X145845258Y-61562941D01*
G37*
X145845258Y-61562941D02*
X145860183Y-61567210D01*
X145883376Y-61623204D01*
X146275796Y-62015624D01*
X146331790Y-62038817D01*
X146336059Y-62053742D01*
X146463863Y-62099320D01*
X146336059Y-62152258D01*
X146331790Y-62167183D01*
X146275796Y-62190376D01*
X145883376Y-62582796D01*
X145860183Y-62638790D01*
X145845258Y-62643059D01*
X145799680Y-62770863D01*
X145746742Y-62643059D01*
X145731817Y-62638790D01*
X145708624Y-62582796D01*
X145316204Y-62190376D01*
X145260210Y-62167183D01*
X145255941Y-62152258D01*
X145128137Y-62106680D01*
X145255941Y-62053742D01*
X145260210Y-62038817D01*
X145316204Y-62015624D01*
X145708624Y-61623204D01*
X145731817Y-61567210D01*
X145746742Y-61562941D01*
X145792320Y-61435137D01*
X145845258Y-61562941D01*
G36*
X77265258Y-61562941D02*
X77280183Y-61567210D01*
X77303376Y-61623204D01*
X77695796Y-62015624D01*
X77751790Y-62038817D01*
X77756059Y-62053742D01*
X77883863Y-62099320D01*
X77756059Y-62152258D01*
X77751790Y-62167183D01*
X77695796Y-62190376D01*
X77303376Y-62582796D01*
X77280183Y-62638790D01*
X77265258Y-62643059D01*
X77219680Y-62770863D01*
X77166742Y-62643059D01*
X77151817Y-62638790D01*
X77128624Y-62582796D01*
X76736204Y-62190376D01*
X76680210Y-62167183D01*
X76675941Y-62152258D01*
X76548137Y-62106680D01*
X76675941Y-62053742D01*
X76680210Y-62038817D01*
X76736204Y-62015624D01*
X77128624Y-61623204D01*
X77151817Y-61567210D01*
X77166742Y-61562941D01*
X77212320Y-61435137D01*
X77265258Y-61562941D01*
X77265258Y-61562941D01*
G37*
X77265258Y-61562941D02*
X77280183Y-61567210D01*
X77303376Y-61623204D01*
X77695796Y-62015624D01*
X77751790Y-62038817D01*
X77756059Y-62053742D01*
X77883863Y-62099320D01*
X77756059Y-62152258D01*
X77751790Y-62167183D01*
X77695796Y-62190376D01*
X77303376Y-62582796D01*
X77280183Y-62638790D01*
X77265258Y-62643059D01*
X77219680Y-62770863D01*
X77166742Y-62643059D01*
X77151817Y-62638790D01*
X77128624Y-62582796D01*
X76736204Y-62190376D01*
X76680210Y-62167183D01*
X76675941Y-62152258D01*
X76548137Y-62106680D01*
X76675941Y-62053742D01*
X76680210Y-62038817D01*
X76736204Y-62015624D01*
X77128624Y-61623204D01*
X77151817Y-61567210D01*
X77166742Y-61562941D01*
X77212320Y-61435137D01*
X77265258Y-61562941D01*
G36*
X97585258Y-61562941D02*
X97600183Y-61567210D01*
X97623376Y-61623204D01*
X98015796Y-62015624D01*
X98071790Y-62038817D01*
X98076059Y-62053742D01*
X98203863Y-62099320D01*
X98076059Y-62152258D01*
X98071790Y-62167183D01*
X98015796Y-62190376D01*
X97623376Y-62582796D01*
X97600183Y-62638790D01*
X97585258Y-62643059D01*
X97539680Y-62770863D01*
X97486742Y-62643059D01*
X97471817Y-62638790D01*
X97448624Y-62582796D01*
X97056204Y-62190376D01*
X97000210Y-62167183D01*
X96995941Y-62152258D01*
X96868137Y-62106680D01*
X96995941Y-62053742D01*
X97000210Y-62038817D01*
X97056204Y-62015624D01*
X97448624Y-61623204D01*
X97471817Y-61567210D01*
X97486742Y-61562941D01*
X97532320Y-61435137D01*
X97585258Y-61562941D01*
X97585258Y-61562941D01*
G37*
X97585258Y-61562941D02*
X97600183Y-61567210D01*
X97623376Y-61623204D01*
X98015796Y-62015624D01*
X98071790Y-62038817D01*
X98076059Y-62053742D01*
X98203863Y-62099320D01*
X98076059Y-62152258D01*
X98071790Y-62167183D01*
X98015796Y-62190376D01*
X97623376Y-62582796D01*
X97600183Y-62638790D01*
X97585258Y-62643059D01*
X97539680Y-62770863D01*
X97486742Y-62643059D01*
X97471817Y-62638790D01*
X97448624Y-62582796D01*
X97056204Y-62190376D01*
X97000210Y-62167183D01*
X96995941Y-62152258D01*
X96868137Y-62106680D01*
X96995941Y-62053742D01*
X97000210Y-62038817D01*
X97056204Y-62015624D01*
X97448624Y-61623204D01*
X97471817Y-61567210D01*
X97486742Y-61562941D01*
X97532320Y-61435137D01*
X97585258Y-61562941D01*
G36*
X95045258Y-61562941D02*
X95060183Y-61567210D01*
X95083376Y-61623204D01*
X95475796Y-62015624D01*
X95531790Y-62038817D01*
X95536059Y-62053742D01*
X95663863Y-62099320D01*
X95536059Y-62152258D01*
X95531790Y-62167183D01*
X95475796Y-62190376D01*
X95083376Y-62582796D01*
X95060183Y-62638790D01*
X95045258Y-62643059D01*
X94999680Y-62770863D01*
X94946742Y-62643059D01*
X94931817Y-62638790D01*
X94908624Y-62582796D01*
X94516204Y-62190376D01*
X94460210Y-62167183D01*
X94455941Y-62152258D01*
X94328137Y-62106680D01*
X94455941Y-62053742D01*
X94460210Y-62038817D01*
X94516204Y-62015624D01*
X94908624Y-61623204D01*
X94931817Y-61567210D01*
X94946742Y-61562941D01*
X94992320Y-61435137D01*
X95045258Y-61562941D01*
X95045258Y-61562941D01*
G37*
X95045258Y-61562941D02*
X95060183Y-61567210D01*
X95083376Y-61623204D01*
X95475796Y-62015624D01*
X95531790Y-62038817D01*
X95536059Y-62053742D01*
X95663863Y-62099320D01*
X95536059Y-62152258D01*
X95531790Y-62167183D01*
X95475796Y-62190376D01*
X95083376Y-62582796D01*
X95060183Y-62638790D01*
X95045258Y-62643059D01*
X94999680Y-62770863D01*
X94946742Y-62643059D01*
X94931817Y-62638790D01*
X94908624Y-62582796D01*
X94516204Y-62190376D01*
X94460210Y-62167183D01*
X94455941Y-62152258D01*
X94328137Y-62106680D01*
X94455941Y-62053742D01*
X94460210Y-62038817D01*
X94516204Y-62015624D01*
X94908624Y-61623204D01*
X94931817Y-61567210D01*
X94946742Y-61562941D01*
X94992320Y-61435137D01*
X95045258Y-61562941D01*
G36*
X92505258Y-61562941D02*
X92520183Y-61567210D01*
X92543376Y-61623204D01*
X92935796Y-62015624D01*
X92991790Y-62038817D01*
X92996059Y-62053742D01*
X93123863Y-62099320D01*
X92996059Y-62152258D01*
X92991790Y-62167183D01*
X92935796Y-62190376D01*
X92543376Y-62582796D01*
X92520183Y-62638790D01*
X92505258Y-62643059D01*
X92459680Y-62770863D01*
X92406742Y-62643059D01*
X92391817Y-62638790D01*
X92368624Y-62582796D01*
X91976204Y-62190376D01*
X91920210Y-62167183D01*
X91915941Y-62152258D01*
X91788137Y-62106680D01*
X91915941Y-62053742D01*
X91920210Y-62038817D01*
X91976204Y-62015624D01*
X92368624Y-61623204D01*
X92391817Y-61567210D01*
X92406742Y-61562941D01*
X92452320Y-61435137D01*
X92505258Y-61562941D01*
X92505258Y-61562941D01*
G37*
X92505258Y-61562941D02*
X92520183Y-61567210D01*
X92543376Y-61623204D01*
X92935796Y-62015624D01*
X92991790Y-62038817D01*
X92996059Y-62053742D01*
X93123863Y-62099320D01*
X92996059Y-62152258D01*
X92991790Y-62167183D01*
X92935796Y-62190376D01*
X92543376Y-62582796D01*
X92520183Y-62638790D01*
X92505258Y-62643059D01*
X92459680Y-62770863D01*
X92406742Y-62643059D01*
X92391817Y-62638790D01*
X92368624Y-62582796D01*
X91976204Y-62190376D01*
X91920210Y-62167183D01*
X91915941Y-62152258D01*
X91788137Y-62106680D01*
X91915941Y-62053742D01*
X91920210Y-62038817D01*
X91976204Y-62015624D01*
X92368624Y-61623204D01*
X92391817Y-61567210D01*
X92406742Y-61562941D01*
X92452320Y-61435137D01*
X92505258Y-61562941D01*
G36*
X89965258Y-61562941D02*
X89980183Y-61567210D01*
X90003376Y-61623204D01*
X90395796Y-62015624D01*
X90451790Y-62038817D01*
X90456059Y-62053742D01*
X90583863Y-62099320D01*
X90456059Y-62152258D01*
X90451790Y-62167183D01*
X90395796Y-62190376D01*
X90003376Y-62582796D01*
X89980183Y-62638790D01*
X89965258Y-62643059D01*
X89919680Y-62770863D01*
X89866742Y-62643059D01*
X89851817Y-62638790D01*
X89828624Y-62582796D01*
X89436204Y-62190376D01*
X89380210Y-62167183D01*
X89375941Y-62152258D01*
X89248137Y-62106680D01*
X89375941Y-62053742D01*
X89380210Y-62038817D01*
X89436204Y-62015624D01*
X89828624Y-61623204D01*
X89851817Y-61567210D01*
X89866742Y-61562941D01*
X89912320Y-61435137D01*
X89965258Y-61562941D01*
X89965258Y-61562941D01*
G37*
X89965258Y-61562941D02*
X89980183Y-61567210D01*
X90003376Y-61623204D01*
X90395796Y-62015624D01*
X90451790Y-62038817D01*
X90456059Y-62053742D01*
X90583863Y-62099320D01*
X90456059Y-62152258D01*
X90451790Y-62167183D01*
X90395796Y-62190376D01*
X90003376Y-62582796D01*
X89980183Y-62638790D01*
X89965258Y-62643059D01*
X89919680Y-62770863D01*
X89866742Y-62643059D01*
X89851817Y-62638790D01*
X89828624Y-62582796D01*
X89436204Y-62190376D01*
X89380210Y-62167183D01*
X89375941Y-62152258D01*
X89248137Y-62106680D01*
X89375941Y-62053742D01*
X89380210Y-62038817D01*
X89436204Y-62015624D01*
X89828624Y-61623204D01*
X89851817Y-61567210D01*
X89866742Y-61562941D01*
X89912320Y-61435137D01*
X89965258Y-61562941D01*
G36*
X87425258Y-61562941D02*
X87440183Y-61567210D01*
X87463376Y-61623204D01*
X87855796Y-62015624D01*
X87911790Y-62038817D01*
X87916059Y-62053742D01*
X88043863Y-62099320D01*
X87916059Y-62152258D01*
X87911790Y-62167183D01*
X87855796Y-62190376D01*
X87463376Y-62582796D01*
X87440183Y-62638790D01*
X87425258Y-62643059D01*
X87379680Y-62770863D01*
X87326742Y-62643059D01*
X87311817Y-62638790D01*
X87288624Y-62582796D01*
X86896204Y-62190376D01*
X86840210Y-62167183D01*
X86835941Y-62152258D01*
X86708137Y-62106680D01*
X86835941Y-62053742D01*
X86840210Y-62038817D01*
X86896204Y-62015624D01*
X87288624Y-61623204D01*
X87311817Y-61567210D01*
X87326742Y-61562941D01*
X87372320Y-61435137D01*
X87425258Y-61562941D01*
X87425258Y-61562941D01*
G37*
X87425258Y-61562941D02*
X87440183Y-61567210D01*
X87463376Y-61623204D01*
X87855796Y-62015624D01*
X87911790Y-62038817D01*
X87916059Y-62053742D01*
X88043863Y-62099320D01*
X87916059Y-62152258D01*
X87911790Y-62167183D01*
X87855796Y-62190376D01*
X87463376Y-62582796D01*
X87440183Y-62638790D01*
X87425258Y-62643059D01*
X87379680Y-62770863D01*
X87326742Y-62643059D01*
X87311817Y-62638790D01*
X87288624Y-62582796D01*
X86896204Y-62190376D01*
X86840210Y-62167183D01*
X86835941Y-62152258D01*
X86708137Y-62106680D01*
X86835941Y-62053742D01*
X86840210Y-62038817D01*
X86896204Y-62015624D01*
X87288624Y-61623204D01*
X87311817Y-61567210D01*
X87326742Y-61562941D01*
X87372320Y-61435137D01*
X87425258Y-61562941D01*
G36*
X84885258Y-61562941D02*
X84900183Y-61567210D01*
X84923376Y-61623204D01*
X85315796Y-62015624D01*
X85371790Y-62038817D01*
X85376059Y-62053742D01*
X85503863Y-62099320D01*
X85376059Y-62152258D01*
X85371790Y-62167183D01*
X85315796Y-62190376D01*
X84923376Y-62582796D01*
X84900183Y-62638790D01*
X84885258Y-62643059D01*
X84839680Y-62770863D01*
X84786742Y-62643059D01*
X84771817Y-62638790D01*
X84748624Y-62582796D01*
X84356204Y-62190376D01*
X84300210Y-62167183D01*
X84295941Y-62152258D01*
X84168137Y-62106680D01*
X84295941Y-62053742D01*
X84300210Y-62038817D01*
X84356204Y-62015624D01*
X84748624Y-61623204D01*
X84771817Y-61567210D01*
X84786742Y-61562941D01*
X84832320Y-61435137D01*
X84885258Y-61562941D01*
X84885258Y-61562941D01*
G37*
X84885258Y-61562941D02*
X84900183Y-61567210D01*
X84923376Y-61623204D01*
X85315796Y-62015624D01*
X85371790Y-62038817D01*
X85376059Y-62053742D01*
X85503863Y-62099320D01*
X85376059Y-62152258D01*
X85371790Y-62167183D01*
X85315796Y-62190376D01*
X84923376Y-62582796D01*
X84900183Y-62638790D01*
X84885258Y-62643059D01*
X84839680Y-62770863D01*
X84786742Y-62643059D01*
X84771817Y-62638790D01*
X84748624Y-62582796D01*
X84356204Y-62190376D01*
X84300210Y-62167183D01*
X84295941Y-62152258D01*
X84168137Y-62106680D01*
X84295941Y-62053742D01*
X84300210Y-62038817D01*
X84356204Y-62015624D01*
X84748624Y-61623204D01*
X84771817Y-61567210D01*
X84786742Y-61562941D01*
X84832320Y-61435137D01*
X84885258Y-61562941D01*
G36*
X82345258Y-61562941D02*
X82360183Y-61567210D01*
X82383376Y-61623204D01*
X82775796Y-62015624D01*
X82831790Y-62038817D01*
X82836059Y-62053742D01*
X82963863Y-62099320D01*
X82836059Y-62152258D01*
X82831790Y-62167183D01*
X82775796Y-62190376D01*
X82383376Y-62582796D01*
X82360183Y-62638790D01*
X82345258Y-62643059D01*
X82299680Y-62770863D01*
X82246742Y-62643059D01*
X82231817Y-62638790D01*
X82208624Y-62582796D01*
X81816204Y-62190376D01*
X81760210Y-62167183D01*
X81755941Y-62152258D01*
X81628137Y-62106680D01*
X81755941Y-62053742D01*
X81760210Y-62038817D01*
X81816204Y-62015624D01*
X82208624Y-61623204D01*
X82231817Y-61567210D01*
X82246742Y-61562941D01*
X82292320Y-61435137D01*
X82345258Y-61562941D01*
X82345258Y-61562941D01*
G37*
X82345258Y-61562941D02*
X82360183Y-61567210D01*
X82383376Y-61623204D01*
X82775796Y-62015624D01*
X82831790Y-62038817D01*
X82836059Y-62053742D01*
X82963863Y-62099320D01*
X82836059Y-62152258D01*
X82831790Y-62167183D01*
X82775796Y-62190376D01*
X82383376Y-62582796D01*
X82360183Y-62638790D01*
X82345258Y-62643059D01*
X82299680Y-62770863D01*
X82246742Y-62643059D01*
X82231817Y-62638790D01*
X82208624Y-62582796D01*
X81816204Y-62190376D01*
X81760210Y-62167183D01*
X81755941Y-62152258D01*
X81628137Y-62106680D01*
X81755941Y-62053742D01*
X81760210Y-62038817D01*
X81816204Y-62015624D01*
X82208624Y-61623204D01*
X82231817Y-61567210D01*
X82246742Y-61562941D01*
X82292320Y-61435137D01*
X82345258Y-61562941D01*
G36*
X79805258Y-61562941D02*
X79820183Y-61567210D01*
X79843376Y-61623204D01*
X80235796Y-62015624D01*
X80291790Y-62038817D01*
X80296059Y-62053742D01*
X80423863Y-62099320D01*
X80296059Y-62152258D01*
X80291790Y-62167183D01*
X80235796Y-62190376D01*
X79843376Y-62582796D01*
X79820183Y-62638790D01*
X79805258Y-62643059D01*
X79759680Y-62770863D01*
X79706742Y-62643059D01*
X79691817Y-62638790D01*
X79668624Y-62582796D01*
X79276204Y-62190376D01*
X79220210Y-62167183D01*
X79215941Y-62152258D01*
X79088137Y-62106680D01*
X79215941Y-62053742D01*
X79220210Y-62038817D01*
X79276204Y-62015624D01*
X79668624Y-61623204D01*
X79691817Y-61567210D01*
X79706742Y-61562941D01*
X79752320Y-61435137D01*
X79805258Y-61562941D01*
X79805258Y-61562941D01*
G37*
X79805258Y-61562941D02*
X79820183Y-61567210D01*
X79843376Y-61623204D01*
X80235796Y-62015624D01*
X80291790Y-62038817D01*
X80296059Y-62053742D01*
X80423863Y-62099320D01*
X80296059Y-62152258D01*
X80291790Y-62167183D01*
X80235796Y-62190376D01*
X79843376Y-62582796D01*
X79820183Y-62638790D01*
X79805258Y-62643059D01*
X79759680Y-62770863D01*
X79706742Y-62643059D01*
X79691817Y-62638790D01*
X79668624Y-62582796D01*
X79276204Y-62190376D01*
X79220210Y-62167183D01*
X79215941Y-62152258D01*
X79088137Y-62106680D01*
X79215941Y-62053742D01*
X79220210Y-62038817D01*
X79276204Y-62015624D01*
X79668624Y-61623204D01*
X79691817Y-61567210D01*
X79706742Y-61562941D01*
X79752320Y-61435137D01*
X79805258Y-61562941D01*
G36*
X143305258Y-61562941D02*
X143320183Y-61567210D01*
X143343376Y-61623204D01*
X143735796Y-62015624D01*
X143791790Y-62038817D01*
X143796059Y-62053742D01*
X143923863Y-62099320D01*
X143796059Y-62152258D01*
X143791790Y-62167183D01*
X143735796Y-62190376D01*
X143343376Y-62582796D01*
X143320183Y-62638790D01*
X143305258Y-62643059D01*
X143259680Y-62770863D01*
X143206742Y-62643059D01*
X143191817Y-62638790D01*
X143168624Y-62582796D01*
X142776204Y-62190376D01*
X142720210Y-62167183D01*
X142715941Y-62152258D01*
X142588137Y-62106680D01*
X142715941Y-62053742D01*
X142720210Y-62038817D01*
X142776204Y-62015624D01*
X143168624Y-61623204D01*
X143191817Y-61567210D01*
X143206742Y-61562941D01*
X143252320Y-61435137D01*
X143305258Y-61562941D01*
X143305258Y-61562941D01*
G37*
X143305258Y-61562941D02*
X143320183Y-61567210D01*
X143343376Y-61623204D01*
X143735796Y-62015624D01*
X143791790Y-62038817D01*
X143796059Y-62053742D01*
X143923863Y-62099320D01*
X143796059Y-62152258D01*
X143791790Y-62167183D01*
X143735796Y-62190376D01*
X143343376Y-62582796D01*
X143320183Y-62638790D01*
X143305258Y-62643059D01*
X143259680Y-62770863D01*
X143206742Y-62643059D01*
X143191817Y-62638790D01*
X143168624Y-62582796D01*
X142776204Y-62190376D01*
X142720210Y-62167183D01*
X142715941Y-62152258D01*
X142588137Y-62106680D01*
X142715941Y-62053742D01*
X142720210Y-62038817D01*
X142776204Y-62015624D01*
X143168624Y-61623204D01*
X143191817Y-61567210D01*
X143206742Y-61562941D01*
X143252320Y-61435137D01*
X143305258Y-61562941D01*
M02*
